<svg xmlns="http://www.w3.org/2000/svg" width="177.396" height="33.99" viewBox="0 0 177.396 33.99">
  <g id="Logo" transform="translate(-34.202 -38.01)">
    <g id="_ffffffff" data-name="#ffffffff" transform="translate(34.202 38.01)">
      <path id="Path_981" data-name="Path 981" d="M1124.032,38.071a1.512,1.512,0,0,1,1.394.3,1.416,1.416,0,0,1,.463,1.039c0,2.551-.006,5.1,0,7.654q5.228.009,10.456,0a3.5,3.5,0,0,1,1.4.154,1.3,1.3,0,0,1,.242,2.064,1.216,1.216,0,0,1-.871.313c-3.739,0-7.479,0-11.219,0-.034,1.789,0,3.58-.015,5.369v6.89a13.98,13.98,0,0,0,.06,1.9,5.735,5.735,0,0,0,5.9,5.091c1.9,0,3.8,0,5.7,0a2.671,2.671,0,0,1,1.217.172,1.32,1.32,0,0,1,.688,1.21,1.3,1.3,0,0,1-.728,1.318,2.214,2.214,0,0,1-1.03.132c-2.137,0-4.274,0-6.41,0a8.62,8.62,0,0,1-4.6-1.554,8,8,0,0,1-2.1-2.13,9.263,9.263,0,0,1-1.518-4.795q-.01-11.607,0-23.215c0-.239-.011-.479.009-.718A1.408,1.408,0,0,1,1124.032,38.071Z" transform="translate(-1046.452 -38.01)" fill="#b6baa2"/>
      <path id="Path_982" data-name="Path 982" d="M120.776,40.527a1.688,1.688,0,0,1,.238-.021q11.258,0,22.516,0a1.772,1.772,0,0,1,1.427.72,1.724,1.724,0,0,1-.792,2.616,3.587,3.587,0,0,1-1.341.129H121.8a3.538,3.538,0,0,1-1.335-.129,1.713,1.713,0,0,1-.66-2.761A1.794,1.794,0,0,1,120.776,40.527Z" transform="translate(-113.363 -40.329)" fill="#b6baa2"/>
      <path id="Path_983" data-name="Path 983" d="M35.706,145.5a6.8,6.8,0,0,1,.8-.018q5.385,0,10.77,0A1.777,1.777,0,0,1,49,147.21a1.754,1.754,0,0,1-1.725,1.741q-5.668.005-11.337,0a1.731,1.731,0,0,1-.232-3.448Z" transform="translate(-34.202 -137.92)" fill="#b6baa2"/>
      <path id="Path_984" data-name="Path 984" d="M764.259,149.7a12.869,12.869,0,0,1,2.208-.043,10.349,10.349,0,0,1,7,2.763,10.885,10.885,0,0,1,1.032,1.15,1.452,1.452,0,0,1,.453,1.277,1.52,1.52,0,0,1-2.044.874c-.435-.233-.663-.7-1.017-1.021a7.379,7.379,0,0,0-2.518-1.775,8.825,8.825,0,0,0-2.828-.659,9.9,9.9,0,0,0-3.7.361,5.371,5.371,0,0,0-2.047,1.131,4.265,4.265,0,0,0-.9,1.066,3.666,3.666,0,0,0-.233,2.956,3.719,3.719,0,0,0,1.411,1.758,9.972,9.972,0,0,0,3.349,1.3c1.487.365,3.024.469,4.508.853a10.421,10.421,0,0,1,5.048,2.531,6.041,6.041,0,0,1,1.729,3.437,5.926,5.926,0,0,1-.471,3.349,6.762,6.762,0,0,1-1.284,1.809,10.667,10.667,0,0,1-5.59,2.686,14.635,14.635,0,0,1-3.311.231,15.046,15.046,0,0,1-5.945-1.572,9.7,9.7,0,0,1-2.488-1.868,1.784,1.784,0,0,1-.712-1.265,1.2,1.2,0,0,1,.564-1.055,1.508,1.508,0,0,1,1.238-.172c.467.106.707.554,1.014.875a7.414,7.414,0,0,0,2.127,1.475,10.7,10.7,0,0,0,3.647.873,16.66,16.66,0,0,0,3.386-.051,7.234,7.234,0,0,0,3.508-1.239,4.23,4.23,0,0,0,1.5-2.016,3.659,3.659,0,0,0-.347-3.148,5.088,5.088,0,0,0-1.88-1.567,16.737,16.737,0,0,0-5.255-1.412,18.9,18.9,0,0,1-3.861-1.018,9.171,9.171,0,0,1-3.08-1.908,5.285,5.285,0,0,1-1.655-3.283,6.415,6.415,0,0,1,.067-1.831,6,6,0,0,1,1.705-3.44A9.441,9.441,0,0,1,764.259,149.7Z" transform="translate(-705.136 -141.762)" fill="#b6baa2"/>
      <path id="Path_985" data-name="Path 985" d="M1414.6,154a12.836,12.836,0,0,1,9.379-4.4,9.962,9.962,0,0,1,1.689.025,12.928,12.928,0,0,1,7.53,3.069c.2.2.414.382.629.564a13.135,13.135,0,0,1,2.4,3.369,13.3,13.3,0,0,1,1.376,5.7c0,3.868,0,7.737,0,11.6a1.592,1.592,0,0,1-.286.965,1.457,1.457,0,0,1-2.322-.164,1.967,1.967,0,0,1-.205-1q0-1.659,0-3.319a16.123,16.123,0,0,1-1.242,1.56,11.093,11.093,0,0,1-1.238,1.148,12.67,12.67,0,0,1-8.539,2.562,14.149,14.149,0,0,1-4.254-.929,12.474,12.474,0,0,1-5.933-4.842,13.413,13.413,0,0,1-2.016-8.7,12.827,12.827,0,0,1,3.027-7.2m9.179-1.791a10.07,10.07,0,0,0-8.326,5.455,10.3,10.3,0,0,0-1.153,4.439,5.18,5.18,0,0,0,.009,1.208,10.144,10.144,0,0,0,1.912,5.587,9.774,9.774,0,0,0,3.827,3.2,10.37,10.37,0,0,0,4.994.959,9.882,9.882,0,0,0,7.335-3.468,11.1,11.1,0,0,0-.827-14.763,10.294,10.294,0,0,0-2.974-1.888A10.684,10.684,0,0,0,1423.782,152.207Z" transform="translate(-1314.602 -141.713)" fill="#b6baa2"/>
      <path id="Path_986" data-name="Path 986" d="M2225.292,151.119a12.862,12.862,0,0,1,7.467-.39,11.14,11.14,0,0,1,5.055,2.824,11.892,11.892,0,0,1,2.776,4.342,14.431,14.431,0,0,1,.849,5.1,1.253,1.253,0,0,1-.369.88,2.059,2.059,0,0,1-1.371.361q-8.932,0-17.864,0c-.45,0-.9.015-1.349-.025a11.342,11.342,0,0,0,.922,3.922,9.952,9.952,0,0,0,1.761,2.672,9.545,9.545,0,0,0,5.694,2.865,11.346,11.346,0,0,0,6.361-1,7.562,7.562,0,0,0,.948-.54c.368-.236.675-.552,1.034-.8a1.519,1.519,0,0,1,1.092-.165,1.3,1.3,0,0,1,.94.884,1.231,1.231,0,0,1-.388,1.219,11.979,11.979,0,0,1-3.844,2.2,13.1,13.1,0,0,1-4.094.887,4.16,4.16,0,0,1-1.271-.006,12.3,12.3,0,0,1-7.48-2.778,9.091,9.091,0,0,1-1.154-1.1,12.95,12.95,0,0,1-3.3-7.924,11.831,11.831,0,0,1-.02-1.839,13.34,13.34,0,0,1,3.348-8.729,8.956,8.956,0,0,1,.972-.932,11.559,11.559,0,0,1,3.277-1.923m1.035,2.441a8.654,8.654,0,0,0-3.292,2.324,10.451,10.451,0,0,0-2.477,5.922q8.446.011,16.891,0a9.961,9.961,0,0,0,1.3-.036,11.893,11.893,0,0,0-.472-2.5,9.007,9.007,0,0,0-2.874-4.36,8.637,8.637,0,0,0-5.768-1.936A8.845,8.845,0,0,0,2226.328,153.559Z" transform="translate(-2064.046 -142.449)" fill="#b6baa2"/>
      <path id="Path_987" data-name="Path 987" d="M1866.5,153.61a5.923,5.923,0,0,1,1.376-.082h17.24a1.222,1.222,0,0,1,1.39,1.585,2.1,2.1,0,0,1-.593,1.008q-5.2,6.509-10.394,13.031c-.841,1.038-1.667,2.087-2.5,3.136q-1.394,1.735-2.782,3.475a7.054,7.054,0,0,0-.6.8c5.228.013,10.457,0,15.684.006a1.349,1.349,0,0,1,.884.3,1.613,1.613,0,0,1,.282,1.356,1.012,1.012,0,0,1-.54.723,2.5,2.5,0,0,1-1.051.112q-8.757,0-17.514,0a1.886,1.886,0,0,1-1.225-.228,1.27,1.27,0,0,1-.41-1.079,1.373,1.373,0,0,1,.211-.729c.732-.841,1.406-1.729,2.109-2.594,1.63-2.035,3.273-4.058,4.89-6.1,2.671-3.307,5.321-6.629,7.986-9.94.609-.78,1.256-1.531,1.844-2.327q-7.809-.005-15.618,0a1.547,1.547,0,0,1-1.116-.338,1.6,1.6,0,0,1-.234-1.418A.975.975,0,0,1,1866.5,153.61Z" transform="translate(-1736.892 -145.398)" fill="#b6baa2"/>
      <path id="Path_988" data-name="Path 988" d="M77.816,253.3a6.805,6.805,0,0,1,.951-.027h27.087a4.168,4.168,0,0,1,1.233.089,1.732,1.732,0,0,1,1.126,1.114,1.691,1.691,0,0,1-.2,1.493,1.731,1.731,0,0,1-1.457.779H78.7a3.218,3.218,0,0,1-1.267-.126,1.728,1.728,0,0,1,.384-3.321Z" transform="translate(-73.366 -238.126)" fill="#b6baa2"/>
      <path id="Path_989" data-name="Path 989" d="M344.64,362.4a6,6,0,0,1,.8-.023q5.349,0,10.7,0a1.767,1.767,0,0,1,1.669,1.244,1.744,1.744,0,0,1-.137,1.323,1.725,1.725,0,0,1-1.536.895q-5.666,0-11.332,0a1.75,1.75,0,0,1-1.541-1.027,1.962,1.962,0,0,1-.1-1.114A1.747,1.747,0,0,1,344.64,362.4Z" transform="translate(-321.397 -339.551)" fill="#b6baa2"/>
      <path id="Path_990" data-name="Path 990" d="M120.64,471.708a7.114,7.114,0,0,1,1.307-.063h20.684a9.073,9.073,0,0,1,1.334.05,1.735,1.735,0,0,1,1.308,1.376,1.935,1.935,0,0,1-.091.937,1.839,1.839,0,0,1-1.348,1.088,6.643,6.643,0,0,1-.99.024q-10.872,0-21.744,0a1.766,1.766,0,0,1-1.323-.648,1.71,1.71,0,0,1-.381-1.431A1.766,1.766,0,0,1,120.64,471.708Z" transform="translate(-113.38 -441.137)" fill="#b6baa2"/>
    </g>
  </g>
</svg>
