<svg id="like_1_" data-name="like (1)" xmlns="http://www.w3.org/2000/svg" width="47.08" height="52.402" viewBox="0 0 47.08 52.402">
  <g id="Group_86" data-name="Group 86" transform="translate(31.728)">
    <g id="Group_85" data-name="Group 85">
      <path id="Path_1088" data-name="Path 1088" d="M337.023,0A1.024,1.024,0,0,0,336,1.023V5.731a1.023,1.023,0,0,0,2.047,0V1.023A1.024,1.024,0,0,0,337.023,0Z" transform="translate(-336)" fill="#828f59"/>
    </g>
  </g>
  <g id="Group_88" data-name="Group 88" transform="translate(8.188 31.933)">
    <g id="Group_87" data-name="Group 87">
      <path id="Path_1089" data-name="Path 1089" d="M107.023,312a1.023,1.023,0,1,0,1.023,1.023A1.024,1.024,0,0,0,107.023,312Z" transform="translate(-106 -312)" fill="#828f59"/>
    </g>
  </g>
  <g id="Group_90" data-name="Group 90" transform="translate(0 10.849)">
    <g id="Group_89" data-name="Group 89">
      <path id="Path_1090" data-name="Path 1090" d="M73.08,125.037a4.1,4.1,0,0,0-4.094-4.094h-7.64a25.7,25.7,0,0,0,1.569-9.771A11.656,11.656,0,0,0,62.843,110a4.093,4.093,0,0,0-8.185.1v1.023c0,6.473-8.312,10.11-14.585,11.67a3.074,3.074,0,0,0-2.814-1.844H27.023A1.024,1.024,0,0,0,26,121.966V146.53a1.024,1.024,0,0,0,1.023,1.023H37.258a3.074,3.074,0,0,0,2.8-1.823q.779.2,1.447.375a33.2,33.2,0,0,0,10.329,1.447H62.845a4.092,4.092,0,0,0,3.4-6.37A4.106,4.106,0,0,0,68.3,135.04,4.093,4.093,0,0,0,70.34,128.9,4.1,4.1,0,0,0,73.08,125.037Zm-34.8,19.446a1.025,1.025,0,0,1-1.023,1.023H28.047V122.99h9.211a1.025,1.025,0,0,1,1.023,1.023Zm30.7-17.4H63.869a1.023,1.023,0,1,0,0,2.047h3.07a2.047,2.047,0,1,1,0,4.094H61.822a1.023,1.023,0,0,0,0,2.047h3.07a2.047,2.047,0,1,1,0,4.094H59.775a1.023,1.023,0,0,0,0,2.047h3.07a2.047,2.047,0,1,1,0,4.094H51.839a31.224,31.224,0,0,1-9.812-1.381q-.774-.2-1.7-.44V124.835c7.407-1.764,16.376-6.071,16.376-13.717v-1.023a2.047,2.047,0,0,1,4.094,0v0a24.025,24.025,0,0,1-1.671,10.849H55.681a1.023,1.023,0,0,0,0,2.047H68.986a2.047,2.047,0,1,1,0,4.094Z" transform="translate(-26 -106)" fill="#828f59"/>
    </g>
  </g>
  <g id="Group_92" data-name="Group 92" transform="translate(8.188 36.027)">
    <g id="Group_91" data-name="Group 91">
      <path id="Path_1091" data-name="Path 1091" d="M107.023,352A1.024,1.024,0,0,0,106,353.023v8.188a1.023,1.023,0,1,0,2.047,0v-8.188A1.024,1.024,0,0,0,107.023,352Z" transform="translate(-106 -352)" fill="#828f59"/>
    </g>
  </g>
  <g id="Group_94" data-name="Group 94" transform="translate(19.446 12.896)">
    <g id="Group_93" data-name="Group 93">
      <path id="Path_1092" data-name="Path 1092" d="M221.117,126h-4.094a1.023,1.023,0,0,0,0,2.047h4.094a1.023,1.023,0,0,0,0-2.047Z" transform="translate(-216 -126)" fill="#828f59"/>
    </g>
  </g>
  <g id="Group_96" data-name="Group 96" transform="translate(39.916 12.896)">
    <g id="Group_95" data-name="Group 95">
      <path id="Path_1093" data-name="Path 1093" d="M421.117,126h-4.094a1.023,1.023,0,1,0,0,2.047h4.094a1.023,1.023,0,1,0,0-2.047Z" transform="translate(-416 -126)" fill="#828f59"/>
    </g>
  </g>
  <g id="Group_98" data-name="Group 98" transform="translate(37.518 4.212)">
    <g id="Group_97" data-name="Group 97">
      <path id="Path_1094" data-name="Path 1094" d="M397.212,41.451a1.024,1.024,0,0,0-1.448,0l-2.894,2.894a1.024,1.024,0,0,0,1.448,1.448l2.894-2.894A1.024,1.024,0,0,0,397.212,41.451Z" transform="translate(-392.57 -41.151)" fill="#828f59"/>
    </g>
  </g>
  <g id="Group_100" data-name="Group 100" transform="translate(23.044 4.212)">
    <g id="Group_99" data-name="Group 99">
      <path id="Path_1095" data-name="Path 1095" d="M255.792,44.345,252.9,41.451A1.024,1.024,0,0,0,251.45,42.9l2.894,2.894a1.024,1.024,0,1,0,1.448-1.448Z" transform="translate(-251.15 -41.151)" fill="#828f59"/>
    </g>
  </g>
</svg>
