<svg xmlns="http://www.w3.org/2000/svg" width="40.991" height="52.356" viewBox="0 0 40.991 52.356">
  <g id="Group_110" data-name="Group 110" transform="translate(-1492.651 -2796.948)">
    <g id="outline" transform="translate(1492.651 2796.948)">
      <path id="Path_1096" data-name="Path 1096" d="M172.543,373.245h-.437v-2.623A2.626,2.626,0,0,0,169.484,368H157.245a2.626,2.626,0,0,0-2.622,2.623v2.623h-.437A2.188,2.188,0,0,0,152,375.43v5.682a.874.874,0,0,0,.874.874h20.98a.874.874,0,0,0,.874-.874V375.43A2.188,2.188,0,0,0,172.543,373.245Zm-16.172-2.623a.875.875,0,0,1,.874-.874h12.238a.875.875,0,0,1,.874.874v2.623H156.371Zm-2.623,9.616V378.49h4.479a.874.874,0,0,0,0-1.748h-4.479V375.43a.437.437,0,0,1,.437-.437h18.358a.437.437,0,0,1,.437.437v1.311H161.616a.874.874,0,1,0,0,1.748H172.98v1.748Z" transform="translate(-148.598 -329.631)" fill="#828f59"/>
      <path id="Path_1097" data-name="Path 1097" d="M160.836,51.891a3.475,3.475,0,0,0-1.6-.913,2.621,2.621,0,0,0-3.278-3.906l-9.3-8.2a2.62,2.62,0,0,0-3.176-4.1l-1.634-.98,1.681-1.681a.874.874,0,0,0,.207-.332l0-.01.8-2.408a3.5,3.5,0,0,0,4.549-5.287l-6.181-6.181a3.5,3.5,0,0,0-5.286,4.549l-2.408.8-.017.007a.869.869,0,0,0-.325.2l-7.418,7.418a.869.869,0,0,0-.205.328l-.006.014-.8,2.408a3.5,3.5,0,0,0-4.549,5.286l6.181,6.181a3.5,3.5,0,0,0,5.287-4.549l2.408-.8.025-.01a.874.874,0,0,0,.317-.2l1.681-1.681.98,1.633a2.62,2.62,0,0,0,4.1,3.176l8.2,9.3a2.621,2.621,0,0,0,3.906,3.278,3.5,3.5,0,1,0,5.858-3.341Zm-8.614-1.275L149.9,47.988l2.084-2.084,2.627,2.318Zm-4.636-5.255,1.775-1.775,1.313,1.159-1.929,1.929Zm-3.477-3.941,1.311-1.311,2.627,2.318-1.62,1.62Zm-.963-13.4-.618,1.854-5.417-5.417,1.854-.618ZM139.2,19.13a1.75,1.75,0,0,1,2.473,0l6.181,6.181a1.748,1.748,0,0,1-2.472,2.472L139.2,21.6a1.75,1.75,0,0,1,0-2.473ZM127.839,34.965l.618-1.854,5.417,5.417-1.854.618Zm3.945,8.89a1.75,1.75,0,0,1-2.473,0l-6.181-6.181A1.748,1.748,0,0,1,125.6,35.2l6.181,6.181a1.748,1.748,0,0,1,0,2.472Zm3.709-6.181-6.181-6.181,6.182-6.182,6.182,6.181Zm5.081-2.608,1.545.927-2.125,2.125-.927-1.545Zm-.136,6.317a.875.875,0,0,1,0-1.236l3.709-3.709a.874.874,0,1,1,1.236,1.237l-3.709,3.709a.875.875,0,0,1-1.236,0ZM152.8,53.745a.874.874,0,0,1,0-1.236l3.709-3.709a.874.874,0,1,1,1.236,1.236l-3.709,3.709A.875.875,0,0,1,152.8,53.745Zm6.8,1.854a1.748,1.748,0,1,1-2.474-2.471l0,0A1.748,1.748,0,1,1,159.6,55.6Z" transform="translate(-120.869 -16.869)" fill="#828f59"/>
      <path id="Path_1098" data-name="Path 1098" d="M161.747,323.493a.874.874,0,0,0,.781-1.265l-.874-1.748a.874.874,0,0,0-1.564.782l.874,1.748A.874.874,0,0,0,161.747,323.493Z" transform="translate(-155.722 -286.873)" fill="#828f59"/>
      <path id="Path_1099" data-name="Path 1099" d="M128.146,344.389a.874.874,0,0,0,.242,1.212l2.623,1.748a.874.874,0,1,0,.97-1.455l-2.623-1.748a.874.874,0,0,0-1.212.242Z" transform="translate(-127.22 -308.253)" fill="#828f59"/>
      <path id="Path_1100" data-name="Path 1100" d="M131.5,384.874a.874.874,0,0,0-.874-.874h-1.748a.874.874,0,1,0,0,1.748h1.748A.874.874,0,0,0,131.5,384.874Z" transform="translate(-127.221 -343.883)" fill="#828f59"/>
    </g>
  </g>
</svg>
