<svg xmlns="http://www.w3.org/2000/svg" width="52.047" height="52.046" viewBox="0 0 52.047 52.046">
  <g id="Group_112" data-name="Group 112" transform="translate(-1509.301 -3125.302)">
    <g id="money" transform="translate(1509.301 3125.302)">
      <g id="Group_74" data-name="Group 74" transform="translate(18.908 6.099)">
        <g id="Group_73" data-name="Group 73">
          <path id="Path_1082" data-name="Path 1082" d="M187.017,60a1.017,1.017,0,1,0,1.017,1.017A1.017,1.017,0,0,0,187.017,60Z" transform="translate(-186 -60)" fill="#828f59"/>
        </g>
      </g>
      <g id="Group_76" data-name="Group 76" transform="translate(22.909 8.132)">
        <g id="Group_75" data-name="Group 75">
          <path id="Path_1083" data-name="Path 1083" d="M228.475,86.1a1.017,1.017,0,1,1,0-2.033,1.632,1.632,0,0,1,1.1.531,1.017,1.017,0,0,0,1.414-1.461,3.927,3.927,0,0,0-1.5-.936V81.017a1.017,1.017,0,0,0-2.033,0v1.191a3.049,3.049,0,0,0,1.017,5.924,1.017,1.017,0,1,1,0,2.033,1.84,1.84,0,0,1-1.32-.769A1.017,1.017,0,0,0,225.6,90.7a4.215,4.215,0,0,0,1.86,1.324v1.186a1.017,1.017,0,0,0,2.033,0V92.024a3.049,3.049,0,0,0-1.017-5.924Z" transform="translate(-225.361 -80)" fill="#828f59"/>
        </g>
      </g>
      <g id="Group_78" data-name="Group 78" transform="translate(29.683 14.841)">
        <g id="Group_77" data-name="Group 77">
          <path id="Path_1084" data-name="Path 1084" d="M310.3,146a4.071,4.071,0,0,0-4.066,4.066v7.245a4.065,4.065,0,0,0-3.891,1.062l-6.817,6.817a5.047,5.047,0,0,0-1.49,3.6v5.982h-1.017A1.017,1.017,0,0,0,292,175.784v6.4a1.017,1.017,0,0,0,1.016,1.017h14.232a1.017,1.017,0,0,0,1.017-1.017v-6.4a1.017,1.017,0,0,0-1.017-1.017h-1.017v-.48a1.023,1.023,0,0,1,.3-.719l6.345-6.345a5.051,5.051,0,0,0,1.489-3.595V150.066A4.071,4.071,0,0,0,310.3,146Zm-4.066,35.172h-12.2V176.8h12.2Zm6.1-17.542a3.031,3.031,0,0,1-.894,2.157l-6.345,6.345a3.071,3.071,0,0,0-.893,2.156v.48h-8.132v-5.982a3.027,3.027,0,0,1,.894-2.157l6.818-6.818a2.03,2.03,0,0,1,2.79-.078l.017.015c.023.02.045.041.067.063a2.031,2.031,0,0,1,0,2.874l-5.051,5.051a1.017,1.017,0,1,0,1.438,1.438l5.051-5.051a4.063,4.063,0,0,0,.175-5.563v-8.494a2.033,2.033,0,1,1,4.066,0Z" transform="translate(-292 -146)" fill="#828f59"/>
        </g>
      </g>
      <g id="Group_80" data-name="Group 80" transform="translate(0 14.841)">
        <g id="Group_79" data-name="Group 79">
          <path id="Path_1085" data-name="Path 1085" d="M21.347,174.768H20.331v-5.982a5.047,5.047,0,0,0-1.489-3.595l-6.818-6.818a4.065,4.065,0,0,0-3.891-1.062v-7.245a4.066,4.066,0,0,0-8.132,0V163.63a5.051,5.051,0,0,0,1.489,3.595l6.345,6.345a1.023,1.023,0,0,1,.3.719v.48H7.116A1.017,1.017,0,0,0,6.1,175.784v6.4a1.017,1.017,0,0,0,1.017,1.017H21.347a1.017,1.017,0,0,0,1.017-1.017v-6.4A1.017,1.017,0,0,0,21.347,174.768ZM2.927,165.787a3.031,3.031,0,0,1-.894-2.157V150.066a2.033,2.033,0,1,1,4.066,0v8.494a4.063,4.063,0,0,0,.175,5.563l5.083,5.083a1.017,1.017,0,0,0,1.438-1.438l-5.083-5.083a2.031,2.031,0,0,1,0-2.874c.022-.022.044-.043.067-.063l.017-.015a2.03,2.03,0,0,1,2.79.078l6.818,6.818a3.027,3.027,0,0,1,.893,2.156v5.982H10.165v-.48a3.07,3.07,0,0,0-.893-2.156Zm17.4,15.385H8.132V176.8h12.2Z" transform="translate(0 -146)" fill="#828f59"/>
        </g>
      </g>
      <g id="Group_82" data-name="Group 82" transform="translate(10.775)">
        <g id="Group_81" data-name="Group 81">
          <path id="Path_1086" data-name="Path 1086" d="M121.248,0A15.248,15.248,0,1,0,136.5,15.248,15.265,15.265,0,0,0,121.248,0Zm0,28.463a13.215,13.215,0,1,1,13.215-13.215A13.23,13.23,0,0,1,121.248,28.463Z" transform="translate(-106)" fill="#828f59"/>
        </g>
      </g>
      <g id="Group_84" data-name="Group 84" transform="translate(14.841 4.069)">
        <g id="Group_83" data-name="Group 83">
          <path id="Path_1087" data-name="Path 1087" d="M164.2,42.505a11.259,11.259,0,0,0-9.5-2.21,1.016,1.016,0,1,0,.428,1.987,9.235,9.235,0,0,1,7.791,1.8,9.147,9.147,0,1,1-13.81,2.8,1.017,1.017,0,0,0-1.791-.961A11.183,11.183,0,1,0,164.2,42.505Z" transform="translate(-146 -40.031)" fill="#828f59"/>
        </g>
      </g>
    </g>
  </g>
</svg>
