<svg xmlns="http://www.w3.org/2000/svg" width="30.652" height="52.312" viewBox="0 0 30.652 52.312">
  <g id="Group_114" data-name="Group 114" transform="translate(-1497.547 -3385.957)">
    <g id="pills" transform="translate(1497.547 3385.957)">
      <g id="Group_70" data-name="Group 70" transform="translate(0 0)">
        <path id="Path_1069" data-name="Path 1069" d="M133.089,14.933l-.593-3.307a2.616,2.616,0,0,0,2.112-2.563V4.291A4.3,4.3,0,0,0,130.317,0H112.335a4.3,4.3,0,0,0-4.291,4.291V9.063a2.616,2.616,0,0,0,2.112,2.563l-.593,3.307A10.448,10.448,0,0,0,106,22.723v26.16a3.5,3.5,0,0,0,3.565,3.43h23.522a3.5,3.5,0,0,0,3.565-3.43V22.723A10.449,10.449,0,0,0,133.089,14.933Zm-25.046,8.811h26.565V45.16H108.043Zm2.043-19.453a2.25,2.25,0,0,1,2.248-2.248h17.982a2.25,2.25,0,0,1,2.248,2.248V9.063a.576.576,0,0,1-.568.568h-1.475V7.342a1.022,1.022,0,1,0-2.043,0v2.29h-2.043V7.342a1.022,1.022,0,1,0-2.043,0v2.29h-2.043V7.342a1.022,1.022,0,1,0-2.043,0v2.29h-2.043V7.342a1.022,1.022,0,0,0-2.043,0v2.29h-2.043V7.342a1.022,1.022,0,0,0-2.043,0v2.29h-1.475a.576.576,0,0,1-.568-.568Zm.8,12.2h5.841a1.022,1.022,0,1,0,0-2.043h-5l.5-2.772h18.206l.5,2.772h-5a1.022,1.022,0,0,0,0,2.043h5.842a8.487,8.487,0,0,1,2.777,5.21H108.11A8.487,8.487,0,0,1,110.886,16.491Zm22.2,33.778H109.565a1.46,1.46,0,0,1-1.521-1.386V47.2h26.565v1.679A1.46,1.46,0,0,1,133.087,50.269Z" transform="translate(-106 0)" fill="#828f59"/>
        <path id="Path_1070" data-name="Path 1070" d="M186.18,259.581a8.8,8.8,0,0,0-3.546-1.857,12.885,12.885,0,0,0,2.417-5.134,1.022,1.022,0,0,0-1.213-1.214,12.885,12.885,0,0,0-5.134,2.417,8.8,8.8,0,0,0-1.857-3.546,1.022,1.022,0,0,0-1.548,0,8.727,8.727,0,0,0-1.825,3.408,8.743,8.743,0,0,0-3.591-1.059,1.022,1.022,0,0,0-1.094,1.094,8.762,8.762,0,0,0,1.633,4.491,6.538,6.538,0,0,0-1.275.673,1.022,1.022,0,0,0-.347,1.3,5.555,5.555,0,0,0,3.118,2.915l-1.59,1.591a1.022,1.022,0,1,0,1.445,1.445l1.591-1.591a5.555,5.555,0,0,0,2.915,3.118,1.021,1.021,0,0,0,1.3-.347,6.546,6.546,0,0,0,.673-1.275,8.76,8.76,0,0,0,4.491,1.633,1.022,1.022,0,0,0,1.094-1.094,8.744,8.744,0,0,0-1.058-3.591,8.726,8.726,0,0,0,3.408-1.825,1.022,1.022,0,0,0,0-1.548Zm-5.221,1.617a1.022,1.022,0,0,0-.71,1.679,6.561,6.561,0,0,1,1.314,2.494,6.615,6.615,0,0,1-2.906-1.69c-.1-.1-.194-.2-.286-.3a1.022,1.022,0,0,0-1.788.675,3.361,3.361,0,0,1-.245,1.221,3.091,3.091,0,0,1-1.107-1.623,2.907,2.907,0,0,1-.056-1.225A1.022,1.022,0,0,0,174,261.252a2.91,2.91,0,0,1-1.225-.056,3.091,3.091,0,0,1-1.623-1.107,3.357,3.357,0,0,1,1.221-.245,1.022,1.022,0,0,0,.674-1.788c-.1-.092-.206-.188-.3-.286a6.615,6.615,0,0,1-1.69-2.906,6.56,6.56,0,0,1,2.494,1.314,1.022,1.022,0,0,0,1.679-.71,6.555,6.555,0,0,1,.844-2.792,6.533,6.533,0,0,1,.858,3.154,1.022,1.022,0,0,0,1.747.7,11.945,11.945,0,0,1,3.813-2.6,11.943,11.943,0,0,1-2.6,3.813,1.022,1.022,0,0,0,.7,1.747,6.532,6.532,0,0,1,3.154.858A6.557,6.557,0,0,1,180.959,261.2Z" transform="translate(-162.289 -224.361)" fill="#828f59"/>
        <path id="Path_1071" data-name="Path 1071" d="M247.019,143.444a1.022,1.022,0,1,0,0-2.043h0a1.022,1.022,0,0,0,0,2.043Z" transform="translate(-231.693 -126.954)" fill="#828f59"/>
      </g>
    </g>
  </g>
</svg>
