<svg id="quality" xmlns="http://www.w3.org/2000/svg" width="39.015" height="52.289" viewBox="0 0 39.015 52.289">
  <path id="Path_1072" data-name="Path 1072" d="M101.529,91.926a1.021,1.021,0,1,0-1.021-1.021A1.021,1.021,0,0,0,101.529,91.926Zm0,0" transform="translate(-90.294 -80.704)" fill="#828f59"/>
  <path id="Path_1073" data-name="Path 1073" d="M38.9,18.53a3.139,3.139,0,0,0-.69-3.945l-3.459-2.937A1.1,1.1,0,0,1,34.38,11L33.6,6.566a3.1,3.1,0,0,0-3.051-2.581H26.032a1.037,1.037,0,0,1-.666-.243l-3.459-3L21.9.735a3.076,3.076,0,0,0-3.99,0L17.9.743,14.449,3.736a1.041,1.041,0,0,1-.673.249H9.26A3.1,3.1,0,0,0,6.21,6.565l-.785,4.442a1.086,1.086,0,0,1-.365.641L1.6,14.585A3.138,3.138,0,0,0,.912,18.53L3.17,22.488a1.1,1.1,0,0,1,.128.734l-.784,4.5A3.122,3.122,0,0,0,4.5,31.2L8.744,32.76a1.028,1.028,0,0,1,.237.124L1.117,46.677a1.022,1.022,0,0,0,1.151,1.492l4.594-1.231,1.231,4.593a1.021,1.021,0,0,0,1.873.242l8.117-14.233L19.546,37a1.037,1.037,0,0,1,.714,0l1.574.58L30.544,51.8a1.022,1.022,0,0,0,1.857-.269l1.231-4.593,4.593,1.231a1.022,1.022,0,0,0,1.135-1.52L30.9,32.837a.993.993,0,0,1,.164-.077L35.3,31.2a3.12,3.12,0,0,0,1.989-3.473l-.784-4.5a1.1,1.1,0,0,1,.128-.734ZM9.422,48.6,8.57,45.423A1.021,1.021,0,0,0,7.319,44.7L4.1,45.563l6.114-10.722,1.339,2.347a3.08,3.08,0,0,0,3.556,1.44Zm26.86-3.07L33.175,44.7a1.021,1.021,0,0,0-1.251.722l-.88,3.284L24.9,38.683a3.074,3.074,0,0,0,3.348-1.494l1.407-2.467ZM34.863,21.476a3.149,3.149,0,0,0-.366,2.1l.784,4.5A1.079,1.079,0,0,1,34.6,29.28l-4.241,1.563a3.1,3.1,0,0,0-1.541,1.247.986.986,0,0,0-.107.174l-2.232,3.913a1.044,1.044,0,0,1-1.268.472l-4.244-1.564a3.083,3.083,0,0,0-2.125,0L14.6,36.649a1.044,1.044,0,0,1-1.269-.472l-2.1-3.682a1.023,1.023,0,0,0-.3-.509A3.1,3.1,0,0,0,9.45,30.843L5.208,29.279a1.081,1.081,0,0,1-.681-1.206l.784-4.5a3.147,3.147,0,0,0-.366-2.1L2.687,17.518a1.094,1.094,0,0,1,.237-1.376L6.383,13.2a3.134,3.134,0,0,0,1.054-1.845l.784-4.441a1.063,1.063,0,0,1,1.039-.891h4.516a3.09,3.09,0,0,0,2-.742L19.233,2.29a1.04,1.04,0,0,1,1.342,0l3.462,3a3.084,3.084,0,0,0,2,.735h4.515a1.063,1.063,0,0,1,1.039.892l.784,4.439A3.14,3.14,0,0,0,33.425,13.2l3.458,2.937a1.1,1.1,0,0,1,.238,1.376Zm0,0" transform="translate(-0.499 -0.001)" fill="#828f59"/>
  <path id="Path_1074" data-name="Path 1074" d="M73.784,59.746a13.2,13.2,0,0,0-5.08,1.007,1.021,1.021,0,1,0,.782,1.887,11.229,11.229,0,1,1-5.509,4.9,1.021,1.021,0,0,0-1.782-1,13.278,13.278,0,1,0,11.588-6.793Zm0,0" transform="translate(-54.38 -53.645)" fill="#828f59"/>
  <path id="Path_1075" data-name="Path 1075" d="M126.281,128.331l-.6,3.481a1.021,1.021,0,0,0,1.482,1.077l3.127-1.644,3.127,1.644a1.021,1.021,0,0,0,1.482-1.077l-.6-3.481,2.529-2.465a1.021,1.021,0,0,0-.566-1.742l-3.5-.508-1.563-3.167a1.021,1.021,0,0,0-1.832,0l-1.563,3.167-3.5.508a1.021,1.021,0,0,0-.566,1.742Zm2.357-2.771a1.022,1.022,0,0,0,.769-.559l.884-1.793.885,1.793a1.02,1.02,0,0,0,.769.559l1.979.288-1.432,1.4a1.022,1.022,0,0,0-.294.9l.338,1.971-1.77-.93a1.021,1.021,0,0,0-.95,0l-1.77.93.338-1.971a1.021,1.021,0,0,0-.294-.9l-1.432-1.4Zm0,0" transform="translate(-110.888 -107.637)" fill="#828f59"/>
</svg>
