<svg xmlns="http://www.w3.org/2000/svg" xmlns:xlink="http://www.w3.org/1999/xlink" width="57" height="57" viewBox="0 0 57 57">
  <defs>
    <clipPath id="clip-path">
      <path id="ic_quote_left" data-name="ic_quote left" d="M37.256,57c-3.626,0-6.566-3.477-6.566-7.764V20.725C30.712,9.289,38.548.026,48.221,0h2.19A2.439,2.439,0,0,1,52.6,2.587V7.764a2.438,2.438,0,0,1-2.19,2.609h-2.19c-4.835,0-8.756,4.635-8.756,10.351v1.3a4.265,4.265,0,0,0,.959,2.737A3.042,3.042,0,0,0,42.739,25.9h7.672C54.05,25.9,57,29.387,57,33.685V49.236C56.987,53.526,54.041,57,50.411,57ZM6.566,57C2.94,57,0,53.523,0,49.236V20.725C.022,9.289,7.858.026,17.535,0h2.187a2.437,2.437,0,0,1,2.19,2.587V7.764a2.435,2.435,0,0,1-2.19,2.609H17.535c-4.838,0-8.759,4.635-8.759,10.351v1.3A3.609,3.609,0,0,0,12.049,25.9h7.672c3.639,0,6.589,3.488,6.589,7.786V49.236C26.3,53.526,23.354,57,19.721,57Z" transform="translate(-0.363 -0.363)" fill="#828f59"/>
    </clipPath>
  </defs>
  <g id="_2._Icon_1._UI_16_Size_ic_quote_left" data-name="2. Icon / 1. UI / 16 Size / ic_quote left" transform="translate(0.23 0.23)" opacity="0.1">
    <g id="Group_1" data-name="Group 1" transform="translate(0.133 0.133)">
      <path id="ic_quote_left-2" data-name="ic_quote left" d="M37.256,57c-3.626,0-6.566-3.477-6.566-7.764V20.725C30.712,9.289,38.548.026,48.221,0h2.19A2.439,2.439,0,0,1,52.6,2.587V7.764a2.438,2.438,0,0,1-2.19,2.609h-2.19c-4.835,0-8.756,4.635-8.756,10.351v1.3a4.265,4.265,0,0,0,.959,2.737A3.042,3.042,0,0,0,42.739,25.9h7.672C54.05,25.9,57,29.387,57,33.685V49.236C56.987,53.526,54.041,57,50.411,57ZM6.566,57C2.94,57,0,53.523,0,49.236V20.725C.022,9.289,7.858.026,17.535,0h2.187a2.437,2.437,0,0,1,2.19,2.587V7.764a2.435,2.435,0,0,1-2.19,2.609H17.535c-4.838,0-8.759,4.635-8.759,10.351v1.3A3.609,3.609,0,0,0,12.049,25.9h7.672c3.639,0,6.589,3.488,6.589,7.786V49.236C26.3,53.526,23.354,57,19.721,57Z" transform="translate(-0.363 -0.363)" fill="#828f59"/>
      <g id="Mask_Group_1" data-name="Mask Group 1" clip-path="url(#clip-path)">
        <g id="icon_color" data-name="icon color" transform="translate(0 -5.727)">
          <rect id="_3._Color_2._Gray_2._Gray_20_background" data-name="3. Color / 2. Gray / 2. Gray 20 background" width="58" height="67" transform="translate(-0.363 0.365)" fill="none"/>
          <rect id="Gray_20" data-name="Gray 20" width="58" height="67" transform="translate(-0.363 0.365)" fill="#828f59"/>
        </g>
      </g>
    </g>
  </g>
</svg>
