<svg xmlns="http://www.w3.org/2000/svg" width="74.695" height="81.393" viewBox="0 0 74.695 81.393">
  <path id="Union_1" data-name="Union 1" d="M18304.721-1833.319q-24.249,0-48.5,0a3.956,3.956,0,0,1-2.951-1.432,3.743,3.743,0,0,1-.852-3.163,3.906,3.906,0,0,1,2.775-2.944,11.842,11.842,0,0,1,2.328-.141c.2,0,.393,0,.586,0h46.143c.188,0,.379,0,.57,0a15.648,15.648,0,0,1,2.4.111,3.856,3.856,0,0,1,2.92,3.04,4.26,4.26,0,0,1-.2,2.071,4.1,4.1,0,0,1-3.008,2.4,7.644,7.644,0,0,1-1.117.069C18305.449-1833.3,18305.084-1833.318,18304.721-1833.319Zm-13.5-17a3.9,3.9,0,0,1-3.437-2.269,4.284,4.284,0,0,1-.221-2.461,3.883,3.883,0,0,1,3.287-2.869,13.187,13.187,0,0,1,1.791-.051q5.962,0,11.93,0t11.934,0a3.936,3.936,0,0,1,3.721,2.749,3.8,3.8,0,0,1-.3,2.92,3.851,3.851,0,0,1-3.426,1.978h-25.275Zm-43.148-17.206a3.91,3.91,0,0,1-2.457-3.562,3.918,3.918,0,0,1,3.314-3.776,9.233,9.233,0,0,1,1.551-.063l.57,0h60.42c.2,0,.393,0,.59-.006a6.812,6.812,0,0,1,2.162.2,3.845,3.845,0,0,1,2.51,2.458,3.708,3.708,0,0,1-.439,3.3,3.873,3.873,0,0,1-3.25,1.72H18250.9c-.187,0-.379,0-.568,0-.15,0-.3,0-.449,0A4.551,4.551,0,0,1,18248.07-1867.53Zm-5.2-16.492a4.02,4.02,0,0,1-3.85-3.367,3.959,3.959,0,0,1,3.332-4.25,9.233,9.233,0,0,1,1.322-.045l.469,0h10.295q6.861,0,13.729,0a3.95,3.95,0,0,1,3.84,3.809,3.9,3.9,0,0,1-3.85,3.848q-6.322,0-12.645,0T18242.873-1884.022Zm11.961-16.609a3.815,3.815,0,0,1-2.367-2.644,3.81,3.81,0,0,1,.893-3.454,4.01,4.01,0,0,1,2.178-1.221,3.49,3.49,0,0,1,.531-.048q25.11,0,50.223,0a3.957,3.957,0,0,1,3.184,1.588,3.736,3.736,0,0,1,.688,2.7,3.754,3.754,0,0,1-2.453,3.079,6.192,6.192,0,0,1-2.414.288c-.191,0-.387-.006-.578,0h-46.906c-.2,0-.389,0-.584,0-.15,0-.3,0-.453,0A5.062,5.062,0,0,1,18254.834-1900.63Z" transform="translate(1908 18320.391) rotate(-90)" fill="#fff"/>
</svg>
