<svg xmlns="http://www.w3.org/2000/svg" width="14.01" height="18.979" viewBox="0 0 14.01 18.979">
  <g id="bag" transform="translate(-28.121)">
    <g id="Group_2" data-name="Group 2" transform="translate(28.121)">
      <path id="Path_10" data-name="Path 10" d="M40.07,5.254h-.7V4.245a4.246,4.246,0,0,0-8.491,0V5.254h-.7a2.063,2.063,0,0,0-2.061,2.061v9.6a2.063,2.063,0,0,0,2.061,2.061H40.07a2.063,2.063,0,0,0,2.061-2.061v-9.6A2.063,2.063,0,0,0,40.07,5.254ZM32.225,4.245a2.9,2.9,0,0,1,5.8,0V5.254h-5.8Zm8.562,12.673a.717.717,0,0,1-.716.716H30.182a.717.717,0,0,1-.716-.716v-9.6a.717.717,0,0,1,.716-.716h.7v.943a1.028,1.028,0,1,0,1.344,0V6.6h5.8v.943a1.028,1.028,0,1,0,1.344,0V6.6h.7a.717.717,0,0,1,.716.716v9.6Z" transform="translate(-28.121)"/>
    </g>
  </g>
</svg>
