<svg xmlns="http://www.w3.org/2000/svg" width="44.592" height="52.289" viewBox="0 0 44.592 52.289">
  <g id="secure-shield" transform="translate(-0.001 0)">
    <g id="Group_72" data-name="Group 72" transform="translate(0.001 0)">
      <g id="Group_71" data-name="Group 71">
        <path id="Path_1076" data-name="Path 1076" d="M81.464,9.029A86.979,86.979,0,0,1,60.537.153a1.1,1.1,0,0,0-1.118,0A84.6,84.6,0,0,1,38.49,9.029a1.1,1.1,0,0,0-.809,1.061V21.328A32.332,32.332,0,0,0,47.5,44.951c4.822,4.725,10.439,7.338,12.478,7.338s7.656-2.613,12.478-7.338a32.332,32.332,0,0,0,9.818-23.622V10.09A1.1,1.1,0,0,0,81.464,9.029Zm-1.391,12.3a30.175,30.175,0,0,1-9.158,22.051c-4.742,4.646-9.812,6.709-10.938,6.709s-6.2-2.063-10.939-6.709a30.176,30.176,0,0,1-9.158-22.051v-10.4a86.624,86.624,0,0,0,20.1-8.55,89.366,89.366,0,0,0,20.1,8.55Z" transform="translate(-37.681 0)" fill="#828f59"/>
        <path id="Path_1077" data-name="Path 1077" d="M88.519,99.64a1.1,1.1,0,0,0-1.427-.62c-1.965.774-3.982,1.487-5.994,2.118a1.1,1.1,0,0,0-.771,1.049v4.248a1.1,1.1,0,0,0,2.2,0v-3.444c1.805-.584,3.609-1.23,5.372-1.925A1.1,1.1,0,0,0,88.519,99.64Z" transform="translate(-75.972 -88.838)" fill="#828f59"/>
        <path id="Path_1078" data-name="Path 1078" d="M171.3,88.412a1.1,1.1,0,0,0,.441-.092l.02-.009a1.1,1.1,0,1,0-.888-2.012l-.018.008a1.1,1.1,0,0,0,.445,2.106Z" transform="translate(-156.668 -77.401)" fill="#828f59"/>
        <path id="Path_1079" data-name="Path 1079" d="M311.6,345.707a1.1,1.1,0,0,0-1.522.319,26.771,26.771,0,0,1-3.161,3.948,28.093,28.093,0,0,1-3.155,2.807,1.1,1.1,0,1,0,1.334,1.749,30.317,30.317,0,0,0,3.4-3.027,28.943,28.943,0,0,0,3.421-4.274A1.1,1.1,0,0,0,311.6,345.707Z" transform="translate(-276.201 -310.241)" fill="#828f59"/>
        <path id="Path_1080" data-name="Path 1080" d="M277.176,432.117l-.063.037a1.1,1.1,0,1,0,1.1,1.9l.073-.043a1.1,1.1,0,1,0-1.112-1.9Z" transform="translate(-252.167 -387.851)" fill="#828f59"/>
        <path id="Path_1081" data-name="Path 1081" d="M128.925,162.71a3.577,3.577,0,0,0-5.058,5.058l6.495,6.495a3.578,3.578,0,0,0,5.058,0L148.978,160.7a3.577,3.577,0,0,0-5.059-5.058l-11.029,11.029Zm16.55-5.508a1.377,1.377,0,1,1,1.947,1.947l-13.558,13.558a1.378,1.378,0,0,1-1.947,0l-6.495-6.494a1.377,1.377,0,0,1,1.947-1.947l4.743,4.743a1.1,1.1,0,0,0,1.555,0Z" transform="translate(-114.126 -138.81)" fill="#828f59"/>
      </g>
    </g>
  </g>
</svg>
