<svg id="_ffffffff" data-name="#ffffffff" xmlns="http://www.w3.org/2000/svg" width="223.866" height="42.894" viewBox="0 0 223.866 42.894">
  <path id="Path_981" data-name="Path 981" d="M1124.288,38.087a1.908,1.908,0,0,1,1.76.384,1.787,1.787,0,0,1,.584,1.311c0,3.219-.007,6.439.005,9.659q6.6.012,13.195,0a4.423,4.423,0,0,1,1.769.194,1.638,1.638,0,0,1,.305,2.6,1.534,1.534,0,0,1-1.1.4c-4.719,0-9.438.005-14.157-.005-.042,2.258-.006,4.517-.019,6.775v8.7a17.632,17.632,0,0,0,.076,2.4,7.238,7.238,0,0,0,7.441,6.424c2.4,0,4.792,0,7.188,0a3.37,3.37,0,0,1,1.536.218,1.665,1.665,0,0,1,.868,1.527,1.635,1.635,0,0,1-.918,1.664,2.794,2.794,0,0,1-1.3.166c-2.7-.005-5.393,0-8.09-.005a10.878,10.878,0,0,1-5.8-1.961,10.092,10.092,0,0,1-2.653-2.688,11.69,11.69,0,0,1-1.916-6.051q-.012-14.648,0-29.3c0-.3-.014-.6.011-.906A1.776,1.776,0,0,1,1124.288,38.087Z" transform="translate(-1026.385 -38.01)" fill="#b6baa2"/>
  <path id="Path_982" data-name="Path 982" d="M121.148,40.532a2.129,2.129,0,0,1,.3-.027q14.207,0,28.415,0a2.237,2.237,0,0,1,1.8.908,2.176,2.176,0,0,1-1,3.3,4.526,4.526,0,0,1-1.692.163H122.435a4.465,4.465,0,0,1-1.684-.163,2.162,2.162,0,0,1-.833-3.485A2.264,2.264,0,0,1,121.148,40.532Z" transform="translate(-111.794 -40.283)" fill="#b6baa2"/>
  <path id="Path_983" data-name="Path 983" d="M36.1,145.508a8.583,8.583,0,0,1,1.014-.023q6.8,0,13.592,0a2.243,2.243,0,0,1,2.172,2.176,2.213,2.213,0,0,1-2.177,2.2q-7.153.007-14.307,0a2.185,2.185,0,0,1-.293-4.351Z" transform="translate(-34.202 -135.94)" fill="#b6baa2"/>
  <path id="Path_984" data-name="Path 984" d="M766.447,149.718a16.24,16.24,0,0,1,2.787-.054,13.06,13.06,0,0,1,8.838,3.487,13.732,13.732,0,0,1,1.3,1.451,1.832,1.832,0,0,1,.572,1.611,1.918,1.918,0,0,1-2.579,1.1c-.549-.294-.837-.878-1.284-1.288a9.312,9.312,0,0,0-3.178-2.24,11.137,11.137,0,0,0-3.569-.831,12.487,12.487,0,0,0-4.672.455,6.779,6.779,0,0,0-2.584,1.428,5.383,5.383,0,0,0-1.135,1.345,4.626,4.626,0,0,0-.294,3.731,4.693,4.693,0,0,0,1.781,2.219,12.584,12.584,0,0,0,4.227,1.638c1.877.461,3.817.592,5.688,1.076a13.151,13.151,0,0,1,6.37,3.193,7.624,7.624,0,0,1,2.182,4.337,7.477,7.477,0,0,1-.594,4.226,8.532,8.532,0,0,1-1.62,2.283,13.462,13.462,0,0,1-7.054,3.39,18.469,18.469,0,0,1-4.178.291,18.988,18.988,0,0,1-7.5-1.983,12.238,12.238,0,0,1-3.14-2.357,2.252,2.252,0,0,1-.9-1.6,1.514,1.514,0,0,1,.712-1.332,1.9,1.9,0,0,1,1.563-.218c.59.133.892.7,1.28,1.1a9.355,9.355,0,0,0,2.685,1.862,13.5,13.5,0,0,0,4.6,1.1,21.025,21.025,0,0,0,4.273-.065,9.129,9.129,0,0,0,4.427-1.563,5.337,5.337,0,0,0,1.892-2.544,4.618,4.618,0,0,0-.438-3.972,6.421,6.421,0,0,0-2.372-1.978,21.121,21.121,0,0,0-6.632-1.782,23.857,23.857,0,0,1-4.872-1.285,11.574,11.574,0,0,1-3.887-2.408,6.669,6.669,0,0,1-2.089-4.143,8.1,8.1,0,0,1,.084-2.31,7.568,7.568,0,0,1,2.152-4.341A11.915,11.915,0,0,1,766.447,149.718Z" transform="translate(-691.835 -139.705)" fill="#b6baa2"/>
  <path id="Path_985" data-name="Path 985" d="M1415.416,155.161a16.2,16.2,0,0,1,11.836-5.556,12.57,12.57,0,0,1,2.132.031,16.314,16.314,0,0,1,9.5,3.873c.255.247.522.482.794.712a16.578,16.578,0,0,1,3.034,4.252,16.788,16.788,0,0,1,1.737,7.194c0,4.881,0,9.763,0,14.645a2.009,2.009,0,0,1-.361,1.218,1.839,1.839,0,0,1-2.931-.207,2.48,2.48,0,0,1-.259-1.268q0-2.093,0-4.188a20.342,20.342,0,0,1-1.568,1.969,14,14,0,0,1-1.563,1.449A15.989,15.989,0,0,1,1427,182.517a17.856,17.856,0,0,1-5.369-1.172,15.742,15.742,0,0,1-7.487-6.111,16.927,16.927,0,0,1-2.545-10.982,16.188,16.188,0,0,1,3.819-9.091M1427,152.9a12.708,12.708,0,0,0-10.507,6.884,13,13,0,0,0-1.455,5.6,6.538,6.538,0,0,0,.012,1.524,12.8,12.8,0,0,0,2.413,7.05,12.334,12.334,0,0,0,4.829,4.041,13.086,13.086,0,0,0,6.3,1.21,12.471,12.471,0,0,0,9.256-4.376,14.006,14.006,0,0,0-1.043-18.63,12.992,12.992,0,0,0-3.753-2.382A13.483,13.483,0,0,0,1427,152.9Z" transform="translate(-1289.22 -139.657)" fill="#b6baa2"/>
  <path id="Path_986" data-name="Path 986" d="M2227.292,151.32a16.232,16.232,0,0,1,9.423-.493,14.059,14.059,0,0,1,6.38,3.564,15.007,15.007,0,0,1,3.5,5.48,18.212,18.212,0,0,1,1.072,6.431,1.581,1.581,0,0,1-.465,1.111,2.6,2.6,0,0,1-1.73.455q-11.272,0-22.544,0c-.568,0-1.137.02-1.7-.032a14.32,14.32,0,0,0,1.163,4.95,12.564,12.564,0,0,0,2.223,3.372,12.046,12.046,0,0,0,7.186,3.616,14.318,14.318,0,0,0,8.027-1.267,9.558,9.558,0,0,0,1.2-.681c.464-.3.851-.7,1.3-1.009a1.918,1.918,0,0,1,1.378-.209,1.645,1.645,0,0,1,1.186,1.116,1.554,1.554,0,0,1-.489,1.538,15.117,15.117,0,0,1-4.851,2.774,16.533,16.533,0,0,1-5.166,1.12,5.249,5.249,0,0,1-1.6-.007,15.523,15.523,0,0,1-9.439-3.506,11.491,11.491,0,0,1-1.456-1.382,16.344,16.344,0,0,1-4.159-10,14.944,14.944,0,0,1-.025-2.321,16.835,16.835,0,0,1,4.225-11.015,11.279,11.279,0,0,1,1.227-1.176,14.59,14.59,0,0,1,4.135-2.427m1.307,3.08a10.921,10.921,0,0,0-4.155,2.933,13.189,13.189,0,0,0-3.126,7.473q10.659.013,21.316,0a12.57,12.57,0,0,0,1.646-.045,15.017,15.017,0,0,0-.6-3.161,11.368,11.368,0,0,0-3.627-5.5,10.9,10.9,0,0,0-7.279-2.443A11.162,11.162,0,0,0,2228.6,154.4Z" transform="translate(-2023.806 -140.378)" fill="#b6baa2"/>
  <path id="Path_987" data-name="Path 987" d="M1866.7,153.632a7.475,7.475,0,0,1,1.736-.1h21.756a1.543,1.543,0,0,1,1.754,2,2.644,2.644,0,0,1-.749,1.272q-6.567,8.214-13.117,16.444c-1.062,1.31-2.1,2.634-3.149,3.958q-1.759,2.189-3.511,4.386a8.931,8.931,0,0,0-.761,1.016c6.6.016,13.2,0,19.793.007a1.7,1.7,0,0,1,1.115.383,2.037,2.037,0,0,1,.356,1.711,1.276,1.276,0,0,1-.682.913,3.155,3.155,0,0,1-1.326.141q-11.051,0-22.1,0a2.381,2.381,0,0,1-1.547-.288,1.6,1.6,0,0,1-.517-1.362,1.734,1.734,0,0,1,.266-.92c.924-1.061,1.775-2.182,2.661-3.273,2.057-2.568,4.13-5.121,6.171-7.7,3.37-4.173,6.715-8.365,10.078-12.544.768-.985,1.586-1.932,2.327-2.937q-9.855-.007-19.709,0a1.952,1.952,0,0,1-1.409-.427,2.014,2.014,0,0,1-.295-1.789A1.231,1.231,0,0,1,1866.7,153.632Z" transform="translate(-1703.138 -143.27)" fill="#b6baa2"/>
  <path id="Path_988" data-name="Path 988" d="M78.205,253.309a8.586,8.586,0,0,1,1.2-.034h34.182a5.259,5.259,0,0,1,1.556.112,2.185,2.185,0,0,1,1.421,1.405,2.134,2.134,0,0,1-.249,1.884,2.185,2.185,0,0,1-1.839.983H79.319a4.061,4.061,0,0,1-1.6-.159,2.181,2.181,0,0,1,.485-4.191Z" transform="translate(-72.59 -234.159)" fill="#b6baa2"/>
  <path id="Path_989" data-name="Path 989" d="M345.035,362.4a7.568,7.568,0,0,1,1.013-.029q6.751.005,13.5,0a2.23,2.23,0,0,1,2.106,1.57,2.2,2.2,0,0,1-.172,1.669,2.177,2.177,0,0,1-1.938,1.129q-7.15,0-14.3,0a2.209,2.209,0,0,1-1.944-1.3,2.477,2.477,0,0,1-.125-1.406A2.205,2.205,0,0,1,345.035,362.4Z" transform="translate(-315.703 -333.573)" fill="#b6baa2"/>
  <path id="Path_990" data-name="Path 990" d="M120.973,471.724a8.974,8.974,0,0,1,1.65-.079h26.1a11.446,11.446,0,0,1,1.683.063,2.189,2.189,0,0,1,1.65,1.737,2.442,2.442,0,0,1-.115,1.183,2.321,2.321,0,0,1-1.7,1.373,8.382,8.382,0,0,1-1.249.03q-13.719,0-27.44,0a2.229,2.229,0,0,1-1.67-.818,2.158,2.158,0,0,1-.481-1.806A2.228,2.228,0,0,1,120.973,471.724Z" transform="translate(-111.81 -433.145)" fill="#b6baa2"/>
</svg>
