<svg xmlns="http://www.w3.org/2000/svg" width="234.56" height="62.75" viewBox="0 0 234.56 62.75">
  <g id="footer-logo" transform="translate(-154.891 -67.25)">
    <g id="Group_104" data-name="Group 104" transform="translate(-36.908 28.514)">
      <g id="Group_91" data-name="Group 91" transform="translate(203.305 55.39)">
        <g id="Group_89" data-name="Group 89">
          <path id="Path_1033" data-name="Path 1033" d="M99.971,78.284a2.314,2.314,0,0,1,2.314-2.314,2.893,2.893,0,0,1,2.894,2.893,3.617,3.617,0,0,1-3.616,3.616,4.521,4.521,0,0,1-4.521-4.521,5.65,5.65,0,0,1,5.651-5.65h17.865a5.65,5.65,0,0,1,5.651,5.65,4.521,4.521,0,0,1-4.521,4.521,3.617,3.617,0,0,1-3.616-3.616,2.893,2.893,0,0,1,2.894-2.893,2.314,2.314,0,0,1,2.314,2.314" transform="translate(-97.042 -72.308)" fill="none" stroke="#fff" stroke-linecap="round" stroke-linejoin="round" stroke-width="1.5"/>
          <line id="Line_6" data-name="Line 6" y2="15.265" transform="translate(5.729 18.447)" fill="none" stroke="#fff" stroke-linecap="round" stroke-linejoin="round" stroke-width="1.5"/>
          <line id="Line_7" data-name="Line 7" y2="17.314" transform="translate(9.279 18.447)" fill="none" stroke="#fff" stroke-linecap="round" stroke-linejoin="round" stroke-width="1.5"/>
          <line id="Line_8" data-name="Line 8" y2="19.364" transform="translate(12.829 18.447)" fill="none" stroke="#fff" stroke-linecap="round" stroke-linejoin="round" stroke-width="1.5"/>
          <line id="Line_9" data-name="Line 9" y2="19.364" transform="translate(16.379 18.447)" fill="none" stroke="#fff" stroke-linecap="round" stroke-linejoin="round" stroke-width="1.5"/>
          <line id="Line_10" data-name="Line 10" y2="17.314" transform="translate(19.929 18.447)" fill="none" stroke="#fff" stroke-linecap="round" stroke-linejoin="round" stroke-width="1.5"/>
          <line id="Line_11" data-name="Line 11" y2="15.265" transform="translate(23.479 18.447)" fill="none" stroke="#fff" stroke-linecap="round" stroke-linejoin="round" stroke-width="1.5"/>
          <line id="Line_12" data-name="Line 12" x2="7.801" transform="translate(10.683 8.141)" fill="none" stroke="#fff" stroke-linecap="round" stroke-linejoin="round" stroke-width="1.5"/>
          <line id="Line_13" data-name="Line 13" x2="7.801" transform="translate(10.683 4.825)" fill="none" stroke="#fff" stroke-linecap="round" stroke-linejoin="round" stroke-width="1.5"/>
          <rect id="Rectangle_28" data-name="Rectangle 28" width="19.791" height="2.786" transform="translate(4.513 12.668)" fill="none" stroke="#fff" stroke-linecap="round" stroke-linejoin="round" stroke-width="1.5"/>
        </g>
        <g id="Group_90" data-name="Group 90">
          <path id="Path_1034" data-name="Path 1034" d="M99.971,78.284a2.314,2.314,0,0,1,2.314-2.314,2.893,2.893,0,0,1,2.894,2.893,3.617,3.617,0,0,1-3.616,3.616,4.521,4.521,0,0,1-4.521-4.521,5.65,5.65,0,0,1,5.651-5.65h17.865a5.65,5.65,0,0,1,5.651,5.65,4.521,4.521,0,0,1-4.521,4.521,3.617,3.617,0,0,1-3.616-3.616,2.893,2.893,0,0,1,2.894-2.893,2.314,2.314,0,0,1,2.314,2.314" transform="translate(-97.042 -72.308)" fill="none" stroke="#ffe731" stroke-linecap="round" stroke-linejoin="round" stroke-width="1.5"/>
          <line id="Line_14" data-name="Line 14" y2="15.265" transform="translate(5.729 18.447)" fill="none" stroke="#fff" stroke-linecap="round" stroke-linejoin="round" stroke-width="1.5"/>
          <line id="Line_15" data-name="Line 15" y2="17.314" transform="translate(9.279 18.447)" fill="none" stroke="#fff" stroke-linecap="round" stroke-linejoin="round" stroke-width="1.5"/>
          <line id="Line_16" data-name="Line 16" y2="19.364" transform="translate(12.829 18.447)" fill="none" stroke="#fff" stroke-linecap="round" stroke-linejoin="round" stroke-width="1.5"/>
          <line id="Line_17" data-name="Line 17" y2="19.364" transform="translate(16.379 18.447)" fill="none" stroke="#fff" stroke-linecap="round" stroke-linejoin="round" stroke-width="1.5"/>
          <line id="Line_18" data-name="Line 18" y2="17.314" transform="translate(19.929 18.447)" fill="none" stroke="#fff" stroke-linecap="round" stroke-linejoin="round" stroke-width="1.5"/>
          <line id="Line_19" data-name="Line 19" y2="15.265" transform="translate(23.479 18.447)" fill="none" stroke="#fff" stroke-linecap="round" stroke-linejoin="round" stroke-width="1.5"/>
          <line id="Line_20" data-name="Line 20" x2="7.801" transform="translate(10.683 8.141)" fill="none" stroke="#ffe731" stroke-linecap="round" stroke-linejoin="round" stroke-width="1.5"/>
          <line id="Line_21" data-name="Line 21" x2="7.801" transform="translate(10.683 4.825)" fill="none" stroke="#ffe731" stroke-linecap="round" stroke-linejoin="round" stroke-width="1.5"/>
          <rect id="Rectangle_29" data-name="Rectangle 29" width="19.791" height="2.786" transform="translate(4.513 12.668)" fill="none" stroke="#ffe731" stroke-linecap="round" stroke-linejoin="round" stroke-width="1.5"/>
        </g>
      </g>
      <path id="Path_1035" data-name="Path 1035" d="M127.611,88.56V63.093L105.556,50.36,83.5,63.093V88.56l22.055,12.734Z" transform="translate(112.332 -7.081)" fill="none" stroke="#ffe731" stroke-linecap="round" stroke-linejoin="round" stroke-width="1.5"/>
      <path id="Path_1036" data-name="Path 1036" d="M128.228,87.376V58.116l-25.34-14.63-25.34,14.63v29.26l25.34,14.63Z" transform="translate(115 -4)" fill="none" stroke="#ffe731" stroke-linecap="round" stroke-linejoin="round" stroke-width="1.5"/>
    </g>
    <text id="Consumer_Law_Attorneys" data-name="Consumer 
Law Attorneys" transform="translate(224.451 68)" fill="#ffe731" font-size="24" font-family="SegoeUI, Segoe UI"><tspan x="0" y="26">Consumer </tspan><tspan fill="#fff"><tspan x="0" y="54">Law Attorneys</tspan></tspan></text>
  </g>
</svg>
