<svg xmlns="http://www.w3.org/2000/svg" width="16.93" height="11.287" viewBox="0 0 16.93 11.287">
  <g id="message-icon" transform="translate(0 -85.333)">
    <g id="Group_72" data-name="Group 72" transform="translate(0 85.333)">
      <path id="Path_1029" data-name="Path 1029" d="M16.061,85.333H.868A.871.871,0,0,0,0,86.2v9.55a.871.871,0,0,0,.868.868H16.061a.871.871,0,0,0,.868-.868V86.2A.871.871,0,0,0,16.061,85.333Zm-.326.651L8.964,91.063a.908.908,0,0,1-1,0L1.194,85.984ZM12.119,91.4l3.69,4.558.012.012H1.109l.012-.012L4.811,91.4a.326.326,0,0,0-.506-.41L.651,95.5V86.391l6.924,5.193a1.554,1.554,0,0,0,1.78,0l6.924-5.193V95.5l-3.654-4.513a.326.326,0,0,0-.506.41Z" transform="translate(0 -85.333)" fill="#ffe731"/>
    </g>
  </g>
</svg>
