<svg xmlns="http://www.w3.org/2000/svg" width="16.93" height="16.928" viewBox="0 0 16.93 16.928">
  <g id="phone" transform="translate(-1 -1.018)">
    <g id="Group_71" data-name="Group 71" transform="translate(1 1.018)">
      <g id="Group_70" data-name="Group 70" transform="translate(0 0)">
        <path id="Path_1025" data-name="Path 1025" d="M17.486,14.078l-3.427-2.285a1,1,0,0,0-1.339.218l-1,1.283a.427.427,0,0,1-.547.115l-.19-.1a11.474,11.474,0,0,1-2.99-2.349,11.521,11.521,0,0,1-2.349-2.99l-.1-.19a.427.427,0,0,1,.113-.549l1.282-1a1,1,0,0,0,.218-1.339L4.869,1.462a1,1,0,0,0-1.341-.3L2.1,2.021a2.021,2.021,0,0,0-.922,1.2c-.516,1.88-.128,5.125,4.652,9.9,3.8,3.8,6.633,4.824,8.578,4.824a5,5,0,0,0,1.326-.173,2.019,2.019,0,0,0,1.2-.922l.862-1.432A1,1,0,0,0,17.486,14.078ZM17.3,15.13l-.86,1.433a1.458,1.458,0,0,1-.86.667c-1.736.477-4.768.082-9.356-4.507S1.241,5.1,1.718,3.366A1.46,1.46,0,0,1,2.386,2.5l1.433-.86a.432.432,0,0,1,.582.131L5.642,3.64,6.684,5.2a.434.434,0,0,1-.094.581l-1.283,1a.987.987,0,0,0-.262,1.267l.1.185a11.968,11.968,0,0,0,2.445,3.12,11.981,11.981,0,0,0,3.12,2.445l.185.1a.987.987,0,0,0,1.267-.262l1-1.283a.434.434,0,0,1,.581-.094l3.426,2.285A.431.431,0,0,1,17.3,15.13Z" transform="translate(-1 -1.018)" fill="#ffe731"/>
        <path id="Path_1026" data-name="Path 1026" d="M282.91,69.888a4.8,4.8,0,0,1,4.8,4.8.282.282,0,1,0,.564,0,5.366,5.366,0,0,0-5.36-5.36.282.282,0,0,0,0,.564Z" transform="translate(-273.317 -67.066)" fill="#ffe731"/>
        <path id="Path_1027" data-name="Path 1027" d="M282.91,121.088a3.107,3.107,0,0,1,3.1,3.1.282.282,0,1,0,.564,0,3.672,3.672,0,0,0-3.668-3.668.282.282,0,0,0,0,.564Z" transform="translate(-273.317 -116.573)" fill="#ffe731"/>
        <path id="Path_1028" data-name="Path 1028" d="M282.91,172.288a1.412,1.412,0,0,1,1.411,1.411.282.282,0,1,0,.564,0,1.977,1.977,0,0,0-1.975-1.975.282.282,0,0,0,0,.564Z" transform="translate(-273.317 -166.08)" fill="#ffe731"/>
      </g>
    </g>
  </g>
</svg>
