<svg xmlns="http://www.w3.org/2000/svg" width="20.325" height="20.36" viewBox="0 0 20.325 20.36">
  <path id="phone-icon" d="M14.453,4.989A4.361,4.361,0,0,1,17.9,8.434M14.453,1.5a7.85,7.85,0,0,1,6.934,6.925m-.872,6.96V18a1.744,1.744,0,0,1-1.9,1.744,17.261,17.261,0,0,1-7.527-2.678,17.008,17.008,0,0,1-5.233-5.233A17.261,17.261,0,0,1,3.175,4.274a1.744,1.744,0,0,1,1.736-1.9H7.527a1.744,1.744,0,0,1,1.744,1.5,11.2,11.2,0,0,0,.611,2.451,1.744,1.744,0,0,1-.392,1.84L8.382,9.271A13.955,13.955,0,0,0,13.615,14.5L14.723,13.4A1.744,1.744,0,0,1,16.563,13a11.2,11.2,0,0,0,2.451.611A1.744,1.744,0,0,1,20.515,15.386Z" transform="translate(-2.167 -0.396)" fill="none" stroke="#ffe731" stroke-linecap="round" stroke-linejoin="round" stroke-width="2"/>
</svg>
