<svg xmlns="http://www.w3.org/2000/svg" width="54.098" height="55" viewBox="0 0 54.098 55">
  <g id="Outline" transform="translate(-16 -8)">
    <path id="Path_49" data-name="Path 49" d="M166.285,82.259a6.312,6.312,0,1,0,.12,12.623h6.668a21.212,21.212,0,0,0,21.188-21.188V58.366a10.369,10.369,0,1,0-20.738.121V75.138a7.091,7.091,0,0,1-3.782,6.257l.848,1.591a8.891,8.891,0,0,0,4.737-7.848V72.319a4.559,4.559,0,0,0,2.344.586,4.667,4.667,0,0,0,2.5-.673,3.2,3.2,0,0,1,3.286,0,5,5,0,0,0,5.009,0,3.2,3.2,0,0,1,3.287,0,6.959,6.959,0,0,0,.7.344v1.118a19.407,19.407,0,0,1-19.385,19.385H166.4a4.568,4.568,0,0,1-4.6-4.474,4.514,4.514,0,0,1,4.489-4.542,9.3,9.3,0,0,0,2.25-.284L168.1,82.03A7.486,7.486,0,0,1,166.285,82.259Zm23.829-12.285a4.667,4.667,0,0,0-2.5.673,3.2,3.2,0,0,1-3.286,0,5,5,0,0,0-5.009,0,3.2,3.2,0,0,1-3.287,0,6.957,6.957,0,0,0-.7-.344V58.486a8.654,8.654,0,0,1,8.481-8.686h.085a8.577,8.577,0,0,1,8.566,8.566v12.2a4.559,4.559,0,0,0-2.345-.587Z" transform="translate(-127.77 -35.489)" fill="#eadb25"/>
    <path id="Path_50" data-name="Path 50" d="M330.394,86.15l1.264,1.286a4.963,4.963,0,0,1,1.527-1.027l-.71-1.657A6.76,6.76,0,0,0,330.394,86.15Z" transform="translate(-278.961 -68.102)" fill="#eadb25"/>
    <path id="Path_51" data-name="Path 51" d="M312,116.208v9.346h1.8v-9.346a5.091,5.091,0,0,1,.561-2.338l-1.606-.82A6.973,6.973,0,0,0,312,116.208Z" transform="translate(-262.64 -93.21)" fill="#eadb25"/>
    <path id="Path_52" data-name="Path 52" d="M57.2,51.279H60.8a2.691,2.691,0,0,1,1.109.239,11.027,11.027,0,0,0,.217,2.975l1.745-.455a10.406,10.406,0,0,1-.134-2.875,8.153,8.153,0,0,1,2.81-4.414,8.025,8.025,0,0,1,5.073-1.782,5.416,5.416,0,0,0,5.41-5.41V22.426h-1.8v1.647c-.289.1-8.115.156-8.115.156A6.319,6.319,0,0,1,60.8,17.918V16.112a4.5,4.5,0,0,0,5.41,0v0a2.708,2.708,0,0,0,2.7,2.7h5.41a2.694,2.694,0,0,1,1.823.708.9.9,0,0,0,1.467-.388,12.289,12.289,0,0,1,4.353-6.052L80.9,11.637a13.914,13.914,0,0,0-4.587,5.838,4.5,4.5,0,0,0-1.984-.459h-5.41a.9.9,0,0,1-.9-.9V12.508a4.508,4.508,0,0,0-9.016,0v5.41a8.124,8.124,0,0,0,8.115,8.115s7.819-.031,8.115-.091V39.557a3.611,3.611,0,0,1-3.607,3.607,9.918,9.918,0,0,0-9.331,6.562,4.5,4.5,0,0,0-1.488-.25H57.2a8.125,8.125,0,0,0-3.913,1l.871,1.579a6.317,6.317,0,0,1,3.041-.779ZM63.509,9.8a2.7,2.7,0,1,1-2.7,2.7A2.7,2.7,0,0,1,63.509,9.8Z" transform="translate(-33.083)" fill="#eadb25"/>
    <path id="Path_53" data-name="Path 53" d="M46.655,405.556H38.541a8.1,8.1,0,0,1-7.484-4.97.9.9,0,0,0-1.458-.3,2.685,2.685,0,0,1-1.878.76h-1.8a2.708,2.708,0,0,0-2.7,2.7v1.8H17.8v-3.607a6.259,6.259,0,0,1,1.936-4.549l-1.25-1.3A8.047,8.047,0,0,0,16,401.949v4.508a.9.9,0,0,0,.9.9h7.213a.9.9,0,0,0,.9-.9v-2.7a.9.9,0,0,1,.9-.9h1.8a4.483,4.483,0,0,0,2.169-.555,9.9,9.9,0,0,0,8.651,5.063h8.115a23.332,23.332,0,0,0,18.375-8.884l-1.413-1.121A21.539,21.539,0,0,1,46.655,405.556Z" transform="translate(0 -344.359)" fill="#eadb25"/>
    <path id="Path_54" data-name="Path 54" d="M318.791,16a13.993,13.993,0,0,0-6.759,1.741l.873,1.578a12.175,12.175,0,0,1,18.058,10.657v16.68a21.53,21.53,0,0,1-3.7,12.1l1.494,1.009a23.327,23.327,0,0,0,4-13.108V29.975A13.991,13.991,0,0,0,318.791,16Z" transform="translate(-262.668 -7.098)" fill="#eadb25"/>
    <path id="Path_55" data-name="Path 55" d="M336,346.7a2.7,2.7,0,1,0,2.7-2.7A2.7,2.7,0,0,0,336,346.7Zm2.7-.9a.9.9,0,1,1-.9.9A.9.9,0,0,1,338.7,345.8Z" transform="translate(-283.935 -298.131)" fill="#eadb25"/>
    <rect id="Rectangle_40" data-name="Rectangle 40" width="1" height="1" transform="translate(54.296 42)" fill="#eadb25"/>
    <rect id="Rectangle_41" data-name="Rectangle 41" width="2" height="2" transform="translate(59.296 40)" fill="#eadb25"/>
    <rect id="Rectangle_42" data-name="Rectangle 42" width="1" height="1" transform="translate(45.296 50)" fill="#eadb25"/>
    <rect id="Rectangle_43" data-name="Rectangle 43" width="1" height="1" transform="translate(41.296 54)" fill="#eadb25"/>
  </g>
</svg>
