<svg xmlns="http://www.w3.org/2000/svg" width="82.787" height="84.149" viewBox="0 0 82.787 84.149">
  <g id="around" transform="translate(-4.147 0)">
    <g id="Group_140" data-name="Group 140" transform="translate(4.147 0)">
      <g id="Group_139" data-name="Group 139">
        <path id="Path_146" data-name="Path 146" d="M85.024,29.023A41.382,41.382,0,0,0,6.04,53.747l2.676-.838a38.578,38.578,0,1,1,4.451,9.469L10.815,63.9a41.525,41.525,0,0,0,34.8,18.85,41.367,41.367,0,0,0,39.41-53.73Z" transform="translate(-4.147 0)"/>
      </g>
    </g>
    <g id="Group_142" data-name="Group 142" transform="translate(19.587 12.675)">
      <g id="Group_141" data-name="Group 141">
        <path id="Path_147" data-name="Path 147" d="M115.913,84.068l.8-2.686L102.7,77.177a1.4,1.4,0,0,0-1.393.352l-2.8,2.8a1.4,1.4,0,0,0,.422,2.272l12.616,5.607,1.138-2.562-10.75-4.779.768-.768Z" transform="translate(-98.092 -77.117)"/>
      </g>
    </g>
    <g id="Group_144" data-name="Group 144" transform="translate(19.588 9.873)">
      <g id="Group_143" data-name="Group 143">
        <path id="Path_148" data-name="Path 148" d="M128.936,61.474a1.4,1.4,0,0,0-1.4-1.4h0a11.473,11.473,0,0,0-8.165,3.383L107.479,75.34l-4.838-1.21a1.4,1.4,0,0,0-1.332.369l-2.8,2.8a1.4,1.4,0,0,0,.269,2.192l6.709,4.026,4.026,6.709a1.4,1.4,0,0,0,1.03.67,1.373,1.373,0,0,0,.171.01,1.413,1.413,0,0,0,.993-.409l2.8-2.8a1.405,1.405,0,0,0,.369-1.332l-1.208-4.832,12.076-11.957A11.565,11.565,0,0,0,128.936,61.474ZM111.126,80.1a1.4,1.4,0,0,0-.374,1.336l1.21,4.838-.973.973-3.282-5.47a1.4,1.4,0,0,0-.481-.481l-5.47-3.282.973-.973,4.838,1.21a1.4,1.4,0,0,0,1.332-.369l12.448-12.448A8.672,8.672,0,0,1,126.02,63a8.643,8.643,0,0,1-2.278,4.608Z" transform="translate(-98.094 -60.072)"/>
      </g>
    </g>
    <g id="Group_146" data-name="Group 146" transform="translate(36.523 22.09)">
      <g id="Group_145" data-name="Group 145">
        <path id="Path_149" data-name="Path 149" d="M212.18,148.6l-4.205-14.2-2.689.8,3.952,13.342-.851.751-4.674-10.841-2.575,1.11,5.439,12.616a1.4,1.4,0,0,0,.981.813,1.435,1.435,0,0,0,.307.034,1.4,1.4,0,0,0,.927-.35l2.972-2.621A1.4,1.4,0,0,0,212.18,148.6Z" transform="translate(-201.138 -134.403)"/>
      </g>
    </g>
    <g id="Group_148" data-name="Group 148" transform="translate(4.216 34.193)">
      <g id="Group_147" data-name="Group 147">
        <path id="Path_150" data-name="Path 150" d="M31.2,251.144c-9.984,4.731-17.815,5.342-21.482,1.677-6.356-6.356.547-24.822,16.055-42.955l-2.131-1.822C6.629,227.932.087,247.16,7.731,254.8c2.135,2.133,5.15,3.2,8.89,3.2,4.36,0,9.7-1.445,15.776-4.323Z" transform="translate(-4.565 -208.043)"/>
      </g>
    </g>
    <g id="Group_150" data-name="Group 150" transform="translate(51.83 39.309)">
      <g id="Group_149" data-name="Group 149">
        <path id="Path_151" data-name="Path 151" d="M320.737,248.324a1.4,1.4,0,0,0-1.236-.74H314.76l-3.818-7.636a1.4,1.4,0,0,0-1.255-.775H295.669a1.4,1.4,0,0,0-1.4,1.4v11.214a1.4,1.4,0,0,0,1.4,1.4h4.205v15.42a1.4,1.4,0,0,0,1.4,1.4h7.009a1.4,1.4,0,0,0,.993-.412l5.607-5.607A1.4,1.4,0,0,0,315.3,263V257.82l5.372-8.057A1.4,1.4,0,0,0,320.737,248.324Zm-8.011,8.294a1.409,1.409,0,0,0-.236.778v5.027l-4.786,4.786h-5.028v-15.42a1.4,1.4,0,0,0-1.4-1.4h-4.205v-8.411h11.75l3.818,7.636a1.4,1.4,0,0,0,1.255.775h2.989Z" transform="translate(-294.267 -239.173)"/>
      </g>
    </g>
    <g id="Group_152" data-name="Group 152" transform="translate(54.633 15.479)">
      <g id="Group_151" data-name="Group 151">
        <path id="Path_152" data-name="Path 152" d="M335.97,115.206l-5.2-9.106a1.4,1.4,0,0,0-1.217-.707h-8.411a1.4,1.4,0,0,0-1.166.624l-2.387,3.582h-3.455V102.59h7.009a1.4,1.4,0,0,0,.991-.411l5.2-5.2h6.429v-2.8h-7.009a1.4,1.4,0,0,0-.991.411l-5.2,5.2h-7.83a1.4,1.4,0,0,0-1.4,1.4V111a1.4,1.4,0,0,0,1.4,1.4h5.607a1.4,1.4,0,0,0,1.166-.624l2.387-3.582h6.848l5.2,9.106a1.4,1.4,0,0,0,1.217.707h5.607v-2.8H335.97Z" transform="translate(-311.327 -94.179)"/>
      </g>
    </g>
    <g id="Group_154" data-name="Group 154" transform="translate(23.794 46.319)">
      <g id="Group_153" data-name="Group 153">
        <path id="Path_153" data-name="Path 153" d="M144.714,286.024h-7.83l-3.795-3.795a1.4,1.4,0,0,0-.991-.411h-7.009a1.4,1.4,0,0,0-1.4,1.4v9.812a1.4,1.4,0,0,0,1.4,1.4H130.7v14.018a1.4,1.4,0,0,0,2.243,1.121l5.607-4.205a1.4,1.4,0,0,0,.561-1.121v-3.532l6.483-5.185a1.4,1.4,0,0,0,.526-1.095v-7.009A1.4,1.4,0,0,0,144.714,286.024Zm-1.4,7.738-6.483,5.185a1.4,1.4,0,0,0-.526,1.095v3.5l-2.8,2.1V293.033a1.4,1.4,0,0,0-1.4-1.4h-5.607v-7.009h5.027l3.795,3.795a1.4,1.4,0,0,0,.991.411h7.009Z" transform="translate(-123.687 -281.819)"/>
      </g>
    </g>
    <g id="Group_156" data-name="Group 156" transform="translate(5.57 22.488)">
      <g id="Group_155" data-name="Group 155" transform="translate(0)">
        <path id="Path_154" data-name="Path 154" d="M23.822,144.514,19.617,137.5a1.4,1.4,0,0,0-1.2-.68h-1.4v2.8h.608l3.234,5.39-3.432,3.432a1.4,1.4,0,0,0-.411.991v4.205H12.808v2.8h5.607a1.4,1.4,0,0,0,1.4-1.4v-5.027l3.795-3.795A1.4,1.4,0,0,0,23.822,144.514Z" transform="translate(-12.808 -136.825)"/>
      </g>
    </g>
    <g id="Group_158" data-name="Group 158" transform="translate(30.176 1.461)">
      <g id="Group_157" data-name="Group 157">
        <path id="Path_155" data-name="Path 155" d="M179.969,8.889V10.6l-4.546,1.137a1.425,1.425,0,0,0-.437.193l-3.528,2.352-7.683-3.842-1.255,2.508,8.411,4.205a1.4,1.4,0,0,0,1.4-.088l4-2.669,5.373-1.343a1.4,1.4,0,0,0,1.063-1.36v-2.8Z" transform="translate(-162.519 -8.889)"/>
      </g>
    </g>
  </g>
</svg>
