<svg xmlns="http://www.w3.org/2000/svg" width="25" height="31" viewBox="0 0 25 31">
  <path id="Union_1" data-name="Union 1" d="M-2121,24a4.787,4.787,0,0,1,2.459-3.84,1,1,0,0,1,1.383.3,1,1,0,0,1-.3,1.382A2.9,2.9,0,0,0-2119,24c0,1.993,4.414,4,10,4s10-2.006,10-4a2.876,2.876,0,0,0-1.541-2.159,1,1,0,0,1-.3-1.382,1,1,0,0,1,1.383-.3A4.773,4.773,0,0,1-2097,24c0,3.529-5.436,6-12,6S-2121,27.529-2121,24Zm11.392,1.519a28.006,28.006,0,0,1-6.806-7.364A15.83,15.83,0,0,1-2119,10a9.915,9.915,0,0,1,2.952-7.048A9.919,9.919,0,0,1-2109,0a9.919,9.919,0,0,1,7.048,2.952A9.919,9.919,0,0,1-2099,10a15.834,15.834,0,0,1-2.584,8.157,28.05,28.05,0,0,1-6.809,7.363,1,1,0,0,1-.607.207A1,1,0,0,1-2109.608,25.52Zm-5.027-21.154A7.936,7.936,0,0,0-2117,10a13.728,13.728,0,0,0,2.187,6.932A25.562,25.562,0,0,0-2109,23.454a25.546,25.546,0,0,0,5.816-6.521A13.744,13.744,0,0,0-2101,10a7.933,7.933,0,0,0-2.367-5.634A7.932,7.932,0,0,0-2109,2,7.938,7.938,0,0,0-2114.635,4.366ZM-2113,10a4,4,0,0,1,4-4,4,4,0,0,1,4,4,4,4,0,0,1-4,4A4.005,4.005,0,0,1-2113,10Zm2,0a2,2,0,0,0,2,2,2,2,0,0,0,2-2,2,2,0,0,0-2-2A2,2,0,0,0-2111,10Z" transform="translate(2121.5 0.5)" stroke="rgba(0,0,0,0)" stroke-miterlimit="10" stroke-width="1"/>
</svg>
