<svg xmlns="http://www.w3.org/2000/svg" width="32" height="32" viewBox="0 0 32 32">
  <path id="ic_phone_call" data-name="ic_phone call" d="M25.552,32a2.985,2.985,0,0,1-1-.173A42.969,42.969,0,0,1,10.3,22.786a38.393,38.393,0,0,1-6.189-7.17A34.021,34.021,0,0,1,.149,7.422,2.989,2.989,0,0,1,.686,4.578L3.562,1.092A3.007,3.007,0,0,1,4.121.568,2.976,2.976,0,0,1,5.873,0,3.007,3.007,0,0,1,8.307,1.247l3.726,5.169a3.012,3.012,0,0,1,.18,3.23L10.548,12.6a34.833,34.833,0,0,0,3.981,4.567,45.293,45.293,0,0,0,4.833,4.3l3.006-1.674a3,3,0,0,1,3.22.193l5.175,3.759a3.063,3.063,0,0,1,.559.527A3.007,3.007,0,0,1,30.9,28.5l-3.448,2.825A3.006,3.006,0,0,1,25.552,32ZM5.874,2a.992.992,0,0,0-.584.189,1.044,1.044,0,0,0-.186.175L2.229,5.852A1,1,0,0,0,2.05,6.8a32.043,32.043,0,0,0,3.736,7.726,36.385,36.385,0,0,0,5.859,6.781,41,41,0,0,0,13.574,8.635,1,1,0,0,0,.334.058,1.006,1.006,0,0,0,.634-.227l3.448-2.825a1,1,0,0,0-.046-1.584l-5.174-3.758a1,1,0,0,0-1.074-.065l-3.56,1.983a1,1,0,0,1-1.056-.053,43.493,43.493,0,0,1-5.609-4.887,32.3,32.3,0,0,1-4.587-5.418,1.006,1.006,0,0,1-.02-1.017l1.964-3.486a1,1,0,0,0-.06-1.076L6.686,2.417A1,1,0,0,0,5.874,2Z" transform="translate(0.001 -0.001)"/>
</svg>
