<svg xmlns="http://www.w3.org/2000/svg" width="33" height="25" viewBox="0 0 33 25">
  <g id="Group_109" data-name="Group 109" transform="translate(-1373.5 -1057.5)">
    <path id="Path" d="M22.521.122a1,1,0,0,1,.958,1.756l-11,6a1,1,0,0,1-.958,0l-11-6A1,1,0,1,1,1.479.122L12,5.861Z" transform="translate(1378 1064)"/>
    <path id="Subtraction_1" data-name="Subtraction 1" d="M-2094,24h-22a5.006,5.006,0,0,1-5-5V5a5.006,5.006,0,0,1,5-5h22a5.006,5.006,0,0,1,5,5V19A5.006,5.006,0,0,1-2094,24Zm-22-22a3,3,0,0,0-3,3V19a3,3,0,0,0,3,3h22a3,3,0,0,0,3-3V5a3,3,0,0,0-3-3Z" transform="translate(3495 1058)" stroke="rgba(0,0,0,0)" stroke-miterlimit="10" stroke-width="1"/>
  </g>
</svg>
