<svg id="shoe-shop" xmlns="http://www.w3.org/2000/svg" width="96.28" height="96.28" viewBox="0 0 96.28 96.28">
  <g id="Group_130" data-name="Group 130" transform="translate(0 0)">
    <path id="Path_137" data-name="Path 137" d="M7.659,39.547v29a1.41,1.41,0,0,0,2.821,0v-29a8.072,8.072,0,0,0,5.237-3.385,8.05,8.05,0,0,0,13.3,0,8.05,8.05,0,0,0,13.3,0,8.05,8.05,0,0,0,13.3,0,8.05,8.05,0,0,0,13.3,0,8.05,8.05,0,0,0,13.3,0,8.073,8.073,0,0,0,5.237,3.385v5.3a1.41,1.41,0,1,0,2.821,0v-5.3a8.07,8.07,0,0,0,6.649-7.933V28h0a1.407,1.407,0,0,0-.15-.638L84.326,2.853A5.185,5.185,0,0,0,79.68,0H18.241a5.186,5.186,0,0,0-4.646,2.853L1.162,27.367a1.407,1.407,0,0,0-.15.638h0v3.609a8.07,8.07,0,0,0,6.649,7.933Zm1.41-2.695a5.244,5.244,0,0,1-5.238-5.238v-2.2H14.307v2.2A5.244,5.244,0,0,1,9.069,36.852ZM33.147,2.821,27.882,26.594H17.732l8.66-23.774Zm9.729,0L41.008,26.594H30.771L36.035,2.821Zm9.34,0,1.868,23.774H43.837L45.705,2.821Zm9.67,0,5.264,23.774H56.913L55.045,2.821Zm9.643,0,8.66,23.774H70.038L64.774,2.821ZM22.366,36.852a5.244,5.244,0,0,1-5.238-5.238v-2.2H27.6v2.2A5.244,5.244,0,0,1,22.366,36.852Zm13.3,0a5.244,5.244,0,0,1-5.238-5.238v-2.2H40.9v2.2A5.244,5.244,0,0,1,35.663,36.852Zm13.3,0a5.244,5.244,0,0,1-5.238-5.238v-2.2H54.2v2.2a5.244,5.244,0,0,1-5.238,5.238Zm13.3,0a5.244,5.244,0,0,1-5.238-5.238v-2.2H67.5v2.2A5.244,5.244,0,0,1,62.257,36.852Zm13.3,0a5.244,5.244,0,0,1-5.238-5.238v-2.2H80.792v2.2A5.244,5.244,0,0,1,75.554,36.852Zm13.3,0a5.244,5.244,0,0,1-5.238-5.238v-2.2H94.09v2.2A5.244,5.244,0,0,1,88.851,36.852ZM81.81,4.129,93.2,26.594H83.19L74.53,2.821h5.15A2.378,2.378,0,0,1,81.81,4.129Zm-65.7,0a2.378,2.378,0,0,1,2.131-1.308h5.15L14.73,26.594H4.717Z" transform="translate(-0.82 0)"/>
    <path id="Path_138" data-name="Path 138" d="M223.646,252.541a1.41,1.41,0,0,0-1.41,1.41v32.673a1.41,1.41,0,0,0,1.41,1.41H262.4a1.41,1.41,0,0,0,1.41-1.41V253.951a1.41,1.41,0,0,0-1.41-1.41Zm1.41,2.821h35.931v23.774H225.057Zm35.931,29.852H225.057v-3.258h35.931Z" transform="translate(-180.445 -205.051)"/>
    <path id="Path_139" data-name="Path 139" d="M159,334.364a1.41,1.41,0,0,0-1.41,1.41v7.6a1.41,1.41,0,0,0,2.821,0v-7.6A1.41,1.41,0,0,0,159,334.364Z" transform="translate(-127.952 -271.488)"/>
    <path id="Path_140" data-name="Path 140" d="M92.971,292.431h-3.53V256.482a1.41,1.41,0,1,0-2.821,0v35.949H38.533v-38.48a1.41,1.41,0,0,0-1.41-1.41h-22.8a1.41,1.41,0,0,0-1.41,1.41v38.48H9.66V280.176a1.41,1.41,0,0,0-2.821,0v12.255H3.31A3.314,3.314,0,0,0,0,295.743v2.279a3.314,3.314,0,0,0,3.31,3.31H76.383a1.41,1.41,0,1,0,0-2.821H3.31a.489.489,0,0,1-.489-.489v-2.279a.491.491,0,0,1,.489-.491H92.971a.49.49,0,0,1,.489.491v2.279a.49.49,0,0,1-.489.489H82.965a1.41,1.41,0,1,0,0,2.821H92.971a3.313,3.313,0,0,0,3.31-3.31v-2.279a3.314,3.314,0,0,0-3.31-3.312Zm-77.233-37.07H35.712v37.07H15.738Z" transform="translate(0 -205.051)"/>
    <path id="Path_141" data-name="Path 141" d="M297.283,294.7l-6.458-2.66a1.411,1.411,0,0,0-1.608.386L287.36,294.6H284.4a7.117,7.117,0,0,0-7.109,7.109v3.419a1.41,1.41,0,0,0,1.41,1.41h18.046a1.41,1.41,0,0,0,1.41-1.41v-9.118A1.41,1.41,0,0,0,297.283,294.7Zm-1.947,9.012H280.111V301.7a4.293,4.293,0,0,1,4.288-4.288h3.609a1.41,1.41,0,0,0,1.071-.492l1.615-1.884,4.642,1.911Z" transform="translate(-225.146 -237.039)"/>
  </g>
</svg>
