<svg xmlns="http://www.w3.org/2000/svg" width="103.544" height="75.689" viewBox="0 0 103.544 75.689">
  <g id="delivery-truck" transform="translate(0 -68.867)">
    <g id="Group_132" data-name="Group 132" transform="translate(0 68.867)">
      <g id="Group_131" data-name="Group 131" transform="translate(0 0)">
        <path id="Path_142" data-name="Path 142" d="M83.826,93.066H77.308l1.964-22.551c0-.041,0-.081,0-.121,0,0,0-.007,0-.01v0a1.517,1.517,0,0,0-.915-1.39l-.014-.006c-.034-.014-.069-.026-.1-.038l-.039-.014c-.029-.009-.058-.016-.088-.023l-.061-.015c-.026-.005-.052-.008-.079-.012s-.049-.008-.074-.01l-.012,0c-.027,0-.053,0-.079,0l-.053,0H46.719a1.517,1.517,0,0,0,0,3.034H76.106l-3.019,34.658s0,.005,0,.008l-.762,8.745h-52.7l.882-9.1H30.537a1.517,1.517,0,0,0,0-3.034H20.8l1.861-19.211H38.629a1.517,1.517,0,1,0,0-3.034H22.952l.875-9.032H40.651a1.517,1.517,0,0,0,0-3.034h-18.2a1.517,1.517,0,0,0-1.48,1.2c0,.005,0,.01,0,.015-.008.038-.013.076-.018.115,0,.012,0,.024-.005.036s0,0,0,.007L19.9,80.933H1.517a1.517,1.517,0,1,0,0,3.034H19.61l-1.861,19.211H12.337a1.517,1.517,0,0,0,0,3.034h5.118l-1.014,10.46v0L14.873,132.85v.011c0,.021,0,.042,0,.063s0,.055,0,.084c0,0,0,0,0,0,0,.039,0,.077.006.116,0,.012,0,.025,0,.037,0,.039.011.078.018.116,0,.011,0,.023.005.034.006.029.014.057.022.086s.01.04.016.06,0,.011.006.016a1.516,1.516,0,0,0,.361.594l.008.009c.016.016.034.031.051.046a1.5,1.5,0,0,0,.352.241c.027.013.053.027.081.039l.026.009c.038.015.076.03.116.042l.011,0c.045.013.09.025.137.035l.018,0c.044.008.088.015.133.02h0q.075.007.148.007h6.754a11.545,11.545,0,0,0,22.891,0H70.358a11.546,11.546,0,0,0,22.892,0h6.757c.051,0,.1,0,.15-.008l.026,0c.039,0,.079-.01.117-.018l.049-.012c.03-.007.06-.014.089-.023l.058-.019.074-.027.062-.026.066-.032.06-.033.062-.038.056-.037c.021-.014.04-.03.06-.045l.05-.04c.021-.018.04-.036.06-.055l.041-.04c.021-.021.041-.044.061-.067l.032-.037c.022-.027.042-.056.063-.084l.021-.029c.025-.037.048-.075.069-.114l0-.007c.023-.042.044-.085.063-.13.005-.013.009-.026.014-.039.012-.031.024-.063.035-.1s.012-.043.017-.064.014-.05.019-.076.008-.046.012-.07.008-.04.01-.061c.064-.515,1.252-10.044,1.783-16.206,0-.006,0-.012,0-.018.153-1.776.251-3.272.251-4.188A19.74,19.74,0,0,0,83.826,93.066ZM77.043,96.1h6.205l-.793,9.1H76.251ZM34.584,141.523a8.515,8.515,0,1,1,8.515-8.515A8.525,8.525,0,0,1,34.584,141.523Zm47.22,0a8.515,8.515,0,1,1,8.515-8.515A8.524,8.524,0,0,1,81.8,141.523Zm16.86-10.032H93.25a11.546,11.546,0,0,0-22.892,0H46.03a11.546,11.546,0,0,0-22.892,0H18.053l1.274-13.146H73.717a1.491,1.491,0,0,0,.151-.008l.028,0c.04,0,.079-.01.118-.018l.05-.012c.03-.007.061-.014.09-.023l.059-.02c.025-.009.051-.018.076-.028l.062-.028.067-.032.061-.034.062-.037.057-.039.059-.044.052-.043c.019-.017.038-.034.056-.051l.046-.046c.018-.019.036-.039.053-.059l.04-.048c.017-.021.033-.043.049-.065l.035-.05c.015-.023.029-.046.042-.07s.021-.036.03-.054.024-.048.035-.073.018-.039.026-.059.018-.048.027-.073.015-.043.022-.066.012-.048.018-.071.012-.048.017-.072.007-.048.011-.072.008-.05.01-.075c0,0,0-.007,0-.011l.76-8.726h7.839c4.647,0,6.743,2.408,8.962,4.957,1.831,2.1,3.875,4.45,7.349,5.023C99.7,122.878,98.983,128.868,98.663,131.49Zm1.733-16.317c-2.254-.459-3.641-2.044-5.321-3.974-2.1-2.414-4.666-5.359-9.583-5.908l.785-9.009a16.709,16.709,0,0,1,14.233,16.5C100.511,113.353,100.468,114.179,100.4,115.173Z" transform="translate(0 -68.867)"/>
      </g>
    </g>
    <g id="Group_134" data-name="Group 134" transform="translate(29.022 127.446)">
      <g id="Group_133" data-name="Group 133" transform="translate(0 0)">
        <path id="Path_143" data-name="Path 143" d="M149.069,358.524a5.561,5.561,0,1,0,5.561,5.561A5.568,5.568,0,0,0,149.069,358.524Zm0,8.089a2.528,2.528,0,1,1,2.528-2.528A2.531,2.531,0,0,1,149.069,366.613Z" transform="translate(-143.508 -358.524)"/>
      </g>
    </g>
    <g id="Group_136" data-name="Group 136" transform="translate(76.242 127.446)">
      <g id="Group_135" data-name="Group 135" transform="translate(0 0)">
        <path id="Path_144" data-name="Path 144" d="M382.557,358.524a5.561,5.561,0,1,0,5.561,5.561A5.568,5.568,0,0,0,382.557,358.524Zm0,8.089a2.528,2.528,0,1,1,2.528-2.528A2.531,2.531,0,0,1,382.557,366.613Z" transform="translate(-376.996 -358.524)"/>
      </g>
    </g>
    <g id="Group_138" data-name="Group 138" transform="translate(5.427 93.067)">
      <g id="Group_137" data-name="Group 137" transform="translate(0 0)">
        <path id="Path_145" data-name="Path 145" d="M35.766,188.527H28.351a1.517,1.517,0,1,0,0,3.034h7.415a1.517,1.517,0,1,0,0-3.034Z" transform="translate(-26.834 -188.527)"/>
      </g>
    </g>
  </g>
</svg>
