<svg xmlns="http://www.w3.org/2000/svg" xmlns:xlink="http://www.w3.org/1999/xlink" width="1620" height="342.573" viewBox="0 0 1620 342.573">
  <defs>
    <linearGradient id="linear-gradient" y1="0.5" x2="1" y2="0.5" gradientUnits="objectBoundingBox">
      <stop offset="0" stop-color="#0b64af"/>
      <stop offset="0.4" stop-color="#5bad32"/>
      <stop offset="0.6" stop-color="#c2941b"/>
      <stop offset="1" stop-color="#ca371a"/>
    </linearGradient>
  </defs>
  <g id="Group_2742" data-name="Group 2742" transform="translate(-150 -2939)">
    <g id="Group_2720" data-name="Group 2720" transform="translate(20 -40)">
      <rect id="Rectangle_134" data-name="Rectangle 134" width="160" height="160" transform="translate(232 3070)" fill="none"/>
      <g id="cow" transform="translate(232 3099.6)">
        <g id="Group_2712" data-name="Group 2712" transform="translate(117.888 60.229)">
          <g id="Group_2711" data-name="Group 2711">
            <path id="Path_1161" data-name="Path 1161" d="M380.433,287.746h-.064a3.125,3.125,0,1,0,0,6.249h.064a3.125,3.125,0,0,0,0-6.249Z" transform="translate(-377.244 -287.746)" fill="#0b64af"/>
          </g>
        </g>
        <g id="Group_2714" data-name="Group 2714" transform="translate(136.038 60.229)">
          <g id="Group_2713" data-name="Group 2713">
            <path id="Path_1162" data-name="Path 1162" d="M438.513,287.746h-.064a3.125,3.125,0,0,0,0,6.249h.064a3.125,3.125,0,1,0,0-6.249Z" transform="translate(-435.324 -287.746)" fill="#0b64af"/>
          </g>
        </g>
        <g id="Group_2716" data-name="Group 2716" transform="translate(68.199 94.367)">
          <g id="Group_2715" data-name="Group 2715" transform="translate(0 0)">
            <path id="Path_1163" data-name="Path 1163" d="M221.4,396.989h-.041a3.125,3.125,0,0,0,0,6.249h.041a3.125,3.125,0,0,0,0-6.249Z" transform="translate(-218.239 -396.989)" fill="#0b64af"/>
          </g>
        </g>
        <g id="Group_2718" data-name="Group 2718" transform="translate(0 0)">
          <g id="Group_2717" data-name="Group 2717">
            <path id="Path_1164" data-name="Path 1164" d="M156.862,189.38h-39.38v-8.089a18.413,18.413,0,0,1,1.539-7.384,7.045,7.045,0,0,1,1,4.278c0,5.752,6.142,8.018,9.771,8.45a3.166,3.166,0,0,0,.369.022,15.526,15.526,0,0,0,4.768-1.247c4.675-2.059,5.373-5.411,5.373-7.225,0-3.868,1.073-4.726,3.666-6.8a36.491,36.491,0,0,0,3.176-2.766c1.2-1.2,2.89-3.75,3.665-11.958.185-1.961.278-3.818.325-5.244a12.036,12.036,0,0,0,5.756-3.343c2.283-2.441,3.318-5.744,3.075-9.816a3.106,3.106,0,0,0-1.321-2.408,3.046,3.046,0,0,0-2.688-.4,4.618,4.618,0,0,1-2.824-.081c-.037-.013-.076-.023-.113-.036a13.774,13.774,0,0,0,.662-6.264,12.615,12.615,0,0,0-4.74-8.548,3.125,3.125,0,0,0-4.936,2.4,7.89,7.89,0,0,1-1.765,4.782L141,123.855a41.516,41.516,0,0,0-39.619-28.841H31.408a26.429,26.429,0,0,0-26.4,26.4v26.47A8.923,8.923,0,0,0,0,156.073a27.469,27.469,0,0,0,1.652,8.072c1.6,4.444,3.782,6.7,6.481,6.7s4.879-2.253,6.481-6.7a27.467,27.467,0,0,0,1.652-8.072,8.924,8.924,0,0,0-5.008-8.19v-26.47a20.183,20.183,0,0,1,15.28-19.552,33.36,33.36,0,0,0-2.995,2.623,32.834,32.834,0,0,0-7.837,12.288c-.041.09-.079.183-.112.278a32.693,32.693,0,0,0,6.834,33l.008.009c.115.125.227.252.345.375.028.029.058.055.087.083a32.81,32.81,0,0,0,3.411,3.107,12.411,12.411,0,0,1,4.75,9.751l.094,26h-28a3.125,3.125,0,1,0,0,6.249h57.41a3.125,3.125,0,0,0,0-6.249H57.4v-8.089a18.408,18.408,0,0,1,3.146-10.312,24.561,24.561,0,0,0,3.28-7.1H86.479a24.573,24.573,0,0,0,3.28,7.1A18.411,18.411,0,0,1,92.9,181.292v8.089H81.972a3.125,3.125,0,0,0,0,6.249h74.89a3.125,3.125,0,0,0,0-6.25ZM8.133,163.511a22.3,22.3,0,0,1-1.884-7.438c0-1.422.862-2.622,1.884-2.622s1.883,1.2,1.883,2.622A22.3,22.3,0,0,1,8.133,163.511Zm125.919,14.675c0,1.028-2.353,1.9-3.891,2.185-1.538-.282-3.891-1.158-3.891-2.185,0-.451-.014-.882-.039-1.3h7.86C134.066,177.3,134.052,177.735,134.052,178.186Zm13.485-47.14a7.858,7.858,0,0,1-1.378,4.161q-.758-.644-1.562-1.22A14.628,14.628,0,0,0,147.537,131.046Zm-55.5-29.783a20.082,20.082,0,0,1-34.091,0Zm-61.988,43.9H26.441a26.568,26.568,0,0,1-5.681-23.5l5.7,1.045a15.225,15.225,0,0,1,12.167,12.166,8.719,8.719,0,0,1-8.577,10.291Zm81.182,36.131v8.089h-2.91v-8.089c0-.074-.006-.146-.011-.219a24.632,24.632,0,0,0-4.207-13.582,18.367,18.367,0,0,1-2.824-6.879l-2.472-13.073a3.125,3.125,0,0,0-6.14,1.162l2.472,13.073a24.584,24.584,0,0,0,3.78,9.207,18.409,18.409,0,0,1,3.146,10.312v8.089h-2.91v-8.089a24.638,24.638,0,0,0-4.211-13.8,18.368,18.368,0,0,1-2.824-6.879l-2.472-13.073a3.125,3.125,0,0,0-6.14,1.162l1.689,8.931H65.113L66.8,148.7a3.125,3.125,0,1,0-6.14-1.162l-2.472,13.073a18.378,18.378,0,0,1-2.824,6.879,24.639,24.639,0,0,0-4.211,13.8v8.089H47.469v-8.089a18.41,18.41,0,0,1,3.146-10.312,24.58,24.58,0,0,0,3.78-9.206L56.867,148.7a3.125,3.125,0,0,0-6.14-1.162l-2.472,13.073a18.372,18.372,0,0,1-2.824,6.879,24.639,24.639,0,0,0-4.211,13.8v8.089H37.375l-.094-26.025a18.611,18.611,0,0,0-4.569-12.187,14.965,14.965,0,0,0,12.064-17.427,21.507,21.507,0,0,0-17.187-17.187l-4.624-.847a26.578,26.578,0,0,1,23.65-14.446H50.9a26.324,26.324,0,0,0,48.182,0h2.3a35.284,35.284,0,0,1,33.672,24.512l1.413,4.377a24.655,24.655,0,0,0-13.832.353,8.27,8.27,0,0,1-6.155-7.626,3.125,3.125,0,0,0-4.936-2.4,12.616,12.616,0,0,0-4.74,8.548,13.771,13.771,0,0,0,.662,6.265,4.6,4.6,0,0,1-2.594.02,3.125,3.125,0,0,0-4.024,2.8c-.243,4.072.792,7.374,3.075,9.816a11.88,11.88,0,0,0,5.258,3.2c.044,1.458.137,3.432.334,5.526.775,8.208,2.463,10.755,3.665,11.958.342.342.678.657,1.009.955A24.613,24.613,0,0,0,111.232,181.291Zm4.6-47.384c-.516.367-1.016.758-1.5,1.166l-.082-.024a7.824,7.824,0,0,1-1.3-4.041A14.644,14.644,0,0,0,115.83,133.908Zm-3.145,11.562a6.676,6.676,0,0,1-4.2-1.8,4.939,4.939,0,0,1-1.107-2,11.047,11.047,0,0,0,2.334-.531,4.545,4.545,0,0,1,1.6-.24,8.162,8.162,0,0,1,1.554.259,10.441,10.441,0,0,1,3.679,2.158,6.437,6.437,0,0,1,.911,1.671,3.125,3.125,0,0,0,3.065,2.522h.064a3.12,3.12,0,0,0,2.793-4.519,12.575,12.575,0,0,0-1.856-3.452l-.024-.032-.138-.179,0,0c-.105-.128-.224-.258-.354-.391q.062.056.117.112c-.046-.046-.092-.091-.14-.134-.176-.177-.377-.357-.586-.537a18.453,18.453,0,0,1,19.912.237c-.17.149-.332.3-.478.446q-.066.06-.129.124c.036-.037.074-.072.114-.109-.13.132-.248.262-.353.389l0,0-.138.179-.025.033a12.645,12.645,0,0,0-1.819,3.347,3.1,3.1,0,0,0-.29.986c-.019.086-.033.153-.041.2l.025,0c0,.058-.009.115-.009.173a3.125,3.125,0,0,0,3.125,3.125h.064a3.124,3.124,0,0,0,3.066-2.528,6.586,6.586,0,0,1,.857-1.526c.65-.59,3.787-3.222,6.828-2.176a11.009,11.009,0,0,0,2.335.531,4.953,4.953,0,0,1-1.077,1.965,6.679,6.679,0,0,1-4.23,1.834v0c-.023,0-.046,0-.069,0h-.018a3.125,3.125,0,0,0-3.107,3.142c.037,6.847-1.015,14.211-2.207,15.451a30.888,30.888,0,0,1-2.66,2.3,17.522,17.522,0,0,0-4.1,4.134h-11.6a17.511,17.511,0,0,0-4.1-4.134,30.949,30.949,0,0,1-2.659-2.3c-1.115-1.158-2.106-7.663-2.2-14.1a3.125,3.125,0,0,0-2.712-4.637Z" transform="translate(0 -95.014)" fill="#0b64af"/>
          </g>
        </g>
      </g>
    </g>
    <g id="Group_2721" data-name="Group 2721" transform="translate(28 45)">
      <rect id="Rectangle_135" data-name="Rectangle 135" width="160" height="160" transform="translate(643 2985)" fill="none"/>
      <g id="factory_1_" data-name="factory (1)" transform="translate(649.032 2968.142)">
        <ellipse id="Ellipse_33" data-name="Ellipse 33" cx="3" cy="3.5" rx="3" ry="3.5" transform="translate(141.967 101.858)" fill="#5bad32"/>
        <path id="Path_1252" data-name="Path 1252" d="M146.437,151.029a2.89,2.89,0,0,0-2.94.093l-31.968,20.3V153.562a2.889,2.889,0,0,0-4.438-2.439l-31.968,20.3V153.562a2.874,2.874,0,0,0-2.876-2.883c-.551-6.062-2.182-23.995-2.914-32.051A2.889,2.889,0,0,0,66.455,116H54.9a2.889,2.889,0,0,0-2.878,2.628c-.546,6-3.96,43.577-4.348,47.836l-7.222,4.814V153.562a2.889,2.889,0,0,0-4.492-2.4l-3.885,2.59-3.192-35.12A2.889,2.889,0,0,0,26,116H14.447a2.889,2.889,0,0,0-2.878,2.628c-.271,2.981-4.412,48.541-4.721,51.939l-5.561,3.706A2.89,2.89,0,0,0,0,176.677v46.23A2.889,2.889,0,0,0,2.889,225.8H145.046a2.889,2.889,0,0,0,2.889-2.889V192.857a2.889,2.889,0,1,0-5.779,0v9.824h-19.07V188.234a2.889,2.889,0,0,0-2.889-2.889H85.525a2.889,2.889,0,0,0-2.889,2.889v14.447H63.566V188.234a2.889,2.889,0,0,0-2.889-2.889H26a2.889,2.889,0,0,0-2.889,2.889v14.447H5.779V178.223l28.894-19.262v17.716a2.889,2.889,0,0,0,4.492,2.4l30.18-20.121v17.717a2.889,2.889,0,0,0,4.438,2.439l31.968-20.3v17.858a2.889,2.889,0,0,0,4.438,2.439l31.968-20.3v8.034a2.889,2.889,0,0,0,5.779,0V153.562a2.889,2.889,0,0,0-1.5-2.532Zm-4.281,57.43v11.557h-19.07V208.459Zm-24.848,11.557H105.751V191.123h11.557ZM88.414,191.123H99.972v28.894H88.414Zm-5.779,17.336v11.557H63.566V208.459ZM57.787,220.017H46.23V191.123H57.787ZM28.894,191.123H40.451v28.894H28.894Zm-5.779,17.336v11.557H5.779V208.459Zm-7.08-75.123h8.381L26.6,157.394l-13.577,9.051Zm7.331-11.557.525,5.779H16.56l.525-5.779Zm40.451,0,.525,5.779H57.011l.525-5.779Zm-7.331,11.557h8.382l1.857,20.426-12.875,8.584Z" transform="translate(0 -74.079)" fill="#5bad32"/>
      </g>
    </g>
    <g id="Group_2722" data-name="Group 2722" transform="translate(27 -40)">
      <rect id="Rectangle_137" data-name="Rectangle 137" width="159.999" height="159.999" transform="translate(1054 3070)" fill="none"/>
      <path id="shopping-cart" d="M123.479,24.237a12.414,12.414,0,0,0-9.5-4.2H23.053l-.915-6.861C21.152,5.79,16.006,0,10.423,0H3.742a3.742,3.742,0,0,0,0,7.485h6.681c1.2,0,3.743,2.539,4.3,6.685L25.431,94.515a15.132,15.132,0,0,0,5.123,9.336,15.465,15.465,0,0,0,7.183,3.574,13.766,13.766,0,1,0,24.344.271H81.69a13.764,13.764,0,1,0,24.483,0h9.805a3.742,3.742,0,0,0,0-7.485H40.486a8.032,8.032,0,0,1-7.637-6.686l-.783-5.872h73.89a15.536,15.536,0,0,0,15.055-13.181l5.368-40.259a12.415,12.415,0,0,0-2.9-9.976Zm-67.36,89.736a6.279,6.279,0,1,1-6.279-6.278A6.286,6.286,0,0,1,56.118,113.974Zm44.093,0a6.279,6.279,0,1,1-6.279-6.278A6.286,6.286,0,0,1,100.211,113.974Zm17.636-84.806a5.03,5.03,0,0,1,1.114,4.055l-2.25,16.882H91.247l1.5-22.579h21.222a5.033,5.033,0,0,1,3.873,1.641Zm-53.146,51L63.2,57.59H83.247L81.741,80.168Zm-2-30.063-1.5-22.579H85.25l-1.5,22.579ZM53.69,27.526l1.5,22.579H27.06L24.05,27.526ZM28.058,57.59H55.694L57.2,80.168H31.069Zm77.9,22.579H89.242L90.748,57.59h24.964l-2.119,15.893a8.032,8.032,0,0,1-7.637,6.685Zm0,0" transform="translate(1070.8 3085.896)" fill="#c2941b"/>
    </g>
    <g id="Group_2723" data-name="Group 2723" transform="translate(35 45)">
      <rect id="Rectangle_136" data-name="Rectangle 136" width="160" height="160" transform="translate(1465 2985)" fill="none"/>
      <g id="home" transform="translate(1477.092 2984.693)">
        <path id="Path_1169" data-name="Path 1169" d="M142.879,272.992H52.26A12.274,12.274,0,0,1,40,260.732v-64.5a4.264,4.264,0,1,1,8.529,0v64.5a3.736,3.736,0,0,0,3.731,3.731h90.619a3.735,3.735,0,0,0,3.731-3.731v-64.5a4.264,4.264,0,1,1,8.529,0v64.5A12.274,12.274,0,0,1,142.879,272.992Z" transform="translate(-29.339 -129.052)" fill="#ca371a"/>
        <path id="Path_1170" data-name="Path 1170" d="M132.2,82.1a4.25,4.25,0,0,1-3.015-1.249L76.146,27.815a11.206,11.206,0,0,0-15.831,0L7.28,80.851A4.264,4.264,0,0,1,1.249,74.82L54.285,21.784a19.745,19.745,0,0,1,27.892,0L135.212,74.82A4.265,4.265,0,0,1,132.2,82.1Z" transform="translate(0 0)" fill="#ca371a"/>
        <path id="Path_1171" data-name="Path 1171" d="M214.38,343.42H180.264A4.264,4.264,0,0,1,176,339.156V301.309a13.341,13.341,0,0,1,13.326-13.326h15.992a13.341,13.341,0,0,1,13.326,13.326v37.847A4.264,4.264,0,0,1,214.38,343.42Zm-29.851-8.529h25.586V301.309a4.8,4.8,0,0,0-4.8-4.8H189.326a4.8,4.8,0,0,0-4.8,4.8Z" transform="translate(-129.091 -199.48)" fill="#ca371a"/>
      </g>
    </g>
    <path id="Path_1244" data-name="Path 1244" d="M348.421,1417.786l-19.858-18.39,12.553-13.556,3.9,3.61-8.109,8.756,4.072,3.771,7.309-7.893,3.908,3.619-7.31,7.893,7.98,7.39Zm19.332-19.68-16.339-21.578,8.913-6.749a11.71,11.71,0,0,1,4.85-2.3,8.025,8.025,0,0,1,4.6.419,9.208,9.208,0,0,1,3.859,3.1,8.834,8.834,0,0,1,1.9,4.546,7.683,7.683,0,0,1-.965,4.461l10.7,4.828-5.689,4.308-9.533-4.4-2.676,2.026,5.593,7.385Zm-3.489-15.444,2.571-1.947a5.453,5.453,0,0,0,2.146-2.727,3.247,3.247,0,0,0-.747-2.891q-2.258-2.981-5.851-.261l-2.571,1.947Zm44.742-26.144a15.447,15.447,0,0,1,1.947,7.517,11.716,11.716,0,0,1-1.964,6.323,14.159,14.159,0,0,1-11.676,6.02,11.67,11.67,0,0,1-6.283-2.074,17.655,17.655,0,0,1-6.944-13.452,11.641,11.641,0,0,1,1.955-6.311,14.185,14.185,0,0,1,11.673-6.026,11.73,11.73,0,0,1,6.289,2.056A15.441,15.441,0,0,1,409.005,1356.518Zm-5.942,3.068a9.639,9.639,0,0,0-4.253-4.638,6.06,6.06,0,0,0-8.144,4.2,11.946,11.946,0,0,0,5.571,10.792,6.06,6.06,0,0,0,8.144-4.2A9.635,9.635,0,0,0,403.063,1359.585Zm13-20.688,7.733-2.416,11.556,13.946.3-.095,1.563-18.044,7.733-2.416,8.071,25.834-6.08,1.9-4.957-15.869-.215.067-1.3,17.644-3.885,1.214-11.14-13.854-.215.067,4.985,15.957-6.08,1.9Zm59.559-9.264-.478-5.291,22.783-2.057.478,5.291-8.174.738,1.957,21.665-6.423.58-1.956-21.665Zm34.417,19.337,1.036-27.046,6.537.25-.416,10.855,10.657.408.415-10.855,6.524.25-1.036,27.046-6.524-.25.416-10.868-10.657-.408-.416,10.869Zm34.234,2.121,4.45-26.7,18.615,3.1-.873,5.24-12.162-2.027-.913,5.475,11.211,1.869-.876,5.253-11.211-1.869-.915,5.488,12.162,2.027-.873,5.241Zm72.7,2.271-6.166-2.375a4.918,4.918,0,0,0-.36-3.608,5.306,5.306,0,0,0-2.941-2.421,5.577,5.577,0,0,0-5.107.334,9.537,9.537,0,0,0-3.736,5.012q-1.449,3.762-.607,6.3a5.629,5.629,0,0,0,3.542,3.58,5.566,5.566,0,0,0,3.706.252,4.777,4.777,0,0,0,2.719-2.225l6.152,2.412a10.451,10.451,0,0,1-2.25,2.936,10.958,10.958,0,0,1-3.353,2.107,11.432,11.432,0,0,1-4.239.8,14.406,14.406,0,0,1-10.473-4.854,11.553,11.553,0,0,1-2.575-6.055,15.714,15.714,0,0,1,1.151-7.658,15.534,15.534,0,0,1,4.315-6.46,11.68,11.68,0,0,1,6-2.739,13.209,13.209,0,0,1,6.659.837,13.848,13.848,0,0,1,5.046,3.225,10.448,10.448,0,0,1,2.681,4.75A11.3,11.3,0,0,1,616.978,1353.363Zm31.437,21.631a15.447,15.447,0,0,1-5.335,5.642,11.715,11.715,0,0,1-6.4,1.7,14.16,14.16,0,0,1-11.3-6.695,11.673,11.673,0,0,1-1.581-6.425,17.655,17.655,0,0,1,7.708-13.029,11.64,11.64,0,0,1,6.386-1.7,14.185,14.185,0,0,1,11.306,6.689,11.732,11.732,0,0,1,1.6,6.421A15.441,15.441,0,0,1,648.415,1374.995Zm-5.755-3.4a9.635,9.635,0,0,0,1.671-6.068,6.06,6.06,0,0,0-7.888-4.667,11.945,11.945,0,0,0-6.184,10.453,6.06,6.06,0,0,0,7.888,4.667A9.636,9.636,0,0,0,642.66,1371.59Zm11.263,24.438,12.842-25.093,5.258,4.96-9.2,15.7.163.154,15.563-9.7,4.288,4.044-8.8,16.131.163.154,15.177-10.119,5.249,4.952-24.292,14.293-4.586-4.326,7.715-15.286-.154-.145-14.81,8.594Zm98.894,173.649,3.923-3.582,15.425,16.893-3.923,3.582-5.534-6.06-16.064,14.667-4.348-4.762,16.064-14.667Zm37.414,44.555a15.444,15.444,0,0,1-5.9,5.051,11.716,11.716,0,0,1-6.543,1.014,14.161,14.161,0,0,1-10.537-7.844,11.675,11.675,0,0,1-.9-6.555,17.654,17.654,0,0,1,9.033-12.148,11.638,11.638,0,0,1,6.529-1.016,14.184,14.184,0,0,1,10.541,7.839,11.726,11.726,0,0,1,.916,6.553A15.432,15.432,0,0,1,790.23,1614.233Zm-5.366-3.991a9.637,9.637,0,0,0,2.3-5.859,6.06,6.06,0,0,0-7.354-5.469,11.946,11.946,0,0,0-7.247,9.746,6.059,6.059,0,0,0,7.354,5.469A9.634,9.634,0,0,0,784.864,1610.242Zm53.753,27.276a15.446,15.446,0,0,1-4.447,6.365,11.715,11.715,0,0,1-6.081,2.618,14.162,14.162,0,0,1-12.164-4.96,11.673,11.673,0,0,1-2.509-6.123,17.655,17.655,0,0,1,5.709-14.021,11.642,11.642,0,0,1,6.066-2.617,14.186,14.186,0,0,1,12.167,4.954,11.726,11.726,0,0,1,2.526,6.116A15.437,15.437,0,0,1,838.617,1637.518ZM832.424,1635a9.636,9.636,0,0,0,.76-6.248,6.06,6.06,0,0,0-8.488-3.456,11.949,11.949,0,0,0-4.58,11.249A6.06,6.06,0,0,0,828.6,1640,9.634,9.634,0,0,0,832.424,1635Zm36.812-3.25,6.309,1.518-4.184,17.384a9.072,9.072,0,0,1-2.619,4.725,8.943,8.943,0,0,1-4.661,2.2,16.944,16.944,0,0,1-11.66-2.806,8.892,8.892,0,0,1-3.151-4.075,9.1,9.1,0,0,1-.176-5.4l4.184-17.384,6.36,1.53-4.125,17.14a3.556,3.556,0,0,0,.638,3.165,5.514,5.514,0,0,0,3.2,1.892,5.585,5.585,0,0,0,3.743-.221,3.549,3.549,0,0,0,2.015-2.526Zm13.879,30.124,2.82-26.918,11.12,1.165a11.72,11.72,0,0,1,5.111,1.638,8.027,8.027,0,0,1,3.073,3.451,9.207,9.207,0,0,1,.7,4.9,8.831,8.831,0,0,1-1.719,4.617,7.684,7.684,0,0,1-3.753,2.6l4.512,10.837-7.1-.743-3.951-9.729-3.338-.349-.965,9.213Zm8.008-13.658,3.207.336a5.451,5.451,0,0,0,3.43-.524,3.246,3.246,0,0,0,1.431-2.621q.389-3.719-4.092-4.189l-3.207-.336Zm43.3,16.158-1.949-27,18.428-1.331.383,5.3-11.9.859.4,5.536,10.729-.775.384,5.312-10.729.775.783,10.848Zm33.764-3.5-6.909,1.3,3.951-28.29,8.558-1.616,14,24.9-6.908,1.3-2.808-5.253-9.181,1.734Zm1.309-11.087,6.116-1.155-4.742-8.869-.208.039Zm47.35-19.973-6.253,2.137a4.915,4.915,0,0,0-2.592-2.536,5.306,5.306,0,0,0-3.809.031,5.578,5.578,0,0,0-3.7,3.534,9.537,9.537,0,0,0,.353,6.241q1.3,3.815,3.579,5.222a5.63,5.63,0,0,0,5.015.472,5.565,5.565,0,0,0,3-2.186,4.773,4.773,0,0,0,.657-3.45l6.266-2.1a10.459,10.459,0,0,1,.16,3.7,10.964,10.964,0,0,1-1.219,3.769,11.44,11.44,0,0,1-2.735,3.337,14.409,14.409,0,0,1-11.146,3,11.546,11.546,0,0,1-5.861-2.99,15.708,15.708,0,0,1-4.033-6.61,15.533,15.533,0,0,1-.838-7.723,11.678,11.678,0,0,1,2.84-5.95,13.21,13.21,0,0,1,5.644-3.633,13.843,13.843,0,0,1,5.939-.766,10.454,10.454,0,0,1,5.1,1.921A11.3,11.3,0,0,1,1016.844,1629.813Zm7.545-8.157-2.463-4.707,20.268-10.607,2.463,4.707-7.271,3.805,10.086,19.273-5.714,2.99-10.086-19.273Zm53.123-24.108a15.446,15.446,0,0,1,3.212,7.07,11.715,11.715,0,0,1-.846,6.567,14.157,14.157,0,0,1-10.466,7.939,11.667,11.667,0,0,1-6.546-.961,17.656,17.656,0,0,1-9.156-12.056,11.642,11.642,0,0,1,.84-6.554,14.18,14.18,0,0,1,10.461-7.944,11.725,11.725,0,0,1,6.549.943A15.436,15.436,0,0,1,1077.512,1597.548Zm-5.325,4.045a9.639,9.639,0,0,0-4.989-3.837,6.06,6.06,0,0,0-7.3,5.543,11.945,11.945,0,0,0,7.345,9.672,6.06,6.06,0,0,0,7.3-5.542A9.637,9.637,0,0,0,1072.187,1601.592Zm24.185-3.422-20.3-17.9,7.393-8.387a11.706,11.706,0,0,1,4.3-3.216,8.021,8.021,0,0,1,4.593-.505,9.207,9.207,0,0,1,4.4,2.274,8.836,8.836,0,0,1,2.766,4.077,7.68,7.68,0,0,1-.058,4.563l11.447,2.6-4.719,5.354-10.218-2.417-2.22,2.518,6.95,6.126Zm-6.491-14.441,2.132-2.419a5.455,5.455,0,0,0,1.56-3.1,3.244,3.244,0,0,0-1.307-2.684q-2.805-2.473-5.785.907l-2.132,2.419Zm60.064-175.96-3.973-3.527,15.189-17.106,3.973,3.527-5.449,6.137,16.266,14.443-4.283,4.822-16.266-14.443Zm49.124-34.107a15.445,15.445,0,0,1,3.224,7.064,11.711,11.711,0,0,1-.834,6.568,14.16,14.16,0,0,1-10.451,7.959,11.676,11.676,0,0,1-6.548-.949,17.655,17.655,0,0,1-9.178-12.039,11.643,11.643,0,0,1,.828-6.555,14.186,14.186,0,0,1,10.447-7.964,11.731,11.731,0,0,1,6.551.931A15.438,15.438,0,0,1,1199.069,1373.661Zm-5.318,4.054a9.636,9.636,0,0,0-5-3.828,6.06,6.06,0,0,0-7.289,5.556,11.947,11.947,0,0,0,7.363,9.659,6.06,6.06,0,0,0,7.289-5.556A9.638,9.638,0,0,0,1193.75,1377.715Zm23.4-29.869,6.731-2.847,9.683,8.2.219-.092.858-12.66,6.731-2.847-2.094,20.458,3.522,8.326-5.988,2.533-3.522-8.325Zm62.952-7.1a15.448,15.448,0,0,1,.243,7.761,11.717,11.717,0,0,1-3.309,5.735,14.162,14.162,0,0,1-12.715,3.3,11.673,11.673,0,0,1-5.672-3.407,17.658,17.658,0,0,1-3.809-14.652,11.646,11.646,0,0,1,3.3-5.725,14.186,14.186,0,0,1,12.714-3.3,11.726,11.726,0,0,1,5.681,3.391A15.437,15.437,0,0,1,1280.1,1340.749Zm-6.472,1.682a9.631,9.631,0,0,0-3.126-5.462,6.06,6.06,0,0,0-8.87,2.306,11.947,11.947,0,0,0,3.056,11.755,6.06,6.06,0,0,0,8.87-2.306A9.633,9.633,0,0,0,1273.632,1342.432Zm33.106-19.041,6.448-.729,2.009,17.767a9.073,9.073,0,0,1-.846,5.336,8.939,8.939,0,0,1-3.63,3.656,16.941,16.941,0,0,1-11.917,1.348,8.894,8.894,0,0,1-4.354-2.753,9.1,9.1,0,0,1-2.01-5.013l-2.009-17.768,6.5-.735,1.981,17.518a3.557,3.557,0,0,0,1.682,2.756,5.514,5.514,0,0,0,3.655.684,5.584,5.584,0,0,0,3.442-1.487,3.548,3.548,0,0,0,1.03-3.062Zm20.078,25.729.371-27.063,11.179.153a11.713,11.713,0,0,1,5.238,1.169,8.02,8.02,0,0,1,3.373,3.159,9.2,9.2,0,0,1,1.137,4.82,8.834,8.834,0,0,1-1.294,4.753,7.682,7.682,0,0,1-3.5,2.926l5.475,10.384-7.135-.1-4.815-9.331-3.356-.046-.127,9.263Zm6.739-14.327,3.224.044a5.459,5.459,0,0,0,3.368-.833,3.247,3.247,0,0,0,1.187-2.74q.052-3.739-4.455-3.8l-3.224-.044Zm57.74,1.643a3.1,3.1,0,0,0-.7-2.453,5.889,5.889,0,0,0-5.675-1.24,2.242,2.242,0,0,0-1.308,1.6,2.03,2.03,0,0,0,.651,2.053,9.164,9.164,0,0,0,2.65,1.634l2.175.978a12.83,12.83,0,0,1,5.445,4.052,6.917,6.917,0,0,1,1.066,5.568,7.183,7.183,0,0,1-3.99,5.342q-3.214,1.563-8.175.561a13.232,13.232,0,0,1-7.543-3.875q-2.542-2.866-1.669-7.53l6.141,1.24a3.723,3.723,0,0,0,.827,3.18,5.7,5.7,0,0,0,3.236,1.671,5.286,5.286,0,0,0,3.172-.155,2.406,2.406,0,0,0,1.5-1.76,2.11,2.11,0,0,0-.677-1.99,10.629,10.629,0,0,0-2.976-1.821l-2.642-1.208a12.336,12.336,0,0,1-4.9-3.653,6.168,6.168,0,0,1-1.009-5.186,7.286,7.286,0,0,1,2.195-4.06,8.919,8.919,0,0,1,4.268-2.138,13.565,13.565,0,0,1,5.59.057,13.01,13.01,0,0,1,5.146,2.124,8.469,8.469,0,0,1,2.942,3.627,7.949,7.949,0,0,1,.4,4.618Zm18.4,1.6,1.736-5.021,21.62,7.476-1.737,5.021-7.756-2.682-7.11,20.558-6.1-2.108,7.11-20.558Zm50.967,31.029a15.438,15.438,0,0,1-5.037,5.91,11.714,11.714,0,0,1-6.3,2.022,14.156,14.156,0,0,1-11.632-6.1,11.666,11.666,0,0,1-1.909-6.335,17.655,17.655,0,0,1,7.028-13.408,11.643,11.643,0,0,1,6.29-2.022,14.188,14.188,0,0,1,11.635,6.1,11.731,11.731,0,0,1,1.927,6.329A15.436,15.436,0,0,1,1460.663,1369.069Zm-5.922-3.1a9.636,9.636,0,0,0,1.355-6.145,6.059,6.059,0,0,0-8.117-4.255,11.948,11.948,0,0,0-5.638,10.757,6.06,6.06,0,0,0,8.118,4.255A9.636,9.636,0,0,0,1454.741,1365.965Zm7.727,20.455,16.492-21.46,8.865,6.813a11.714,11.714,0,0,1,3.5,4.071,8.026,8.026,0,0,1,.812,4.549,9.2,9.2,0,0,1-1.974,4.542,8.837,8.837,0,0,1-3.882,3.034,7.687,7.687,0,0,1-4.557.248l-1.828,11.6-5.658-4.349,1.726-10.357-2.661-2.045-5.646,7.346Zm13.973-7.446,2.557,1.965a5.453,5.453,0,0,0,3.2,1.349,3.245,3.245,0,0,0,2.591-1.484q2.279-2.965-1.294-5.711l-2.557-1.965Zm9.569,26.667,20.075-18.154,12.657,14-3.94,3.563-8.27-9.145-4.117,3.723,7.623,8.43-3.95,3.572-7.623-8.43-4.127,3.732,8.27,9.146-3.941,3.563Zm74.024,141.942,4.5-2.824,12.162,19.375-4.5,2.824-4.363-6.95-18.424,11.565-3.429-5.462,18.424-11.565Zm29.467,49.973a15.436,15.436,0,0,1-6.6,4.094,11.713,11.713,0,0,1-6.621.006,14.157,14.157,0,0,1-9.22-9.357,11.667,11.667,0,0,1,.111-6.616,17.656,17.656,0,0,1,10.778-10.63,11.64,11.64,0,0,1,6.607-.01,14.184,14.184,0,0,1,9.225,9.352,11.733,11.733,0,0,1-.092,6.616A15.438,15.438,0,0,1,1589.5,1597.555Zm-4.7-4.761a9.638,9.638,0,0,0,3.164-5.44,6.061,6.061,0,0,0-6.436-6.526,11.946,11.946,0,0,0-8.647,8.528,6.06,6.06,0,0,0,6.436,6.526A9.639,9.639,0,0,0,1584.8,1592.795Zm32.882,9.174,6.359,3.6-.6,12.675.207.118,10.561-7.035,6.359,3.6-17.5,10.807-4.455,7.866-5.657-3.2,4.455-7.866Zm48.507,37.542a15.437,15.437,0,0,1-4.272,6.484,11.715,11.715,0,0,1-6.007,2.783,14.157,14.157,0,0,1-12.295-4.627,11.67,11.67,0,0,1-2.675-6.051,17.657,17.657,0,0,1,5.325-14.172,11.645,11.645,0,0,1,5.993-2.781,14.185,14.185,0,0,1,12.3,4.62,11.729,11.729,0,0,1,2.691,6.044A15.435,15.435,0,0,1,1666.194,1639.51Zm-6.26-2.352a9.639,9.639,0,0,0,.59-6.266,6.06,6.06,0,0,0-8.58-3.223,11.946,11.946,0,0,0-4.272,11.369,6.06,6.06,0,0,0,8.58,3.223A9.631,9.631,0,0,0,1659.934,1637.158Zm36.72-4.2,6.345,1.359-3.744,17.484a9.073,9.073,0,0,1-2.5,4.79,8.944,8.944,0,0,1-4.6,2.312,16.939,16.939,0,0,1-11.727-2.511,8.89,8.89,0,0,1-3.253-3.995,9.1,9.1,0,0,1-.312-5.392l3.744-17.484,6.4,1.37-3.691,17.239a3.557,3.557,0,0,0,.718,3.148,5.513,5.513,0,0,0,3.248,1.81,5.587,5.587,0,0,0,3.737-.314,3.55,3.55,0,0,0,1.95-2.576Zm14.616,29.773,2.174-26.978,11.144.9a11.707,11.707,0,0,1,5.148,1.515,8.022,8.022,0,0,1,3.155,3.376,9.2,9.2,0,0,1,.813,4.885,8.832,8.832,0,0,1-1.609,4.657,7.681,7.681,0,0,1-3.69,2.686l4.771,10.726-7.114-.573-4.182-9.631-3.346-.27-.744,9.234Zm7.678-13.846,3.214.259a5.456,5.456,0,0,0,3.416-.606,3.247,3.247,0,0,0,1.367-2.654q.3-3.727-4.192-4.09l-3.214-.259Zm43.665,15.134-2.593-26.941,18.391-1.77.509,5.288-11.879,1.143.532,5.525,10.708-1.03.511,5.3-10.709,1.03,1.042,10.826Zm31.355-3.762-5.825-26.431,10.918-2.406a11.714,11.714,0,0,1,5.366-.059,8.022,8.022,0,0,1,4.006,2.3,9.2,9.2,0,0,1,2.208,4.433,8.831,8.831,0,0,1-.173,4.924,7.688,7.688,0,0,1-2.741,3.649l7.7,8.858-6.969,1.536-6.821-7.983-3.278.722,1.994,9.047Zm3.285-15.488,3.149-.694a5.457,5.457,0,0,0,3.089-1.581,3.248,3.248,0,0,0,.529-2.938q-.8-3.652-5.206-2.682l-3.149.693Zm30.279,7.121-9.212-25.449,17.745-6.424,1.808,5-11.594,4.2,1.889,5.219,10.687-3.868,1.813,5.007-10.687,3.869,1.894,5.231,11.594-4.2,1.808,5Zm30.7-12.111-12.6-23.952,16.7-8.787,2.474,4.7-10.912,5.741,2.585,4.912,10.058-5.292,2.48,4.714-10.058,5.292,2.591,4.924,10.912-5.742,2.473,4.7Zm28.917-16.323-2.232-2.984-.267-22.311-10.52,7.868-3.182-4.254,17.144-12.823,2.232,2.984.267,22.311,10.519-7.868,3.182,4.254Zm28.035-22.675-19.838-18.412,12.838-13.833,3.894,3.614-8.388,9.037,4.068,3.776,7.732-8.331,3.9,3.623-7.731,8.331,4.078,3.785,8.388-9.037,3.894,3.614Zm22.068-25.834-23.208-13.927,5.753-9.587a11.714,11.714,0,0,1,3.643-3.94,8.025,8.025,0,0,1,4.427-1.328,9.207,9.207,0,0,1,4.738,1.441,8.834,8.834,0,0,1,3.458,3.509,7.68,7.68,0,0,1,.768,4.5l11.729.488-3.672,6.119-10.487-.529-1.728,2.878,7.944,4.767Zm-9-13.028,1.659-2.765a5.457,5.457,0,0,0,.974-3.33,3.246,3.246,0,0,0-1.771-2.4q-3.207-1.924-5.526,1.94l-1.66,2.765ZM728.531,1538.126a121.572,121.572,0,0,1-8.6-44.806,128.621,128.621,0,0,0-15.585-60.974l-4.476,2.392a123.532,123.532,0,0,1,14.986,58.581,126.661,126.661,0,0,0,8.957,46.668l4.721-1.862Zm11.745-22.018-4.669-2-9.826,23.012-22.235-11.482-2.326,4.515,27.083,13.979Zm396.239-74.127a127.2,127.2,0,0,0-10.9,51.339,122.415,122.415,0,0,1-11.443,51.453l4.61,2.122a127.5,127.5,0,0,0,11.907-53.575,122.106,122.106,0,0,1,10.475-49.3l-4.648-2.039Zm-22.968,8.941,2.149,4.6,22.66-10.611,8.929,23.378,4.743-1.817-10.88-28.47ZM1545.2,1523.15a120.4,120.4,0,0,1-3.752-29.83,128.934,128.934,0,0,0-16.574-62.791l-4.44,2.457a123.846,123.846,0,0,1,15.939,60.334,125.472,125.472,0,0,0,3.91,31.084l4.917-1.254Zm14.432-20.364-4.38-2.572L1542.6,1521.8l-20.612-14.193-2.876,4.186,25.106,17.28Z" transform="translate(-178.563 1617.075)" fill="url(#linear-gradient)"/>
  </g>
</svg>
