<svg xmlns="http://www.w3.org/2000/svg" width="280.093" height="56.243" viewBox="0 0 280.093 56.243">
  <g id="Group_49" data-name="Group 49" transform="translate(17898.131 1834.122)">
    <g id="_ffd200ff" data-name="#ffd200ff" transform="translate(-17898.131 -1834.122)">
      <path id="Path_982" data-name="Path 982" d="M26.429,0h3.446A28.41,28.41,0,0,1,56.218,25.836c0,.179.005.537.005.721-5.456.066-10.911.02-16.367.026a12.538,12.538,0,0,0-5.082-8.15,11.754,11.754,0,1,0-2.342,20.626,12.169,12.169,0,0,0,7.22-8.355c2.8-.041,5.6-.026,8.411-.026v3.068h4.09V30.694q2.009-.023,4.019-.061a28.537,28.537,0,0,1-9.766,18.852,28.787,28.787,0,0,1-16.561,6.759h-3.5A28.357,28.357,0,0,1,0,29.855v-3.9A28.9,28.9,0,0,1,7.987,8.508,28.571,28.571,0,0,1,26.429,0Z" fill="#1e6fb1"/>
      <path id="Path_983" data-name="Path 983" d="M45.811,40.2A7.666,7.666,0,1,1,40.059,48.7,7.712,7.712,0,0,1,45.811,40.2Z" transform="translate(-19.535 -19.526)" fill="#1e6fb1"/>
    </g>
    <path id="Path_984" data-name="Path 984" d="M1.776,0H5.088V-13.44h.24L9.408,0h5.448V-16.32H11.544V-2.88H11.3L7.368-16.32H1.776Zm22.68-2.592c-2.688,0-3.36-1.7-3.36-5.472s.672-5.664,3.36-5.664,3.36,1.9,3.36,5.664S27.144-2.592,24.456-2.592Zm0,2.88c5.136,0,6.768-2.832,6.768-8.352s-1.632-8.544-6.768-8.544-6.768,3.024-6.768,8.544S19.32.288,24.456.288Zm16.1-5.76L42.456,0H46.08L43.752-6.24a5.168,5.168,0,0,0,2.4-4.7c0-3.72-2.04-5.376-5.76-5.376H34.056V0h3.312V-5.472ZM42.768-10.9c0,1.44-.672,2.592-2.328,2.592H37.368v-5.184h3.024C41.976-13.488,42.768-12.456,42.768-10.9Zm16.44,7.92a36.409,36.409,0,0,1-4.1.336c-2.832,0-3.408-1.128-3.408-5.52,0-4.632.792-5.52,3.312-5.52a35.854,35.854,0,0,1,4.2.36l.1-2.64a23.185,23.185,0,0,0-4.776-.648c-4.848,0-6.24,2.256-6.24,8.448,0,5.712,1.2,8.448,6.24,8.448A26.955,26.955,0,0,0,59.28-.264ZM60.6,0h3.312l.648-2.952h5.712L70.92,0h3.312L70.56-16.32H64.272Zm6.24-13.584h1.152l1.656,7.752H65.184ZM85.7,0V-2.928H79.728V-16.32H76.416V0Zm16.608,0V-2.928H96.336V-16.32H93.024V0Zm7.944-2.592c-2.688,0-3.36-1.7-3.36-5.472s.672-5.664,3.36-5.664,3.36,1.9,3.36,5.664S112.944-2.592,110.256-2.592Zm0,2.88c5.136,0,6.768-2.832,6.768-8.352s-1.632-8.544-6.768-8.544-6.768,3.024-6.768,8.544S105.12.288,110.256.288Zm19.872-3.264a36.409,36.409,0,0,1-4.1.336c-2.832,0-3.408-1.128-3.408-5.52,0-4.632.792-5.52,3.312-5.52a35.854,35.854,0,0,1,4.2.36l.1-2.64a23.185,23.185,0,0,0-4.776-.648c-4.848,0-6.24,2.256-6.24,8.448,0,5.712,1.2,8.448,6.24,8.448A26.955,26.955,0,0,0,130.2-.264ZM141.144,0h3.816l-3.648-8.136,3.552-8.184H141.1l-2.688,6.936-2.208.24V-16.32h-3.312V0H136.2V-6.264l2.208-.24Zm16.032-15.96a34.082,34.082,0,0,0-5.376-.648c-3.312,0-5.568,1.464-5.568,4.848,0,2.616,1.392,3.864,5.064,4.92,2.352.672,2.928,1.128,2.928,2.136,0,1.272-.768,2.112-2.544,2.112-1.7,0-4.92-.432-4.92-.432l-.336,2.568a30.4,30.4,0,0,0,5.448.744c3.216,0,5.64-1.656,5.64-5.208,0-2.712-1.08-3.7-4.608-4.824-2.736-.864-3.384-1.224-3.384-2.256,0-1.08.84-1.728,2.616-1.728,1.392,0,4.776.384,4.776.384Zm3,15.96h3.312V-12.624h.36L167.04-.72h3.312l3.192-11.9h.36V0h3.312V-16.32h-5.64l-2.88,11.9-2.88-11.9h-5.64Zm20.592,0h3.312V-16.32h-3.312Zm5.4-13.392h4.368V0h3.312V-13.392h4.32V-16.32h-12ZM209.64,0h3.312V-16.32H209.64v6.672h-6.072V-16.32h-3.312V0h3.312V-6.768h6.072Z" transform="translate(-17832 -1810)" fill="#fff"/>
    <path id="Path_985" data-name="Path 985" d="M6.44,2.184,8.2,1.358,7.042-.518c1.05-.77,1.47-2.114,1.47-4.186,0-3.22-.952-4.984-3.948-4.984S.616-7.924.616-4.7c0,3.248.952,4.872,3.948,4.872A3.517,3.517,0,0,0,5.18.126Zm-1.876-3.7C3-1.512,2.6-2.478,2.6-4.7c0-2.2.392-3.3,1.96-3.3S6.524-6.9,6.524-4.7C6.524-2.478,6.132-1.512,4.564-1.512ZM14.126-7v5.236a4.176,4.176,0,0,1-1.344.252c-.924,0-.98-.546-.98-1.792V-7H9.926v3.668c0,2.366.42,3.5,2.464,3.5a4.612,4.612,0,0,0,1.75-.56V0H16V-7ZM23.1-4.816c0-1.638-.728-2.352-2.548-2.352a12.753,12.753,0,0,0-2.842.406l.056,1.3s1.708-.112,2.632-.112c.56,0,.826.154.826.756v.434l-1.5.112c-1.54.112-2.45.56-2.45,2.142,0,1.484.7,2.3,2.17,2.3A5.389,5.389,0,0,0,21.5-.322a3.116,3.116,0,0,0,2,.49l.056-1.414c-.378-.07-.434-.238-.462-.658ZM21.224-3.08v1.5a5.981,5.981,0,0,1-1.372.224c-.5,0-.686-.336-.686-.826s.294-.742.784-.784ZM24.976,0h1.876V-9.8H24.976Zm3.7,0h1.876V-7H28.672Zm0-7.9h1.876V-9.8H28.672ZM36.162-5.4V-7H34.44V-8.946H32.564V-7h-.826v1.6h.826v2.912c0,2.016.49,2.66,2.184,2.66a9.138,9.138,0,0,0,1.428-.21l-.084-1.5s-.672.028-1.064.028c-.588,0-.588-.322-.588-1.022V-5.4ZM36.736-7l1.722,7h1.316L39,2.94h1.834L43.3-7H41.454L40.18-1.6h-.322L38.584-7Zm16.31,7V-1.708H49.56V-9.52H47.628V0Zm3.878-7.168c-2.436,0-3.22,1.5-3.22,3.654S54.488.168,56.924.168s3.22-1.526,3.22-3.682S59.36-7.168,56.924-7.168Zm0,5.74c-1.036,0-1.316-.728-1.316-2.086s.28-2.058,1.316-2.058,1.316.7,1.316,2.058S57.96-1.428,56.924-1.428Zm7.21-5.74c-2.086,0-2.954,1.12-2.954,3.6,0,2.632.826,3.738,2.912,3.738a16.5,16.5,0,0,0,2.282-.294l-.056-1.5s-1.092.112-1.624.112c-1.344,0-1.61-.49-1.61-2.058,0-1.4.252-1.918,1.6-1.918.532,0,1.638.112,1.638.112l.056-1.484A14.334,14.334,0,0,0,64.134-7.168ZM69.636,0V-2.6l.77-.126L71.82,0h2.114L72.016-3.682,73.836-7h-2.1L70.35-4.354l-.714.126V-9.8H67.76V0ZM81-9.31a19.881,19.881,0,0,0-3.136-.378c-1.932,0-3.248.854-3.248,2.828,0,1.526.812,2.254,2.954,2.87,1.372.392,1.708.658,1.708,1.246,0,.742-.448,1.232-1.484,1.232-.994,0-2.87-.252-2.87-.252l-.2,1.5A17.734,17.734,0,0,0,77.91.168C79.786.168,81.2-.8,81.2-2.87c0-1.582-.63-2.156-2.688-2.814-1.6-.5-1.974-.714-1.974-1.316,0-.63.49-1.008,1.526-1.008.812,0,2.786.224,2.786.224ZM84.462,0V-5.236a3.881,3.881,0,0,1,1.246-.252c.868,0,.98.63.98,1.89V0h1.876V-3.626c0-.546-.056-1.6-.056-1.6a4.773,4.773,0,0,1,1.3-.266c.84,0,.98.686.98,1.75V0h1.876V-3.794c0-2.254-.56-3.374-2.464-3.374a6.315,6.315,0,0,0-2.352.658,2.221,2.221,0,0,0-1.75-.658,4.294,4.294,0,0,0-1.652.56V-7H82.586V0Zm9.87,0h1.876V-7H94.332Zm0-7.9h1.876V-9.8H94.332Zm7.49,2.492V-7H100.1V-8.946H98.224V-7H97.4v1.6h.826v2.912c0,2.016.49,2.66,2.184,2.66a9.138,9.138,0,0,0,1.428-.21l-.084-1.5s-.672.028-1.064.028c-.588,0-.588-.322-.588-1.022V-5.4ZM104.916,0V-5.264a4.607,4.607,0,0,1,1.274-.224c.91,0,1.05.686,1.05,1.736V0h1.876V-3.794c0-2.142-.5-3.374-2.464-3.374a4.645,4.645,0,0,0-1.736.5V-9.8H103.04V0Zm5.278,1.722h1.512l1.26-3.64h-2.072ZM116.914,0h1.932l.378-1.722h3.332L122.934,0h1.932l-2.142-9.52h-3.668Zm3.64-7.924h.672l.966,4.522h-2.6Zm7.518,2.52h1.694V-7h-1.694v-.294c0-.714.14-.994.672-.994.448,0,1.064.028,1.064.028l.028-1.526a15.687,15.687,0,0,0-1.6-.182c-1.526,0-2.044.644-2.044,2.66V-7h-.756v1.6h.756V0h1.876Zm5,0h1.694V-7H133.07v-.294c0-.714.14-.994.672-.994.448,0,1.064.028,1.064.028l.028-1.526a15.687,15.687,0,0,0-1.6-.182c-1.526,0-2.044.644-2.044,2.66V-7h-.756v1.6h.756V0h1.876Zm5.586-1.764c-2.436,0-3.22,1.5-3.22,3.654s.784,3.682,3.22,3.682,3.22-1.526,3.22-3.682S141.092-7.168,138.656-7.168Zm0,5.74c-1.036,0-1.316-.728-1.316-2.086s.28-2.058,1.316-2.058,1.316.7,1.316,2.058S139.692-1.428,138.656-1.428ZM143.248,0h1.876V-4.69a17.448,17.448,0,0,1,2.226-.588v-1.89a8.479,8.479,0,0,0-2.24.91V-7h-1.862Zm11.158-9.8H152.53v2.828a10.907,10.907,0,0,0-1.512-.2c-1.9,0-2.9,1.078-2.9,3.64,0,2.464.616,3.7,2.73,3.7a5.039,5.039,0,0,0,1.694-.462V0h1.862Zm-3.234,8.288c-.882,0-1.148-.588-1.148-2.016s.434-2.016,1.134-2.016a9.288,9.288,0,0,1,1.372.14v3.682A5.5,5.5,0,0,1,151.172-1.512Zm10.332-3.3c0-1.638-.728-2.352-2.548-2.352a12.753,12.753,0,0,0-2.842.406l.056,1.3s1.708-.112,2.632-.112c.56,0,.826.154.826.756v.434l-1.5.112c-1.54.112-2.45.56-2.45,2.142,0,1.484.7,2.3,2.17,2.3a5.389,5.389,0,0,0,2.058-.49,3.116,3.116,0,0,0,2,.49l.056-1.414c-.378-.07-.434-.238-.462-.658ZM159.628-3.08v1.5a5.981,5.981,0,0,1-1.372.224c-.5,0-.686-.336-.686-.826s.294-.742.784-.784Zm7.056-4.088a5,5,0,0,0-1.512.378V-9.8H163.3V-.028s2.058.2,2.73.2c2.464,0,3.486-.756,3.486-3.766C169.512-6.286,168.588-7.168,166.684-7.168Zm-.658,5.656c-.21,0-.854-.056-.854-.056V-5.306a6.047,6.047,0,0,1,1.26-.182c.728,0,1.176.476,1.176,1.89C167.608-2.086,167.314-1.512,166.026-1.512ZM171,0h1.876V-9.8H171Zm6.65-1.484c-1.008,0-1.4-.378-1.414-1.218h4.116l.14-1.3c0-2.114-.994-3.164-3.052-3.164s-3.094,1.274-3.094,3.766c0,2.52.9,3.57,3.01,3.57a14.811,14.811,0,0,0,2.912-.392l-.028-1.386S178.794-1.484,177.646-1.484ZM176.218-4.13c.014-1.064.322-1.5,1.218-1.5s1.2.364,1.2,1.5ZM188.58-2.772c2.24,0,3.388-1.232,3.388-3.444s-1.148-3.3-3.388-3.3h-3.5V0h1.932V-2.772Zm-1.568-1.652V-7.868h1.554c.966,0,1.442.462,1.442,1.652s-.476,1.792-1.442,1.792ZM193.158,0h1.876V-4.69a17.448,17.448,0,0,1,2.226-.588v-1.89a8.479,8.479,0,0,0-2.24.91V-7h-1.862Zm5.208,0h1.876V-7h-1.876Zm0-7.9h1.876V-9.8h-1.876Zm6.23.728c-2.086,0-2.954,1.12-2.954,3.6,0,2.632.826,3.738,2.912,3.738a16.5,16.5,0,0,0,2.282-.294l-.056-1.5s-1.092.112-1.624.112c-1.344,0-1.61-.49-1.61-2.058,0-1.4.252-1.918,1.6-1.918.532,0,1.638.112,1.638.112l.056-1.484A14.334,14.334,0,0,0,204.6-7.168Zm6.524,5.684c-1.008,0-1.4-.378-1.414-1.218h4.116l.14-1.3c0-2.114-.994-3.164-3.052-3.164s-3.094,1.274-3.094,3.766c0,2.52.9,3.57,3.01,3.57a14.811,14.811,0,0,0,2.912-.392L213.71-1.61S212.268-1.484,211.12-1.484ZM209.692-4.13c.014-1.064.322-1.5,1.218-1.5s1.2.364,1.2,1.5Z" transform="translate(-17832 -1789)" fill="#fff"/>
  </g>
</svg>
