<svg xmlns="http://www.w3.org/2000/svg" width="88.405" height="94.025" viewBox="0 0 88.405 94.025">
  <g id="Group_2" data-name="Group 2" transform="translate(-150 -63)">
    <g id="Logo" transform="translate(150 63)">
      <g id="Group_1" data-name="Group 1" transform="translate(0 0)">
        <path id="Path_1" data-name="Path 1" d="M109.163,42.171c2.824-.056,5.888.062,8.379,1.5a7.067,7.067,0,0,1,1.1.814,17.373,17.373,0,0,0,8.793,4.417,15.428,15.428,0,0,0,3.732.075c.1-.006.2-.011.3-.022a10.165,10.165,0,0,1,3.769.081,1.581,1.581,0,0,1,1.16,1.63c-.034.439-.134.886-.162,1.314a12.688,12.688,0,0,1-4.088,8.452c-3.389,3.2-7.854,4.991-11.217,8.209a4.909,4.909,0,0,0-.665.8,10.265,10.265,0,0,0-1.116,2.178,8.24,8.24,0,0,0-.056,5.376,77.573,77.573,0,0,0,3.291,7.42A41.658,41.658,0,0,1,126,95.889c.1,1.012.179,2.03.266,3.042.02.21.034.419.036.632a38.774,38.774,0,0,1-.576,6.453,9.741,9.741,0,0,1-.763,2.855c8.773.078,17.55.02,26.323.031q-.038-27.62-.008-55.244-20.42-15.639-40.892-31.2C96.766,32.872,83.1,43.223,69.5,53.668q0,27.612,0,55.227c7.624.224,15.249.383,22.873.682.031,0,.059,0,.089.006a5.656,5.656,0,0,1,1.9.336.683.683,0,0,1,.14,1.127,3.2,3.2,0,0,1-1.5.52,2.988,2.988,0,0,1-.386.031c-8.81.151-17.611.431-26.418.668.011-20.122-.02-40.247.014-60.368Q88.336,35.133,110.362,18.25,132.514,35.071,154.6,51.977q0,30.149,0,60.3c-15.274-.028-30.548.006-45.819-.017.117-.271.249-.534.375-.8a6.651,6.651,0,0,0,.556-1.719,28.03,28.03,0,0,0-.212-11.086.08.08,0,0,1,.084-.1,8.6,8.6,0,0,0,8.047-4.253,8.852,8.852,0,0,0,.509-1.121,1.431,1.431,0,0,0-.6-1.641c-.66-.414-1.412-.7-2.038-1.152a1.379,1.379,0,0,1-.54-.814,10.8,10.8,0,0,0-2.007-4.694,10.852,10.852,0,0,0-4.009-2.662,1.006,1.006,0,0,1-.1-.048c-.349-.19-.814-.352-.9-.783-.042-1.107.112-2.214.025-3.319a.208.208,0,0,0-.115-.165l-.008,0a1.848,1.848,0,0,0-1.18-.157,12.782,12.782,0,0,0-6.576,3.2c-2.374,2.231-3.509,5.382-4.384,8.435-.97,3.369-1.541,7.071-3.9,9.808a11.084,11.084,0,0,1-5.966,3.366c-2.883.685-5.863.394-8.8.607a.22.22,0,0,1-.165-.383C83.2,97.049,87.24,89.215,89.687,81.126c1.127-3.819,2.047-7.691,2.846-11.589a.163.163,0,0,1,.232-.112,51.042,51.042,0,0,0,6.643,3.106c.758.187,1.233-.528,1.661-1.054.064-.078.126-.159.185-.246a13.365,13.365,0,0,0,2.061-8.639c-.2-2.256-1.451-4.211-1.946-6.391a4.5,4.5,0,0,1-.084-.545,19.763,19.763,0,0,1-.257-2.894,3.056,3.056,0,0,1,.061-.45c.1-.484.14-.976.193-1.465a2.1,2.1,0,0,1,.089-.414,6.178,6.178,0,0,1,.3-.833.514.514,0,0,0,.053-.2c.006-.173.011-.414.014-.545-1.451,2.172-2.592,4.823-2.016,7.479.344,2.01,1.339,3.825,1.817,5.793a7,7,0,0,1,.182,1.3,4.645,4.645,0,0,1-.1,1.417,7.307,7.307,0,0,1-2.035,4.236,2.17,2.17,0,0,1-2.184.389c-.9-.338-1.745-.939-2.611-1.342a50.18,50.18,0,0,1-8.863-6c-.1-.092-.2-.193-.3-.294-.478-.481-1.082-.984-.973-1.728a6.2,6.2,0,0,1,.931-2.938,34.738,34.738,0,0,1,4.334-5.989,33.854,33.854,0,0,1,7.188-6.224,18.906,18.906,0,0,1,5.6-1.946c1.02-.24,2.069-.33,3.1-.542m9.766,7.557a2.023,2.023,0,1,0,2.164,2.8A2.055,2.055,0,0,0,115.568,50.019Z" transform="translate(-66.202 -18.25)" fill="#1e5a78"/>
      </g>
      <path id="Path_2" data-name="Path 2" d="M218.093,269.448a1.7,1.7,0,1,1,.078,2.9A1.689,1.689,0,0,1,218.093,269.448Z" transform="translate(-175.059 -199.031)" fill="#1e5a78"/>
    </g>
  </g>
</svg>
