<svg id="user" xmlns="http://www.w3.org/2000/svg" width="21.524" height="25.799" viewBox="0 0 21.524 25.799">
  <path id="Path_4" data-name="Path 4" d="M93.246,12.428a6.012,6.012,0,0,0,4.394-1.821,6.012,6.012,0,0,0,1.82-4.394A6.013,6.013,0,0,0,97.639,1.82a6.212,6.212,0,0,0-8.787,0,6.013,6.013,0,0,0-1.821,4.393,6.012,6.012,0,0,0,1.821,4.394A6.014,6.014,0,0,0,93.246,12.428Zm0,0" transform="translate(-82.646 0)" fill="#1e5a78"/>
  <path id="Path_5" data-name="Path 5" d="M21.472,254.693a15.347,15.347,0,0,0-.209-1.63,12.843,12.843,0,0,0-.4-1.639,8.1,8.1,0,0,0-.674-1.529,5.769,5.769,0,0,0-1.016-1.324,4.479,4.479,0,0,0-1.46-.917,5.044,5.044,0,0,0-1.863-.337,1.891,1.891,0,0,0-1.01.428c-.3.2-.657.426-1.052.678a6.029,6.029,0,0,1-1.361.6,5.286,5.286,0,0,1-3.33,0,6.016,6.016,0,0,1-1.36-.6c-.392-.25-.746-.479-1.053-.679a1.889,1.889,0,0,0-1.01-.428,5.038,5.038,0,0,0-1.863.338,4.476,4.476,0,0,0-1.46.917,5.768,5.768,0,0,0-1.016,1.324,8.112,8.112,0,0,0-.674,1.529,12.874,12.874,0,0,0-.4,1.639,15.293,15.293,0,0,0-.209,1.631C.017,255.187,0,255.7,0,256.217a4.284,4.284,0,0,0,1.272,3.241,4.58,4.58,0,0,0,3.279,1.2H16.973a4.579,4.579,0,0,0,3.278-1.2,4.282,4.282,0,0,0,1.273-3.241c0-.52-.018-1.033-.052-1.524Zm0,0" transform="translate(0 -234.854)" fill="#1e5a78"/>
</svg>
