<svg xmlns="http://www.w3.org/2000/svg" width="100" height="100" viewBox="0 0 100 100">
  <g id="Group_253" data-name="Group 253" transform="translate(-371 -1586)">
    <g id="Ellipse_15" data-name="Ellipse 15" transform="translate(371 1586)" fill="#fff3c3" stroke="#ed8666" stroke-width="3">
      <circle cx="50" cy="50" r="50" stroke="none"/>
      <circle cx="50" cy="50" r="48.5" fill="none"/>
    </g>
    <g id="medal" transform="translate(401.496 1609.731)">
      <path id="Path_989" data-name="Path 989" d="M40.5,55.31A15.31,15.31,0,1,0,55.81,40,15.328,15.328,0,0,0,40.5,55.31ZM55.81,42.041A13.269,13.269,0,1,1,42.541,55.31,13.284,13.284,0,0,1,55.81,42.041Zm0,0" transform="translate(-35.917 -35.917)" fill="#ed8666"/>
      <path id="Path_990" data-name="Path 990" d="M95.213,100.955l3.956,3.9-.91,5.479a1.021,1.021,0,0,0,1.477,1.073l4.929-2.56,4.929,2.56a1.021,1.021,0,0,0,1.477-1.073l-.91-5.479,3.956-3.9a1.021,1.021,0,0,0-.565-1.736l-5.491-.827-2.484-4.968a1.021,1.021,0,0,0-1.826,0l-2.484,4.968-5.491.827a1.021,1.021,0,0,0-.565,1.736Zm6.883-.623a1.021,1.021,0,0,0,.761-.553l1.808-3.617,1.808,3.617a1.021,1.021,0,0,0,.761.553l4,.6-2.88,2.837a1.022,1.022,0,0,0-.291.895l.663,3.987-3.588-1.863a1.02,1.02,0,0,0-.941,0l-3.588,1.863.663-3.987a1.02,1.02,0,0,0-.291-.895L98.1,100.933Zm0,0" transform="translate(-84.772 -83.381)" fill="#ed8666"/>
      <path id="Path_991" data-name="Path 991" d="M182.541,1.021A1.021,1.021,0,1,1,181.521,0,1.021,1.021,0,0,1,182.541,1.021Zm0,0" transform="translate(-161.628)" fill="#ed8666"/>
      <path id="Path_992" data-name="Path 992" d="M15.083,5.613a19.395,19.395,0,0,0-8.2,33.172L.735,49.622a1.021,1.021,0,0,0,1.1,1.5l6.983-1.45,2.454,6.916a1.02,1.02,0,0,0,1.849.163l6.776-11.913,6.776,11.913a1.02,1.02,0,0,0,.887.516c.03,0,.06,0,.09,0a1.022,1.022,0,0,0,.872-.675l2.454-6.916,6.983,1.45a1.021,1.021,0,0,0,1.1-1.5L32.9,38.785A19.395,19.395,0,0,0,24.7,5.613,1.021,1.021,0,0,0,24.2,7.591a17.352,17.352,0,1,1-8.611,0,1.021,1.021,0,1,0-.5-1.978ZM12.446,53.806,10.44,48.153A1.021,1.021,0,0,0,9.27,47.5L3.623,48.668,8.49,40.091a19.434,19.434,0,0,0,9.691,3.631ZM30.516,47.5a1.021,1.021,0,0,0-1.169.658l-2.005,5.652L21.6,43.721A19.436,19.436,0,0,0,31.3,40.091l4.867,8.577Zm0,0" transform="translate(0 -5.011)" fill="#ed8666"/>
    </g>
  </g>
</svg>
