<svg xmlns="http://www.w3.org/2000/svg" width="100" height="100" viewBox="0 0 100 100">
  <g id="Group_252" data-name="Group 252" transform="translate(-910 -1586)">
    <g id="Ellipse_16" data-name="Ellipse 16" transform="translate(910 1586)" fill="#fff3c3" stroke="#ed8666" stroke-width="3">
      <circle cx="50" cy="50" r="50" stroke="none"/>
      <circle cx="50" cy="50" r="48.5" fill="none"/>
    </g>
    <g id="fast" transform="translate(930.178 1611.187)">
      <path id="Path_981" data-name="Path 981" d="M10.192,20.477H5.238a1.238,1.238,0,0,1,0-2.477h4.954a1.238,1.238,0,1,1,0,2.477Z" transform="translate(5.908 16.246)" fill="#ed8666"/>
      <path id="Path_982" data-name="Path 982" d="M36.412,32.292h-3.1a1.238,1.238,0,1,1,0-2.477h2.068l1.669-8.9a8.668,8.668,0,0,0-8.691-8.441H20.231L16.29,29.815h7.119a1.238,1.238,0,0,1,0,2.477H14.739a1.238,1.238,0,0,1-1.209-1.511l4.5-19.815A1.237,1.237,0,0,1,19.242,10h9.12A11.16,11.16,0,0,1,39.508,21.146l-1.88,10.135A1.235,1.235,0,0,1,36.412,32.292Z" transform="translate(19.937 4.431)" fill="#ed8666"/>
      <path id="Path_983" data-name="Path 983" d="M23.192,28.384a6.192,6.192,0,1,1,6.192-6.192A6.2,6.2,0,0,1,23.192,28.384Zm0-9.908a3.715,3.715,0,1,0,3.715,3.715A3.72,3.72,0,0,0,23.192,18.477Z" transform="translate(25.107 13.292)" fill="#ed8666"/>
      <path id="Path_984" data-name="Path 984" d="M12.192,28.384a6.192,6.192,0,1,1,6.192-6.192A6.2,6.2,0,0,1,12.192,28.384Zm0-9.908a3.715,3.715,0,1,0,3.715,3.715A3.72,3.72,0,0,0,12.192,18.477Z" transform="translate(8.861 13.292)" fill="#ed8666"/>
      <path id="Path_985" data-name="Path 985" d="M13.146,11.477H3.238A1.238,1.238,0,0,1,3.238,9h9.908a1.238,1.238,0,0,1,0,2.477Z" transform="translate(2.954 2.954)" fill="#ed8666"/>
      <path id="Path_986" data-name="Path 986" d="M14.623,14.477H2.238a1.238,1.238,0,0,1,0-2.477H14.623a1.238,1.238,0,0,1,0,2.477Z" transform="translate(1.477 7.384)" fill="#ed8666"/>
      <path id="Path_987" data-name="Path 987" d="M16.1,17.477H1.238a1.238,1.238,0,0,1,0-2.477H16.1a1.238,1.238,0,0,1,0,2.477Z" transform="translate(0 11.815)" fill="#ed8666"/>
      <path id="Path_988" data-name="Path 988" d="M28.769,36.723H20.1a1.238,1.238,0,0,1,0-2.477h7.681L33.408,9.477H5.238A1.238,1.238,0,1,1,5.238,7H34.961A1.238,1.238,0,0,1,36.17,8.511L29.978,35.757A1.239,1.239,0,0,1,28.769,36.723Z" transform="translate(5.908 0)" fill="#ed8666"/>
    </g>
  </g>
</svg>
