<svg xmlns="http://www.w3.org/2000/svg" width="100" height="100" viewBox="0 0 100 100">
  <g id="Group_254" data-name="Group 254" transform="translate(-1449 -1586)">
    <g id="Ellipse_17" data-name="Ellipse 17" transform="translate(1449 1586)" fill="#fff3c3" stroke="#ed8666" stroke-width="3">
      <circle cx="50" cy="50" r="50" stroke="none"/>
      <circle cx="50" cy="50" r="48.5" fill="none"/>
    </g>
    <g id="money" transform="translate(1475.853 1612.853)">
      <g id="Group_241" data-name="Group 241" transform="translate(16.995 5.482)">
        <g id="Group_240" data-name="Group 240">
          <path id="Path_993" data-name="Path 993" d="M186.914,60a.914.914,0,1,0,.914.914A.914.914,0,0,0,186.914,60Z" transform="translate(-186 -60)" fill="#ed8666"/>
        </g>
      </g>
      <g id="Group_243" data-name="Group 243" transform="translate(20.591 7.31)">
        <g id="Group_242" data-name="Group 242">
          <path id="Path_994" data-name="Path 994" d="M228.16,85.482a.914.914,0,1,1,0-1.827,1.467,1.467,0,0,1,.988.478.914.914,0,0,0,1.271-1.313,3.53,3.53,0,0,0-1.345-.841V80.914a.914.914,0,1,0-1.827,0v1.071a2.741,2.741,0,0,0,.914,5.325.914.914,0,0,1,0,1.827,1.654,1.654,0,0,1-1.186-.691.914.914,0,0,0-1.4,1.176,3.788,3.788,0,0,0,1.672,1.19v1.066a.914.914,0,1,0,1.827,0V90.807a2.741,2.741,0,0,0-.914-5.325Z" transform="translate(-225.361 -80)" fill="#ed8666"/>
        </g>
      </g>
      <g id="Group_245" data-name="Group 245" transform="translate(26.68 13.34)">
        <g id="Group_244" data-name="Group 244">
          <path id="Path_995" data-name="Path 995" d="M308.447,146a3.659,3.659,0,0,0-3.655,3.655v6.512a3.654,3.654,0,0,0-3.5.955l-6.128,6.128a4.536,4.536,0,0,0-1.339,3.231v5.377h-.914a.914.914,0,0,0-.914.914v5.756a.914.914,0,0,0,.914.914h12.792a.914.914,0,0,0,.914-.914v-5.756a.914.914,0,0,0-.914-.914h-.914v-.431a.92.92,0,0,1,.268-.646l5.7-5.7a4.54,4.54,0,0,0,1.338-3.231V149.655A3.659,3.659,0,0,0,308.447,146Zm-3.655,31.614H293.827v-3.929h10.965Zm5.482-15.768a2.724,2.724,0,0,1-.8,1.939l-5.7,5.7a2.76,2.76,0,0,0-.8,1.938v.431h-7.31v-5.377a2.721,2.721,0,0,1,.8-1.939l6.128-6.128a1.824,1.824,0,0,1,2.508-.07l.016.014c.021.018.04.037.06.057a1.826,1.826,0,0,1,0,2.584l-4.54,4.54a.914.914,0,0,0,1.292,1.292l4.54-4.54a3.652,3.652,0,0,0,.157-5v-7.635a1.827,1.827,0,0,1,3.655,0Z" transform="translate(-292 -146)" fill="#ed8666"/>
        </g>
      </g>
      <g id="Group_247" data-name="Group 247" transform="translate(0 13.34)">
        <g id="Group_246" data-name="Group 246">
          <path id="Path_996" data-name="Path 996" d="M19.188,171.858h-.914v-5.377a4.536,4.536,0,0,0-1.338-3.231l-6.128-6.128a3.653,3.653,0,0,0-3.5-.955v-6.512a3.655,3.655,0,1,0-7.31,0v12.192a4.54,4.54,0,0,0,1.338,3.231l5.7,5.7a.92.92,0,0,1,.268.646v.431H6.4a.914.914,0,0,0-.914.914v5.756a.914.914,0,0,0,.914.914H19.188a.914.914,0,0,0,.914-.914v-5.756A.914.914,0,0,0,19.188,171.858ZM2.631,163.785a2.724,2.724,0,0,1-.8-1.939V149.655a1.827,1.827,0,1,1,3.655,0v7.635a3.652,3.652,0,0,0,.157,5l4.569,4.569a.914.914,0,1,0,1.292-1.292L6.931,161a1.826,1.826,0,0,1,0-2.583c.02-.02.04-.039.06-.057l.016-.014a1.824,1.824,0,0,1,2.508.07l6.129,6.129a2.721,2.721,0,0,1,.8,1.938v5.377H9.137v-.431a2.76,2.76,0,0,0-.8-1.938Zm15.644,13.829H7.31v-3.929H18.274Z" transform="translate(0 -146)" fill="#ed8666"/>
        </g>
      </g>
      <g id="Group_249" data-name="Group 249" transform="translate(9.685)">
        <g id="Group_248" data-name="Group 248">
          <path id="Path_997" data-name="Path 997" d="M119.706,0a13.706,13.706,0,1,0,13.706,13.706A13.721,13.721,0,0,0,119.706,0Zm0,25.584a11.878,11.878,0,1,1,11.878-11.878A11.892,11.892,0,0,1,119.706,25.584Z" transform="translate(-106 0)" fill="#ed8666"/>
        </g>
      </g>
      <g id="Group_251" data-name="Group 251" transform="translate(13.34 3.658)">
        <g id="Group_250" data-name="Group 250">
          <path id="Path_998" data-name="Path 998" d="M162.36,42.255a10.12,10.12,0,0,0-8.536-1.987.914.914,0,1,0,.385,1.786,8.3,8.3,0,0,1,7,1.622A8.222,8.222,0,1,1,148.8,46.2a.914.914,0,1,0-1.61-.864,10.052,10.052,0,1,0,15.171-3.078Z" transform="translate(-146 -40.031)" fill="#ed8666"/>
        </g>
      </g>
    </g>
  </g>
</svg>
