<svg xmlns="http://www.w3.org/2000/svg" width="106.868" height="103.904" viewBox="0 0 106.868 103.904">
  <g id="Group_316" data-name="Group 316" transform="translate(-575.103 -1549.217)">
    <g id="Group_40" data-name="Group 40" transform="translate(580.781 1562.672)">
      <rect id="Rectangle_6" data-name="Rectangle 6" width="14.302" height="9.338" fill="#dbdbdb"/>
      <rect id="Rectangle_7" data-name="Rectangle 7" width="14.302" height="9.338" transform="translate(0 9.886)" fill="#ebebeb"/>
      <g id="Group_38" data-name="Group 38" transform="translate(1.417 11.679)">
        <rect id="Rectangle_8" data-name="Rectangle 8" width="1.39" height="1.39" fill="#fff"/>
        <rect id="Rectangle_9" data-name="Rectangle 9" width="1.39" height="1.39" transform="translate(1.679)" fill="#dbdbdb"/>
        <rect id="Rectangle_10" data-name="Rectangle 10" width="1.39" height="1.39" transform="translate(3.36)" fill="#fff"/>
        <rect id="Rectangle_11" data-name="Rectangle 11" width="1.39" height="1.39" transform="translate(5.039)" fill="#fff"/>
        <rect id="Rectangle_12" data-name="Rectangle 12" width="1.39" height="1.39" transform="translate(6.72)" fill="#fff"/>
        <rect id="Rectangle_13" data-name="Rectangle 13" width="1.39" height="1.39" transform="translate(8.399)" fill="#fff"/>
        <rect id="Rectangle_14" data-name="Rectangle 14" width="1.39" height="1.39" transform="translate(10.08)" fill="#fff"/>
        <rect id="Rectangle_15" data-name="Rectangle 15" width="1.39" height="1.39" transform="translate(0 1.694)" fill="#fff"/>
        <rect id="Rectangle_16" data-name="Rectangle 16" width="1.39" height="1.39" transform="translate(1.679 1.694)" fill="#fff"/>
        <rect id="Rectangle_17" data-name="Rectangle 17" width="1.39" height="1.39" transform="translate(3.36 1.694)" fill="#fff"/>
        <rect id="Rectangle_18" data-name="Rectangle 18" width="1.39" height="1.39" transform="translate(5.039 1.694)" fill="#fff"/>
        <rect id="Rectangle_19" data-name="Rectangle 19" width="1.39" height="1.39" transform="translate(6.72 1.694)" fill="#dbdbdb"/>
        <rect id="Rectangle_20" data-name="Rectangle 20" width="1.39" height="1.39" transform="translate(8.399 1.694)" fill="#fff"/>
        <rect id="Rectangle_21" data-name="Rectangle 21" width="1.39" height="1.39" transform="translate(10.08 1.694)" fill="#fff"/>
        <rect id="Rectangle_22" data-name="Rectangle 22" width="1.39" height="1.39" transform="translate(0 3.385)" fill="#fff"/>
        <rect id="Rectangle_23" data-name="Rectangle 23" width="1.39" height="1.39" transform="translate(1.679 3.385)" fill="#fff"/>
        <rect id="Rectangle_24" data-name="Rectangle 24" width="1.39" height="1.39" transform="translate(3.36 3.385)" fill="#fff"/>
        <rect id="Rectangle_25" data-name="Rectangle 25" width="1.39" height="1.39" transform="translate(5.039 3.385)" fill="#fff"/>
        <rect id="Rectangle_26" data-name="Rectangle 26" width="1.39" height="1.39" transform="translate(6.72 3.385)" fill="#fff"/>
        <rect id="Rectangle_27" data-name="Rectangle 27" width="1.39" height="1.39" transform="translate(8.399 3.385)" fill="#fff"/>
        <rect id="Rectangle_28" data-name="Rectangle 28" width="1.39" height="1.39" transform="translate(10.08 3.385)" fill="#fff"/>
        <rect id="Rectangle_29" data-name="Rectangle 29" width="1.39" height="1.39" transform="translate(0 5.076)" fill="#fff"/>
        <rect id="Rectangle_30" data-name="Rectangle 30" width="1.39" height="1.39" transform="translate(1.679 5.076)" fill="#fff"/>
        <rect id="Rectangle_31" data-name="Rectangle 31" width="1.39" height="1.39" transform="translate(3.36 5.076)" fill="#fff"/>
        <rect id="Rectangle_32" data-name="Rectangle 32" width="1.39" height="1.39" transform="translate(5.039 5.076)" fill="#fff"/>
        <rect id="Rectangle_33" data-name="Rectangle 33" width="1.39" height="1.39" transform="translate(6.72 5.076)" fill="#fff"/>
        <rect id="Rectangle_34" data-name="Rectangle 34" width="1.39" height="1.39" transform="translate(8.399 5.076)" fill="#fff"/>
        <rect id="Rectangle_35" data-name="Rectangle 35" width="1.39" height="1.39" transform="translate(10.08 5.076)" fill="#fff"/>
      </g>
      <g id="Group_39" data-name="Group 39" transform="translate(0.56 8.894)">
        <rect id="Rectangle_36" data-name="Rectangle 36" width="0.543" height="1.435" fill="#c7c7c7"/>
        <rect id="Rectangle_37" data-name="Rectangle 37" width="0.543" height="1.435" transform="translate(1.265)" fill="#c7c7c7"/>
        <rect id="Rectangle_38" data-name="Rectangle 38" width="0.543" height="1.435" transform="translate(2.528)" fill="#c7c7c7"/>
        <rect id="Rectangle_39" data-name="Rectangle 39" width="0.543" height="1.435" transform="translate(3.793)" fill="#c7c7c7"/>
        <rect id="Rectangle_40" data-name="Rectangle 40" width="0.543" height="1.435" transform="translate(5.056)" fill="#c7c7c7"/>
        <rect id="Rectangle_41" data-name="Rectangle 41" width="0.543" height="1.435" transform="translate(6.319)" fill="#c7c7c7"/>
        <rect id="Rectangle_42" data-name="Rectangle 42" width="0.543" height="1.435" transform="translate(7.584)" fill="#c7c7c7"/>
        <rect id="Rectangle_43" data-name="Rectangle 43" width="0.543" height="1.435" transform="translate(8.847)" fill="#c7c7c7"/>
        <rect id="Rectangle_44" data-name="Rectangle 44" width="0.543" height="1.435" transform="translate(10.112)" fill="#c7c7c7"/>
        <rect id="Rectangle_45" data-name="Rectangle 45" width="0.543" height="1.435" transform="translate(11.375)" fill="#c7c7c7"/>
        <rect id="Rectangle_46" data-name="Rectangle 46" width="0.543" height="1.435" transform="translate(12.638)" fill="#c7c7c7"/>
      </g>
    </g>
    <g id="Group_130" data-name="Group 130" transform="translate(575.274 1589.791)">
      <g id="Group_128" data-name="Group 128">
        <g id="Group_122" data-name="Group 122" transform="translate(9.289 3.522)">
          <path id="Path_203" data-name="Path 203" d="M73.767,224.379s4.585-.643,3.514-6.18C77.282,218.2,72.158,219.351,73.767,224.379Z" transform="translate(-73.454 -218.2)" fill="#ffc727"/>
          <path id="Path_204" data-name="Path 204" d="M73.767,224.379s4.585-.643,3.514-6.18C77.282,218.2,72.158,219.351,73.767,224.379Z" transform="translate(-73.454 -218.2)" opacity="0.1"/>
          <path id="Path_205" data-name="Path 205" d="M74.8,226.689c.09-.279.194-.555.311-.824,0-.035.01-.07.012-.1.007-.077.012-.152.02-.229.012-.164.022-.331.032-.5.02-.331.04-.663.045-.994a.014.014,0,0,1,.027,0c0,.331.007.663,0,.994-.007.164-.015.331-.027.5l-.007.11a9.71,9.71,0,0,1,.919-1.572q.235-.329.5-.635c.182-.209.376-.408.56-.615.012-.012.032.007.02.02a8.339,8.339,0,0,0-.884,1.176c-.139.212-.271.428-.4.648a.3.3,0,0,0,.042-.017l.164-.067.374-.142c.247-.092.493-.182.737-.274.015,0,.025.02.01.025-.244.1-.486.2-.727.3-.12.052-.237.1-.356.152l-.179.075a.443.443,0,0,1-.122.042c-.092.167-.184.334-.269.5a12.261,12.261,0,0,0-.56,1.32c-.01.032-.022.062-.032.095a2.491,2.491,0,0,1,.376-.182l.476-.217c.321-.147.64-.3.949-.471.015-.01.03.015.012.025-.316.172-.623.356-.939.526-.157.085-.316.169-.478.247a1.433,1.433,0,0,1-.431.172,5.42,5.42,0,0,0-.3,1.3c-.052.625-.045,1.258-.06,1.885,0,.01-.015.01-.017,0-.045-.57-.072-1.143-.075-1.716A5.277,5.277,0,0,1,74.8,226.689Z" transform="translate(-74.255 -221.665)" fill="#263238"/>
          <path id="Path_206" data-name="Path 206" d="M78.39,225.26a5.565,5.565,0,0,1,.045.976c0,.01-.012.007-.015,0-.017-.324-.022-.648-.06-.969C78.36,225.25,78.387,225.243,78.39,225.26Z" transform="translate(-77.138 -223.494)" fill="#263238"/>
          <path id="Path_207" data-name="Path 207" d="M83.726,225.532a3.6,3.6,0,0,0,.59-.289c.015-.01.03.015.012.025a2.217,2.217,0,0,1-.6.284C83.723,225.554,83.716,225.537,83.726,225.532Z" transform="translate(-81.164 -223.487)" fill="#263238"/>
        </g>
        <path id="Path_208" data-name="Path 208" d="M74.109,243.017c0-.506.012-1.014.02-1.519.01-1.684.022-3.365.055-5.049q.037-2,.092-4.008c0-.008,0-.012.012-.017,0-.364,0-.73,0-1.093,0-.01.01-.015.022-.012s.022.005.022.015c0,.366,0,.73.007,1.1,0,0,.01.01.01.015.067,2.379.127,4.757.142,7.133,0,.483,0,.966,0,1.45q.022,2.328.017,4.653c0,.247,0,.493,0,.74,0,1.42-.015,2.837-.015,4.257,0,.077-.085.115-.174.117s-.212-.037-.212-.125c0-1.564-.01-3.128-.01-4.693C74.106,244.99,74.1,244,74.109,243.017Z" transform="translate(-64.654 -224.528)" fill="#263238"/>
        <g id="Group_123" data-name="Group 123" transform="translate(9.725 16.036)">
          <path id="Path_209" data-name="Path 209" d="M81.8,269.357s2.207-1.634,4.3-.531,2.421,5.36,2.421,5.36-3.074.441-5.011-1.4A4.583,4.583,0,0,1,81.8,269.357Z" transform="translate(-80.156 -268.444)" fill="#ffc727"/>
          <path id="Path_210" data-name="Path 210" d="M76.251,271.423a2.651,2.651,0,0,1,1.278-.167,1.957,1.957,0,0,1,.271-.027l.311-.022c.214-.017.428-.03.643-.045.436-.032.872-.06,1.305-.1.015,0,.02.025,0,.027-.431.055-.857.117-1.288.159-.222.022-.443.045-.665.062-.052,0-.107.01-.162.015.065.015.132.03.2.047a5.184,5.184,0,0,1,1,.406c.174.032.346.08.518.12.274.065.545.134.817.207.536.139,1.066.3,1.6.453.017,0,.01.03-.007.027-.531-.13-1.066-.249-1.6-.376-.259-.062-.518-.122-.775-.187-.067-.017-.135-.032-.2-.047a6.425,6.425,0,0,1,1.567,1.362,8.42,8.42,0,0,1,1.088,1.719c.007.015-.015.03-.022.015a8.351,8.351,0,0,0-1.318-1.731c.01.03.02.06.03.087.042.13.082.259.122.389.082.259.164.518.242.78,0,.017-.02.022-.027.007-.092-.252-.182-.506-.269-.757-.045-.125-.087-.249-.132-.374l-.067-.194-.022-.06a8.256,8.256,0,0,0-.782-.668,5.859,5.859,0,0,0-1.171-.67c.007.037.015.077.022.112.022.1.045.2.065.3.042.209.085.418.125.628.082.426.134.859.214,1.285,0,.017-.022.025-.027.007-.1-.428-.227-.852-.321-1.283-.047-.214-.1-.431-.142-.645-.02-.1-.04-.2-.062-.3a1.345,1.345,0,0,1-.03-.169c-.04-.015-.08-.035-.12-.05a3.492,3.492,0,0,0-1.836-.252,1.8,1.8,0,0,0-1.328,1.064c-.02.047-.095.017-.085-.03A1.684,1.684,0,0,1,76.251,271.423Z" transform="translate(-75.206 -270.408)" fill="#263238"/>
          <path id="Path_211" data-name="Path 211" d="M92.881,279.78c.062.279.125.558.187.839a6.094,6.094,0,0,1,.154.814c0,.01-.015.01-.017,0a6.222,6.222,0,0,1-.187-.822c-.055-.276-.11-.553-.162-.827C92.849,279.77,92.876,279.763,92.881,279.78Z" transform="translate(-88.459 -276.949)" fill="#263238"/>
          <path id="Path_212" data-name="Path 212" d="M101.491,282.666c.281.142.553.3.847.421a.014.014,0,1,1-.012.025c-.281-.142-.575-.267-.842-.436C101.479,282.671,101.484,282.661,101.491,282.666Z" transform="translate(-94.937 -279.123)" fill="#263238"/>
        </g>
        <g id="Group_124" data-name="Group 124" transform="translate(9.606 8.025)">
          <path id="Path_213" data-name="Path 213" d="M79.8,242.2s2.695.172,3.95-1.607a7.109,7.109,0,0,0,.971-4.316s-2.832.344-3.955,1.621S79.8,242.2,79.8,242.2Z" transform="translate(-78.529 -236.28)" fill="#ffc727"/>
          <path id="Path_214" data-name="Path 214" d="M74.73,247.885c.092-.289.209-.573.319-.857s.217-.54.336-.807a17.292,17.292,0,0,1,.807-1.589c.189-.329.394-.645.6-.959,0-.047.015-.095.02-.144l.037-.249c.027-.172.057-.341.085-.511.062-.371.139-.742.2-1.116,0-.017.03-.017.027,0-.055.369-.092.737-.142,1.106-.025.182-.05.361-.077.543-.01.065-.02.13-.03.2a19.375,19.375,0,0,1,1.333-1.731c.065-.075.132-.147.2-.219.007-.02.017-.04.025-.062l.06-.154c.04-.107.077-.214.117-.321.075-.212.144-.423.2-.64,0-.017.03-.01.027.007-.055.222-.112.443-.177.66-.032.1-.065.209-.1.314-.007.017-.012.035-.02.052.344-.376.7-.737,1.066-1.1.012-.012.032.007.02.02a19.326,19.326,0,0,0-1.91,2.339,1.939,1.939,0,0,1,.2-.05c.207-.04.416-.07.628-.1.438-.055.877-.112,1.315-.179.017,0,.025.022.007.027-.418.082-.832.177-1.248.272-.2.045-.391.082-.59.122a3.808,3.808,0,0,0-.473.134c-.042.062-.09.125-.132.187-.2.289-.389.583-.573.877.092-.017.184-.035.274-.055q.314-.06.628-.112c.411-.067.822-.139,1.228-.232a.014.014,0,0,1,.007.027c-.413.1-.822.209-1.23.319-.2.052-.4.1-.6.144-.1.022-.2.045-.3.065a.541.541,0,0,1-.122.02c-.394.638-.765,1.293-1.106,1.96-.149.294-.294.59-.436.887s-.267.618-.4.929C74.807,247.98,74.708,247.952,74.73,247.885Z" transform="translate(-74.727 -239.302)" fill="#263238"/>
          <path id="Path_215" data-name="Path 215" d="M85.475,243.51c.052-.257.1-.513.162-.77,0-.017.03-.01.027.007-.052.252-.1.506-.144.76a7.635,7.635,0,0,1-.152.755c0,.005-.007,0-.007,0A4.874,4.874,0,0,1,85.475,243.51Z" transform="translate(-82.712 -241.124)" fill="#263238"/>
          <path id="Path_216" data-name="Path 216" d="M92.108,244.543a4.114,4.114,0,0,1,.389-.162c.067-.027.137-.052.2-.08l.1-.042a.47.47,0,0,0,.115-.05c.02-.015.032.02.012.025a.464.464,0,0,0-.115.047l-.1.045c-.065.03-.132.06-.2.087a3.681,3.681,0,0,1-.4.157C92.1,244.575,92.093,244.55,92.108,244.543Z" transform="translate(-87.773 -242.231)" fill="#263238"/>
        </g>
        <g id="Group_125" data-name="Group 125" transform="translate(0 8.251)">
          <path id="Path_217" data-name="Path 217" d="M44.275,240.765s-1.631-3.049-4.115-3.519-4,2.082-4,2.082a7.991,7.991,0,0,0,4.087,2.715A5.068,5.068,0,0,0,44.275,240.765Z" transform="translate(-36.16 -237.187)" fill="#ffc727"/>
          <path id="Path_218" data-name="Path 218" d="M45.481,240.138a6.807,6.807,0,0,1,1.948.022l-.11-.06-.55-.284a12.893,12.893,0,0,0-1.166-.568.014.014,0,1,1,.012-.025c.389.182.79.331,1.181.511.194.09.386.182.575.284.122.065.259.127.379.2a6.936,6.936,0,0,1,1.577.523c-.1-.112-.207-.224-.311-.339-.232-.254-.458-.518-.712-.75-.012-.012.007-.032.02-.02.259.237.533.453.787.7.122.12.239.242.354.369.057.062.115.129.167.2a6.547,6.547,0,0,1,3.328,4.493c0,.017-.022.027-.027.01a7.5,7.5,0,0,0-1.826-3.089,7.172,7.172,0,0,0-3.325-1.923,7.342,7.342,0,0,0-2.294-.209A.024.024,0,1,1,45.481,240.138Z" transform="translate(-43.142 -238.715)" fill="#263238"/>
          <path id="Path_219" data-name="Path 219" d="M36.16,244.792a7.99,7.99,0,0,0,4.09,2.715A4.913,4.913,0,0,0,44,246.463l.125-.207a9.16,9.16,0,0,0-3.4-1.562A9.913,9.913,0,0,0,36.16,244.792Z" transform="translate(-36.16 -242.652)" opacity="0.1"/>
          <path id="Path_220" data-name="Path 220" d="M51.263,238.533a5.832,5.832,0,0,1,.55.364,3.466,3.466,0,0,1,.478.438c.012.015-.007.032-.022.02-.164-.142-.331-.286-.5-.421a5.249,5.249,0,0,0-.523-.376C51.234,238.548,51.249,238.523,51.263,238.533Z" transform="translate(-47.485 -238.196)" fill="#263238"/>
          <path id="Path_221" data-name="Path 221" d="M45.818,240.606c.092.037.187.072.279.11l.276.115c.02.007.01.04-.01.032l-.276-.112c-.092-.037-.182-.08-.276-.117C45.793,240.626,45.8,240.6,45.818,240.606Z" transform="translate(-43.399 -239.754)" fill="#263238"/>
        </g>
        <g id="Group_126" data-name="Group 126" transform="translate(0.685 15.111)">
          <path id="Path_222" data-name="Path 222" d="M46.666,265.281s-.436,3.024-2.71,4.08a7.351,7.351,0,0,1-5.046,0S40,262.82,46.666,265.281Z" transform="translate(-38.91 -264.727)" fill="#ffc727"/>
          <path id="Path_223" data-name="Path 223" d="M45.175,268.545c.209-.025.418-.06.625-.1.1-.017.2-.037.306-.057.052-.01.1-.022.159-.032.062-.057.122-.115.184-.169a9.37,9.37,0,0,1,1.39-1.009,7.976,7.976,0,0,1,.834-.428l-.042,0c-.249.01-.5.02-.747.032-.5.022-1,.035-1.5.067a.014.014,0,0,1,0-.027c.5-.035,1-.09,1.5-.132.242-.02.486-.042.727-.065.125-.012.249-.022.374-.032l.1-.01c.13-.047.262-.095.394-.134a3.568,3.568,0,0,1,1.925-.107,1.681,1.681,0,0,1,1.29,1.123c0,.02-.027.035-.037.015a1.7,1.7,0,0,0-1.278-.862,3.035,3.035,0,0,0-1.029-.02,2.492,2.492,0,0,1-.115.456c-.062.212-.125.426-.189.638-.13.423-.271.844-.4,1.27,0,.017-.03.01-.027-.008.1-.423.194-.852.3-1.278.05-.209.1-.416.154-.625a3.254,3.254,0,0,1,.115-.431,5.219,5.219,0,0,0-.59.14,8.406,8.406,0,0,0-1.031.379c-.032.217-.082.428-.132.643-.062.266-.132.531-.217.792a.013.013,0,1,1-.025-.007c0-.017.007-.032.01-.05h0c.05-.247.1-.493.157-.74.042-.2.08-.4.125-.6-.281.127-.56.266-.829.421,0,.062-.02.125-.03.182-.017.1-.035.207-.055.311-.042.234-.09.466-.144.7a11.065,11.065,0,0,1-.391,1.315s0,.012,0,.017-.007.01-.012.015-.025,0-.022-.015c.1-.448.224-.892.324-1.343.05-.224.1-.448.144-.675.022-.112.042-.227.065-.339,0-.032.01-.067.015-.1a9.756,9.756,0,0,0-.884.59,9.529,9.529,0,0,0-1.355,1.238c-.017.017-.047-.007-.032-.027.174-.227.346-.451.543-.66.115-.122.234-.242.354-.356l-.037.007c-.107.017-.214.035-.321.047-.209.027-.421.05-.633.072C45.162,268.574,45.155,268.547,45.175,268.545Z" transform="translate(-43.605 -265.876)" fill="#263238"/>
          <path id="Path_224" data-name="Path 224" d="M51.619,277.142h0c0-.027.007-.052.012-.08s.022-.065.027-.1h0c.047-.2.087-.406.122-.61,0-.015.025-.01.025.005a2.533,2.533,0,0,1-.172.79c0,.01-.017.007-.015-.005Z" transform="translate(-48.453 -273.45)" fill="#263238"/>
          <path id="Path_225" data-name="Path 225" d="M59.237,274.31a.013.013,0,0,1,.012-.012c.065-.266.125-.535.179-.8.03-.142.06-.284.085-.426.015-.077.03-.152.042-.229a.653.653,0,0,1,.05-.2c0-.01.025-.007.025,0a1.261,1.261,0,0,1-.057.406q-.041.22-.09.441-.1.448-.224.889c0,.017-.032.012-.03,0A.616.616,0,0,0,59.237,274.31Z" transform="translate(-54.168 -270.666)" fill="#263238"/>
          <path id="Path_226" data-name="Path 226" d="M46.008,271.436c.416-.057.829-.117,1.245-.167.017,0,.025.025.007.027-.413.062-.829.112-1.245.167C46,271.466,45.99,271.439,46.008,271.436Z" transform="translate(-44.232 -269.64)" fill="#263238"/>
        </g>
        <g id="Group_127" data-name="Group 127" transform="translate(4.227)">
          <path id="Path_227" data-name="Path 227" d="M58.51,212.633a7.491,7.491,0,0,0-5.166-8.573S51.526,212.1,58.51,212.633Z" transform="translate(-53.13 -204.06)" fill="#ffc727"/>
          <path id="Path_228" data-name="Path 228" d="M60.881,215.723c-.025-.015-.047-.03-.07-.042-.125-.067-.247-.137-.371-.207l-.76-.426c-.5-.279-.994-.57-1.5-.844-.015-.007,0-.032.015-.025.506.274,1.019.531,1.527.8l.752.4.306.162c-.219-.416-.453-.822-.71-1.213-.344-.523-.717-1.021-1.108-1.507a.022.022,0,0,1,.032-.03,10.476,10.476,0,0,1,1.517,1.858.563.563,0,0,0,0-.065c-.007-.152-.012-.3-.012-.456,0-.3.01-.6,0-.894a.014.014,0,0,1,.027,0c.012.294.047.585.065.879.007.147.015.291.02.438,0,.08.01.169.007.257.135.214.264.433.389.655a11.326,11.326,0,0,1,.585,1.228c.007-.152.015-.3.025-.456.02-.334.06-.667.075-1a.014.014,0,0,1,.027,0c-.007.334.007.668,0,1,0,.167-.01.334-.022.5,0,.062-.007.125-.012.187a11.219,11.219,0,0,1,.5,1.676,18.293,18.293,0,0,1,.244,1.843,0,0,0,0,1-.007,0,9.751,9.751,0,0,0-.349-1.644c-.082-.289-.167-.575-.259-.859-.274-.13-.533-.289-.8-.436s-.548-.3-.822-.451c-.548-.3-1.093-.605-1.659-.872-.017-.007,0-.032.015-.025.573.259,1.148.506,1.709.787.279.139.555.291.827.443.227.127.461.257.68.4-.065-.189-.13-.379-.2-.565C61.357,216.717,61.133,216.214,60.881,215.723Z" transform="translate(-56.918 -210.61)" fill="#263238"/>
          <path id="Path_229" data-name="Path 229" d="M71.034,218.941c0-.017.03-.017.027,0-.022.349-.035.7-.072,1.044,0,.02-.032.02-.03,0C70.972,219.635,71.009,219.289,71.034,218.941Z" transform="translate(-66.519 -215.224)" fill="#263238"/>
          <path id="Path_230" data-name="Path 230" d="M58.588,223.658c.411.164.824.321,1.233.493a.01.01,0,0,1,0,.02c-.413-.154-.822-.324-1.235-.486A.014.014,0,0,1,58.588,223.658Z" transform="translate(-57.215 -218.776)" fill="#263238"/>
          <path id="Path_231" data-name="Path 231" d="M56.072,212.355a10.915,10.915,0,0,1,1.166.625c.02.012,0,.042-.017.03-.381-.222-.767-.436-1.163-.633C56.039,212.37,56.054,212.348,56.072,212.355Z" transform="translate(-55.322 -210.288)" fill="#263238"/>
        </g>
      </g>
      <g id="Group_129" data-name="Group 129" transform="translate(4.476 21.771)">
        <rect id="Rectangle_66" data-name="Rectangle 66" width="9.457" height="9.968" transform="translate(10.057 9.968) rotate(180)" fill="#455a64"/>
        <rect id="Rectangle_67" data-name="Rectangle 67" width="0.483" height="17.074" transform="translate(10.222 3.527)" fill="#263238"/>
        <rect id="Rectangle_68" data-name="Rectangle 68" width="0.483" height="17.074" transform="translate(0 3.527)" fill="#263238"/>
        <rect id="Rectangle_69" data-name="Rectangle 69" width="0.483" height="17.074" transform="translate(4.854 3.527)" fill="#263238"/>
        <rect id="Rectangle_70" data-name="Rectangle 70" width="10.224" height="1.38" transform="translate(10.464 10.71) rotate(180)" fill="#263238"/>
      </g>
    </g>
    <g id="Group_315" data-name="Group 315">
      <g id="Group_37" data-name="Group 37" transform="translate(575.2 1549.217)">
        <path id="Path_92" data-name="Path 92" d="M57.345,303.642l-3.268.07-1.659.027c-.555.012-1.111.01-1.666.015h-.11v-.112l-.012-2.787v-.125h.125l3.3.015c1.1,0,2.2.027,3.3.04h.07v.067c0,.473-.022.944-.032,1.407Zm0,0-.035-1.407c-.012-.463-.027-.922-.032-1.38l.067.067c-1.1.012-2.2.04-3.3.04l-3.3.015.125-.125-.012,2.787-.112-.112c.543,0,1.086,0,1.631.015l1.639.027Z" transform="translate(-46.951 -236.078)" fill="#ebebeb"/>
        <path id="Path_93" data-name="Path 93" d="M42.575,317.752l-3.268.07-1.659.027c-.555.012-1.111.01-1.666.015h-.11v-.112l-.012-2.787v-.125h.125l3.3.015c1.1,0,2.2.027,3.3.04h.07v.067c0,.473-.022.944-.032,1.407Zm0,0-.035-1.407c-.012-.463-.027-.922-.032-1.38l.067.067c-1.1.012-2.2.04-3.3.04l-3.3.015.125-.125-.012,2.787-.112-.112c.543,0,1.086,0,1.631.012l1.639.027Z" transform="translate(-35.86 -246.673)" fill="#ebebeb"/>
        <path id="Path_94" data-name="Path 94" d="M307.7,234.832l-3.268.07-1.659.027c-.555.012-1.111.01-1.666.015h-.11v-.112l-.012-2.787v-.125h.125l3.3.015c1.1,0,2.2.027,3.3.04h.07v.067c0,.473-.022.944-.032,1.407Zm0,0-.035-1.407c-.012-.463-.027-.922-.032-1.38l.067.067c-1.1.012-2.2.04-3.3.04l-3.3.015.124-.125-.012,2.787-.112-.112c.543,0,1.086,0,1.631.012l1.639.027Z" transform="translate(-234.946 -184.407)" fill="#ebebeb"/>
        <path id="Path_95" data-name="Path 95" d="M292.925,248.934l-3.268.07-1.659.027c-.555.012-1.111.01-1.666.012h-.11v-.112l-.012-2.787v-.125h.125l3.3.015c1.1,0,2.2.027,3.3.04H293v.067c0,.473-.022.944-.032,1.407Zm0,0-.035-1.407c-.012-.463-.027-.922-.032-1.38l.067.067c-1.1.012-2.2.04-3.3.04l-3.3.015.125-.125-.012,2.787-.112-.112c.543,0,1.086,0,1.631.012l1.639.027Z" transform="translate(-223.854 -194.995)" fill="#ebebeb"/>
        <path id="Path_96" data-name="Path 96" d="M278.215,234.832l-3.268.07-1.659.027c-.555.012-1.111.01-1.666.015h-.11v-.112l-.012-2.787v-.125h.125l3.3.015c1.1,0,2.2.027,3.3.04h.07v.067c-.005.473-.022.944-.032,1.407Zm0,0-.035-1.407c-.012-.463-.027-.922-.032-1.38l.067.067c-1.1.012-2.2.04-3.3.04l-3.3.015.125-.125-.012,2.787-.112-.112c.543,0,1.086,0,1.631.012l1.639.027Z" transform="translate(-212.808 -184.407)" fill="#ebebeb"/>
        <path id="Path_97" data-name="Path 97" d="M443.415,317.752l-3.268.07-1.659.027c-.555.012-1.111.01-1.666.015h-.11v-.112l-.013-2.787v-.125h.125l3.3.015c1.1,0,2.2.027,3.3.04h.07v.067c-.005.473-.022.944-.032,1.407Zm0,0-.035-1.407c-.012-.463-.027-.922-.032-1.38l.067.067c-1.1.012-2.2.04-3.3.04l-3.3.015.125-.125-.012,2.787-.112-.112c.543,0,1.086,0,1.631.012l1.639.027Z" transform="translate(-336.861 -246.673)" fill="#ebebeb"/>
        <path id="Path_98" data-name="Path 98" d="M428.645,44.072l-3.268.07-1.659.027c-.555.012-1.111.01-1.666.015h-.11v-.112l-.012-2.787V41.16h.125l3.3.015c1.1,0,2.2.027,3.3.04h.07v.067c0,.473-.022.944-.032,1.407Zm0,0-.035-1.407c-.012-.463-.027-.922-.032-1.38l.067.067c-1.1.012-2.2.04-3.3.04l-3.3.015.125-.125-.012,2.787-.112-.112c.543,0,1.086,0,1.631.015L425.32,44Z" transform="translate(-325.77 -41.16)" fill="#ebebeb"/>
        <path id="Path_99" data-name="Path 99" d="M443.415,58.182l-3.268.07-1.659.027c-.555.012-1.111.01-1.666.015h-.11v-.112l-.013-2.787V55.27h.125l3.3.015c1.1,0,2.2.027,3.3.04h.07v.067c-.005.473-.022.944-.032,1.407Zm0,0-.035-1.407c-.012-.463-.027-.922-.032-1.38l.067.067c-1.1.012-2.2.04-3.3.04l-3.3.015.125-.125-.012,2.787-.112-.112c.543,0,1.086,0,1.631.015l1.639.027Z" transform="translate(-336.861 -51.756)" fill="#ebebeb"/>
        <path id="Path_100" data-name="Path 100" d="M57.345,44.072l-3.268.07-1.659.027c-.555.012-1.111.01-1.666.015h-.11v-.112l-.012-2.787V41.16h.125l3.3.015c1.1,0,2.2.027,3.3.04h.07v.067c0,.473-.022.944-.032,1.407Zm0,0-.035-1.407c-.012-.463-.027-.922-.032-1.38l.067.067c-1.1.012-2.2.04-3.3.04l-3.3.015.125-.125-.012,2.787-.112-.112c.543,0,1.086,0,1.631.015L54.02,44Z" transform="translate(-46.951 -41.16)" fill="#ebebeb"/>
      </g>
      <g id="Group_47" data-name="Group 47" transform="translate(611.505 1549.341)">
        <path id="Path_101" data-name="Path 101" d="M190.33,42.35V83.893h29.724V42.35Zm28.84,40.659H191.214V43.234H219.17Z" transform="translate(-188.161 -42.178)" fill="#ebebeb"/>
        <rect id="Rectangle_47" data-name="Rectangle 47" width="27.956" height="39.775" transform="translate(3.054 1.056)" fill="#a6a6a6"/>
        <g id="Group_41" data-name="Group 41" transform="translate(6.135 12.533)">
          <path id="Path_102" data-name="Path 102" d="M288.822,141.48l.214.438.486.07-.351.341.082.481-.431-.227-.433.227.082-.481-.351-.341.486-.07Z" transform="translate(-267.728 -129.151)" fill="#dbdbdb"/>
          <path id="Path_103" data-name="Path 103" d="M235.55,137.23l.217.438.483.07-.351.344.085.481-.433-.227-.433.227.082-.481-.349-.344.483-.07Z" transform="translate(-227.727 -125.959)" fill="#dbdbdb"/>
          <path id="Path_104" data-name="Path 104" d="M212.19,180.57l.217.438.486.07-.351.341.082.483-.433-.229-.431.229.082-.483-.351-.341.486-.07Z" transform="translate(-210.185 -158.505)" fill="#dbdbdb"/>
          <path id="Path_105" data-name="Path 105" d="M289.633,91.98l.132.271.3.042-.217.212.052.3-.266-.142-.269.142.052-.3-.217-.212.3-.042Z" transform="translate(-268.539 -91.98)" fill="#dbdbdb"/>
          <path id="Path_106" data-name="Path 106" d="M206.683,131.83l.135.271.3.042-.217.212.05.3-.267-.139-.267.139.05-.3-.217-.212.3-.042Z" transform="translate(-206.25 -121.904)" fill="#dbdbdb"/>
          <path id="Path_107" data-name="Path 107" d="M276.393,178.92l.132.269.3.045-.217.212.052.3-.267-.139-.269.139.052-.3-.217-.212.3-.045Z" transform="translate(-258.597 -157.266)" fill="#dbdbdb"/>
          <path id="Path_108" data-name="Path 108" d="M240.9,98.86l.132.271.3.042-.214.212.05.3-.266-.139-.269.139.052-.3-.217-.212.3-.042Z" transform="translate(-231.947 -97.146)" fill="#dbdbdb"/>
          <path id="Path_109" data-name="Path 109" d="M215,99.832a3.221,3.221,0,1,1-3.507-4.742A3.012,3.012,0,1,0,215,99.832Z" transform="translate(-208.3 -94.315)" fill="#dbdbdb"/>
        </g>
        <rect id="Rectangle_48" data-name="Rectangle 48" width="0.882" height="39.986" transform="translate(16.591 1.285)" fill="#ebebeb"/>
        <g id="Group_46" data-name="Group 46">
          <g id="Group_42" data-name="Group 42" transform="translate(1.37 1.958)">
            <rect id="Rectangle_49" data-name="Rectangle 49" width="31.324" height="1.228" fill="#ebebeb"/>
            <rect id="Rectangle_50" data-name="Rectangle 50" width="31.324" height="1.228" transform="translate(0 1.382)" fill="#ebebeb"/>
            <rect id="Rectangle_51" data-name="Rectangle 51" width="31.324" height="1.228" transform="translate(0 2.765)" fill="#ebebeb"/>
            <rect id="Rectangle_52" data-name="Rectangle 52" width="31.324" height="1.228" transform="translate(0 4.147)" fill="#ebebeb"/>
            <rect id="Rectangle_53" data-name="Rectangle 53" width="31.324" height="1.228" transform="translate(0 5.529)" fill="#ebebeb"/>
            <rect id="Rectangle_54" data-name="Rectangle 54" width="31.324" height="1.228" transform="translate(0 6.912)" fill="#ebebeb"/>
          </g>
          <g id="Group_45" data-name="Group 45" transform="translate(29.57 1.709)">
            <g id="Group_43" data-name="Group 43">
              <rect id="Rectangle_55" data-name="Rectangle 55" width="0.222" height="23.919" transform="translate(0.281)" fill="#dbdbdb"/>
              <path id="Path_110" data-name="Path 110" d="M301.122,145.276h-.782l.2-1.126h.391Z" transform="translate(-300.34 -120.331)" fill="#dbdbdb"/>
            </g>
            <g id="Group_44" data-name="Group 44" transform="translate(0.795)">
              <rect id="Rectangle_56" data-name="Rectangle 56" width="0.222" height="29.951" transform="translate(0.281)" fill="#dbdbdb"/>
              <path id="Path_111" data-name="Path 111" d="M304.315,168.7h-.785l.2-1.126h.391Z" transform="translate(-303.53 -137.918)" fill="#dbdbdb"/>
            </g>
          </g>
          <rect id="Rectangle_57" data-name="Rectangle 57" width="34.063" height="2.57" fill="#dbdbdb"/>
        </g>
      </g>
      <g id="Group_53" data-name="Group 53" transform="translate(648.305 1599.265)">
        <g id="Group_52" data-name="Group 52">
          <rect id="Rectangle_58" data-name="Rectangle 58" width="22.95" height="31.757" transform="translate(1.113 1.178)" fill="#dbdbdb"/>
          <rect id="Rectangle_59" data-name="Rectangle 59" width="25.171" height="1.178" fill="#ebebeb"/>
          <rect id="Rectangle_60" data-name="Rectangle 60" width="7.916" height="1.178" transform="translate(25.171)" fill="#dbdbdb"/>
          <rect id="Rectangle_61" data-name="Rectangle 61" width="7.776" height="31.757" transform="translate(24.061 1.178)" fill="#ebebeb"/>
          <g id="Group_49" data-name="Group 49" transform="translate(3.584 5.701)">
            <path id="Path_112" data-name="Path 112" d="M361.766,275.165H343.76V264.99h18.006Zm-17.951-.055h17.9V265.045h-17.9Z" transform="translate(-343.76 -264.99)" fill="#a6a6a6"/>
            <g id="Group_48" data-name="Group 48" transform="translate(6.488 2.971)">
              <rect id="Rectangle_62" data-name="Rectangle 62" width="3.504" height="2.015" fill="#a6a6a6"/>
              <path id="Path_113" data-name="Path 113" d="M377.422,279.186H373.86V277.42h3.562Zm-3.507-.055h3.45v-1.656h-3.45Z" transform="translate(-372.851 -277.295)" fill="#a6a6a6"/>
            </g>
          </g>
          <g id="Group_51" data-name="Group 51" transform="translate(3.584 18.486)">
            <path id="Path_114" data-name="Path 114" d="M361.766,326.495H343.76V316.32h18.006Zm-17.951-.055h17.9V316.375h-17.9Z" transform="translate(-343.76 -316.32)" fill="#a6a6a6"/>
            <g id="Group_50" data-name="Group 50" transform="translate(6.488 2.974)">
              <rect id="Rectangle_63" data-name="Rectangle 63" width="3.504" height="2.015" fill="#a6a6a6"/>
              <path id="Path_115" data-name="Path 115" d="M377.422,330.526H373.86V328.76h3.562Zm-3.507-.057h3.45v-1.656h-3.45Z" transform="translate(-372.851 -328.635)" fill="#a6a6a6"/>
            </g>
          </g>
        </g>
      </g>
      <g id="Group_54" data-name="Group 54" transform="translate(579.327 1643.197)">
        <ellipse id="Ellipse_6" data-name="Ellipse 6" cx="49.209" cy="4.962" rx="49.209" ry="4.962" fill="#ebebeb"/>
      </g>
      <path id="Path_116" data-name="Path 116" d="M35.47,373.8l13.358-.06,13.358-.022L88.9,373.68l26.718.042,13.358.02,13.358.062-13.358.06-13.358.022-26.718.042-26.718-.042-13.358-.022Z" transform="translate(539.633 1258.358)" fill="#263238"/>
      <g id="Group_64" data-name="Group 64" transform="translate(597.023 1588.431)">
        <g id="Group_57" data-name="Group 57" transform="translate(26.554 24.738)">
          <g id="Group_56" data-name="Group 56">
            <g id="Group_55" data-name="Group 55">
              <path id="Path_117" data-name="Path 117" d="M230.09,297.92l.64,3.828,4.324,23.358h.7l-3.146-23.358-.463-3.828Z" transform="translate(-230.09 -297.92)" fill="#dbdbdb"/>
            </g>
          </g>
          <path id="Path_118" data-name="Path 118" d="M232.142,297.92H230.09l.64,3.828h1.876Z" transform="translate(-230.09 -297.92)" fill="#a6a6a6"/>
        </g>
        <g id="Group_60" data-name="Group 60" transform="translate(12.972 24.738)">
          <g id="Group_59" data-name="Group 59">
            <g id="Group_58" data-name="Group 58">
              <path id="Path_119" data-name="Path 119" d="M175.56,325.106h.7l4.326-23.358.638-3.828h-2.05l-.466,3.828Z" transform="translate(-175.56 -297.92)" fill="#dbdbdb"/>
            </g>
          </g>
          <path id="Path_120" data-name="Path 120" d="M188.656,297.92l-.466,3.828h1.878l.638-3.828Z" transform="translate(-185.044 -297.92)" fill="#a6a6a6"/>
        </g>
        <g id="Group_63" data-name="Group 63" transform="translate(0 24.738)">
          <g id="Group_62" data-name="Group 62">
            <g id="Group_61" data-name="Group 61">
              <path id="Path_121" data-name="Path 121" d="M123.48,325.106h.7l4.324-23.358.64-3.828h-2.052l-.463,3.828Z" transform="translate(-123.48 -297.92)" fill="#dbdbdb"/>
            </g>
          </g>
          <path id="Path_122" data-name="Path 122" d="M136.11,301.748h1.876l.64-3.828h-2.052Z" transform="translate(-132.964 -297.92)" fill="#a6a6a6"/>
        </g>
        <path id="Path_123" data-name="Path 123" d="M127.92,225.136h31.692V221.8H147.749l-3.988-23.2H129.128Z" transform="translate(-126.814 -198.6)" fill="#dbdbdb"/>
        <path id="Path_124" data-name="Path 124" d="M127.92,225.136h1.729l1.126-26.536h-1.646Z" transform="translate(-126.814 -198.6)" fill="#a6a6a6"/>
      </g>
      <g id="Group_121" data-name="Group 121" transform="translate(601.346 1566.617)">
        <g id="Group_120" data-name="Group 120">
          <g id="Group_83" data-name="Group 83" transform="translate(2.366 30.452)">
            <g id="Group_73" data-name="Group 73" transform="translate(1.639)">
              <g id="Group_70" data-name="Group 70" transform="translate(7.549 36.958)">
                <g id="Group_65" data-name="Group 65" transform="translate(0.134)">
                  <path id="Path_125" data-name="Path 125" d="M206.048,393.19c-.625.08-17.724-3.91-18.28-4.448-.067-.06.742-3.343.742-3.343.09-.443.628-1.933,1.318-3.739l10.7,2.5L199.671,386s2.132,1.445,3.963,2.819c0,0,0,0,0,.005a23.721,23.721,0,0,1,2.316,1.853C206.5,391.327,206.675,393.117,206.048,393.19Z" transform="translate(-187.764 -381.66)" fill="#ebebeb"/>
                </g>
                <g id="Group_69" data-name="Group 69" transform="translate(0 0.732)">
                  <path id="Path_126" data-name="Path 126" d="M205.693,397.535c-.648.067-17.883-3.8-18.446-4.359-.217-.209,1.313-5.764,1.318-5.8l11.034,2.436-.047.187s5.544,4.249,6.1,4.934S206.341,397.47,205.693,397.535Z" transform="translate(-187.226 -386.688)" fill="#a6a6a6"/>
                  <g id="Group_68" data-name="Group 68" transform="translate(0.877)">
                    <g id="Group_67" data-name="Group 67">
                      <path id="Path_127" data-name="Path 127" d="M208.293,413.665c-2.889-.722-14.613-3.365-17.525-3.858-.025,0-.027.012,0,.017,2.849.78,14.593,3.325,17.517,3.888C208.346,413.723,208.356,413.68,208.293,413.665Z" transform="translate(-190.748 -403.528)" fill="#263238"/>
                      <path id="Path_128" data-name="Path 128" d="M229.394,396.483a4.157,4.157,0,0,0-3.589.01c-.04.025-.007.082.032.077a16.464,16.464,0,0,1,3.519.055A.074.074,0,0,0,229.394,396.483Z" transform="translate(-217.06 -393.22)" fill="#263238"/>
                      <path id="Path_129" data-name="Path 129" d="M232.264,399.223a4.157,4.157,0,0,0-3.589.01c-.04.025-.007.082.032.077a16.468,16.468,0,0,1,3.519.055A.074.074,0,0,0,232.264,399.223Z" transform="translate(-219.215 -395.278)" fill="#263238"/>
                      <path id="Path_130" data-name="Path 130" d="M235.124,401.953a4.157,4.157,0,0,0-3.589.01c-.04.025-.007.082.032.077a16.464,16.464,0,0,1,3.519.055A.074.074,0,0,0,235.124,401.953Z" transform="translate(-221.363 -397.328)" fill="#263238"/>
                      <g id="Group_66" data-name="Group 66" transform="translate(6.678)">
                        <path id="Path_131" data-name="Path 131" d="M236.039,387.374c-.311-.72-1.21-.628-1.776-.334a6.25,6.25,0,0,0-2.349,2.222.032.032,0,0,0,.017.047.144.144,0,0,0,.147.182,10.365,10.365,0,0,0,3.084-.605C235.716,388.624,236.333,388.054,236.039,387.374Zm-2.453,1.592c-.5.08-1,.135-1.5.234a18.775,18.775,0,0,1,1.4-1.268,6.72,6.72,0,0,1,.752-.518c.408-.234,1.905-.588,1.422.618C235.392,388.7,234.184,388.871,233.586,388.966Z" transform="translate(-228.336 -386.268)" fill="#263238"/>
                        <path id="Path_132" data-name="Path 132" d="M218.3,386.643a10.386,10.386,0,0,0,2.922,1.156c.1.032.177-.065.179-.152.02,0,.035-.02.025-.042a6.235,6.235,0,0,0-1.9-2.61c-.5-.391-1.372-.645-1.808,0C217.3,385.612,217.8,386.287,218.3,386.643Zm-.334-.929c-.254-1.275,1.151-.653,1.509-.349a6.329,6.329,0,0,1,.645.648,18.668,18.668,0,0,1,1.146,1.5c-.471-.187-.956-.334-1.435-.5C219.264,386.8,218.106,386.416,217.966,385.714Z" transform="translate(-217.561 -384.601)" fill="#263238"/>
                      </g>
                    </g>
                  </g>
                </g>
              </g>
              <g id="Group_72" data-name="Group 72">
                <path id="Path_133" data-name="Path 133" d="M177.38,274.193l-11.926-2.67s9.836-22.818,8.964-23.971c-.436-.578-11.482-.747-15-3.724-4.563-3.868-1.5-10.528-1.5-10.528l13.684-.02s-.578,2.984-.1,3.372c.316.259,14.1,1.494,15.714,6.449C189.2,249.176,177.38,274.193,177.38,274.193Z" transform="translate(-156.915 -233.28)" fill="#37474f"/>
                <g id="Group_71" data-name="Group 71" transform="translate(10.129 36.008)">
                  <path id="Path_134" data-name="Path 134" d="M208.26,380.6c-.314-.132-3.395-1.006-4.085-1.181-1.39-.356-2.78-.7-4.174-1.031-.727-.172-2.286-.543-2.381-.535a.038.038,0,0,0-.007.075c1.36.423,2.735.795,4.11,1.168s6.1,1.529,6.508,1.574C208.273,380.672,208.3,380.614,208.26,380.6Z" transform="translate(-197.583 -377.85)" fill="#263238"/>
                </g>
                <path id="Path_135" data-name="Path 135" d="M181.05,251.358a1.89,1.89,0,0,0-.932-.289q-2.671-.445-5.343-.9c-1.666-.279-3.343-.528-5-.847a11.455,11.455,0,0,1-3.958-1.367,5.724,5.724,0,0,1-2.426-3.173,10.272,10.272,0,0,1-.314-4.065c.032-.331.092-.663.154-.989a.02.02,0,0,0-.04-.007c-.451,2.526-.493,5.46,1.4,7.472a7.581,7.581,0,0,0,3.487,1.933,40.289,40.289,0,0,0,4.486.872l5.343.892c.857.142,1.726.254,2.578.431a.891.891,0,0,1,.463.2.661.661,0,0,1,.075.618c-.085.418-.2.834-.319,1.245-.971,3.318-7.534,19.146-7.726,19.51-.02.037.04.067.062.03,1.634-2.909,6.389-15.134,7.467-18.272a19.472,19.472,0,0,0,.7-2.441A.827.827,0,0,0,181.05,251.358Z" transform="translate(-161.435 -238.107)" fill="#263238"/>
              </g>
            </g>
            <g id="Group_82" data-name="Group 82" transform="translate(0 0.002)">
              <g id="Group_78" data-name="Group 78" transform="translate(31.818 39.48)">
                <g id="Group_77" data-name="Group 77">
                  <path id="Path_136" data-name="Path 136" d="M297.508,409.681c-.618.2-18.284.12-18.952-.311-.257-.159-.4-2.73-.473-5.841,0-.032,0-.065,0-.1l11.4-.072-.005.194s6.747,3.054,7.435,3.6S298.125,409.48,297.508,409.681Z" transform="translate(-278.08 -400.48)" fill="#a6a6a6"/>
                  <g id="Group_76" data-name="Group 76" transform="translate(1.267)">
                    <g id="Group_75" data-name="Group 75">
                      <path id="Path_137" data-name="Path 137" d="M301.129,425.694c-2.976-.087-14.994-.159-17.946-.02-.025,0-.025.017,0,.02,2.949.152,14.967.125,17.946.05C301.192,425.741,301.192,425.7,301.129,425.694Z" transform="translate(-283.165 -417.177)" fill="#263238"/>
                      <path id="Path_138" data-name="Path 138" d="M318.328,403.239a4.154,4.154,0,0,0-3.5.777c-.035.032.012.082.05.07a16.43,16.43,0,0,1,3.45-.7A.074.074,0,0,0,318.328,403.239Z" transform="translate(-306.929 -400.322)" fill="#263238"/>
                      <path id="Path_139" data-name="Path 139" d="M321.718,405.3a4.153,4.153,0,0,0-3.5.777c-.035.032.012.082.05.07a16.432,16.432,0,0,1,3.45-.7A.074.074,0,0,0,321.718,405.3Z" transform="translate(-309.475 -401.869)" fill="#263238"/>
                      <path id="Path_140" data-name="Path 140" d="M325.108,407.359a4.154,4.154,0,0,0-3.5.777c-.035.032.012.082.05.07a16.432,16.432,0,0,1,3.45-.7A.074.074,0,0,0,325.108,407.359Z" transform="translate(-312.02 -403.416)" fill="#263238"/>
                      <g id="Group_74" data-name="Group 74" transform="translate(5.344)">
                        <path id="Path_141" data-name="Path 141" d="M324.161,392.173c-.458-.635-1.315-.354-1.808.052a6.247,6.247,0,0,0-1.818,2.673.031.031,0,0,0,.027.042.145.145,0,0,0,.184.147,10.429,10.429,0,0,0,2.882-1.25C324.113,393.463,324.594,392.773,324.161,392.173Zm-2.055,2.077c-.473.184-.951.346-1.417.548a18.478,18.478,0,0,1,1.1-1.537,6.332,6.332,0,0,1,.625-.668c.351-.316,1.734-.984,1.522.3C323.814,393.6,322.669,394.031,322.106,394.25Z" transform="translate(-316.569 -391.799)" fill="#263238"/>
                        <path id="Path_142" data-name="Path 142" d="M305.611,396.729a10.432,10.432,0,0,0,3.1.506.146.146,0,0,0,.142-.187.03.03,0,0,0,.015-.047,6.276,6.276,0,0,0-2.419-2.145c-.575-.274-1.477-.336-1.766.391C304.413,395.937,305.049,396.487,305.611,396.729Zm-.526-.837c-.523-1.191.984-.884,1.4-.665a6.735,6.735,0,0,1,.77.493,18.706,18.706,0,0,1,1.44,1.221c-.5-.082-1-.12-1.509-.184C306.588,396.682,305.372,396.55,305.086,395.892Z" transform="translate(-304.62 -393.951)" fill="#263238"/>
                      </g>
                    </g>
                  </g>
                </g>
              </g>
              <g id="Group_81" data-name="Group 81">
                <path id="Path_143" data-name="Path 143" d="M194.626,275.772l-12.847-.01s-5.5-21.814-6.471-23.057c-1.3-1.656-19.45-1.619-23.346-7.021-3.5-4.852-.271-12.394-.271-12.394l13.418,0a24.621,24.621,0,0,1-1.218,4.585s16.561,3.051,21.2,8.125C188.222,249.425,194.626,275.772,194.626,275.772Z" transform="translate(-150.334 -233.29)" fill="#37474f"/>
                <g id="Group_80" data-name="Group 80" transform="translate(1.46 0.212)">
                  <path id="Path_144" data-name="Path 144" d="M200.785,247.919a6.477,6.477,0,0,0-1.166.374c-.394.149-.785.321-1.163.506a23.3,23.3,0,0,0-2.174,1.228c-.022.012,0,.045.022.032.742-.386,1.512-.732,2.281-1.064l1.111-.478a11.3,11.3,0,0,0,1.123-.5A.057.057,0,0,0,200.785,247.919Z" transform="translate(-186.291 -244.487)" fill="#263238"/>
                  <path id="Path_145" data-name="Path 145" d="M205.335,234.187c-.157.628-.3,1.258-.476,1.878-.082.284-.164.575-.271.852-.092.234-.229.5-.5.553-.311.06-.4-.207-.376-.463a8.358,8.358,0,0,1,.159-.857c.065-.326.132-.65.192-.976.03-.164.194-.929.194-.939,0-.025,0-.03-.015-.047a.023.023,0,0,0-.027,0,2.883,2.883,0,0,0-.232.65c-.087.3-.172.6-.247.9s-.149.605-.224.907a1.414,1.414,0,0,0-.06.7.532.532,0,0,0,.493.4.493.493,0,0,0-.032.062c-.027.062-.047.127-.07.192s-.045.129-.065.2a.444.444,0,0,0-.017.1c0,.037,0,.072,0,.107a.052.052,0,0,0,.1.035c.017-.032.04-.057.06-.087a.55.55,0,0,0,.045-.1,1.64,1.64,0,0,0,.055-.189c.015-.062.035-.127.047-.192.007-.037.007-.077.012-.115a.724.724,0,0,0,.361-.137,1.224,1.224,0,0,0,.376-.573c.095-.262.167-.531.242-.8a11.886,11.886,0,0,0,.4-2.02C205.455,234.139,205.353,234.112,205.335,234.187Z" transform="translate(-191.665 -234.143)" fill="#263238"/>
                  <g id="Group_79" data-name="Group 79" transform="translate(30.488 39.821)">
                    <path id="Path_146" data-name="Path 146" d="M289.615,394.167a10.152,10.152,0,0,0-1.029-.065c-.361-.015-.722-.03-1.083-.042-.712-.02-1.422-.035-2.135-.037-1.435-.005-2.867-.005-4.3.02-.747.013-2.349.032-2.438.062a.037.037,0,0,0,.012.072c1.422.075,2.847.1,4.272.125s2.847.047,4.269.025c.394-.007.787-.022,1.181-.032a11.525,11.525,0,0,0,1.245-.055C289.645,394.236,289.663,394.174,289.615,394.167Z" transform="translate(-278.602 -394.02)" fill="#263238"/>
                  </g>
                  <path id="Path_147" data-name="Path 147" d="M181.206,256.781a3.793,3.793,0,0,0-.536-1.106,1.954,1.954,0,0,0-1.051-.54c-3.425-.937-6.959-1.357-10.441-2.017a42.474,42.474,0,0,1-5.084-1.238,19.692,19.692,0,0,1-4.807-2.162,5.383,5.383,0,0,1-1.768-1.868,8.163,8.163,0,0,1-.832-2.334,14.245,14.245,0,0,1,.012-5.642,13.681,13.681,0,0,1,.351-1.372c.01-.027-.035-.037-.045-.01a13.747,13.747,0,0,0-.775,5.6,8.4,8.4,0,0,0,1.592,4.7,6.654,6.654,0,0,0,1.975,1.552,21.037,21.037,0,0,0,2.421,1.141,32.293,32.293,0,0,0,4.991,1.489c3.475.77,7.019,1.158,10.491,1.93.428.095.857.2,1.28.3a4.513,4.513,0,0,1,1.263.406,2.2,2.2,0,0,1,.71,1.2c.179.471,5.764,19.37,5.891,19.846.02.077.137.04.117-.035C186.479,274.694,181.567,257.707,181.206,256.781Z" transform="translate(-156.195 -237.396)" fill="#263238"/>
                  <path id="Path_148" data-name="Path 148" d="M230.964,307.386a1.848,1.848,0,0,0-.628-1.106c-.356-.234-5.881-.986-6.5-1.081-.03,0-.04.04-.01.045.531.09,5.607,1,6.06,1.151a1.013,1.013,0,0,1,.5.319,2.219,2.219,0,0,1,.289.69c.157.491.311.984.468,1.475.314.986.625,1.975.924,2.966.336,1.126.722,2.3,1.014,3.44.022.087.147.045.132-.04C232.82,313.109,231.126,307.9,230.964,307.386Z" transform="translate(-206.967 -287.5)" fill="#263238"/>
                  <path id="Path_149" data-name="Path 149" d="M204.77,251.839a46.364,46.364,0,0,1,7.5,1.537,52.145,52.145,0,0,1,7.236,2.618c1.315.59,2.588,1.25,3.851,1.945.025.012,0,.05-.022.037a58.406,58.406,0,0,0-7.039-3.069,56.775,56.775,0,0,0-7.328-2.125c-1.4-.3-2.812-.54-4.224-.777C204.648,251.988,204.676,251.829,204.77,251.839Z" transform="translate(-192.607 -247.431)" fill="#263238"/>
                </g>
              </g>
            </g>
          </g>
          <g id="Group_119" data-name="Group 119">
            <g id="Group_87" data-name="Group 87" transform="translate(14.388 13.349)">
              <g id="Group_86" data-name="Group 86" transform="translate(0.011 0.1)">
                <path id="Path_150" data-name="Path 150" d="M198.774,167.426c1.083,5.228,3.36,11.866,5.2,13.233,1.484,1.1,9.348,3.161,9.786,3.218,1.088.134,3.442-7.666,2.284-7.866-1.527-.264-8.187-.782-8.563-1.186-.391-.423-2.785-3.813-5.492-7.741C200.121,164.37,198.1,164.18,198.774,167.426Z" transform="translate(-198.642 -165.02)" fill="#eb9481"/>
                <g id="Group_85" data-name="Group 85" transform="translate(14.251 11.003)">
                  <path id="Path_151" data-name="Path 151" d="M255.86,216.606A23.984,23.984,0,0,0,258.949,218c.847.264,3.3.964,3.686.06.264-.615-1.133-1.2-2.112-1.629-.516-.227-1.143-.785-.984-1.116.281-.578,1.607.037,2.476.568,1.681,1.026,3.91,2.854,4.969,2.013.4-.319-.045-.922-.7-1.519,1.069.7,2.212,1.285,2.67.949a.572.572,0,0,0,.144-.772.757.757,0,0,0,.839-.112c.361-.361.2-.909-.174-1.475a.412.412,0,0,0,.324-.2c.77-1.121-2.892-4.466-4.177-4.8a28.76,28.76,0,0,0-7.826-.742C256.57,210.382,255.858,216.6,255.86,216.606Z" transform="translate(-255.86 -209.195)" fill="#eb9481"/>
                  <g id="Group_84" data-name="Group 84" transform="translate(5.65 1.052)">
                    <path id="Path_152" data-name="Path 152" d="M278.553,225.4a6.483,6.483,0,0,1,2.513,1.029,18.288,18.288,0,0,1,2.364,2.179c.02.02-.01.052-.03.032-.376-.364-1.943-1.736-2.349-2.05a6.122,6.122,0,0,0-2.5-1.176C278.541,225.412,278.543,225.4,278.553,225.4Z" transform="translate(-278.545 -222.415)" fill="#263238"/>
                    <path id="Path_153" data-name="Path 153" d="M281.53,218.989a15.377,15.377,0,0,1,2.924,1.083,10.165,10.165,0,0,1,2.541,2.224c.458.5.907,1,1.34,1.519.017.022-.01.055-.03.032q-1.162-1.281-2.4-2.491a8.137,8.137,0,0,0-2.65-1.751c-.565-.229-1.148-.416-1.731-.6C281.515,219,281.52,218.987,281.53,218.989Z" transform="translate(-280.779 -217.602)" fill="#263238"/>
                    <path id="Path_154" data-name="Path 154" d="M285.949,213.42a7.843,7.843,0,0,1,2.655.946,13.928,13.928,0,0,1,2.57,2.314c.416.463.814.939,1.208,1.422.015.02-.017.047-.035.027a32.523,32.523,0,0,0-2.894-2.994,6.389,6.389,0,0,0-1.631-1.111,11.42,11.42,0,0,0-1.876-.6S285.947,213.42,285.949,213.42Z" transform="translate(-284.102 -213.42)" fill="#263238"/>
                  </g>
                </g>
              </g>
              <path id="Path_155" data-name="Path 155" d="M215.568,175.422l-3.021,8.346s-8.284-2.443-9.38-3.883-3.853-8.66-4.448-12.528,1.34-3.066,2.989-1.111,5.766,8.018,5.908,8.112S215.568,175.422,215.568,175.422Z" transform="translate(-198.606 -164.616)" fill="#ffc727"/>
              <path id="Path_156" data-name="Path 156" d="M248.337,215.021c.11-.279.232-.553.336-.834.217-.585.436-1.171.65-1.756s.431-1.173.64-1.761.4-1.188.615-1.773c.01-.027-.03-.045-.04-.017-.244.575-.511,1.138-.75,1.716s-.473,1.181-.692,1.776-.423,1.176-.623,1.768c-.1.3-.179.6-.271.9s-.187.578-.254.874c0,.02.025.027.035.01C248.115,215.628,248.22,215.322,248.337,215.021Z" transform="translate(-235.656 -197.844)" fill="#263238"/>
              <path id="Path_157" data-name="Path 157" d="M208.929,182.636c-2.379-.827-5.166-1.928-5.771-2.722-1.1-1.437-3.853-8.658-4.448-12.526-.281-1.836.005-2.623.563-2.727Z" transform="translate(-198.6 -164.649)" opacity="0.1"/>
            </g>
            <g id="Group_88" data-name="Group 88" transform="translate(1.776 12.152)">
              <path id="Path_158" data-name="Path 158" d="M165.205,179.812c-.391.379-17.146,2.125-17.228,2.013-.222-.3,2.909-16.025,9.617-21.443a3.852,3.852,0,0,1,4.047.02,10.132,10.132,0,0,1,2.035,4.551C164.03,166.958,165.452,179.571,165.205,179.812Z" transform="translate(-147.966 -159.809)" fill="#ffc727"/>
            </g>
            <g id="Group_89" data-name="Group 89" transform="translate(0 13.37)">
              <path id="Path_159" data-name="Path 159" d="M152.523,168.421c-.648,2.68-3.975,12.2-4.8,13.029-.986.984-5.283,4.013-6.782-.017-1.039-2.792,6.018-12.576,9.353-15.732C151.92,164.159,153.609,163.935,152.523,168.421Z" transform="translate(-140.835 -164.699)" fill="#ffc727"/>
              <path id="Path_160" data-name="Path 160" d="M173.965,184.4c-.164.262-.336.521-.488.79l-.09.164c.052-.177.1-.356.154-.536.127-.458.227-.922.339-1.382a.035.035,0,0,0-.067-.017c-.129.4-.274.787-.406,1.183-.125.376-.242.755-.364,1.131-.254.78-.521,1.557-.787,2.334-.531,1.544-1.106,3.071-1.711,4.588-.336.839-.68,1.676-1,2.523-.007.022.027.037.04.015a42.8,42.8,0,0,0,1.96-4.476c.585-1.512,1.131-3.041,1.607-4.593.04-.127.08-.257.117-.384l.052-.085c.08-.134.159-.269.234-.406.152-.276.284-.56.423-.844C173.985,184.4,173.97,184.391,173.965,184.4Z" transform="translate(-162.395 -178.74)" fill="#263238"/>
            </g>
            <g id="Group_93" data-name="Group 93" transform="translate(11.087 12.303)">
              <g id="Group_90" data-name="Group 90">
                <path id="Path_161" data-name="Path 161" d="M189.118,167.533s-2.57-2.027-3.153-2.588-.9-3.636-.267-4.194,3.121-.376,3.9.232a6.463,6.463,0,0,1,1.435,2.929,26.13,26.13,0,0,1-.9,3.422l-.536-.727s.555-2.4.536-2.787a12.827,12.827,0,0,0-.623-2.625c-.192-.291-3.064-.257-3.283-.127s.157,2.59.281,3.006a26.006,26.006,0,0,0,2.7,2.829Z" transform="translate(-185.35 -160.416)" fill="#455a64"/>
                <path id="Path_162" data-name="Path 162" d="M197.874,184.65l.478.453-.1.628s-.311-.247-.742-.593Z" transform="translate(-194.481 -178.614)" fill="#263238"/>
                <path id="Path_163" data-name="Path 163" d="M203.185,183.758c-.132.436-.229.745-.229.745l-.536-.725s.047-.2.112-.5Z" transform="translate(-198.168 -177.585)" fill="#263238"/>
              </g>
              <g id="Group_92" data-name="Group 92" transform="translate(2.76 6.193)">
                <path id="Path_164" data-name="Path 164" d="M199.04,185.918l.842-.638.695.214-.229,1.293-.929.072Z" transform="translate(-198.39 -185.28)" fill="#455a64"/>
                <g id="Group_91" data-name="Group 91" transform="translate(0 1.507)">
                  <path id="Path_165" data-name="Path 165" d="M197.459,191.4l-1.029,10.192,2.6,2.947.8-3.6-1.442-9.614Z" transform="translate(-196.43 -191.33)" fill="#455a64"/>
                  <path id="Path_166" data-name="Path 166" d="M200.432,191.4l.929-.072.03.187-1,.289Z" transform="translate(-199.404 -191.33)" fill="#263238"/>
                </g>
              </g>
            </g>
            <g id="Group_110" data-name="Group 110" transform="translate(9.846)">
              <g id="Group_107" data-name="Group 107">
                <g id="Group_95" data-name="Group 95" transform="translate(1.585 9.22)">
                  <g id="Group_94" data-name="Group 94">
                    <path id="Path_167" data-name="Path 167" d="M190.224,154.218c-.942.306-2.707-1.021-3.457-2.154-.05-.077.017-3.36-.037-4.01-.012-.134,4.174.653,4.174.653a10.391,10.391,0,0,0-.187,2.536C190.728,151.336,191.131,153.922,190.224,154.218Z" transform="translate(-186.73 -148.038)" fill="#eb9481"/>
                  </g>
                  <path id="Path_168" data-name="Path 168" d="M191.29,148.715l0,0c0,.02-.02.1-.042.234-.037.224-.095.588-.13,1a7.294,7.294,0,0,0-.015,1.3.892.892,0,0,0,.01.09l0,.015c.01.052.017.125.025.209a2.572,2.572,0,0,1-.4.055c-2.232.135-3.208-2.536-3.5-3.569a.393.393,0,0,1,.072.007c.11.007.254.025.428.05.042.007.087.012.135.02.279.04.61.095.956.149.115.02.227.037.344.06.247.045.5.087.73.127.1.02.2.037.291.052s.2.037.3.052c.047.01.092.017.137.025.022,0,.045.01.065.012.137.025.254.045.346.065l.167.03c.035.007.057.01.07.015a.022.022,0,0,1,.012,0Z" transform="translate(-187.113 -148.047)" fill="#263238"/>
                </g>
                <g id="Group_106" data-name="Group 106">
                  <g id="Group_96" data-name="Group 96" transform="translate(0.944 1.942)">
                    <path id="Path_169" data-name="Path 169" d="M184.29,121.149c-.453,1.452.289,5.656,1.32,6.6,1.492,1.367,3.95,1.512,5.116-.284,1.131-1.741.065-7.2-1.086-8.06A3.636,3.636,0,0,0,184.29,121.149Z" transform="translate(-184.154 -118.817)" fill="#eb9481"/>
                  </g>
                  <g id="Group_103" data-name="Group 103" transform="translate(4.21 5.187)">
                    <g id="Group_97" data-name="Group 97" transform="translate(0.296 1.039)">
                      <path id="Path_170" data-name="Path 170" d="M198.819,137.33c-.526.015-.456,1.064.03,1.049S199.257,137.317,198.819,137.33Z" transform="translate(-198.454 -137.002)" fill="#d3766a"/>
                      <path id="Path_171" data-name="Path 171" d="M208.006,136.027c-.493.149-.157,1.128.3.989S208.42,135.9,208.006,136.027Z" transform="translate(-205.444 -136.016)" fill="#d3766a"/>
                      <path id="Path_172" data-name="Path 172" d="M200.648,138.154c-.005-.01-.02.017-.017.03.065.281.095.613-.142.757-.007,0,0,.017.005.015C200.8,138.848,200.755,138.408,200.648,138.154Z" transform="translate(-199.979 -137.62)" fill="#263238"/>
                      <path id="Path_173" data-name="Path 173" d="M199.036,137.175c-.461.057-.314.974.115.922S199.422,137.127,199.036,137.175Z" transform="translate(-198.678 -136.885)" fill="#263238"/>
                    </g>
                    <g id="Group_98" data-name="Group 98" transform="translate(2.616 1.008)">
                      <path id="Path_174" data-name="Path 174" d="M207.768,137.269c0-.012.025.01.025.022.037.286.127.605.4.66.007,0,.01.015,0,.015C207.873,137.974,207.758,137.545,207.768,137.269Z" transform="translate(-207.768 -136.924)" fill="#263238"/>
                      <path id="Path_175" data-name="Path 175" d="M207.978,135.9c.451-.107.635.8.217.9S207.6,135.993,207.978,135.9Z" transform="translate(-207.771 -135.895)" fill="#263238"/>
                    </g>
                    <path id="Path_176" data-name="Path 176" d="M197.319,132.306c.09-.095.187-.169.284-.254a.618.618,0,0,1,.339-.2.2.2,0,0,1,.192.142.484.484,0,0,1-.194.453.717.717,0,0,1-.471.212A.207.207,0,0,1,197.319,132.306Z" transform="translate(-197.266 -131.846)" fill="#263238"/>
                    <path id="Path_177" data-name="Path 177" d="M207.983,132.695c-.112-.067-.227-.11-.344-.167a.62.62,0,0,0-.384-.1.2.2,0,0,0-.147.189.486.486,0,0,0,.311.384.729.729,0,0,0,.511.075A.209.209,0,0,0,207.983,132.695Z" transform="translate(-204.657 -132.278)" fill="#263238"/>
                    <g id="Group_102" data-name="Group 102" transform="translate(1.012 0.109)">
                      <g id="Group_100" data-name="Group 100" transform="translate(0.25)">
                        <g id="Group_99" data-name="Group 99">
                          <path id="Path_178" data-name="Path 178" d="M202.446,136.049a2.4,2.4,0,0,1,1.106-.239c.032-.01.052-.08.052-.112v0c0-.01-.115-.6-.115-.6.085.027.516.142.491.03a14.568,14.568,0,0,0-.837-2.829.026.026,0,0,0-.05.015c.164.9.483,1.758.663,2.655a1.752,1.752,0,0,0-.473-.065c-.03.015.154.625.159.722a1.4,1.4,0,0,0-1.019.294C202.312,136.022,202.285,136.144,202.446,136.049Z" transform="translate(-202.332 -132.285)" fill="#263238"/>
                        </g>
                      </g>
                      <g id="Group_101" data-name="Group 101" transform="translate(0 3.351)">
                        <path id="Path_179" data-name="Path 179" d="M202.425,146.4c.157-.07.3-.66.005-.66a1.377,1.377,0,0,0-1.083.62c-.144.339.643,0,.787.035C202.256,146.42,202.311,146.45,202.425,146.4Z" transform="translate(-201.329 -145.74)" fill="#263238"/>
                        <path id="Path_180" data-name="Path 180" d="M202.138,147.385c.027,0,.05.012.07.015-.03-.182-.234-.376-.63-.336a.736.736,0,0,0-.229.286C201.207,147.687,201.991,147.356,202.138,147.385Z" transform="translate(-201.331 -146.73)" fill="#ff9abb"/>
                      </g>
                    </g>
                    <path id="Path_181" data-name="Path 181" d="M200.68,149.442c.077.055.159.134.264.125a.724.724,0,0,0,.289-.122c.007,0,.02,0,.015.012a.381.381,0,0,1-.331.212.3.3,0,0,1-.262-.212C200.648,149.445,200.668,149.435,200.68,149.442Z" transform="translate(-199.81 -145.058)" fill="#263238"/>
                  </g>
                  <g id="Group_104" data-name="Group 104">
                    <path id="Path_182" data-name="Path 182" d="M181.624,119.159s-1.412-2.453-1.245-3.851c.075-.63.947-1.039.947-1.039a1.427,1.427,0,0,1,.483-1.427c.765-.687,2.573-.491,2.573-.491s1.21-1.671,2.859-.961.523,2.57.523,2.57.59.879-.914,1.522c-1.465.628-4.416-.085-4.416-.085a10.322,10.322,0,0,1-.112,3.069A.939.939,0,0,1,181.624,119.159Z" transform="translate(-180.365 -111.166)" fill="#263238"/>
                    <path id="Path_183" data-name="Path 183" d="M187.091,115.176a2.912,2.912,0,0,0-1.163-.239,3.155,3.155,0,0,0-1.056.142,1.744,1.744,0,0,0-1.258,1.285,1.22,1.22,0,0,0,.212.924c.007.01.025,0,.015-.015a1.273,1.273,0,0,1,.249-1.609,2.639,2.639,0,0,1,1.768-.61,5.21,5.21,0,0,1,1.223.157A.018.018,0,0,0,187.091,115.176Z" transform="translate(-182.791 -113.961)" fill="#263238"/>
                    <path id="Path_184" data-name="Path 184" d="M201.06,112.071a1.419,1.419,0,0,0-.964-.929,2.418,2.418,0,0,0-1.574.02,3.061,3.061,0,0,0-1.308.927c-.007.01.007.022.015.015a2.684,2.684,0,0,1,2.59-.9,1.472,1.472,0,0,1,1.049.75,1.455,1.455,0,0,1-.065,1.233,2.745,2.745,0,0,1-1.091,1.049c-.01,0,0,.022.007.015a2.8,2.8,0,0,0,1.083-.884A1.582,1.582,0,0,0,201.06,112.071Z" transform="translate(-193.016 -111.02)" fill="#263238"/>
                    <path id="Path_185" data-name="Path 185" d="M191.11,127.481a5.012,5.012,0,0,1-2.1.316,10.365,10.365,0,0,1-2.192-.349c-.418-.11-.832-.237-1.243-.371-.012,0-.02.015-.007.02a11.229,11.229,0,0,0,2.237.745,5.592,5.592,0,0,0,2.172.027,4.8,4.8,0,0,0,1.138-.374A.008.008,0,1,0,191.11,127.481Z" transform="translate(-184.269 -123.077)" fill="#263238"/>
                  </g>
                  <g id="Group_105" data-name="Group 105" transform="translate(0.19 6.645)">
                    <path id="Path_186" data-name="Path 186" d="M182.937,138.752s-.969-1.345-1.582-1,.13,2.306.859,2.565a.737.737,0,0,0,.981-.408Z" transform="translate(-181.128 -137.698)" fill="#eb9481"/>
                    <path id="Path_187" data-name="Path 187" d="M182.918,140.16c-.012,0-.015.015,0,.02a1.864,1.864,0,0,1,.979,1.151.406.406,0,0,0-.61-.1c-.012.01,0,.03.015.027a.454.454,0,0,1,.5.152,2.11,2.11,0,0,1,.244.4c.025.045.107.02.087-.032,0,0,0-.007,0-.012C184.128,141.114,183.613,140.215,182.918,140.16Z" transform="translate(-182.464 -139.547)" fill="#263238"/>
                  </g>
                </g>
              </g>
              <g id="Group_109" data-name="Group 109" transform="translate(0.813 12.519)">
                <g id="Group_108" data-name="Group 108">
                  <path id="Path_188" data-name="Path 188" d="M188.445,161.527l-.732,2.526-3.325-2.772-.757,1.071s3.44,4.588,3.435,4.366l.792-2.194,1.589,1.313-.481-3.644Z" transform="translate(-183.63 -161.28)" fill="#ffc727"/>
                  <path id="Path_189" data-name="Path 189" d="M189.75,166.813c-.1-.6-.184-1.206-.311-1.8,0-.02-.04-.027-.042,0a33.658,33.658,0,0,0,.384,3.437s0,0-.007,0c-.067-.057-1.467-1.148-1.477-1.128-.184.354-.767,1.953-.8,2.095-.543-.73-2.615-3.37-3.24-4.047a.021.021,0,0,0-.035.025c.493.777,3.24,4.339,3.275,4.324a23.673,23.673,0,0,0,.827-2.319,16.245,16.245,0,0,0,1.666,1.4A18.836,18.836,0,0,0,189.75,166.813Z" transform="translate(-184.069 -164.071)" fill="#263238"/>
                </g>
              </g>
            </g>
            <g id="Group_118" data-name="Group 118" transform="translate(0.018 19.75)">
              <g id="Group_112" data-name="Group 112" transform="translate(15.967)">
                <path id="Path_190" data-name="Path 190" d="M205.492,192.471s-1.041-1.372-.047-2.005,1.8.889,1.8.889Z" transform="translate(-205.015 -190.312)" fill="#455a64"/>
                <g id="Group_111" data-name="Group 111" transform="translate(0.437 0.983)">
                  <path id="Path_191" data-name="Path 191" d="M215.034,204.465h0l.144,1.679.05.553-.486-.276-1.462-.839h0v0l-6.508-10.2,1.751-1.116,6.513,10.2Z" transform="translate(-206.77 -194.26)" fill="#455a64"/>
                  <path id="Path_192" data-name="Path 192" d="M239.216,241.98l.05.553-.486-.277Z" transform="translate(-230.807 -230.094)" fill="#263238"/>
                </g>
                <rect id="Rectangle_64" data-name="Rectangle 64" width="2.423" height="0.481" transform="matrix(0.843, -0.538, 0.538, 0.843, 0.261, 2.142)" fill="#263238"/>
                <rect id="Rectangle_65" data-name="Rectangle 65" width="2.423" height="0.481" transform="matrix(0.843, -0.538, 0.538, 0.843, 0.546, 2.594)" fill="#263238"/>
                <path id="Path_193" data-name="Path 193" d="M208.24,201.071l.66-.421,1.99,3.923-.252.139Z" transform="translate(-207.437 -198.075)" fill="#263238"/>
              </g>
              <g id="Group_115" data-name="Group 115" transform="translate(0.194 2.894)">
                <path id="Path_194" data-name="Path 194" d="M154.405,209.2c1.016-.06,2.844,8.82,1.355,8.979-6.638.707-11.751-1.026-12.914-1.8a2.781,2.781,0,0,1-.553-4C143.707,210.878,152.826,209.291,154.405,209.2Z" transform="translate(-141.687 -207.388)" fill="#eb9481"/>
                <g id="Group_114" data-name="Group 114" transform="translate(12.293)">
                  <path id="Path_195" data-name="Path 195" d="M203.85,205c-.152.974-2.521.4-2.521.4a1.815,1.815,0,0,1,.573,1.1c.067.747-1.076,1.178-1.076,1.178a2.252,2.252,0,0,1,.421,1.253c-.007.72-1.1,1.32-1.1,1.32a1.967,1.967,0,0,1-.324,1.335c-.75,1.019-7.542,1.158-8.391,1.2l-.394-8.887s5.632-2.229,7.056-1.93C199.3,202.206,204.079,203.509,203.85,205Z" transform="translate(-191.04 -201.929)" fill="#eb9481"/>
                  <g id="Group_113" data-name="Group 113" transform="translate(5.593 2.321)">
                    <path id="Path_196" data-name="Path 196" d="M220.546,212.362a16.434,16.434,0,0,0-3.866-1.113.023.023,0,1,0-.007.045c1.3.242,2.565.837,3.853,1.131A.033.033,0,0,0,220.546,212.362Z" transform="translate(-215.867 -211.248)" fill="#263238"/>
                    <path id="Path_197" data-name="Path 197" d="M218.719,223.088a3.415,3.415,0,0,0-.894-.194c-.321-.047-.643-.087-.964-.125-.645-.072-1.293-.132-1.94-.169-.03,0-.037.042-.007.045.643.075,1.285.157,1.923.259.319.05.64.1.959.159a4.148,4.148,0,0,0,.909.115A.048.048,0,0,0,218.719,223.088Z" transform="translate(-214.545 -219.772)" fill="#263238"/>
                    <path id="Path_198" data-name="Path 198" d="M216.982,234.012a2.417,2.417,0,0,0-.814-.132c-.294-.027-.588-.055-.884-.087-.588-.06-1.176-.122-1.763-.2a.023.023,0,0,0-.007.045c.6.085,1.188.179,1.783.259.291.04.585.077.877.115a2.306,2.306,0,0,0,.8.032A.014.014,0,0,0,216.982,234.012Z" transform="translate(-213.494 -228.024)" fill="#263238"/>
                  </g>
                </g>
              </g>
              <g id="Group_117" data-name="Group 117" transform="translate(0 4.582)">
                <path id="Path_199" data-name="Path 199" d="M152.829,209.11l1.552,9.933s-10.536-.941-12.556-2.887a2.955,2.955,0,0,1-.172-4.107C143.414,210.659,152.829,209.11,152.829,209.11Z" transform="translate(-140.908 -209.01)" fill="#ffc727"/>
                <g id="Group_116" data-name="Group 116" transform="translate(2.069)">
                  <path id="Path_200" data-name="Path 200" d="M180.313,220.534c-.269-1.39-1.156-7.111-1.265-8.361-.007-.087.045-.112.065-.022a76.7,76.7,0,0,1,1.255,8.374C180.37,220.554,180.318,220.569,180.313,220.534Z" transform="translate(-171.617 -211.251)" fill="#263238"/>
                  <path id="Path_201" data-name="Path 201" d="M160.6,208.709a66.914,66.914,0,0,0-7.238,1.492c-.062.017-.125.04-.189.06-.448.045-.889.134-1.33.214-.012,0-.01.022,0,.02.351-.065.707-.1,1.061-.149-.2.065-.406.134-.605.2-.356.127-.7.267-1.059.4a.009.009,0,1,0,.007.017c.593-.209,1.2-.384,1.806-.563s7.492-1.589,7.52-1.587c.007,0,.022.062.025.085s.037.032.032,0A.767.767,0,0,0,160.6,208.709Z" transform="translate(-150.731 -208.708)" fill="#263238"/>
                  <path id="Path_202" data-name="Path 202" d="M159.156,242.243c-.3-.065-1.43-.164-1.729-.207-.605-.085-1.211-.162-1.813-.262-1.21-.2-2.409-.456-3.6-.74-.331-.077-.66-.162-.991-.244s-1.46-.463-1.793-.573c-.012,0-.02.015-.007.02a14.258,14.258,0,0,0,1.639.6c.3.082.588.179.882.264.593.169,1.193.314,1.8.448,1.2.269,2.421.468,3.641.618.344.042,1.634.167,1.978.147C159.2,242.307,159.191,242.25,159.156,242.243Z" transform="translate(-149.214 -232.369)" fill="#263238"/>
                </g>
              </g>
            </g>
          </g>
        </g>
      </g>
      <g id="Group_147" data-name="Group 147" transform="translate(587.09 1600.324)">
        <g id="Group_145" data-name="Group 145" transform="translate(1.519 3.552)">
          <g id="Group_137" data-name="Group 137">
            <rect id="Rectangle_71" data-name="Rectangle 71" width="6.72" height="1.181" transform="translate(3.602 28.098)" fill="#455a64"/>
            <g id="Group_133" data-name="Group 133" transform="translate(3.514)">
              <g id="Group_132" data-name="Group 132">
                <g id="Group_131" data-name="Group 131">
                  <path id="Path_232" data-name="Path 232" d="M114.261,306h-.727l-5.918-27.632-.336-1.574-1.064-4.962-.4-1.848-1.489-6.942-.521-2.431H106.4l.421,2.431.276,1.6.187,1.061,1.059,6.132.344,1.975Z" transform="translate(-103.81 -260.61)" fill="#455a64"/>
                </g>
              </g>
              <path id="Path_233" data-name="Path 233" d="M106.4,260.61l.421,2.431h-2.486l-.521-2.431Z" transform="translate(-103.81 -260.61)" fill="#263238"/>
              <path id="Path_234" data-name="Path 234" d="M114.742,285.948l-1.066,4.56-.336-1.574-1.064-4.962-.4-1.848,1.273-5.345.187,1.061,1.059,6.132Z" transform="translate(-109.87 -272.752)" fill="#263238"/>
            </g>
            <g id="Group_136" data-name="Group 136">
              <g id="Group_135" data-name="Group 135">
                <g id="Group_134" data-name="Group 134">
                  <path id="Path_235" data-name="Path 235" d="M100.149,260.61l-.521,2.431-1.885,8.79-1.059,4.962L90.425,306H89.7l5.92-34.168,1.064-6.132.458-2.658.421-2.431Z" transform="translate(-89.7 -260.61)" fill="#455a64"/>
                </g>
              </g>
              <path id="Path_236" data-name="Path 236" d="M122.586,260.61l-.521,2.431H119.58L120,260.61Z" transform="translate(-112.138 -260.61)" fill="#263238"/>
            </g>
          </g>
          <g id="Group_144" data-name="Group 144" transform="translate(65.887)">
            <rect id="Rectangle_72" data-name="Rectangle 72" width="6.72" height="1.181" transform="translate(3.602 28.098)" fill="#455a64"/>
            <g id="Group_140" data-name="Group 140" transform="translate(3.514)">
              <g id="Group_139" data-name="Group 139">
                <g id="Group_138" data-name="Group 138">
                  <path id="Path_237" data-name="Path 237" d="M378.791,306h-.727l-5.918-27.632-.339-1.574-1.061-4.962-.4-1.848-1.489-6.942-.521-2.431h2.585l.421,2.431.277,1.6.184,1.061,1.061,6.132.344,1.975Z" transform="translate(-368.34 -260.61)" fill="#455a64"/>
                </g>
              </g>
              <path id="Path_238" data-name="Path 238" d="M370.925,260.61l.421,2.431h-2.486l-.521-2.431Z" transform="translate(-368.34 -260.61)" fill="#263238"/>
              <path id="Path_239" data-name="Path 239" d="M379.272,285.948l-1.066,4.56-.339-1.574-1.061-4.962-.4-1.848,1.273-5.345.184,1.061,1.061,6.132Z" transform="translate(-374.4 -272.752)" fill="#263238"/>
            </g>
            <g id="Group_143" data-name="Group 143">
              <g id="Group_142" data-name="Group 142">
                <g id="Group_141" data-name="Group 141">
                  <path id="Path_240" data-name="Path 240" d="M364.679,260.61l-.521,2.431-1.885,8.79-1.061,4.962L354.955,306h-.725l5.92-34.168,1.061-6.132.461-2.658.421-2.431Z" transform="translate(-354.23 -260.61)" fill="#455a64"/>
                </g>
              </g>
              <path id="Path_241" data-name="Path 241" d="M387.116,260.61l-.521,2.431H384.11l.421-2.431Z" transform="translate(-376.668 -260.61)" fill="#263238"/>
            </g>
          </g>
        </g>
        <g id="Group_146" data-name="Group 146">
          <rect id="Rectangle_73" data-name="Rectangle 73" width="82.889" height="3.552" fill="#455a64"/>
        </g>
      </g>
      <g id="Group_151" data-name="Group 151" transform="translate(628.083 1588.461)">
        <g id="Group_148" data-name="Group 148" transform="translate(0 11.059)">
          <rect id="Rectangle_74" data-name="Rectangle 74" width="17.921" height="0.805" fill="#a6a6a6"/>
          <rect id="Rectangle_75" data-name="Rectangle 75" width="9.021" height="0.805" fill="#dbdbdb"/>
        </g>
        <g id="Group_150" data-name="Group 150" transform="translate(10.471)">
          <g id="Group_149" data-name="Group 149">
            <path id="Path_242" data-name="Path 242" d="M290.22,210.581h17.465l2.468-11.861H292.688Z" transform="translate(-290.22 -198.72)" fill="#dbdbdb"/>
          </g>
          <path id="Path_243" data-name="Path 243" d="M324.781,220.083a1.028,1.028,0,0,0,1.041,1.163,1.327,1.327,0,0,0,1.288-1.163,1.028,1.028,0,0,0-1.041-1.163A1.323,1.323,0,0,0,324.781,220.083Z" transform="translate(-316.168 -213.889)" fill="#fff"/>
        </g>
      </g>
      <g id="Group_155" data-name="Group 155" transform="translate(649.132 1590.209)">
        <rect id="Rectangle_88" data-name="Rectangle 88" width="10.526" height="10.115" transform="translate(1.343)" fill="#fff"/>
        <rect id="Rectangle_89" data-name="Rectangle 89" width="4" height="10.115" transform="translate(11.868)" fill="#c7c7c7"/>
        <path id="Path_249" data-name="Path 249" d="M338.08,226.04h10.526l-8.219.262Z" transform="translate(-336.738 -220.984)" fill="#c7c7c7"/>
        <path id="Path_250" data-name="Path 250" d="M348.606,241.44H338.08l8.222.262Z" transform="translate(-336.738 -232.548)" fill="#c7c7c7"/>
        <path id="Path_251" data-name="Path 251" d="M338.08,214.69h6.668l-5.925.212Z" transform="translate(-336.738 -212.461)" fill="#c7c7c7"/>
        <path id="Path_252" data-name="Path 252" d="M360.245,235.46H353.58l5.925.212Z" transform="translate(-348.377 -228.057)" fill="#c7c7c7"/>
        <path id="Path_253" data-name="Path 253" d="M348.22,210.17h7.52l-1.253.127Z" transform="translate(-344.352 -209.067)" fill="#c7c7c7"/>
        <path id="Path_254" data-name="Path 254" d="M342.19,230.4h7.52l-1.253.127Z" transform="translate(-339.824 -224.258)" fill="#c7c7c7"/>
        <path id="Path_255" data-name="Path 255" d="M360.76,218.56h4.877l.872.339Z" transform="translate(-353.769 -215.367)" fill="#fff"/>
        <path id="Path_256" data-name="Path 256" d="M332.69,218.56h4.877l.872.339Z" transform="translate(-332.69 -215.367)" fill="#dbdbdb"/>
        <path id="Path_257" data-name="Path 257" d="M340.481,236.81H335.6l-.872.339Z" transform="translate(-334.222 -229.071)" fill="#dbdbdb"/>
        <path id="Path_258" data-name="Path 258" d="M380.34,232.17h3.918l.872.341Z" transform="translate(-368.472 -225.587)" fill="#c7c7c7"/>
        <path id="Path_259" data-name="Path 259" d="M385.83,225.206h3.039l-.406-.276Z" transform="translate(-372.594 -220.15)" fill="#c7c7c7"/>
      </g>
      <g id="Group_161" data-name="Group 161" transform="translate(591.345 1584.396)">
        <g id="Group_156" data-name="Group 156" transform="translate(0.872)">
          <path id="Path_260" data-name="Path 260" d="M107.338,192.956s-3.158-1.455-3.158-3.4,4.095-3.206,4.095-4.73-1.786-2.421-1.786-2.421,2.82.964,2.82,2.892-2.7,3.233-2.959,4.461A4.136,4.136,0,0,0,107.338,192.956Z" transform="translate(-104.18 -182.4)" fill="#dbdbdb" opacity="0.6"/>
          <path id="Path_261" data-name="Path 261" d="M110.293,199.759s3.158-1.143,3.158-2.678-4.095-2.521-4.095-3.719,1.786-1.9,1.786-1.9-2.822.757-2.822,2.274,3.1,2.558,3.323,3.788C111.859,198.73,110.293,199.759,110.293,199.759Z" transform="translate(-107.289 -189.203)" fill="#dbdbdb" opacity="0.6"/>
        </g>
        <g id="Group_157" data-name="Group 157" transform="translate(2.496 15.458)">
          <rect id="Rectangle_90" data-name="Rectangle 90" width="3.004" height="0.468" fill="#ffc727"/>
          <rect id="Rectangle_91" data-name="Rectangle 91" width="3.004" height="0.309" opacity="0.1"/>
        </g>
        <g id="Group_158" data-name="Group 158" transform="translate(6.645 10.664)">
          <path id="Path_262" data-name="Path 262" d="M129.779,228.747a1.7,1.7,0,0,1-1.691.722,1.806,1.806,0,0,1-.3-.087,2.115,2.115,0,0,1-.423-.224l.381-.565a1.228,1.228,0,0,0,.227.127,1,1,0,0,0,1.258-.369,2.514,2.514,0,0,0,.142-2.409c-.027-.037-.147-.1-.633,0-.09.02-.192.042-.306.075a1.144,1.144,0,0,1-.274.06l-.012-.339-.032-.339c.03-.005.08-.02.144-.037a4.406,4.406,0,0,1,.682-.142,1.04,1.04,0,0,1,.959.286A3.156,3.156,0,0,1,129.779,228.747Z" transform="translate(-127.36 -225.213)" fill="#ffc727"/>
          <path id="Path_263" data-name="Path 263" d="M127.739,238.79a1.228,1.228,0,0,0,.227.127l-.182.66a2.115,2.115,0,0,1-.423-.224Z" transform="translate(-127.36 -235.408)" opacity="0.1"/>
          <path id="Path_264" data-name="Path 264" d="M131.187,225.27l-.2.725c-.09.02-.192.042-.306.075a1.145,1.145,0,0,1-.274.06l-.012-.339-.032-.339c.03,0,.08-.02.144-.037A3.871,3.871,0,0,1,131.187,225.27Z" transform="translate(-129.613 -225.256)" opacity="0.1"/>
        </g>
        <path id="Path_265" data-name="Path 265" d="M100.68,221.72s.025.224.077.575c.01.055.017.112.025.172.035.242.082.528.137.837,0,.017.007.035.01.055.08.441.177.924.289,1.377,0,.022.012.04.017.06.03.122.062.242.1.356s.067.229.1.336a4.7,4.7,0,0,0,.229.58,2.137,2.137,0,0,0,2.03,1.432h1.968a2.133,2.133,0,0,0,2.027-1.432c.02-.04.037-.082.057-.127a.872.872,0,0,0,.04-.1.968.968,0,0,0,.04-.1c.01-.022.02-.05.027-.072a9.844,9.844,0,0,0,.321-1.116.328.328,0,0,0,.012-.047c0-.007,0-.012,0-.02.037-.159.072-.321.1-.481.057-.264.1-.523.147-.77.02-.112.037-.224.057-.329,0-.03.01-.06.015-.087.012-.07.022-.142.032-.207s.02-.13.027-.189.017-.12.025-.174c.047-.326.07-.531.07-.531Z" transform="translate(-100.68 -211.926)" fill="#ffc727"/>
        <g id="Group_160" data-name="Group 160" transform="translate(0.242 10.79)">
          <path id="Path_266" data-name="Path 266" d="M101.68,226.674c.08.441.177.924.289,1.377.05.007.1.017.147.027a2.057,2.057,0,0,1,.675.291,3.963,3.963,0,0,1,.565.471,4.175,4.175,0,0,0,.548.466,1.273,1.273,0,0,0,.658.214.828.828,0,0,0,.6-.284,3.78,3.78,0,0,0,.448-.56c.139-.2.276-.4.441-.588a1.673,1.673,0,0,1,.276-.254,1.44,1.44,0,0,1,.174-.09.589.589,0,0,1,.194-.032.728.728,0,0,1,.376.095,1.481,1.481,0,0,1,.3.224,7.2,7.2,0,0,1,.5.536,1.25,1.25,0,0,0,.558.413.39.39,0,0,0,.169.007,9.841,9.841,0,0,0,.321-1.116c-.062-.017-.13-.032-.192-.055a2,2,0,0,1-.645-.356,4.285,4.285,0,0,1-.518-.523,4.094,4.094,0,0,0-.5-.518,1.281,1.281,0,0,0-.635-.276.836.836,0,0,0-.625.227,3.74,3.74,0,0,0-.5.513,7.263,7.263,0,0,1-.5.543,1.619,1.619,0,0,1-.3.227,1.156,1.156,0,0,1-.182.072.77.77,0,0,1-.2.015.738.738,0,0,1-.361-.132,1.416,1.416,0,0,1-.279-.252c-.167-.184-.3-.389-.446-.58a1.248,1.248,0,0,0-.513-.468.707.707,0,0,0-.64.189Z" transform="translate(-101.673 -226.034)" opacity="0.1"/>
          <g id="Group_159" data-name="Group 159">
            <path id="Path_267" data-name="Path 267" d="M101.65,226.309c0,.017.007.035.01.055.07-.062.142-.12.214-.177a.694.694,0,0,1,.64-.189,1.247,1.247,0,0,1,.513.468c.147.192.279.4.446.58a1.49,1.49,0,0,0,.279.252.774.774,0,0,0,.361.132.673.673,0,0,0,.2-.015,1.458,1.458,0,0,0,.182-.072,1.591,1.591,0,0,0,.3-.227,7.269,7.269,0,0,0,.5-.543,3.885,3.885,0,0,1,.5-.513.836.836,0,0,1,.625-.227,1.29,1.29,0,0,1,.635.276,3.932,3.932,0,0,1,.5.518,4.108,4.108,0,0,0,.518.523,2.044,2.044,0,0,0,.645.356c.062.022.13.037.192.055a.333.333,0,0,0,.012-.047c-.062-.02-.125-.037-.187-.062a2.476,2.476,0,0,1-1.108-.882,3.813,3.813,0,0,0-.506-.538,1.405,1.405,0,0,0-.682-.3.945.945,0,0,0-.71.244,4.128,4.128,0,0,0-.521.523c-.159.184-.314.371-.483.535a.81.81,0,0,1-.6.286.873.873,0,0,1-.575-.344c-.159-.177-.3-.376-.448-.568a1.3,1.3,0,0,0-.565-.481.55.55,0,0,0-.379.022,1.176,1.176,0,0,0-.316.194A2.012,2.012,0,0,0,101.65,226.309Z" transform="translate(-101.65 -225.721)" fill="#fff"/>
            <path id="Path_268" data-name="Path 268" d="M102.84,232.8c0,.022.012.04.017.06.04.007.08.017.117.025a2.511,2.511,0,0,1,1.193.77,3.563,3.563,0,0,0,.553.486,1.362,1.362,0,0,0,.71.234.926.926,0,0,0,.682-.311,4.221,4.221,0,0,0,.468-.57,6.248,6.248,0,0,1,.431-.58.811.811,0,0,1,.565-.346.874.874,0,0,1,.605.286c.177.159.334.346.5.523a1.345,1.345,0,0,0,.608.426.417.417,0,0,0,.157.007c.01-.022.02-.05.027-.072a.389.389,0,0,1-.169-.007,1.25,1.25,0,0,1-.558-.413,7.205,7.205,0,0,0-.5-.535,1.5,1.5,0,0,0-.3-.224.753.753,0,0,0-.376-.095.588.588,0,0,0-.194.032,1.154,1.154,0,0,0-.174.09,1.579,1.579,0,0,0-.276.254,6.821,6.821,0,0,0-.441.588,4.1,4.1,0,0,1-.448.56.828.828,0,0,1-.6.284,1.273,1.273,0,0,1-.658-.214,4.175,4.175,0,0,1-.548-.466,3.828,3.828,0,0,0-.565-.471,2.057,2.057,0,0,0-.675-.291A1.15,1.15,0,0,0,102.84,232.8Z" transform="translate(-102.544 -230.783)" fill="#fff"/>
          </g>
        </g>
      </g>
    </g>
  </g>
</svg>
