<svg xmlns="http://www.w3.org/2000/svg" xmlns:xlink="http://www.w3.org/1999/xlink" width="142.807" height="94.83" viewBox="0 0 142.807 94.83">
  <defs>
    <clipPath id="clip-path">
      <path id="Path_310" data-name="Path 310" d="M297.091,289.437c-.617-1.479-25.1-20.124-5.928-42.07,4.192-4.8,8.075-10.131,10.056-16.252,1.765-5.448-.822-14.825,3.049-18.953,1.782-1.9,4.283-2.935,6.727-3.826a106.263,106.263,0,0,1,77.847,2.655c10.6,4.574,35.257,14.482,35.457,29.352a13.359,13.359,0,0,1-1.291,5.408c-1.473,3.563-10.616,11.233-16.224,15.362s-10.622,2.952-3.832,10.325,13.54,9.485,7.081,15.2c-6.082,5.374-106.777,6.339-106.777,6.339Z" transform="translate(-283.845 -202.202)"/>
    </clipPath>
    <linearGradient id="linear-gradient" x1="0.436" y1="1.069" x2="0.581" y2="-0.093" gradientUnits="objectBoundingBox">
      <stop offset="0" stop-color="#c49bc9"/>
      <stop offset="0.118" stop-color="#bb99c8"/>
      <stop offset="0.309" stop-color="#a392c7"/>
      <stop offset="0.492" stop-color="#868bc5"/>
      <stop offset="0.976" stop-color="#7fb4e7"/>
    </linearGradient>
    <linearGradient id="linear-gradient-2" x1="0.41" y1="-0.274" x2="0.557" y2="1.298" gradientUnits="objectBoundingBox">
      <stop offset="0" stop-color="#ba9bc9"/>
      <stop offset="1" stop-color="#1b1464"/>
    </linearGradient>
  </defs>
  <g id="Group_319" data-name="Group 319" transform="translate(-1001.644 -1550.787)">
    <g id="Group_171" data-name="Group 171" transform="translate(1003.709 1550.787)">
      <path id="Path_308" data-name="Path 308" d="M304.3,284.362c-.622-1.473-25.081-20.107-5.928-42.03,4.186-4.791,8.069-10.119,10.051-16.241,1.759-5.442-.822-14.808,3.044-18.936,1.782-1.9,4.277-2.935,6.721-3.82a106.2,106.2,0,0,1,77.778,2.65c10.6,4.574,35.223,14.471,35.423,29.324a13.333,13.333,0,0,1-1.291,5.4c-1.473,3.563-10.61,11.221-16.207,15.35s-10.919,3.3-4.14,10.662,13.6,9.628,7.378,14.83-106.68,6.333-106.68,6.333Z" transform="translate(-290.647 -197.208)" fill="#efecf7"/>
      <g id="Group_170" data-name="Group 170" transform="translate(0 0.285)">
        <g id="Group_169" data-name="Group 169" clip-path="url(#clip-path)">
          <path id="Path_309" data-name="Path 309" d="M168.154,812.362s23.3-5.6,35.691,5.311,18.457,19.468,29.284,20.65,30.592-14.368,35.9-18.542,11.21-5.933,22.42,5.859-3.244,36.868-3.244,36.868l-77.641,3.849-41.6-1.787L153.7,825.64Z" transform="translate(-161.132 -776.163)" fill="#cccdce"/>
        </g>
      </g>
    </g>
    <g id="Group_173" data-name="Group 173" transform="translate(1009.223 1634.48)">
      <path id="Path_311" data-name="Path 311" d="M511.915,1673.915H380.4c5.071-6.5,13.917-7.932,21.312-8.583,4.825-.423,9.537.308,14.362.3,5.025-.006,10.245.954,15.264.7,16.075-.811,31.922-3.621,48.032-3.552,6.185.029,12.061-.023,17.868,1.879.725.234,1.445.5,2.164.805a32.7,32.7,0,0,1,6.91,3.6C506.964,1669.541,511.527,1673.675,511.915,1673.915Z" transform="translate(-380.4 -1662.778)" fill="#9794d3"/>
      <g id="Group_172" data-name="Group 172" transform="translate(3.906 1.25)">
        <path id="Path_312" data-name="Path 312" d="M568.174,1694.558H448.8c4.831-4.112,10.782-5.379,16.013-6.065,4.831-.634,9.7,1.028,14.528,1.016,5.031-.011,10.188,1.41,15.207,1.034,16.092-1.216,31.865-5.973,47.992-5.871a67.2,67.2,0,0,1,10.947.617c.725.234,1.445.5,2.17.805a32.739,32.739,0,0,1,6.916,3.6C563.223,1690.178,567.786,1694.318,568.174,1694.558Z" transform="translate(-448.8 -1684.672)" fill="#a8a1e2"/>
      </g>
    </g>
    <g id="Group_176" data-name="Group 176" transform="translate(1032.888 1561.773)">
      <g id="Group_174" data-name="Group 174" transform="translate(42.835 0.218)">
        <path id="Path_313" data-name="Path 313" d="M1595.645,399.509c-5.328-.617-6.276,1.793-11.387-2.924-6.5-6-15.207-2.336-21.62,1.4a20.916,20.916,0,0,1-8.1,3.015c-2.267.274-4.5.286-6.67,1.1-.171.063-1.713,1.062-2.964,1.947h60.481C1603.165,402.439,1599.208,399.92,1595.645,399.509Z" transform="translate(-1544.9 -393.405)" fill="#fff"/>
      </g>
      <g id="Group_175" data-name="Group 175">
        <path id="Path_314" data-name="Path 314" d="M794.8,397.5h32.048c-.091,0-.508-.588-.577-.662A10.533,10.533,0,0,0,824.4,395.3c-1.867-1.2-4.112-1.285-6.025-2.444a45.153,45.153,0,0,0-3.843-2.5,9.821,9.821,0,0,0-6.967-.274,21.564,21.564,0,0,0-6.15,3.2c-1.536,1.085-3.072,2.6-4.991,2.941A1.9,1.9,0,0,0,794.8,397.5Z" transform="translate(-794.8 -389.579)" fill="#fff"/>
      </g>
    </g>
    <g id="Group_179" data-name="Group 179" transform="translate(1047.497 1639.507)">
      <g id="Group_177" data-name="Group 177" transform="translate(0 1.961)" opacity="0.32">
        <path id="Path_315" data-name="Path 315" d="M1064.215,1787.241a14.786,14.786,0,0,1-1.582.091c-.862.034-1.725.069-2.587.091-2.056.057-4.123.1-6.179-.028a9.641,9.641,0,0,1-2.827-.377c-.628-.28-.52-.685.1-.931a46.54,46.54,0,0,1,5.437-.674c.959-.063,1.919-.114,2.878-.148a15.679,15.679,0,0,1,4.391.1c.845.223,2.119,1.279.959,1.736A4.414,4.414,0,0,1,1064.215,1787.241Z" transform="translate(-1050.62 -1785.161)" fill="#49484c"/>
      </g>
      <g id="Group_178" data-name="Group 178" transform="translate(35.697)" opacity="0.32">
        <path id="Path_316" data-name="Path 316" d="M1690.622,1753.542a12.7,12.7,0,0,1-1.736.114c-.942.046-1.89.086-2.832.114a62.356,62.356,0,0,1-6.773-.04,9.062,9.062,0,0,1-3.1-.491c-.685-.36-.571-.891.1-1.216a43.745,43.745,0,0,1,5.962-.879c1.051-.086,2.1-.148,3.158-.194a14.615,14.615,0,0,1,4.814.131c.925.286,2.324,1.667,1.05,2.256A2.653,2.653,0,0,1,1690.622,1753.542Z" transform="translate(-1675.718 -1750.813)" fill="#49484c"/>
      </g>
    </g>
    <g id="Group_181" data-name="Group 181" transform="translate(1001.644 1568.969)">
      <path id="Path_317" data-name="Path 317" d="M255.4,533.436a.637.637,0,0,1,.057-.063c1.2-1.439.754-3.6.126-5.374-.737-2.09-1.53-6.127-.417-8.212,1.553-2.918,4.032-4.169,7.6-4.192a7.261,7.261,0,0,1,7.572,6.339c.428,3.169-1.308,7.258,1.371,9.8a9.833,9.833,0,0,0,2.3,1.428c2.056,1.073,4.095,2.6,4.711,4.837.64,2.3-.383,4.683-1.182,6.933-1.416,3.963.314,6.224.714,10.039a10.16,10.16,0,0,1-3.735,9.211c-2.975,2.347-6.8,3.284-10.5,4.083a14.331,14.331,0,0,1-6.23.388c-4.746-1.108-9.388-7.852-6.042-12.295,1.422-1.89,3.9-3.2,3.975-5.836a2.114,2.114,0,0,0-.228-1.125,2.626,2.626,0,0,0-1.051-.908c-1.353-.765-2.832-1.291-4.134-2.13-5.191-3.335-1.827-9.114,2.513-11.33A8.532,8.532,0,0,0,255.4,533.436Z" transform="translate(-247.679 -515.596)" fill="url(#linear-gradient)"/>
      <g id="Group_180" data-name="Group 180" transform="translate(11.012 27.333)">
        <path id="Path_318" data-name="Path 318" d="M453.649,1009.6a18.093,18.093,0,0,1-3.324,7.5c-.737,1.091-.657,2.141-.72,3.552-.154,3.346-.423,6.681-.777,10.011-.166,1.57-.371,3.141-.56,4.705a12.764,12.764,0,0,1-.143,1.376,26.319,26.319,0,0,0-5.511,2.227l-.177.068a15.274,15.274,0,0,1,.148-1.765c.611-3.8,1.593-7.606,2.233-11.433A72.081,72.081,0,0,0,445.66,1014c0-1.747-.046-3.5-.131-5.248a30.562,30.562,0,0,1-4.865-6.482c-.56-.971.548-1.176,1.108-.206a34.47,34.47,0,0,0,3.689,4.757c-.1-1.4-.308-3.558-.377-4.957-.029-.571-.057-1.154-.057-1.747a11.843,11.843,0,0,1-3.695-5.14c-.36-1.062.971-.971,1.325.091a5.56,5.56,0,0,0,2.513,2.884c.04-.246.091-.468.148-.7.28-.782,1.4-1.41,1.645-.371.811,3.495,1.142,8.749,1.736,12.512a26.027,26.027,0,0,0,2.124-8.315c0-1.125,1.451-1.411,1.451-.291a29.076,29.076,0,0,1-2.9,11.193c.017,1.1.16,2.244.246,3.3a14.491,14.491,0,0,0,3.015-6.333C452.8,1007.854,453.838,1008.494,453.649,1009.6Z" transform="translate(-440.51 -994.224)" fill="#3d3d6b"/>
      </g>
    </g>
    <path id="Path_319" data-name="Path 319" d="M2122.446,1524a4.932,4.932,0,0,1-1.256,2.107,1.153,1.153,0,0,1-.343.28,1.118,1.118,0,0,1-.434.074h-.034c-5.242-1.376-10.553-1.336-16.121-1.365h-.034c-.017-.063-.034-.126-.057-.188-.091-.223-.246-.417-.343-.634a2.031,2.031,0,0,1,.908-2.393,6.035,6.035,0,0,1,2.673-.719.549.549,0,0,0,.331-.109.6.6,0,0,0,.126-.422,3.515,3.515,0,0,1,2.884-3.649,6.777,6.777,0,0,1,4.34.3c.857.36,1.867,1.136,1.885,2.176,0,.051,1.73.331,1.9.365a9.3,9.3,0,0,1,1.056.274,4.118,4.118,0,0,1,1.8,1.091A3.174,3.174,0,0,1,2122.446,1524Z" transform="translate(-996.059 109.386)" fill="url(#linear-gradient-2)"/>
    <g id="Group_210" data-name="Group 210" transform="translate(1034.668 1589.604)">
      <path id="Path_320" data-name="Path 320" d="M1201.187,1011.492a28.852,28.852,0,0,1,0-3.147l-2.587-1.245v2.85A29.154,29.154,0,0,0,1201.187,1011.492Z" transform="translate(-1177.321 -999.667)" fill="#f8bd8c"/>
      <g id="Group_182" data-name="Group 182" transform="translate(22.398 15.899)">
        <path id="Path_321" data-name="Path 321" d="M1218.2,1156.488s2.41,5.162,3.563,6.019a.7.7,0,0,0,.623.011,3.894,3.894,0,0,0,.942-.491,13.821,13.821,0,0,0,1.148-.845c.422-.337.828-.691,1.228-1.051s.8-.731,1.193-1.108c.348-.337.7-.674,1.039-1.016.229-.228.463-.457.685-.7a2.8,2.8,0,0,0,.463-.508.783.783,0,0,0-.154-.771,2.333,2.333,0,0,0-.611-.5,1.183,1.183,0,0,0-1,.063c.052-.017-.137-.24-.188-.245a.383.383,0,0,0-.251.057.372.372,0,0,0-.1.205c-.051.234-.143.451-.183.691a2.689,2.689,0,0,0,.034.742s-3.723,3.158-3.82,2.787c-.034-.131-1.325-3.455-1.753-4.163Z" transform="translate(-1218.2 -1155.349)" fill="#f8bd8c"/>
      </g>
      <g id="Group_183" data-name="Group 183" transform="translate(13.189 14.468)">
        <path id="Path_322" data-name="Path 322" d="M1060.357,1130.3s-3.209,2.341-3.369,3.3.023,1.148.206,1.216,5.7,2.85,5.7,2.85l.126-1.256s-3.181-2.381-3.644-2.553a17.232,17.232,0,0,0,2.3-1.656C1061.99,1131.785,1060.357,1130.3,1060.357,1130.3Z" transform="translate(-1056.926 -1130.3)" fill="#f8bd8c"/>
      </g>
      <g id="Group_184" data-name="Group 184" transform="translate(18.127 20.55)">
        <path id="Path_323" data-name="Path 323" d="M1143.4,1236.8a2.916,2.916,0,0,1,0,2.313h5.8s-.514-1.353-.343-1.748S1143.4,1236.8,1143.4,1236.8Z" transform="translate(-1143.4 -1236.8)" fill="#f8bd8c"/>
      </g>
      <g id="Group_185" data-name="Group 185" transform="translate(16.528 16.25)">
        <path id="Path_324" data-name="Path 324" d="M1116.97,1162.025s-.8,3.837-1.57,4.489c0,0,7,.291,8.035.223l.908.012-2.775-5.248Z" transform="translate(-1115.4 -1161.5)" fill="#755ccd"/>
      </g>
      <g id="Group_186" data-name="Group 186" transform="translate(22.398 15.899)">
        <path id="Path_325" data-name="Path 325" d="M1218.2,1156.488s2.41,5.162,3.563,6.019a.7.7,0,0,0,.623.011,3.894,3.894,0,0,0,.942-.491,13.821,13.821,0,0,0,1.148-.845c.422-.337.828-.691,1.228-1.051s.8-.731,1.193-1.108c.348-.337.7-.674,1.039-1.016.229-.228.463-.457.685-.7a2.8,2.8,0,0,0,.463-.508.783.783,0,0,0-.154-.771,2.333,2.333,0,0,0-.611-.5,1.183,1.183,0,0,0-1,.063c.052-.017-.137-.24-.188-.245a.383.383,0,0,0-.251.057.372.372,0,0,0-.1.205c-.051.234-.143.451-.183.691a2.689,2.689,0,0,0,.034.742s-3.723,3.158-3.82,2.787c-.034-.131-1.325-3.455-1.753-4.163Z" transform="translate(-1218.2 -1155.349)" fill="#f8bd8c"/>
      </g>
      <g id="Group_187" data-name="Group 187" transform="translate(14.546 10.152)">
        <path id="Path_326" data-name="Path 326" d="M1080.7,1059.009a44.567,44.567,0,0,0,6.527-4.083s.662-.668,1.953.377,3.415,4.831,3.415,4.831l.125.188-3.832,2.427-.719-1.2-3.917.234-.554.291C1083.7,1062.082,1082.076,1059.529,1080.7,1059.009Z" transform="translate(-1080.7 -1054.716)" fill="#755ccd"/>
      </g>
      <g id="Group_188" data-name="Group 188" transform="translate(2.959 30.435)">
        <path id="Path_327" data-name="Path 327" d="M890.506,1409.9s-1.5,3.586-1.793,4.694c0,0-2.713-.394-8.195,3.769l-2.364,1.342-.354,1.245a10.821,10.821,0,0,0,1.376.657c.166,0,.131-.263.263-.325s9.765-4.032,10.616-4.357,3.866-3.506,4.129-4.82S890.506,1409.9,890.506,1409.9Z" transform="translate(-877.8 -1409.9)" fill="#f8bd8c"/>
      </g>
      <g id="Group_189" data-name="Group 189" transform="translate(22.033 30.635)">
        <path id="Path_328" data-name="Path 328" d="M1211.8,1415.645s3.078,4.608,3.312,4.934l.228.325s-1.473,1.57-2.655,7.9l-.588,3.592,2.239-.691s3.369-9.485,3.763-9.948-2.033-8.354-2.033-8.354Z" transform="translate(-1211.8 -1413.4)" fill="#f8bd8c"/>
      </g>
      <g id="Group_190" data-name="Group 190" transform="translate(14.512 24.959)">
        <path id="Path_329" data-name="Path 329" d="M1085.828,1320.013l-.371,1.89s-3.021.44-5.356-3.615l2.6-4.289Z" transform="translate(-1080.1 -1314)" fill="#b33b69"/>
      </g>
      <g id="Group_191" data-name="Group 191" transform="translate(16.7 22.726)">
        <path id="Path_330" data-name="Path 330" d="M1125.74,1275.037l2.535,7.515s-.046,2.193-5.156,2.884l-2.056-3.34s-4.694-1.256-1.6-6.145l.1-1.051Z" transform="translate(-1118.408 -1274.9)" fill="#fe6e8d"/>
      </g>
      <g id="Group_197" data-name="Group 197" transform="translate(21.262 48.482)">
        <g id="Group_192" data-name="Group 192" transform="translate(0 2.499)">
          <path id="Path_331" data-name="Path 331" d="M1205.381,1770.768c.006.211-.109.383-.366.628-.451.428-1.462.217-2,.126-.708-.12-1.4-.32-2.119-.383-.6-.051-2.21.32-2.524-.428a1.176,1.176,0,0,1,.126-1.011c.034.217.1.263.217.32.183.08,1.3-.034,2,.131s2.341.657,2.981.9a1.764,1.764,0,0,0,1.508-.074A.457.457,0,0,0,1205.381,1770.768Z" transform="translate(-1198.306 -1769.7)" fill="#3d3c3b"/>
        </g>
        <g id="Group_193" data-name="Group 193" transform="translate(0.171)">
          <path id="Path_332" data-name="Path 332" d="M1206.527,1729.78c-.64-.246-2.279-.737-2.981-.9s-1.816-.052-2-.131c-.137-.063-.2-.114-.229-.428-.006-.04-.006-.08-.011-.125-.006-.069-.006-.143-.011-.234a5.3,5.3,0,0,1,.805-1.919s.657.64.9.64a1.407,1.407,0,0,0,1.114-.491,1.139,1.139,0,0,1,1.3-.08c.183.052.28.7.325.8a2.081,2.081,0,0,0,.468.565c.114.1.24.206.371.3a2.084,2.084,0,0,0,.183.132c.143.1.28.194.417.285l.154.1c.148.1.286.2.394.285.006.006.006.006.011.006.314.251.76.76.3,1.114A1.738,1.738,0,0,1,1206.527,1729.78Z" transform="translate(-1201.296 -1725.932)" fill="#755ccd"/>
        </g>
        <g id="Group_194" data-name="Group 194" transform="translate(4.1 1.551)">
          <path id="Path_333" data-name="Path 333" d="M1271.459,1753.4l-1.108.331a.2.2,0,0,1-.245-.131.175.175,0,0,1-.006-.057.2.2,0,0,1,.143-.189l.851-.251C1271.2,1753.2,1271.328,1753.3,1271.459,1753.4Z" transform="translate(-1270.1 -1753.1)" fill="#3d3c3b"/>
        </g>
        <g id="Group_195" data-name="Group 195" transform="translate(4.728 1.98)">
          <path id="Path_334" data-name="Path 334" d="M1282.425,1760.885l-1.073.32a.2.2,0,0,1-.246-.131.207.207,0,0,1,.137-.245l.771-.228C1282.151,1760.7,1282.294,1760.794,1282.425,1760.885Z" transform="translate(-1281.1 -1760.6)" fill="#3d3c3b"/>
        </g>
        <g id="Group_196" data-name="Group 196" transform="translate(5.316 2.368)">
          <path id="Path_335" data-name="Path 335" d="M1292.691,1767.691l-1.039.308a.2.2,0,0,1-.246-.131.193.193,0,0,1-.006-.057.2.2,0,0,1,.143-.188l.748-.223c.149.1.286.2.394.286Z" transform="translate(-1291.4 -1767.4)" fill="#3d3c3b"/>
        </g>
      </g>
      <path id="Path_336" data-name="Path 336" d="M1178.755,926.063c.1-.251-.154-.365-.405-.514a5.282,5.282,0,0,0-1.365-2.279,2.715,2.715,0,0,0-2.673-.662c-1.342.5-1.833,2.313-1.1,4.049a4.549,4.549,0,0,0,.571.988,3.216,3.216,0,0,0,3.6,1.171c.571-.3.6-.223.868-.817a3.417,3.417,0,0,0,.325-1.7A.506.506,0,0,0,1178.755,926.063Z" transform="translate(-1153.061 -919.875)" fill="#f8bd8c"/>
      <path id="Path_337" data-name="Path 337" d="M1010.312,880.093a2.714,2.714,0,0,1-.023-.571,4.281,4.281,0,0,0-.006-.468,2.917,2.917,0,0,0-.331-1.262,2.6,2.6,0,0,0-1.154-.839.089.089,0,0,0-.12.046.1.1,0,0,0,.046.12,2.492,2.492,0,0,1,1.079.765,2.688,2.688,0,0,1,.3,1.188c.011.114.011.234.011.354-.24-1.062-.885-2.764-2.958-2.056,0,0-.674.166-.7,1.239a7.913,7.913,0,0,0-1.5-.108,1.582,1.582,0,0,0-1.182.571.878.878,0,0,0,.143,1.2,4.2,4.2,0,0,0-1.462.131h-.029a3,3,0,0,0-2.393,1.308.091.091,0,0,0,.023.126.093.093,0,0,0,.051.017.1.1,0,0,0,.074-.04,2.64,2.64,0,0,1,1.388-1.051,2.262,2.262,0,0,0-.708.56,1.273,1.273,0,0,0-.291.891,3.922,3.922,0,0,0-2.033.245,2.026,2.026,0,0,0-.931.885,3.853,3.853,0,0,0-.4,1.273,1.076,1.076,0,0,0,.417.994,2.025,2.025,0,0,0,.8.417c1.108.308-2.678,1.148-2.233,2.61s1.976,1.4,3.4.657,2.553-1.628,3.107-1.451a1.457,1.457,0,0,1,.183.069,14.335,14.335,0,0,0-3.735,2.227,2.618,2.618,0,0,1-2.461.126.089.089,0,0,0-.08.16,3.316,3.316,0,0,0,1.3.286,2.186,2.186,0,0,0,1.342-.428,8.37,8.37,0,0,1,3.66-1.867c.428.194.468.451.879.691.223.131.72-.217.908-.051a1.76,1.76,0,0,0,1.016.3,1.364,1.364,0,0,0,.737-.4,9.112,9.112,0,0,0,.588-.731c.194-.24.423-.451.617-.691.183-.223.314-.485.474-.725a1.642,1.642,0,0,0,.32-.628,2,2,0,0,0-.149-1,3.273,3.273,0,0,0-.594-1.039.593.593,0,1,1-.354-1.068h0c0-.006-.006-.154.542-.48a1.828,1.828,0,0,0,.971-1.765c-.154-.417.942-.388,1.222-.531s.2-.126.2-.126-.006-.006-.006-.011S1010.318,880.133,1010.312,880.093Z" transform="translate(-986.44 -876.943)" fill="#3d3c3b"/>
      <g id="Group_198" data-name="Group 198" transform="translate(24.403 5.2)">
        <circle id="Ellipse_10" data-name="Ellipse 10" cx="0.2" cy="0.2" r="0.2" fill="#3d3c3b"/>
      </g>
      <g id="Group_199" data-name="Group 199" transform="translate(23.449 4.305)">
        <path id="Path_338" data-name="Path 338" d="M1238.062,952.626c0,.011-.383.017-.417.017a1.4,1.4,0,0,0-.645.16.765.765,0,0,0-.206.2.878.878,0,0,1-.194.217.24.24,0,0,1,.023-.086,2,2,0,0,1,.2-.434,1.023,1.023,0,0,1,.6-.348C1237.628,952.3,1238.13,952.289,1238.062,952.626Z" transform="translate(-1236.6 -952.325)" fill="#3d3c3b"/>
      </g>
      <g id="Group_200" data-name="Group 200" transform="translate(21.273 18.083)" opacity="0.77">
        <path id="Path_339" data-name="Path 339" d="M1201.978,1197h-.188c-.411.028-1.787,0-3.283-.046h-.006a3.714,3.714,0,0,0,1.628-3.358C1200.6,1194.531,1201.3,1195.913,1201.978,1197Z" transform="translate(-1198.5 -1193.6)" fill="#3d3d6b"/>
      </g>
      <g id="Group_201" data-name="Group 201" transform="translate(16.699 16.981)">
        <path id="Path_340" data-name="Path 340" d="M1119.245,1174.837a2.146,2.146,0,0,1-.845-.188l.5-.348Z" transform="translate(-1118.4 -1174.3)" fill="#3d3d6b"/>
      </g>
      <g id="Group_202" data-name="Group 202" transform="translate(14.54 14.445)" opacity="0.77">
        <path id="Path_341" data-name="Path 341" d="M1081.719,1130.66c-.154.12-.314.257-.48.394-.091.046-.64-1.154-.64-1.154A3.745,3.745,0,0,1,1081.719,1130.66Z" transform="translate(-1080.6 -1129.9)" fill="#3d3d6b"/>
      </g>
      <g id="Group_203" data-name="Group 203" transform="translate(25.408 15.764)">
        <path id="Path_342" data-name="Path 342" d="M1272.059,1153a2.778,2.778,0,0,1-.977,1.125l-.183-.388Z" transform="translate(-1270.9 -1153)" fill="#3d3d6b"/>
      </g>
      <g id="Group_209" data-name="Group 209" transform="translate(0 39.685)">
        <g id="Group_204" data-name="Group 204" transform="translate(0 0.555)">
          <path id="Path_343" data-name="Path 343" d="M829.559,1587.779a.815.815,0,0,1-.057.166c-.24.463-1.233-.034-1.513-.251a3.3,3.3,0,0,1-.731-1.622c-.206-.788-.411-1.576-.623-2.364-.143-.531-.468-.971-.645-1.474-.063-.177.12-.451.268-.56a.914.914,0,0,1,.4-.074.043.043,0,0,0-.011.023,7.834,7.834,0,0,1,1.41,3.6c.228,2.393,1.193,2.541,1.211,2.638a.073.073,0,0,1-.006.034c.023-.011.051-.017.086-.034A.877.877,0,0,0,829.559,1587.779Z" transform="translate(-825.977 -1581.6)" fill="#3d3c3b"/>
        </g>
        <g id="Group_205" data-name="Group 205" transform="translate(0.66)">
          <path id="Path_344" data-name="Path 344" d="M841.869,1574.657c-.057.223-.405.274-.48.514-.017.046-.04.217-.074.451-.017.114-.034.24-.057.383-.011.091-.029.188-.046.286-.017.12-.04.251-.063.377-.017.08-.029.16-.046.24-.023.126-.051.245-.074.365a2.75,2.75,0,0,1-.5,1.268c0,.023-.04.046-.057.057a1.052,1.052,0,0,1-.32.131c.029-.006-.063-.08-.069-.086-.046-.029-.091-.063-.137-.091a1.325,1.325,0,0,1-.251-.223,2.391,2.391,0,0,1-.434-.76,5.7,5.7,0,0,1-.314-1.479v-.029a7.831,7.831,0,0,0-1.41-3.6c.08-.149.148-.326.834-.457a16,16,0,0,1,2.2-.114c-.154.309-.491.988-.263,1.325a.586.586,0,0,0,.24.183c.474.257,1.171.5,1.313,1.091A.352.352,0,0,1,841.869,1574.657Z" transform="translate(-837.536 -1571.887)" fill="#755ccd"/>
        </g>
        <g id="Group_206" data-name="Group 206" transform="translate(3.471 3.113)">
          <path id="Path_345" data-name="Path 345" d="M887.727,1627.022h0c-.017.114-.034.246-.057.383l-.851-.714a.169.169,0,0,1-.023-.234.162.162,0,0,1,.126-.057.137.137,0,0,1,.1.04Z" transform="translate(-886.76 -1626.4)" fill="#3d3c3b"/>
        </g>
        <g id="Group_207" data-name="Group 207" transform="translate(3.317 3.735)">
          <path id="Path_346" data-name="Path 346" d="M885.084,1637.968c-.017.12-.04.251-.063.377l-.9-.754a.17.17,0,0,1-.023-.234.162.162,0,0,1,.126-.057.138.138,0,0,1,.1.04Z" transform="translate(-884.06 -1637.3)" fill="#3d3c3b"/>
        </g>
        <g id="Group_208" data-name="Group 208" transform="translate(3.243 4.381)">
          <path id="Path_347" data-name="Path 347" d="M883.75,1649.245c-.023.125-.051.245-.074.365l-.857-.719a.17.17,0,0,1-.023-.234.162.162,0,0,1,.126-.057.16.16,0,0,1,.109.04Z" transform="translate(-882.76 -1648.6)" fill="#3d3c3b"/>
        </g>
      </g>
      <path id="Path_348" data-name="Path 348" d="M1112.256,1123.5l-.685,3.209-.428.223a14.954,14.954,0,0,0-1.342-1.753Z" transform="translate(-1093.592 -1109.42)" fill="#3d3d6b" opacity="0.77"/>
    </g>
    <g id="Group_240" data-name="Group 240" transform="translate(1067.336 1584.276)">
      <g id="Group_211" data-name="Group 211" transform="translate(29.706 3.709)">
        <path id="Path_349" data-name="Path 349" d="M1919.047,850.336a.816.816,0,0,1-.342.223.2.2,0,0,0-.115.194c-.017.268-.337.565-.365.491s.086-2.49.1-2.644a5.4,5.4,0,0,0,.365.868.509.509,0,0,0,.04.074C1918.916,849.845,1919.258,850.079,1919.047,850.336Z" transform="translate(-1918.22 -848.6)" fill="#f8bd8c"/>
      </g>
      <g id="Group_212" data-name="Group 212" transform="translate(26.57 34.872)">
        <path id="Path_350" data-name="Path 350" d="M1870.318,1399.3c.137-.8-.348-1.97-1.993-4.152-.206-.268-.411-.554-.628-.851a21.787,21.787,0,0,0-4.4,3.478,29.542,29.542,0,0,0,3.4,2.667,17.561,17.561,0,0,0-1.291,3.563c-.274,1.13-.6,2.6-.868,4.072a21.269,21.269,0,0,0-.485,5.1c.057.514.194.845.451.9.286.068.617-.223.959-.725a23.363,23.363,0,0,0,2.016-4.466c.365-1.005.679-1.936.885-2.552C1868.965,1404.568,1870.638,1400.976,1870.318,1399.3Z" transform="translate(-1863.3 -1394.3)" fill="#f8bd8c"/>
      </g>
      <g id="Group_213" data-name="Group 213" transform="translate(1.253 33.952)">
        <path id="Path_351" data-name="Path 351" d="M1434.667,1378.2a24.46,24.46,0,0,0-2,5.494,18.1,18.1,0,0,0-3.843,1.028c-1.222.48-2.815,1.148-4.312,1.862-2.536,1.193-4.8,2.513-4.511,3.221.3.765,3.181.171,5.665-.491,1.171-.314,2.25-.634,2.935-.845,1.913-.577,6.185-1.336,7.1-2.7a10.339,10.339,0,0,0,2.7-2.884l.24-.325C1437.46,1380.935,1436.466,1379.148,1434.667,1378.2Z" transform="translate(-1419.973 -1378.2)" fill="#f8bd8c"/>
      </g>
      <g id="Group_214" data-name="Group 214" transform="translate(23.475 2.656)">
        <path id="Path_352" data-name="Path 352" d="M1814.9,830.213c.28.148-.12-.1.126.126,1.53,1.468.577,5.042-.326,5.408-.331.137-1.159.051-1.468.582s-.948,2.387-1.776,3.084l-2.358-2.9c.12-.257.24-.52.354-.777a9.5,9.5,0,0,0,.48-1.4c.006-.074.029-.126.034-.183.006-.08-.114-.251-.085-.314.04-.091.257-.063.343-.1a1.543,1.543,0,0,0,.331-.251c.206-.183.462-.326.651-.525a5.4,5.4,0,0,0,.565-.72,4.771,4.771,0,0,1,2.712-2.079.683.683,0,0,1,.417.04Z" transform="translate(-1809.1 -830.159)" fill="#f8bd8c"/>
      </g>
      <path id="Path_353" data-name="Path 353" d="M1733.521,1238.4a9.591,9.591,0,0,1-1.93,2.387c-.5.462-.971.856-1.342,1.159-.451.36-.742.571-.742.571a53.154,53.154,0,0,1-7.127-5.614c-.188-.194-.377-.388-.548-.577a6.994,6.994,0,0,1-1.765-5.79l2.575-2.073s4.774-1.513,5.18,1.045c.4,2.541,5.7,8.891,5.7,8.891Z" transform="translate(-1701.595 -1202.642)" fill="#56548c"/>
      <g id="Group_215" data-name="Group 215" transform="translate(20.859 30.326)">
        <path id="Path_354" data-name="Path 354" d="M1771.1,1323.671c-.451.36-.708.594-.708.594a52.776,52.776,0,0,1-7.087-5.579l3.683-3.986s0,3.358.914,4.985A36.39,36.39,0,0,0,1771.1,1323.671Z" transform="translate(-1763.3 -1314.7)" fill="#3d3d6b"/>
      </g>
      <path id="Path_355" data-name="Path 355" d="M1658.145,1225.051s-4.214-2.062-5.259-3.523c-.08-.12,5.208-10.576,5.334-10.645s3.838-.777,3.889-.788c.126-.023.885,1.153.965,1.262.582.765,1.165,1.525,1.753,2.29.251.337.508.679.771,1.011a4.792,4.792,0,0,0-.743,1.513c-.16.428-.32.868-.474,1.308a2.019,2.019,0,0,1-.406.839c-.445.417-1.056.674-1.536,1.045a7.714,7.714,0,0,0-1.479,1.765c-.463.645-.931,1.3-1.393,1.942s-.948,1.313-1.422,1.982Z" transform="translate(-1638.331 -1185.742)" fill="#56548c"/>
      <g id="Group_216" data-name="Group 216" transform="translate(15.067 14.057)">
        <path id="Path_356" data-name="Path 356" d="M1674.77,1038.686a3.842,3.842,0,0,0-2.4-.811c-.565.211-.919.622-1.331.428-.3-.137-3.546-2.473-5.556-3.752.651-.605,1.353-1.325,2.039-2.1a20.463,20.463,0,0,1-2.752-2.655c-.434.571-.868,1.176-1.262,1.759a8.079,8.079,0,0,0-1.627,3.769.847.847,0,0,0,.023.24h0a.247.247,0,0,0,.006.028.9.9,0,0,0,.126.314,2.347,2.347,0,0,0,.531.611c1.325,1.142,4.763,2.147,6.458,2.735a8.639,8.639,0,0,1,2.9,1.359c.651.514,1.6.6,1.959-.177s.12-.994.4-1.193S1674.81,1038.891,1674.77,1038.686Z" transform="translate(-1661.874 -1029.8)" fill="#f8bd8c"/>
      </g>
      <path id="Path_357" data-name="Path 357" d="M1694.053,945.1s-2.672,1.325-5.853,6.219a9.435,9.435,0,0,0,1.662,1.742,5.187,5.187,0,0,0,1.673,1.039l1.868-1.97Z" transform="translate(-1671.629 -935.88)" fill="#bc4676"/>
      <path id="Path_358" data-name="Path 358" d="M1721.15,956.745c-.24.057,2.456-7.675,2.056-9.771s-1.325-5.876.308-7.629,3.152-1.907,4.466-1.5,3.038,2.336,3.249,5.722-1.279,14.214-1.279,14.214-7.315-1.4-8.8-1.039Z" transform="translate(-1702.683 -928.863)" fill="#fe6e8d"/>
      <g id="Group_217" data-name="Group 217" transform="translate(24.874 12.149)">
        <path id="Path_359" data-name="Path 359" d="M1847.3,997.927c-.662-.645-.977-.474-1.079-.828s-.171-.674-.406-.708-1.7,1.5-1.685,2.13.3,1.148-.034,1.49c-.24.246-3.678,2.6-5.716,4.163-.292-.839-.657-1.759-1.068-2.672a9.113,9.113,0,0,1-3.712,1.182c.411.782.874,1.616,1.331,2.381a8.235,8.235,0,0,0,2.747,3.061.99.99,0,0,0,.354.109h.028c.023,0,.04.006.063.006h.057a2.19,2.19,0,0,0,1.062-.337c1.639-.925,3.9-4.026,5.111-5.522a9.356,9.356,0,0,1,2.427-2.433C1847.54,999.486,1847.963,998.572,1847.3,997.927Z" transform="translate(-1833.6 -996.39)" fill="#f8bd8c"/>
      </g>
      <path id="Path_360" data-name="Path 360" d="M1791.37,966.233s-1.108.651-2.49,1.319a7.907,7.907,0,0,1-2.6.771c-.006-.006-.091-.194-.223-.514a57.814,57.814,0,0,1-2.17-5.933,3.571,3.571,0,0,1,1.7-3.158,2.926,2.926,0,0,1,3.5,1.262,12.563,12.563,0,0,1,.931,2.221C1790.668,964.012,1791.37,966.233,1791.37,966.233Z" transform="translate(-1761.825 -948.516)" fill="#f7668b"/>
      <g id="Group_218" data-name="Group 218" transform="translate(1.253 42.33)">
        <path id="Path_361" data-name="Path 361" d="M1425.662,1527.63c-2.49.662-5.362,1.256-5.665.491-.285-.708,1.982-2.027,4.511-3.221Z" transform="translate(-1419.973 -1524.9)" fill="#3d3c3b"/>
      </g>
      <g id="Group_219" data-name="Group 219" transform="translate(27.295 48.657)">
        <path id="Path_362" data-name="Path 362" d="M1879.451,1636.511a23.705,23.705,0,0,1-2.016,4.466l-1.41-.177a21.272,21.272,0,0,1,.485-5.1Z" transform="translate(-1875.99 -1635.7)" fill="#3d3c3b"/>
      </g>
      <path id="Path_363" data-name="Path 363" d="M1711.471,1175.737a23.623,23.623,0,0,0,0,3s-.36.891-1.748.365c-6.624-2.541-7.778-.325-8.435-.668-.245-.126.623-.7,1.016-2.1s2.073-5.237,2.073-5.237Z" transform="translate(-1683.931 -1148.975)" fill="#fe6e8d"/>
      <g id="Group_220" data-name="Group 220" transform="translate(23.098)">
        <path id="Path_364" data-name="Path 364" d="M1809.3,784.294a.184.184,0,0,0-.051-.091c-.12-.114-.64.023-.794.04-.28.034-.56.069-.845.091-.04.006-.08.006-.12.011a1.874,1.874,0,0,0,.971-.537.1.1,0,0,0-.16-.114c-.006.006-.354.468-1.782.651-.343.046-.617.091-.839.137a2.245,2.245,0,0,0-1.833.839c-.057.1-.1.246-.16.337-.131-.1-.331-.131-.885-.1a.1.1,0,0,0-.091.1.093.093,0,0,0,.1.091,1.907,1.907,0,0,1,.7.034,1.412,1.412,0,0,0-.16.057,1.428,1.428,0,0,0-.7.868,2.74,2.74,0,0,0,.183,2.107c.143.314.32.617.479.925a2.186,2.186,0,0,1,.183.428,4.194,4.194,0,0,0,.12.457.15.15,0,0,0,.04.057.116.116,0,0,0,.063.017c.525.034,2.4-.011,1.839-.554-.777-.742-.2-1.216.246-1.285s.611,1.119,1.108.948-.154-1.508.411-1.747c.588-.251.063-.857.5-1.256.194-.177.685-.12.908-.246a.681.681,0,0,0,.08-.057A2,2,0,0,0,1809.3,784.294Z" transform="translate(-1802.51 -783.651)" fill="#3d3c3b"/>
      </g>
      <g id="Group_221" data-name="Group 221" transform="translate(29.237 4.354)">
        <path id="Path_365" data-name="Path 365" d="M1910.469,860.134a.234.234,0,1,1-.234-.234A.235.235,0,0,1,1910.469,860.134Z" transform="translate(-1910 -859.9)" fill="#3d3c3b"/>
      </g>
      <g id="Group_222" data-name="Group 222" transform="translate(28.506 3.606)">
        <path id="Path_366" data-name="Path 366" d="M1898.8,847.121c-.006,0-.006.006,0,0a.051.051,0,0,1-.028.006,2.619,2.619,0,0,0-1.011.046,1.358,1.358,0,0,0-.285.148,1.325,1.325,0,0,1-.274.16.272.272,0,0,1,.051-.109.871.871,0,0,1,.092-.108,2.148,2.148,0,0,1,.286-.274,1.24,1.24,0,0,1,.919-.171.346.346,0,0,1,.223.108.213.213,0,0,1,.034.183A.02.02,0,0,0,1898.8,847.121Z" transform="translate(-1897.2 -846.795)" fill="#3d3c3b"/>
      </g>
      <g id="Group_223" data-name="Group 223" transform="translate(16.575 15.439)">
        <path id="Path_367" data-name="Path 367" d="M1688.473,1054.263c-.023.04-.051.074-.074.114a.488.488,0,0,0-.046.069.958.958,0,0,1-.074-.445h0A2.4,2.4,0,0,0,1688.473,1054.263Z" transform="translate(-1688.278 -1054)" fill="#892959"/>
      </g>
      <g id="Group_224" data-name="Group 224" transform="translate(19.335 18.031)">
        <path id="Path_368" data-name="Path 368" d="M1737.171,1099.588a1.814,1.814,0,0,1-.571-.046c.046-.046.091-.091.137-.143a3.079,3.079,0,0,0,.434.188Z" transform="translate(-1736.6 -1099.4)" fill="#892959"/>
      </g>
      <g id="Group_225" data-name="Group 225" transform="translate(28.928 17.717)">
        <path id="Path_369" data-name="Path 369" d="M1905.217,1093.9s.126.28-.422.828l-.194-.474Z" transform="translate(-1904.6 -1093.9)" fill="#892959"/>
      </g>
      <g id="Group_226" data-name="Group 226" transform="translate(24.183 13.794)" opacity="0.47">
        <path id="Path_370" data-name="Path 370" d="M1826.862,1029.123s-1.108.651-2.49,1.319a7.808,7.808,0,0,1-2.6.765c-.006-.006-.091-.194-.223-.514-.017-.04-.034-.086-.051-.131h0c1.119-.594,4.18-2.4,4.021-5.22a.565.565,0,0,1,.028-.143C1826.189,1026.987,1826.862,1029.123,1826.862,1029.123Z" transform="translate(-1821.5 -1025.2)" fill="#b33b69"/>
      </g>
      <g id="Group_229" data-name="Group 229" transform="translate(0 43.048)">
        <g id="Group_227" data-name="Group 227" transform="translate(0 0.55)">
          <path id="Path_371" data-name="Path 371" d="M1401.633,1554.313a.9.9,0,0,1-.068.188c-.274.525-1.308-.08-1.6-.342a3.971,3.971,0,0,1-.72-1.89c-.188-.914-.377-1.827-.577-2.741-.131-.617-.462-1.131-.634-1.719a.75.75,0,0,1,.3-.634.96.96,0,0,1,.428-.074c-.006.011-.011.017-.017.029a9.413,9.413,0,0,1,1.365,4.2c.154,2.758,1.177,2.964,1.188,3.078a.084.084,0,0,1-.006.04.629.629,0,0,1,.1-.034A1.074,1.074,0,0,0,1401.633,1554.313Z" transform="translate(-1398.026 -1547.1)" fill="#3d3c3b"/>
        </g>
        <g id="Group_228" data-name="Group 228" transform="translate(0.719)">
          <path id="Path_372" data-name="Path 372" d="M1415.158,1540.719c-.069.251-.44.3-.531.577-.017.051-.051.245-.1.52-.023.131-.046.28-.074.44-.017.1-.04.211-.057.325-.023.137-.051.286-.08.434-.017.091-.04.183-.057.274-.029.143-.063.28-.1.417a3.419,3.419,0,0,1-.577,1.445c0,.006-.011.08-.314.177a.949.949,0,0,0-.1.034.085.085,0,0,0,.006-.04c-.011-.114-1.039-.32-1.193-3.078a9.417,9.417,0,0,0-1.365-4.2c.091-.166.171-.371.908-.5a16.056,16.056,0,0,1,2.341-.057c-.177.348-.56,1.125-.331,1.514a.691.691,0,0,0,.246.217c.491.314,1.222.617,1.359,1.3A.292.292,0,0,1,1415.158,1540.719Z" transform="translate(-1410.62 -1537.473)" fill="#56548c"/>
        </g>
      </g>
      <g id="Group_230" data-name="Group 230" transform="translate(3.622 46.647)">
        <path id="Path_373" data-name="Path 373" d="M1462.458,1601.242h0c-.023.131-.046.28-.074.44l-.879-.851a.2.2,0,0,1-.017-.268.165.165,0,0,1,.137-.063.156.156,0,0,1,.108.046Z" transform="translate(-1461.444 -1600.5)" fill="#3d3c3b"/>
      </g>
      <g id="Group_231" data-name="Group 231" transform="translate(3.428 47.355)">
        <path id="Path_374" data-name="Path 374" d="M1459.135,1613.7c-.023.137-.051.285-.08.434l-.937-.9a.2.2,0,0,1-.011-.268.165.165,0,0,1,.137-.063.156.156,0,0,1,.109.046Z" transform="translate(-1458.059 -1612.9)" fill="#3d3c3b"/>
      </g>
      <g id="Group_232" data-name="Group 232" transform="translate(3.325 48.092)">
        <path id="Path_375" data-name="Path 375" d="M1457.3,1626.571c-.028.143-.063.28-.1.417l-.885-.856a.2.2,0,0,1-.011-.269.165.165,0,0,1,.137-.063.181.181,0,0,1,.114.046Z" transform="translate(-1456.259 -1625.8)" fill="#3d3c3b"/>
      </g>
      <g id="Group_238" data-name="Group 238" transform="translate(25.858 51.95)">
        <g id="Group_233" data-name="Group 233" transform="translate(0 2.561)">
          <path id="Path_376" data-name="Path 376" d="M1858.477,1739.628c-.006.228-.131.411-.417.668-.5.445-1.593.183-2.17.057-.76-.16-1.508-.4-2.279-.5-.651-.08-2.4.257-2.718-.565a1.278,1.278,0,0,1,.177-1.091c.029.24.091.291.223.354.194.1,1.4.017,2.164.217s2.513.8,3.2,1.091a1.915,1.915,0,0,0,1.639-.023A.571.571,0,0,0,1858.477,1739.628Z" transform="translate(-1850.832 -1738.2)" fill="#3d3c3b"/>
        </g>
        <g id="Group_234" data-name="Group 234" transform="translate(0.221)">
          <path id="Path_377" data-name="Path 377" d="M1860.3,1697.588c-.685-.291-2.438-.885-3.2-1.091s-1.97-.125-2.165-.217c-.148-.074-.211-.131-.228-.468,0-.04-.006-.091-.006-.137v-.251a5.744,5.744,0,0,1,.942-2.044s.685.719.954.725a1.52,1.52,0,0,0,1.228-.491,1.237,1.237,0,0,1,1.4-.04c.194.063.274.771.325.879a2.17,2.17,0,0,0,.485.628c.12.114.257.229.394.343.063.051.126.1.189.149.148.114.3.223.44.325.057.04.108.08.16.12a5.011,5.011,0,0,1,.411.32l.011.011c.331.286.788.857.285,1.217A1.9,1.9,0,0,1,1860.3,1697.588Z" transform="translate(-1854.7 -1693.359)" fill="#56548c"/>
        </g>
        <g id="Group_235" data-name="Group 235" transform="translate(4.47 1.727)">
          <path id="Path_378" data-name="Path 378" d="M1930.585,1723.937l-1.216.314a.219.219,0,0,1-.263-.154.209.209,0,0,1-.006-.057.22.22,0,0,1,.16-.2l.931-.24C1930.316,1723.709,1930.448,1723.823,1930.585,1723.937Z" transform="translate(-1929.1 -1723.6)" fill="#3d3c3b"/>
        </g>
        <g id="Group_236" data-name="Group 236" transform="translate(5.143 2.207)">
          <path id="Path_379" data-name="Path 379" d="M1942.345,1732.331l-1.176.3a.22.22,0,0,1-.263-.154.23.23,0,0,1-.006-.063.22.22,0,0,1,.16-.2l.845-.217C1942.053,1732.12,1942.2,1732.228,1942.345,1732.331Z" transform="translate(-1940.9 -1732)" fill="#3d3c3b"/>
        </g>
        <g id="Group_237" data-name="Group 237" transform="translate(5.766 2.658)">
          <path id="Path_380" data-name="Path 380" d="M1953.2,1740.231l-1.136.291a.22.22,0,0,1-.263-.154.216.216,0,0,1-.006-.057.22.22,0,0,1,.16-.2l.823-.211a4.951,4.951,0,0,1,.411.32Z" transform="translate(-1951.8 -1739.9)" fill="#3d3c3b"/>
        </g>
      </g>
      <g id="Group_239" data-name="Group 239" transform="translate(24.457 19.613)">
        <path id="Path_381" data-name="Path 381" d="M1826.3,1127.294s.811-.131,1.045-.194l.171.32A2.3,2.3,0,0,1,1826.3,1127.294Z" transform="translate(-1826.3 -1127.1)" fill="#892959"/>
      </g>
    </g>
  </g>
</svg>
