<svg xmlns="http://www.w3.org/2000/svg" width="109.231" height="101.445" viewBox="0 0 109.231 101.445">
  <g id="Group_321" data-name="Group 321" transform="translate(-1242 -1549.271)">
    <g id="Group_320" data-name="Group 320">
      <path id="Path_382" data-name="Path 382" d="M242.64,308.393h93.913c1.4-3.244,5.426-15.254-2.57-26.932,0,0-3.589-7.072-4.462-12.307a65.9,65.9,0,0,1-.453-15.213c.311-4.4.737-8.657,1.119-12.051,5.761-2.146,9.729-6.649,9.729-11.858,0-7.288-7.766-13.2-17.347-13.2a22.65,22.65,0,0,0-3.966.347c-6.856-4.422-16.441-8.033-28.533-9.5a89.379,89.379,0,0,0-14.484-.671,46.807,46.807,0,0,0-14.519,2.689c-8.531,3.24-11.618,9.493-12.706,14.168a25.922,25.922,0,0,0-.085,10.859,15.823,15.823,0,0,0,3.9,6.946c5.177,9.084,18.471,9.019,8.8,20.905C248.009,278.51,238.7,298.756,242.64,308.393Zm85.395-63.118c-.269,2.631-.533,5.544-.744,8.52a67.676,67.676,0,0,0,.469,15.631,31.384,31.384,0,0,0,1.941,7l-.124-.12C319.147,266.33,324.156,254.962,328.035,245.276Zm-49.194-34.6s-26.4,1.033-28.456,21.026c-.059.568-.094,1.116-.111,1.646a19.776,19.776,0,0,1-.177-9.088c.992-4.261,3.811-9.961,11.611-12.924,8.82-3.35,20.156-2.891,28.112-1.916a65.847,65.847,0,0,1,7.448,1.365C292.017,210.479,285.922,210.43,278.841,210.677Z" transform="translate(1007.888 1342.323)" fill="#93e3f1" opacity="0.2"/>
      <path id="Path_383" data-name="Path 383" d="M778.619,368.395c2.315.835,4.885.763,7.179,1.748a6.608,6.608,0,0,1,1.826,1.112c.637-.579,1.058-1.3,1.685-1.866a5.771,5.771,0,0,1,2.61-.819l6.631-1.474a3.11,3.11,0,0,1,1.3-.1c.8.166,1.287.9,1.918,1.385,2.273,1.752,6.127.2,8.372,1.984a6.2,6.2,0,0,1,1.516,2.124c.337.651.669,1.446.261,2.06a2.34,2.34,0,0,1-1.5.766,8.756,8.756,0,0,1-1.971.3,17.153,17.153,0,0,1-2.778-.451,9.446,9.446,0,0,0-5.419.705,24.144,24.144,0,0,1-2.332,1.095,14.109,14.109,0,0,1-4.422.333c-1.019,0-2.045.073-3.065.086,3.177,5.237,10.292,4.074,17.209,4.416,5.967.55,9.916,2.722,15.911,6.42a23.767,23.767,0,0,1,.382-4.925c-6.26-1.71-5.413-6.238,1.329-5.181.863-2.66,1.95-5.305,2.948-7.8-.285,2.8-.527,5.518-.719,8.182.587.115,1.175.233,1.763.336.308-4.332.734-8.576,1.109-11.9,18.291-7.379,8.71-27.82-11.584-24.707q-1.606-1.036-3.411-2.008c-8.319,6.34-9.7-.678-12.212,9.811a6.908,6.908,0,0,1-2.26,3.2c-1.181.817-2.244.69-3.068,1.119-4.655,3.728-2.784,2.575-17,5.3C774.588,360.349,772.184,365.565,778.619,368.395Zm27.406-12.848c1.222-.644,6.453-.208,10.113-.247,2.555.477,8.562-1.186,10.589.823a3.58,3.58,0,0,1,.211,2.925c-3.559,1.288-7.539.13-11.308.085-2.253-.356-7.637,1.38-10.26-.146C804.036,358.011,804.406,356.248,806.025,355.547Z" transform="translate(507.709 1217.289)" fill="#fff" opacity="0.4"/>
      <path id="Path_384" data-name="Path 384" d="M1129.48,1093.148a2.467,2.467,0,0,1,2.411-1.887,2.5,2.5,0,0,1,.625.078,3.645,3.645,0,0,1,3.3-2.065,3.716,3.716,0,0,1,1.084.161,4.524,4.524,0,0,1,8.067.771,3.1,3.1,0,0,1,1.5-.382,3.055,3.055,0,0,1,3.081,3.029,2.888,2.888,0,0,1-.015.294H1129.48Z" transform="translate(174.943 516.325)" fill="#fff" opacity="0.5"/>
      <path id="Path_385" data-name="Path 385" d="M480.2,556.971a1.233,1.233,0,0,1,1.2-.943,1.266,1.266,0,0,1,.312.039,1.821,1.821,0,0,1,1.648-1.032,1.844,1.844,0,0,1,.541.081,2.26,2.26,0,0,1,4.03.385,1.551,1.551,0,0,1,.748-.191,1.526,1.526,0,0,1,1.539,1.513,1.454,1.454,0,0,1-.007.147Z" transform="translate(784.136 1016.652)" fill="#fff" opacity="0.5"/>
      <path id="Path_386" data-name="Path 386" d="M516.624,373.905a3.011,3.011,0,0,0-2.943-2.3,3.072,3.072,0,0,0-.763.1,4.448,4.448,0,0,0-4.026-2.52,4.513,4.513,0,0,0-1.322.2,5.52,5.52,0,0,0-9.843.942,3.793,3.793,0,0,0-1.828-.466,3.728,3.728,0,0,0-3.759,3.7c0,.121.006.241.018.359Z" transform="translate(772.933 1192.369)" fill="#fff" opacity="0.5"/>
      <path id="Path_387" data-name="Path 387" d="M396.108,739.261c.3.5.469,1.085.8,1.573a5.568,5.568,0,0,0,1.522,1.355c2.515,1.737,5.118,3.512,8.119,4.165a6,6,0,0,1,2.183.7,2.414,2.414,0,0,1-.217,3.93c-1.6.862-4.009-.148-5.187,1.222-.478.557-.571,1.359-1.04,1.924a3.723,3.723,0,0,1-2.72.948q-1.016.065-2.032.114c3.023-6.664-4.089-8.4-9.071-13.55.143-.02.285-.04.427-.064a1.493,1.493,0,0,0,.754-.278.527.527,0,0,0,.114-.714,16.465,16.465,0,0,0-3.035-1.045c-.245-.353-.479-.72-.7-1.1a19.631,19.631,0,0,1-1.638-2.038c2.208.1,4.411.27,6.609.532C392.933,737.163,395.113,737.616,396.108,739.261Z" transform="translate(874.031 845.56)" fill="#fff" opacity="0.4"/>
      <g id="Group_242" data-name="Group 242" transform="translate(1319.873 1606.879)">
        <path id="Path_388" data-name="Path 388" d="M1392.283,1182.11s-15.231-6.242-12.151-10.69c0,0,.049-1.592,5.777.8a1.647,1.647,0,0,0,1.092-2.654c-1.216-2.175-6.407-3.618-5.535-6.58s3.986-.248,5.806-.418-4.146-8.218-2.736-10.225,4.035,1.016,5.385.785-1.543-11.873,4.892-13,2.7,5.92,1.59,9.612,3.332-.5,5.705,2.1-8.447,5.481-5.825,7.836,4.29-.753,6.116,1.081c2.952,2.965-8.373,4.853-6.688,7.089,1.344,1.782,3.929-1.327,5.2-.077S1399.622,1177.465,1392.283,1182.11Z" transform="translate(-1379.72 -1140.012)" fill="#feb546"/>
        <path id="Path_389" data-name="Path 389" d="M1383.27,1171.765q.034-.069.073-.139c.441.36.945.741,1.505,1.116a15.243,15.243,0,0,0,9.236,2.746,49.54,49.54,0,0,1-.243-6.479c-3.475-3.825-6.56-5.324-8.536-5.907-.171-.051-.337-.095-.5-.134.015-.049.031-.1.048-.144.156.039.317.082.484.131,1.977.581,5.049,2.065,8.507,5.83,0-.01,0-.02,0-.029.066-2.39.273-4.953.619-7.667a35.1,35.1,0,0,0-2.329-4.3,20.025,20.025,0,0,0-4.008-4.733,1.538,1.538,0,0,1,.12-.1,20.2,20.2,0,0,1,4.025,4.756,36.062,36.062,0,0,1,2.231,4.077q.405-3.1,1.048-6.45a140.818,140.818,0,0,1,3.57-14.305l.168-.006a140.665,140.665,0,0,0-3.582,14.338c-.2,1.051-.4,2.154-.584,3.3a38.439,38.439,0,0,1,3.8-2.664,34.4,34.4,0,0,1,6.489-3.156l.017.019c.032.035.061.07.088.1a34.191,34.191,0,0,0-6.5,3.157,37.126,37.126,0,0,0-3.931,2.769c-.4,2.532-.743,5.246-.933,7.994,3.014-2.2,8.86-4.035,11.783-4.863.033.044.063.088.09.132-2.934.828-8.914,2.7-11.887,4.932a50.6,50.6,0,0,0,.388,11.465c2.986-1.1,5.5-4.047,7.094-6.337a35.675,35.675,0,0,0,2.223-3.669.983.983,0,0,1,.145.064,35.912,35.912,0,0,1-2.233,3.687c-1.611,2.317-4.164,5.3-7.2,6.409a25.956,25.956,0,0,0,1.124,4.378l-.069.044-.1-.041a28.813,28.813,0,0,1-1.414-6.448q-.382.022-.765.022a14.013,14.013,0,0,1-4.461-.744,17.367,17.367,0,0,1-4.123-2.055C1384.2,1172.493,1383.706,1172.119,1383.27,1171.765Z" transform="translate(-1383.051 -1140.029)" fill="#fff" opacity="0.46"/>
      </g>
      <path id="Path_390" data-name="Path 390" d="M224.09,1356.871s.495-9.479-8.787-17.406l-.552,3.448-.569-4.157a58.928,58.928,0,0,0-10.362-6.467s3.654,10.786,5.223,12.888l3.3,1.651-3.259.517s1.891,6.049,6.645,9.576S224.09,1356.871,224.09,1356.871Z" transform="translate(1043.453 286.46)" fill="#feb546"/>
      <path id="Path_391" data-name="Path 391" d="M228.168,1125.022c3.559-.5,2.513,4.831,2.173,6.254a22.208,22.208,0,0,1,2.918,2.1c-.293-1.754-1.646-2.838-1.488-3.993.177-1.3,1.224-2.534,2.626-.591,1.11,1.54-.217,3.936-.817,4.865a19.434,19.434,0,0,1,3.072,3.443c-.04-2.072-1.459-3.5-1.135-4.8.354-1.417,1.651-2.652,2.94-.3,1.066,1.946-.881,4.564-1.589,5.414a11.232,11.232,0,0,1,.875,1.55,35.9,35.9,0,0,1,1.374,3.547c.007-1.826-.95-3.289-.5-4.428.536-1.366,1.97-2.411,2.918.137.75,2.016-1.284,4.24-2.167,5.083a34.949,34.949,0,0,1,1.346,6.946c.587-1.62.317-4.3,1.342-5.611a1.6,1.6,0,0,1,1.9-.665,1.4,1.4,0,0,1,.876.948c.756,2.553-2.943,5.038-4.087,5.736a35.024,35.024,0,0,1-.156,7.048c.311-.835.774-2.1.987-2.764a4.214,4.214,0,0,1,2.271-2.6c.04-.012.08-.022.119-.03a1.414,1.414,0,0,1,1.649,1.04c.857,2.876-4.058,4.737-5.128,5.105,0,.014,0,.028-.006.041a29.263,29.263,0,0,1-2.355,8.242l-.439-.217a29.014,29.014,0,0,0,2.236-7.663c-4.037-2.234-4.079-5.361-3.08-6.113,1.033-.777,2.847-.478,2.784,1.741a14.248,14.248,0,0,0,.421,3.522,34.471,34.471,0,0,0,.2-7.189c-6.159-.853-5.01-4.862-3.494-5.292,1.534-.436,2.22.49,2.505,2.3a7.473,7.473,0,0,0,.959,2.632,34.414,34.414,0,0,0-1.3-6.825c-1.029.553-3.745,1.782-5.182.234-1.8-1.934-.357-2.97,1.009-2.981,1.256-.011,2.189,1.847,4.068,2.4a35.236,35.236,0,0,0-1.537-4.074,13.979,13.979,0,0,0-1.831-2.819c-.976.685-3.531,2.232-5.15.911-2.033-1.659-.716-2.869.651-3.062,1.22-.172,2.347,1.422,4.194,1.783a20.808,20.808,0,0,0-5.02-4.259c-1.016.7-3.5,2.165-5.091.871-2.033-1.659-.716-2.869.651-3.062,1.237-.175,2.378,1.469,4.272,1.8l.028-.049c-.482-.526-1.508-1.638-2.027-2.141a3.309,3.309,0,0,1-.935-2.96A1.817,1.817,0,0,1,228.168,1125.022Z" transform="translate(1024.526 480.962)" fill="#07085b"/>
      <path id="Path_392" data-name="Path 392" d="M1552.387,1404.134s-1.213-9.674,7.7-18.406l.822,3.494.274-4.295a59.808,59.808,0,0,1,10.129-7.308s-2.938,11.286-4.388,13.544l-3.256,1.909,3.375.314s-1.485,6.32-6.091,10.246S1552.387,1404.134,1552.387,1404.134Z" transform="translate(-221.802 243.929)" fill="#ff5b7e"/>
      <g id="Group_243" data-name="Group 243" transform="translate(1242.437 1629.252)">
        <path id="Path_393" data-name="Path 393" d="M125.51,1503.393a16.469,16.469,0,0,0,3.362,7.826c1.423-.359,3.125-.755,3.125-.755l-1.931,2.086c7.02,7,19.209,6.374,19.209,6.374-1.017-7.126-3.782-11.292-7.083-13.661-.879.549-2.178,1.38-2.178,1.38l1.079-2.094a15.678,15.678,0,0,0-5.3-1.882c-.554,1.091-1.213,2.316-1.213,2.316l-.5-2.53A23.873,23.873,0,0,0,125.51,1503.393Z" transform="translate(-125.509 -1502.384)" fill="#07085b"/>
        <path id="Path_394" data-name="Path 394" d="M142.183,1505.252c-.879.549-2.178,1.38-2.178,1.38l1.079-2.094a15.687,15.687,0,0,0-5.3-1.883c-.554,1.092-1.213,2.317-1.213,2.317l-.5-2.53a23.876,23.876,0,0,0-8.576.941c7.446,8.893,23.766,15.53,23.766,15.53C148.249,1511.788,145.484,1507.621,142.183,1505.252Z" transform="translate(-125.5 -1502.375)" fill="#55769f"/>
      </g>
      <g id="Group_244" data-name="Group 244" transform="translate(1242 1641.132)">
        <path id="Path_395" data-name="Path 395" d="M118.42,1697.938a14.424,14.424,0,0,1,5.183-2.593c.619.542,1.375,1.176,1.375,1.176l-.156-1.45c6.816-1.241,13.175,2.31,13.175,2.31-3.608,2.91-6.9,4.029-9.707,4.2-.243-.482-.592-1.2-.592-1.2l-.311,1.225a12.762,12.762,0,0,1-3.686-.581c.167-.637.334-1.36.334-1.36l-1.356,1A13.1,13.1,0,0,1,118.42,1697.938Z" transform="translate(-118.42 -1694.808)" fill="#ff5b7e"/>
        <path id="Path_396" data-name="Path 396" d="M128.29,1733.214c-.243-.481-.592-1.2-.592-1.2l-.311,1.225a12.754,12.754,0,0,1-3.686-.581c.167-.636.334-1.36.334-1.36l-1.356,1a13.117,13.117,0,0,1-4.259-2.723c7.86-1.973,19.577-.557,19.577-.557C134.389,1731.923,131.1,1733.042,128.29,1733.214Z" transform="translate(-118.42 -1726.439)" fill="#e03268"/>
      </g>
      <path id="Path_397" data-name="Path 397" d="M324.128,1674.014a6.462,6.462,0,0,0-6.1-5.5c-5.533-.482-6.1,3.006-14.328,1.529s-12.38-7.346-25.336-6.471-11,5.542-23.972,6-14.949-3.4-21.832-2.072a14.731,14.731,0,0,0-9.72,6.252l2.27.537Z" transform="translate(1025.607 -24.289)" fill="#02ccc0"/>
      <rect id="Rectangle_97" data-name="Rectangle 97" width="102.411" height="1.074" transform="translate(1248.447 1649.642)" fill="#07085b"/>
      <g id="Group_257" data-name="Group 257" transform="translate(1258.005 1561.887)">
        <g id="Group_254" data-name="Group 254" transform="translate(0 48.611)">
          <g id="Group_249" data-name="Group 249" transform="translate(15.769 34.346)">
            <path id="Path_398" data-name="Path 398" d="M640.454,1799.662l-7.188.024a.194.194,0,0,1-.2-.194v-.373a.194.194,0,0,1,.194-.2l7.188-.024a.2.2,0,0,1,.2.194v.373A.194.194,0,0,1,640.454,1799.662Z" transform="translate(-633.07 -1796.185)" fill="#daeef7"/>
            <path id="Path_399" data-name="Path 399" d="M634.784,1755.342l-.244,2.121c-.03.261.117.5.309.5l6.677-.023a.486.486,0,0,0,.435-.313.928.928,0,0,0-.19-.945c-.6-.843-2.565-1.042-3.528-1.76l-3.11.01C634.958,1754.931,634.811,1755.106,634.784,1755.342Z" transform="translate(-634.445 -1754.92)" fill="#333"/>
            <g id="Group_246" data-name="Group 246" transform="translate(3.277 0.185)">
              <path id="Path_400" data-name="Path 400" d="M686.207,1758.965h0a.143.143,0,0,1-.038-.173,1.29,1.29,0,0,1,1.372-.857c.048.008.081.072.073.138v0c-.007.064-.051.105-.1.1a1.111,1.111,0,0,0-1.2.743C686.293,1758.969,686.247,1758.989,686.207,1758.965Z" transform="translate(-686.155 -1757.917)" fill="#daeef7"/>
            </g>
            <g id="Group_247" data-name="Group 247" transform="translate(3.971 0.455)">
              <path id="Path_401" data-name="Path 401" d="M697.441,1763.345h0a.144.144,0,0,1-.039-.173,1.29,1.29,0,0,1,1.372-.857c.048.008.081.072.073.138v0c-.007.064-.051.106-.1.1a1.111,1.111,0,0,0-1.2.743C697.529,1763.349,697.482,1763.369,697.441,1763.345Z" transform="translate(-697.39 -1762.297)" fill="#daeef7"/>
            </g>
            <g id="Group_248" data-name="Group 248" transform="translate(4.617 0.708)">
              <path id="Path_402" data-name="Path 402" d="M707.9,1767.435h0a.144.144,0,0,1-.039-.173,1.29,1.29,0,0,1,1.372-.857c.048.008.081.072.073.138v0c-.008.064-.051.105-.1.1a1.112,1.112,0,0,0-1.2.743C707.991,1767.439,707.944,1767.459,707.9,1767.435Z" transform="translate(-707.852 -1766.386)" fill="#daeef7"/>
            </g>
            <path id="Path_403" data-name="Path 403" d="M636.631,1775.8c-.532-1.711-1.439-1.9-1.934-1.856l-.157,1.364c-.03.261.117.5.309.5Z" transform="translate(-634.445 -1772.766)" fill="#e87b50" opacity="0.3"/>
          </g>
          <g id="Group_253" data-name="Group 253" transform="translate(0 34.531)">
            <path id="Path_404" data-name="Path 404" d="M385.044,1802.642l-7.188.024a.194.194,0,0,1-.2-.194v-.373a.194.194,0,0,1,.194-.2l7.188-.024a.194.194,0,0,1,.2.194v.373A.2.2,0,0,1,385.044,1802.642Z" transform="translate(-377.66 -1799.166)" fill="#daeef7"/>
            <path id="Path_405" data-name="Path 405" d="M379.374,1758.341l-.244,2.121c-.03.261.117.5.309.5l6.677-.022a.487.487,0,0,0,.435-.313.927.927,0,0,0-.19-.945c-.6-.843-2.565-1.042-3.528-1.76l-3.111.01C379.549,1757.931,379.4,1758.1,379.374,1758.341Z" transform="translate(-379.036 -1757.92)" fill="#333"/>
            <g id="Group_250" data-name="Group 250" transform="translate(3.277 0.184)">
              <path id="Path_406" data-name="Path 406" d="M430.8,1761.954h0a.143.143,0,0,1-.039-.172,1.29,1.29,0,0,1,1.372-.857c.048.008.081.072.073.138v0c-.007.064-.051.106-.1.1a1.112,1.112,0,0,0-1.2.743C430.882,1761.958,430.836,1761.979,430.8,1761.954Z" transform="translate(-430.744 -1760.907)" fill="#daeef7"/>
            </g>
            <g id="Group_251" data-name="Group 251" transform="translate(3.972 0.454)">
              <path id="Path_407" data-name="Path 407" d="M442.039,1766.325h0a.144.144,0,0,1-.038-.173,1.29,1.29,0,0,1,1.372-.857c.048.008.081.073.073.138v0c-.008.064-.051.106-.1.1a1.112,1.112,0,0,0-1.2.743C442.126,1766.329,442.079,1766.35,442.039,1766.325Z" transform="translate(-441.987 -1765.276)" fill="#daeef7"/>
            </g>
            <g id="Group_252" data-name="Group 252" transform="translate(4.617 0.707)">
              <path id="Path_408" data-name="Path 408" d="M452.5,1770.415h0a.143.143,0,0,1-.038-.173,1.289,1.289,0,0,1,1.372-.857c.048.008.081.072.073.138v0c-.008.063-.051.105-.1.1a1.111,1.111,0,0,0-1.2.743C452.586,1770.419,452.539,1770.44,452.5,1770.415Z" transform="translate(-452.447 -1769.366)" fill="#daeef7"/>
            </g>
            <path id="Path_409" data-name="Path 409" d="M381.221,1778.781c-.532-1.711-1.439-1.9-1.934-1.856l-.157,1.364c-.03.261.117.5.309.5Z" transform="translate(-379.036 -1775.747)" fill="#e87b50" opacity="0.3"/>
          </g>
          <path id="Path_410" data-name="Path 410" d="M404.756,1199.044c-.009-.412-12.436.035-12.436.035l-2.742-.449-4.208,34.557a6.624,6.624,0,0,0,3.317.106l8.161-27.175,1-.386S402,1201.951,404.756,1199.044Z" transform="translate(-384.894 -1198.63)" fill="#224887"/>
          <path id="Path_411" data-name="Path 411" d="M579.223,1198.63c-2.755,2.907-6.949,7.1-6.949,7.1l-1,.386,1-.386,3.1,27.456a6.477,6.477,0,0,0,3.475-.263S579.4,1206.788,579.223,1198.63Z" transform="translate(-559.316 -1198.63)" fill="#1f4275"/>
          <path id="Path_412" data-name="Path 412" d="M385.38,1758.33a8.623,8.623,0,0,0,1.826.287,8.613,8.613,0,0,1-1.826-.287Z" transform="translate(-384.903 -1723.774)" fill="#06bfad"/>
          <path id="Path_413" data-name="Path 413" d="M428.731,1761.77c-.089.018-.179.032-.271.044C428.551,1761.8,428.642,1761.788,428.731,1761.77Z" transform="translate(-425.324 -1727.002)" fill="#06bfad"/>
          <path id="Path_414" data-name="Path 414" d="M414.95,1762.745a5.261,5.261,0,0,0,.7-.015A5.261,5.261,0,0,1,414.95,1762.745Z" transform="translate(-412.648 -1727.902)" fill="#06bfad"/>
        </g>
        <path id="Path_415" data-name="Path 415" d="M482.184,413.922a.1.1,0,0,1-.151-.086,11.108,11.108,0,0,0-.09-2.551c-.182-.047-.264,1.655-.431,1.705s-.046-1.608-.248-1.627-.262,1.5-.351,1.518-.186-1.436-.3-1.519-.2,1.487-.3,1.544-.4-1.046-.5-1.031-.165.009-.2,2.685l.032,1.055.491.846,1.164-.169s2.107-2.727,2.061-2.861S483.21,413.292,482.184,413.922Z" transform="translate(-473.325 -411.285)" fill="#ffc0bb"/>
        <path id="Path_416" data-name="Path 416" d="M728.547,691.792a.1.1,0,0,0,.15-.086,11.112,11.112,0,0,1,.09-2.551c.182-.047.264,1.655.431,1.705s.046-1.608.248-1.626.262,1.5.351,1.518.186-1.437.3-1.519.2,1.487.3,1.544.4-1.046.5-1.031.165.009.2,2.685l-.032,1.054-.491.847-1.164-.17s-1.734-2.736-1.763-2.917C727.637,691.112,727.52,691.161,728.547,691.792Z" transform="translate(-706.035 -671.999)" fill="#ffc0bb"/>
        <path id="Path_417" data-name="Path 417" d="M537.45,763.12l-.35,4.145,3.659-.175-.422-3.67Z" transform="translate(-527.256 -741.398)" fill="#ffc0bb"/>
        <path id="Path_418" data-name="Path 418" d="M544.019,765.175l-.2-1.745-2.887-.3-.121,1.435A2.906,2.906,0,0,0,544.019,765.175Z" transform="translate(-530.737 -741.407)" fill="#f99893"/>
        <path id="Path_419" data-name="Path 419" d="M392.628,484.307c.14-2.1,4.565-12.667,4.565-12.667s2.469.186,3.54,1.816c0,0-2.888,8.569-3.074,10.013s1.071,8.755,2.05,9.267l1.77-.14s1.258,1.584,3.866.046c0,0,3.494.559,4.8,1.956,0,0,4.251,4.319,4.46,3.935s-.838-9.535-.838-9.535l3.319.314s1.865,13.508.7,14.076c-2.079,1.013-7.6-2.763-7.6-2.763,0,.824-.058,1.539-.036,1.983C410.667,512.936,412.1,517,412.1,517s-8.761,2.567-16.727.843c0,0-1.254-14.069-.555-20.961C394.818,496.881,392.489,486.4,392.628,484.307Z" transform="translate(-391.699 -467.914)" fill="#feb546"/>
        <path id="Path_420" data-name="Path 420" d="M424.965,880.47s3.118,13.821,16.437,16.447h0a26,26,0,0,0,.845,3.671s-8.761,2.567-16.727.843C425.521,901.431,424.267,887.363,424.965,880.47Z" transform="translate(-421.846 -851.502)" fill="#feb546" opacity="0.3"/>
        <g id="Group_256" data-name="Group 256" transform="translate(6.482 12.164)">
          <path id="Path_421" data-name="Path 421" d="M608.953,648.421l.285,2.412-1.648-2.856s.94-.837,1.042-.658A8.9,8.9,0,0,1,608.953,648.421Z" transform="translate(-599.876 -644.886)" fill="#07085b"/>
          <g id="Group_255" data-name="Group 255" transform="translate(0.433 2.171)">
            <path id="Path_422" data-name="Path 422" d="M622.765,695.406a.75.75,0,1,0,.88-.774A.839.839,0,0,0,622.765,695.406Z" transform="translate(-614.53 -691.464)" fill="#f99893"/>
            <path id="Path_423" data-name="Path 423" d="M498.484,649.426a7.229,7.229,0,0,0,0-1.84c-.014-.119-.02-.239-.025-.359a3.909,3.909,0,1,0-7.728.976.843.843,0,0,0-.756.1,1.179,1.179,0,0,0,1.36,1.855.749.749,0,0,0,.148-.145,3.667,3.667,0,0,0,4.271,2.516A3.6,3.6,0,0,0,498.484,649.426Z" transform="translate(-489.651 -643.468)" fill="#ffc0bb"/>
            <path id="Path_424" data-name="Path 424" d="M582.644,703.18c.068.214.13.423.2.626a1.446,1.446,0,0,0,.275.526l.022.019a.254.254,0,0,0,.028.022.527.527,0,0,1,.08.065.439.439,0,0,1,.112.181.462.462,0,0,1-.065.395.753.753,0,0,1-.612.309.93.93,0,0,0,.459-.4.3.3,0,0,0,.017-.238.254.254,0,0,0-.065-.092.3.3,0,0,0-.048-.038l-.037-.028-.042-.033a.877.877,0,0,1-.2-.315,1.8,1.8,0,0,1-.093-.332A2.33,2.33,0,0,1,582.644,703.18Z" transform="translate(-576.891 -699.493)" fill="#f99893"/>
            <path id="Path_425" data-name="Path 425" d="M553.679,709.5a.341.341,0,1,1-.41-.255A.341.341,0,0,1,553.679,709.5Z" transform="translate(-549.094 -705.175)" fill="#333"/>
            <path id="Path_426" data-name="Path 426" d="M600.609,701.76a.341.341,0,1,1-.41-.255A.342.342,0,0,1,600.609,701.76Z" transform="translate(-593.127 -697.913)" fill="#333"/>
            <path id="Path_427" data-name="Path 427" d="M540.478,696.644a3.538,3.538,0,0,0-.512.02,1.721,1.721,0,0,0-.459.119,1.606,1.606,0,0,0-.406.24c-.069.045-.122.109-.19.162s-.119.124-.191.184a1.431,1.431,0,0,1,.084-.26,1.139,1.139,0,0,1,.148-.235,1.1,1.1,0,0,1,.453-.34,1.149,1.149,0,0,1,.56-.081A1.045,1.045,0,0,1,540.478,696.644Z" transform="translate(-535.69 -693.177)" fill="#07085b"/>
            <path id="Path_428" data-name="Path 428" d="M591.37,688.384a1.05,1.05,0,0,1,.415-.357,1.152,1.152,0,0,1,.553-.119,1.108,1.108,0,0,1,.543.16,1.2,1.2,0,0,1,.221.168,1.462,1.462,0,0,1,.169.215c-.089-.03-.164-.073-.243-.1s-.154-.068-.234-.086a1.586,1.586,0,0,0-.464-.084,1.75,1.75,0,0,0-.472.049A3.427,3.427,0,0,0,591.37,688.384Z" transform="translate(-585.09 -685.163)" fill="#07085b"/>
          </g>
          <path id="Path_429" data-name="Path 429" d="M491.171,609.639s1.114-.277-.309-.883-4.845-.82-6.542.8c0,0-.639-.735-1.158-.369s.6.68.6.68-.743.185-.866.609c-.091.314.364.2.607.116-.4.19-1.719,1.659,0,4.671a17.831,17.831,0,0,0,1.232-2.975s4.323,1.017,3.487-.528c0,0,4.554,1.319,3.44-.52C491.664,611.238,493.192,610.924,491.171,609.639Z" transform="translate(-482.642 -608.306)" fill="#07085b"/>
          <path id="Path_430" data-name="Path 430" d="M496.68,653.2a.735.735,0,0,1,.686-.026c.407.17.633,1.108.633,1.108s1.878.575.484-3.71c-1.483-4.558-1.22.745-1.22.745Z" transform="translate(-495.813 -646.23)" fill="#07085b"/>
          <path id="Path_431" data-name="Path 431" d="M573.537,744.53a.924.924,0,0,1-1.757.3Z" transform="translate(-566.277 -736.119)" fill="#fff"/>
        </g>
      </g>
      <g id="Group_258" data-name="Group 258" transform="translate(1260.342 1559.991)">
        <rect id="Rectangle_98" data-name="Rectangle 98" width="8.328" height="1.301" transform="matrix(-0.979, -0.205, 0.205, -0.979, 10.011, 5.416)" fill="#07085b"/>
        <path id="Path_432" data-name="Path 432" d="M452.076,439.414l.235-1.117,1.746.367-.234,1.116-.033.157-1.746-.367-6.4-1.343.033-.157Z" transform="translate(-443.78 -434.52)" fill="#d9d9d9"/>
        <path id="Path_433" data-name="Path 433" d="M547.972,414l1.862.391a.582.582,0,0,0,.689-.45l.963-4.586a.582.582,0,0,0-.45-.689l-1.861-.391a.582.582,0,0,0-.689.45l-.963,4.586A.583.583,0,0,0,547.972,414Z" transform="translate(-539.36 -406.557)" fill="#1f4275"/>
        <path id="Path_434" data-name="Path 434" d="M415.972,386.3l1.862.391a.582.582,0,0,0,.689-.45l.963-4.586a.582.582,0,0,0-.45-.689l-1.861-.391a.582.582,0,0,0-.689.45l-.963,4.586A.583.583,0,0,0,415.972,386.3Z" transform="translate(-415.51 -380.567)" fill="#1f4275"/>
      </g>
      <g id="Group_259" data-name="Group 259" transform="translate(1275.977 1577.583)">
        <rect id="Rectangle_99" data-name="Rectangle 99" width="8.328" height="1.301" transform="matrix(-0.979, -0.205, 0.205, -0.979, 10.011, 5.415)" fill="#07085b"/>
        <path id="Path_435" data-name="Path 435" d="M705.307,724.364l.234-1.116,1.746.366-.234,1.116-.033.157-1.747-.366-6.4-1.344.033-.156Z" transform="translate(-697.01 -719.469)" fill="#d9d9d9"/>
        <path id="Path_436" data-name="Path 436" d="M801.209,698.945l1.862.391a.582.582,0,0,0,.689-.45l.963-4.586a.582.582,0,0,0-.45-.689l-1.861-.391a.582.582,0,0,0-.689.45l-.963,4.586A.582.582,0,0,0,801.209,698.945Z" transform="translate(-792.597 -691.497)" fill="#1f4275"/>
        <path id="Path_437" data-name="Path 437" d="M669.2,671.245l1.861.391a.582.582,0,0,0,.689-.45l.963-4.586a.582.582,0,0,0-.45-.689l-1.862-.391a.582.582,0,0,0-.689.45l-.963,4.586A.583.583,0,0,0,669.2,671.245Z" transform="translate(-668.74 -665.507)" fill="#1f4275"/>
      </g>
      <path id="Path_438" data-name="Path 438" d="M729.933,726.006c-.409-.666-.567-.851-.535-.935s.688.08,1.144.759C730.452,726.178,729.933,726.006,729.933,726.006Z" transform="translate(550.327 856.209)" fill="#ffc0bb"/>
      <path id="Path_439" data-name="Path 439" d="M515.77,448.92c.3-.052.523-.079.523-.079a4.528,4.528,0,0,0,.682-1.107c-.024-.054-.222-.117-.721.343-.35.337-.6.6-.6.6C515.5,449.024,515.77,448.92,515.77,448.92Z" transform="translate(750.918 1116.439)" fill="#ffc0bb"/>
      <g id="Group_282" data-name="Group 282" transform="translate(1298.8 1560.767)">
        <g id="Group_269" data-name="Group 269" transform="translate(9.58 8.042)">
          <g id="Group_264" data-name="Group 264" transform="translate(0 76.035)">
            <path id="Path_440" data-name="Path 440" d="M1193.764,1799.662l7.188.024a.2.2,0,0,0,.2-.194v-.373a.194.194,0,0,0-.194-.2l-7.188-.024a.2.2,0,0,0-.2.194v.373A.2.2,0,0,0,1193.764,1799.662Z" transform="translate(-1193.57 -1796.185)" fill="#daeef7"/>
            <path id="Path_441" data-name="Path 441" d="M1200.848,1755.342l.244,2.121c.03.261-.117.5-.309.5l-6.677-.023a.486.486,0,0,1-.435-.313.927.927,0,0,1,.19-.945c.6-.843,2.565-1.042,3.529-1.76l3.11.01C1200.674,1754.931,1200.821,1755.106,1200.848,1755.342Z" transform="translate(-1193.608 -1754.92)" fill="#333"/>
            <g id="Group_261" data-name="Group 261" transform="translate(2.842 0.185)">
              <path id="Path_442" data-name="Path 442" d="M1241.008,1758.965h0a.143.143,0,0,0,.038-.173,1.29,1.29,0,0,0-1.372-.857c-.048.008-.081.072-.073.138v0c.007.064.051.105.1.1a1.112,1.112,0,0,1,1.2.743A.076.076,0,0,0,1241.008,1758.965Z" transform="translate(-1239.6 -1757.917)" fill="#daeef7"/>
            </g>
            <g id="Group_262" data-name="Group 262" transform="translate(2.148 0.455)">
              <path id="Path_443" data-name="Path 443" d="M1229.767,1763.345h0a.144.144,0,0,0,.039-.173,1.29,1.29,0,0,0-1.372-.857c-.048.008-.081.072-.073.138v0c.007.064.051.106.1.1a1.111,1.111,0,0,1,1.2.743C1229.681,1763.349,1229.727,1763.369,1229.767,1763.345Z" transform="translate(-1228.36 -1762.297)" fill="#daeef7"/>
            </g>
            <g id="Group_263" data-name="Group 263" transform="translate(1.502 0.708)">
              <path id="Path_444" data-name="Path 444" d="M1219.307,1767.435h0a.143.143,0,0,0,.039-.173,1.29,1.29,0,0,0-1.372-.857c-.048.008-.081.072-.073.138v0c.008.064.051.105.1.1a1.112,1.112,0,0,1,1.2.743C1219.22,1767.439,1219.267,1767.459,1219.307,1767.435Z" transform="translate(-1217.9 -1766.386)" fill="#daeef7"/>
            </g>
            <path id="Path_445" data-name="Path 445" d="M1280.92,1775.8c.532-1.711,1.439-1.9,1.934-1.856l.157,1.364c.03.261-.117.5-.309.5Z" transform="translate(-1275.527 -1772.766)" fill="#e87b50" opacity="0.3"/>
          </g>
          <g id="Group_268" data-name="Group 268" transform="translate(15.77 76.22)">
            <path id="Path_446" data-name="Path 446" d="M1449.184,1802.642l7.188.024a.194.194,0,0,0,.195-.194v-.373a.194.194,0,0,0-.194-.2l-7.188-.024a.194.194,0,0,0-.2.194v.373A.194.194,0,0,0,1449.184,1802.642Z" transform="translate(-1448.99 -1799.166)" fill="#daeef7"/>
            <path id="Path_447" data-name="Path 447" d="M1456.268,1758.341l.244,2.121c.03.261-.117.5-.309.5l-6.677-.022a.488.488,0,0,1-.435-.313.927.927,0,0,1,.19-.945c.6-.843,2.565-1.042,3.529-1.76l3.11.01C1456.093,1757.931,1456.241,1758.1,1456.268,1758.341Z" transform="translate(-1449.028 -1757.92)" fill="#333"/>
            <g id="Group_265" data-name="Group 265" transform="translate(2.842 0.184)">
              <path id="Path_448" data-name="Path 448" d="M1496.427,1761.954h0a.144.144,0,0,0,.039-.172,1.29,1.29,0,0,0-1.372-.857c-.048.008-.081.072-.073.138v0c.007.064.051.106.1.1a1.112,1.112,0,0,1,1.2.743C1496.34,1761.958,1496.387,1761.979,1496.427,1761.954Z" transform="translate(-1495.021 -1760.907)" fill="#daeef7"/>
            </g>
            <g id="Group_266" data-name="Group 266" transform="translate(2.147 0.454)">
              <path id="Path_449" data-name="Path 449" d="M1485.168,1766.325h0a.144.144,0,0,0,.038-.173,1.29,1.29,0,0,0-1.372-.857c-.048.008-.081.073-.073.138v0c.008.064.051.106.1.1a1.112,1.112,0,0,1,1.2.743C1485.082,1766.329,1485.128,1766.35,1485.168,1766.325Z" transform="translate(-1483.76 -1765.276)" fill="#daeef7"/>
            </g>
            <g id="Group_267" data-name="Group 267" transform="translate(1.501 0.707)">
              <path id="Path_450" data-name="Path 450" d="M1474.708,1770.415h0a.143.143,0,0,0,.038-.173,1.289,1.289,0,0,0-1.372-.857c-.048.008-.081.072-.073.138v0c.008.063.051.105.1.1a1.111,1.111,0,0,1,1.2.743C1474.622,1770.419,1474.668,1770.44,1474.708,1770.415Z" transform="translate(-1473.3 -1769.366)" fill="#daeef7"/>
            </g>
            <path id="Path_451" data-name="Path 451" d="M1536.32,1778.781c.531-1.711,1.439-1.9,1.934-1.856l.157,1.364c.03.261-.117.5-.309.5Z" transform="translate(-1530.928 -1775.747)" fill="#e87b50" opacity="0.3"/>
          </g>
          <path id="Path_452" data-name="Path 452" d="M1343.223,524.526a.081.081,0,0,1-.109-.092c.1-.488-.156-.777-.3-.761s-.4-.18-.47-.175a2.792,2.792,0,0,0-.486-.067c-.089.031-.512-.42-.8,1.239a3.008,3.008,0,0,1-.165.979l.312.637.968.032s2.1-1.9,2.086-2.018S1344.146,524.165,1343.223,524.526Z" transform="translate(-1331.794 -523.398)" fill="#ffc0bb"/>
          <path id="Path_453" data-name="Path 453" d="M1526.886,541.219c.043.048.133.032.139-.031.078-.851.493-.621.613-.541s.433.02.5.059a6.437,6.437,0,0,1,.741.142c.065.069.58-.614-.127,1.489a3,3,0,0,0-.3.946l-.568.425-.876-.412s-1-2.651-.937-2.746S1526.229,540.477,1526.886,541.219Z" transform="translate(-1505.538 -539.454)" fill="#ffc0bb"/>
          <path id="Path_454" data-name="Path 454" d="M1362.489,816.294l.015,3.7-3.594-.554.6-4.159Z" transform="translate(-1348.702 -797.259)" fill="#ffc0bb"/>
          <path id="Path_455" data-name="Path 455" d="M1364.15,817.195l.276-1.915,2.982,1.365,0,.73A5.424,5.424,0,0,1,1364.15,817.195Z" transform="translate(-1353.618 -797.259)" fill="#fc8d84" opacity="0.6"/>
          <path id="Path_456" data-name="Path 456" d="M1229.07,1172.328c.009-.412-1.065.8-1.044.474.421-6.842,13.793-1.105,13.793-1.105l3.264,2.395,4.635,32.141a19.936,19.936,0,0,1-4.963-.4l-7.465-27.1-1-.386A56.96,56.96,0,0,1,1229.07,1172.328Z" transform="translate(-1225.898 -1129.559)" fill="#224887"/>
          <path id="Path_457" data-name="Path 457" d="M1227.631,1228.33c0,.08-.007.162-.01.246C1227.623,1228.491,1227.627,1228.41,1227.631,1228.33Z" transform="translate(-1225.518 -1184.807)" fill="#06bfad"/>
          <path id="Path_458" data-name="Path 458" d="M1227.469,1232.38c0,.086-.006.174-.009.264C1227.463,1232.554,1227.466,1232.465,1227.469,1232.38Z" transform="translate(-1225.368 -1188.607)" fill="#06bfad"/>
          <path id="Path_459" data-name="Path 459" d="M1227.337,1237.21l-.007.286C1227.332,1237.4,1227.334,1237.3,1227.337,1237.21Z" transform="translate(-1225.246 -1193.139)" fill="#06bfad"/>
          <path id="Path_460" data-name="Path 460" d="M1227.843,1223.8c0,.074-.009.151-.012.229C1227.834,1223.951,1227.838,1223.874,1227.843,1223.8Z" transform="translate(-1225.715 -1180.557)" fill="#06bfad"/>
          <path id="Path_461" data-name="Path 461" d="M1227.813,1198.63a89.616,89.616,0,0,0,8.26,7.1l1,.386-1-.386-2.062,27.7s-3.743.229-5.007-.455C1229,1232.976,1227.634,1206.788,1227.813,1198.63Z" transform="translate(-1225.684 -1156.941)" fill="#1f4275"/>
          <path id="Path_462" data-name="Path 462" d="M1243.85,590.8c2.154-7.22,1.985-16.091,1.985-16.091s-6.3-11.6,4.431-24.488l1.042.8s-2.643,7.235-2.874,10.632c-.2,2.943-.579,5.21,1.7,7.718,1.982,1.389,4.671.425,4.671.425s3.628-.579,6.549-6.29c.88-1.722.82-11.637.82-11.637l1.4-.13a31.566,31.566,0,0,1,2.206,12.076c-.206,6.483-6.382,11.989-6.382,11.989-.206,1.955-.106,15.466-.106,15.466C1254.9,592.9,1246.425,592.374,1243.85,590.8Z" transform="translate(-1240.746 -548.564)" fill="#ffc0bb"/>
          <path id="Path_463" data-name="Path 463" d="M1335.863,721.875l-.193,2.246.355.223.656-2.735Z" transform="translate(-1326.897 -709.372)" fill="#07085b"/>
          <path id="Path_464" data-name="Path 464" d="M1323.794,746.523a.769.769,0,1,1-.914-.78A.86.86,0,0,1,1323.794,746.523Z" transform="translate(-1314.351 -732.005)" fill="#f99893"/>
          <path id="Path_465" data-name="Path 465" d="M1336.09,699.139a3.892,3.892,0,0,1-.167-.7,7.4,7.4,0,0,1-.032-1.887c.012-.122.017-.246.02-.369a4.008,4.008,0,1,1,7.938.882.866.866,0,0,1,.777.094,1.208,1.208,0,0,1-1.366,1.922.75.75,0,0,1-.154-.146,3.759,3.759,0,0,1-4.34,2.645,3.6,3.6,0,0,1-2.193-1.475,1.8,1.8,0,0,1-.108-.151A3.453,3.453,0,0,1,1336.09,699.139Z" transform="translate(-1327.062 -681.842)" fill="#ffc0bb"/>
          <path id="Path_466" data-name="Path 466" d="M1407.089,759.823a.35.35,0,1,0,.416-.267A.35.35,0,0,0,1407.089,759.823Z" transform="translate(-1393.899 -744.968)" fill="#333"/>
          <path id="Path_467" data-name="Path 467" d="M1358.859,752.6a.35.35,0,1,0,.417-.267A.35.35,0,0,0,1358.859,752.6Z" transform="translate(-1348.647 -738.193)" fill="#333"/>
          <path id="Path_468" data-name="Path 468" d="M1367.226,797.305a2.143,2.143,0,0,1-.276.115,2.032,2.032,0,0,1-.286.078,1.78,1.78,0,0,1-.585.023,1.519,1.519,0,0,1-.551-.192,2.1,2.1,0,0,1-.458-.378,1.8,1.8,0,0,0,.194.231,1.641,1.641,0,0,0,.235.193,1.476,1.476,0,0,0,.272.14,1.539,1.539,0,0,0,.3.076,1.582,1.582,0,0,0,.607-.039A1.739,1.739,0,0,0,1367.226,797.305Z" transform="translate(-1354.481 -780.061)" fill="#f99893"/>
          <path id="Path_469" data-name="Path 469" d="M1402.92,747.258a3.281,3.281,0,0,1,.523-.056,1.713,1.713,0,0,1,.486.057,1.6,1.6,0,0,1,.447.194l.055.031c.018.011.034.025.052.037l.106.075c.071.051.135.112.215.165a1.55,1.55,0,0,0-.124-.25,1.291,1.291,0,0,0-.183-.216,1.14,1.14,0,0,0-.5-.281,1.189,1.189,0,0,0-.576-.01A1.1,1.1,0,0,0,1402.92,747.258Z" transform="translate(-1389.995 -733.17)" fill="#07085b"/>
          <path id="Path_470" data-name="Path 470" d="M1350.806,739.091a1.109,1.109,0,0,0-.39-.4,1.193,1.193,0,0,0-.549-.175,1.135,1.135,0,0,0-.567.1,1.27,1.27,0,0,0-.243.146,1.524,1.524,0,0,0-.2.2c.092-.024.172-.061.256-.087l.125-.036c.021-.006.04-.014.061-.019l.062-.012a1.6,1.6,0,0,1,.486-.041,1.734,1.734,0,0,1,.479.1A3.414,3.414,0,0,1,1350.806,739.091Z" transform="translate(-1339.272 -725.233)" fill="#07085b"/>
          <path id="Path_471" data-name="Path 471" d="M1374.654,755.01a5.065,5.065,0,0,0-.456.494,4.774,4.774,0,0,0-.392.55,1.783,1.783,0,0,0-.15.314.7.7,0,0,0-.022.091c0,.016,0,.035,0,.051a.23.23,0,0,0,.01.059.313.313,0,0,0,.013.031l.013.019a.447.447,0,0,0,.026.037.866.866,0,0,0,.059.067,1.6,1.6,0,0,0,.264.219,2.12,2.12,0,0,0,.293.168,3.636,3.636,0,0,1-.476-.458c-.017-.02-.031-.043-.046-.064l-.02-.033-.009-.016a.015.015,0,0,0,0-.008.256.256,0,0,1,.023-.125,1.855,1.855,0,0,1,.146-.286c.111-.189.237-.372.36-.556S1374.533,755.2,1374.654,755.01Z" transform="translate(-1362.513 -740.71)" fill="#f99893"/>
          <path id="Path_472" data-name="Path 472" d="M1329.877,663.2s-1.18-.227.273-.939,5.017-1.127,6.88.468c0,0,.627-.8,1.19-.451s-.586.743-.586.743.786.151.938.588c.112.323-.369.227-.627.156.427.176,1.685,1.363.052,4.606a28.484,28.484,0,0,1-2.158-2.8s-3.756,1.234-3.072.211c0,0-4.378,1.1-3.317-.883C1329.451,664.9,1327.837,664.657,1329.877,663.2Z" transform="translate(-1320.493 -653.096)" fill="#07085b"/>
          <path id="Path_473" data-name="Path 473" d="M1441.512,697.349a.771.771,0,0,0-.716-.056c-.433.161-.708,1.132-.708,1.132s-1.418,1.161-.726-3.9c.679-4.97,1.619.827,1.619.827Z" transform="translate(-1424.008 -682.073)" fill="#07085b"/>
        </g>
        <g id="Group_279" data-name="Group 279">
          <g id="Group_270" data-name="Group 270" transform="translate(0 6.286)">
            <path id="Path_474" data-name="Path 474" d="M1038.828,503.375l51.531,3.241a.45.45,0,0,0,.477-.421h0a.45.45,0,0,0-.421-.477l-51.531-3.241a.45.45,0,0,0-.477.421h0A.451.451,0,0,0,1038.828,503.375Z" transform="translate(-1038.406 -502.011)" fill="#07085b"/>
            <path id="Path_475" data-name="Path 475" d="M1167.772,497.763l.564.036a.192.192,0,0,0,.2-.179l.153-2.427a.19.19,0,0,0-.179-.2l-.564-.036a.191.191,0,0,0-.2.179l-.152,2.427A.191.191,0,0,0,1167.772,497.763Z" transform="translate(-1159.618 -494.954)" fill="#07085b"/>
            <path id="Path_476" data-name="Path 476" d="M1735.463,533.463l.564.036a.19.19,0,0,0,.2-.179l.153-2.428a.191.191,0,0,0-.179-.2l-.564-.036a.19.19,0,0,0-.2.179l-.153,2.427A.191.191,0,0,0,1735.463,533.463Z" transform="translate(-1692.258 -528.449)" fill="#07085b"/>
          </g>
          <g id="Group_271" data-name="Group 271" transform="translate(1.676 1.699)">
            <path id="Path_477" data-name="Path 477" d="M1065.912,431.894l.76.048a.378.378,0,0,0,.4-.353l.66-10.492a.378.378,0,0,0-.353-.4l-.76-.048a.378.378,0,0,0-.4.353l-.66,10.492A.378.378,0,0,0,1065.912,431.894Z" transform="translate(-1065.558 -420.648)" fill="#1f4275"/>
            <path id="Path_478" data-name="Path 478" d="M1077.686,421.315a.377.377,0,0,0-.353-.4l-.76-.048a.369.369,0,0,0-.313.145h0a.378.378,0,0,1,.4-.353l.76.048a.378.378,0,0,1,.353.4l-.66,10.492a.364.364,0,0,1-.087.207Z" transform="translate(-1075.599 -420.657)" fill="#262626"/>
          </g>
          <g id="Group_272" data-name="Group 272" transform="translate(6.099 0.191)">
            <path id="Path_479" data-name="Path 479" d="M1137.593,411.066l.648.041a.434.434,0,0,0,.46-.406l.879-13.973a.434.434,0,0,0-.406-.46l-.648-.041a.434.434,0,0,0-.46.406l-.879,13.973A.434.434,0,0,0,1137.593,411.066Z" transform="translate(-1137.187 -396.226)" fill="#1f4275"/>
            <path id="Path_480" data-name="Path 480" d="M1152.072,410.908l.879-13.973a.434.434,0,0,0-.406-.46l-.648-.041a.434.434,0,0,0-.367.164.432.432,0,0,1,.454-.372l.648.041a.434.434,0,0,1,.406.46l-.879,13.973a.433.433,0,0,1-.093.241A.312.312,0,0,0,1152.072,410.908Z" transform="translate(-1150.645 -396.225)" fill="#262626"/>
          </g>
          <g id="Group_273" data-name="Group 273" transform="translate(4.585 0.095)">
            <path id="Path_481" data-name="Path 481" d="M1113.073,409.516l.648.041a.434.434,0,0,0,.46-.406l.879-13.973a.434.434,0,0,0-.406-.46l-.648-.041a.434.434,0,0,0-.46.406l-.879,13.973A.434.434,0,0,0,1113.073,409.516Z" transform="translate(-1112.667 -394.676)" fill="#1f4275"/>
            <path id="Path_482" data-name="Path 482" d="M1127.562,409.368l.879-13.973a.434.434,0,0,0-.406-.46l-.647-.041a.434.434,0,0,0-.367.164.432.432,0,0,1,.454-.372l.648.041a.434.434,0,0,1,.406.46l-.879,13.973a.433.433,0,0,1-.093.241C1127.557,409.389,1127.561,409.379,1127.562,409.368Z" transform="translate(-1126.134 -394.685)" fill="#262626"/>
          </g>
          <g id="Group_274" data-name="Group 274" transform="translate(3.072)">
            <path id="Path_483" data-name="Path 483" d="M1088.562,407.976l.648.041a.434.434,0,0,0,.46-.406l.879-13.973a.434.434,0,0,0-.406-.46l-.648-.041a.434.434,0,0,0-.46.406l-.879,13.973A.433.433,0,0,0,1088.562,407.976Z" transform="translate(-1088.155 -393.136)" fill="#1f4275"/>
            <path id="Path_484" data-name="Path 484" d="M1103.042,407.828l.879-13.973a.434.434,0,0,0-.406-.46l-.648-.041a.433.433,0,0,0-.367.164.432.432,0,0,1,.454-.372l.648.041a.434.434,0,0,1,.406.46l-.879,13.973a.435.435,0,0,1-.092.241C1103.038,407.849,1103.041,407.839,1103.042,407.828Z" transform="translate(-1101.615 -393.145)" fill="#262626"/>
          </g>
          <g id="Group_275" data-name="Group 275" transform="translate(48.258 4.629)">
            <path id="Path_485" data-name="Path 485" d="M1820.392,479.354l.76.047a.378.378,0,0,0,.4-.353l.66-10.492a.378.378,0,0,0-.353-.4l-.76-.048a.378.378,0,0,0-.4.353l-.66,10.492A.378.378,0,0,0,1820.392,479.354Z" transform="translate(-1820.038 -468.108)" fill="#1f4275"/>
            <path id="Path_486" data-name="Path 486" d="M1832.166,468.765a.377.377,0,0,0-.353-.4l-.76-.048a.37.37,0,0,0-.313.145h0a.378.378,0,0,1,.4-.353l.76.048a.378.378,0,0,1,.353.4l-.66,10.492a.365.365,0,0,1-.087.207Z" transform="translate(-1830.079 -468.108)" fill="#262626"/>
          </g>
          <g id="Group_276" data-name="Group 276" transform="translate(46.635 2.741)">
            <path id="Path_487" data-name="Path 487" d="M1794.153,452.366l.648.041a.434.434,0,0,0,.46-.406l.879-13.973a.434.434,0,0,0-.406-.46l-.648-.041a.434.434,0,0,0-.46.406l-.879,13.973A.434.434,0,0,0,1794.153,452.366Z" transform="translate(-1793.746 -437.526)" fill="#1f4275"/>
            <path id="Path_488" data-name="Path 488" d="M1808.632,452.208l.879-13.973a.434.434,0,0,0-.406-.46l-.648-.041a.434.434,0,0,0-.367.164.432.432,0,0,1,.454-.372l.648.041a.434.434,0,0,1,.406.46L1808.719,452a.435.435,0,0,1-.093.241C1808.628,452.229,1808.631,452.219,1808.632,452.208Z" transform="translate(-1807.205 -437.525)" fill="#262626"/>
          </g>
          <g id="Group_277" data-name="Group 277" transform="translate(45.121 2.645)">
            <path id="Path_489" data-name="Path 489" d="M1769.634,450.816l.648.041a.434.434,0,0,0,.46-.406l.878-13.973a.434.434,0,0,0-.406-.46l-.648-.041a.434.434,0,0,0-.46.406l-.879,13.973A.434.434,0,0,0,1769.634,450.816Z" transform="translate(-1769.226 -435.976)" fill="#1f4275"/>
            <path id="Path_490" data-name="Path 490" d="M1784.112,450.668l.879-13.973a.434.434,0,0,0-.406-.46l-.648-.041a.434.434,0,0,0-.367.164.432.432,0,0,1,.454-.372l.648.041a.434.434,0,0,1,.406.46l-.879,13.973a.435.435,0,0,1-.093.241A.212.212,0,0,0,1784.112,450.668Z" transform="translate(-1782.685 -435.984)" fill="#262626"/>
          </g>
          <g id="Group_278" data-name="Group 278" transform="translate(43.608 2.55)">
            <path id="Path_491" data-name="Path 491" d="M1745.123,449.276l.648.041a.434.434,0,0,0,.46-.406l.879-13.973a.434.434,0,0,0-.406-.46l-.648-.041a.434.434,0,0,0-.46.406l-.879,13.973A.433.433,0,0,0,1745.123,449.276Z" transform="translate(-1744.717 -434.436)" fill="#1f4275"/>
            <path id="Path_492" data-name="Path 492" d="M1759.6,449.118l.879-13.973a.434.434,0,0,0-.406-.46l-.648-.041a.434.434,0,0,0-.367.164.431.431,0,0,1,.454-.372l.648.041a.434.434,0,0,1,.406.46l-.879,13.973a.43.43,0,0,1-.093.241A.26.26,0,0,0,1759.6,449.118Z" transform="translate(-1758.175 -434.435)" fill="#262626"/>
          </g>
        </g>
        <g id="Group_280" data-name="Group 280" transform="translate(31.214 8.488)">
          <path id="Path_493" data-name="Path 493" d="M1570.625,533.115c.017.254.02.493-.06.507s-.2-.23-.225-.471C1570.339,532.911,1570.585,532.978,1570.625,533.115Z" transform="translate(-1568.712 -532.844)" fill="#ffc0bb"/>
          <path id="Path_494" data-name="Path 494" d="M1563.605,532.43c-.091.488-.144.612-.206.593s-.094-.322-.109-.589C1563.3,532.187,1563.623,532.122,1563.605,532.43Z" transform="translate(-1562.098 -532.124)" fill="#ffc0bb"/>
          <path id="Path_495" data-name="Path 495" d="M1554.417,531.358v.02c-.115.411-.275.584-.343.579s-.059-.247.023-.642C1554.171,531.065,1554.465,531.115,1554.417,531.358Z" transform="translate(-1553.403 -531.117)" fill="#ffc0bb"/>
          <path id="Path_496" data-name="Path 496" d="M1544.161,530.705c.114-.156.358-.11.309.137-.187.241-.369.511-.468.454C1543.922,531.251,1544.028,530.984,1544.161,530.705Z" transform="translate(-1543.974 -530.615)" fill="#ffc0bb"/>
        </g>
        <g id="Group_281" data-name="Group 281" transform="translate(19.185 7.743)">
          <path id="Path_497" data-name="Path 497" d="M1349.216,518.642c-.06.248-.1.483-.027.51s.231-.194.3-.425C1349.533,518.489,1349.279,518.513,1349.216,518.642Z" transform="translate(-1349.148 -518.546)" fill="#ffc0bb"/>
          <path id="Path_498" data-name="Path 498" d="M1356.61,519c.006.5.038.628.1.619s.147-.3.208-.561C1356.957,518.815,1356.645,518.695,1356.61,519Z" transform="translate(-1356.149 -518.802)" fill="#ffc0bb"/>
          <path id="Path_499" data-name="Path 499" d="M1364.652,519.321l0,.02c.043.425.171.622.239.629s.1-.233.087-.637C1364.944,519.074,1364.646,519.073,1364.652,519.321Z" transform="translate(-1363.693 -519.1)" fill="#ffc0bb"/>
          <path id="Path_500" data-name="Path 500" d="M1373.316,520.178c-.086-.173-.334-.169-.328.082.143.269.277.566.383.528C1373.458,520.757,1373.4,520.476,1373.316,520.178Z" transform="translate(-1371.516 -519.965)" fill="#ffc0bb"/>
        </g>
      </g>
      <path id="Path_501" data-name="Path 501" d="M1227.35,851.94a9.308,9.308,0,0,1,1.212.944h0c-1.169,1.859-2.626,4.775.431,5,2.746.206,3.214-2.162,3.214-4.92h0a3.953,3.953,0,0,1,1.342-.458s-.1,7.334,3.849,7.255l1.772,16.653c-4.395,1.624-11.177.461-11.177.461l-.019,0c-1.82-.209-5.359-.622-7.933-2.2.493-6.008,3.1-16.19,3.1-16.191A38.316,38.316,0,0,1,1227.35,851.94Z" transform="translate(89.975 737.153)" fill="#3093bd"/>
    </g>
  </g>
</svg>
