<svg xmlns="http://www.w3.org/2000/svg" width="87.518" height="75.608" viewBox="0 0 87.518 75.608">
  <g id="quote" transform="translate(0 -34.571)" opacity="0.3">
    <g id="Group_19" data-name="Group 19" transform="translate(0 34.571)">
      <path id="Path_48" data-name="Path 48" d="M.019,89.345A20.889,20.889,0,1,0,14.1,69.651c4.688-26.889,25.657-44.229,6.219-29.958C-1.23,55.518,0,88.708.02,89.317.02,89.326.019,89.335.019,89.345Z" transform="translate(0 -34.571)" fill="#d3dad4"/>
      <path id="Path_49" data-name="Path 49" d="M266.079,89.345a20.889,20.889,0,1,0,14.086-19.695c4.688-26.889,25.657-44.229,6.219-29.958-21.553,15.825-20.328,49.016-20.3,49.624C266.08,89.326,266.079,89.335,266.079,89.345Z" transform="translate(-220.228 -34.571)" fill="#d3dad4"/>
    </g>
  </g>
</svg>
