<svg xmlns="http://www.w3.org/2000/svg" width="102" height="102" viewBox="0 0 102 102">
  <g id="Group_116" data-name="Group 116" transform="translate(-1429 -451)">
    <circle id="Ellipse_19" data-name="Ellipse 19" cx="51" cy="51" r="51" transform="translate(1429 451)" fill="#fff" opacity="0.2"/>
    <g id="megaphone" transform="translate(1447 445.577)">
      <g id="Group_113" data-name="Group 113" transform="translate(0 26.423)">
        <path id="Path_1078" data-name="Path 1078" d="M66.405,306.982,60.559,303.7a1.952,1.952,0,0,1-.736-2.679l11.831-20.484,9.254,5.19L69.053,306.255A1.954,1.954,0,0,1,66.405,306.982Z" transform="translate(-51.807 -247.457)" fill="#4d5788"/>
        <g id="Group_112" data-name="Group 112" transform="translate(0 0)">
          <g id="Group_109" data-name="Group 109" transform="translate(26.781)">
            <path id="Path_1079" data-name="Path 1079" d="M207.111,66.3l21.573,12.816a1.954,1.954,0,0,0,2.951-1.679V28.379a1.954,1.954,0,0,0-2.974-1.665L207.111,39.908l-1.4,12.974Z" transform="translate(-205.713 -26.423)" fill="#f1f1fa"/>
            <path id="Path_1080" data-name="Path 1080" d="M205.973,232.161l1.364,13.094,21.573,12.816a1.954,1.954,0,0,0,2.951-1.679V232.161Z" transform="translate(-205.939 -205.377)" fill="#ded7f9"/>
          </g>
          <g id="Group_110" data-name="Group 110" transform="translate(0 17.709)">
            <path id="Path_1081" data-name="Path 1081" d="M11.658,179.954H3.709A3.709,3.709,0,0,1,0,176.245V166.164a3.709,3.709,0,0,1,3.709-3.709h7.949Z" transform="translate(0 -162.455)" fill="#667197"/>
            <path id="Path_1082" data-name="Path 1082" d="M0,232.161v4.715a3.709,3.709,0,0,0,3.71,3.709h7.948v-8.424Z" transform="translate(0 -223.086)" fill="#4d5788"/>
          </g>
          <g id="Group_111" data-name="Group 111" transform="translate(10.225 13.473)">
            <path id="Path_1083" data-name="Path 1083" d="M96.494,156.317H85.18a6.984,6.984,0,0,1-6.64-6.861V136.339a6.319,6.319,0,0,1,6.64-6.416H96.494Z" transform="translate(-78.54 -129.912)" fill="#e06c6c"/>
            <path id="Path_1084" data-name="Path 1084" d="M78.54,232.161v6.233a6.984,6.984,0,0,0,6.64,6.861H96.494V232.161Z" transform="translate(-78.54 -218.85)" fill="#c63c50"/>
          </g>
        </g>
      </g>
      <g id="Group_115" data-name="Group 115" transform="translate(55.387 37.568)">
        <path id="Path_1085" data-name="Path 1085" d="M431.34,299.877a1.948,1.948,0,0,1-1.381-.572l-3.941-3.939a1.953,1.953,0,1,1,2.763-2.762l3.941,3.939a1.953,1.953,0,0,1-1.381,3.334Z" transform="translate(-425.446 -268.599)" fill="#edbe2c"/>
        <path id="Path_1086" data-name="Path 1086" d="M427.4,119.877a1.953,1.953,0,0,1-1.381-3.334l3.941-3.939a1.953,1.953,0,0,1,2.763,2.762l-3.941,3.939a1.948,1.948,0,0,1-1.381.572Z" transform="translate(-425.445 -112.032)" fill="#f3d652"/>
        <g id="Group_114" data-name="Group 114" transform="translate(1.788 13.686)">
          <path id="Path_1087" data-name="Path 1087" d="M446.709,221.067h-5.573a1.953,1.953,0,1,1,0-3.906h5.573a1.953,1.953,0,1,1,0,3.906Z" transform="translate(-439.183 -217.161)" fill="#f3d652"/>
          <path id="Path_1088" data-name="Path 1088" d="M441.136,234.114h5.573a1.953,1.953,0,0,0,1.953-1.953h-9.48A1.953,1.953,0,0,0,441.136,234.114Z" transform="translate(-439.183 -230.208)" fill="#edbe2c"/>
        </g>
      </g>
    </g>
  </g>
</svg>
