<svg xmlns="http://www.w3.org/2000/svg" width="86.904" height="92.653" viewBox="0 0 86.904 92.653">
  <g id="Logo" transform="translate(-58.175 -30.461)">
    <path id="Path_39" data-name="Path 39" d="M2.779-54.21H.292v-1.3H6.66v1.3H4.173v6.957H2.779Zm8.276.59a2.271,2.271,0,0,1,1.737.7,2.91,2.91,0,0,1,.654,2.063v3.608h-1.34v-3.419a1.886,1.886,0,0,0-.354-1.244,1.246,1.246,0,0,0-1.008-.419,1.474,1.474,0,0,0-1.168.489,2.074,2.074,0,0,0-.429,1.409v3.184H7.807V-56h1.34v3.184a2.176,2.176,0,0,1,.82-.6A2.766,2.766,0,0,1,11.055-53.621Zm9.755,3.254q0,.153-.021.436H16.3a1.744,1.744,0,0,0,.616,1.1,1.894,1.894,0,0,0,1.238.407,1.993,1.993,0,0,0,1.554-.684l.718.908a2.441,2.441,0,0,1-.976.766,3.268,3.268,0,0,1-1.329.259,3.276,3.276,0,0,1-1.662-.413,2.829,2.829,0,0,1-1.11-1.15,3.5,3.5,0,0,1-.391-1.668,3.557,3.557,0,0,1,.381-1.657,2.845,2.845,0,0,1,1.056-1.15,2.861,2.861,0,0,1,1.522-.413,2.79,2.79,0,0,1,1.5.407A2.769,2.769,0,0,1,20.44-52.07,3.75,3.75,0,0,1,20.81-50.366Zm-2.894-2.075a1.529,1.529,0,0,0-1.088.419,1.818,1.818,0,0,0-.541,1.114h3.248a1.8,1.8,0,0,0-.525-1.108A1.512,1.512,0,0,0,17.915-52.441Zm11.192,5.306a3.922,3.922,0,0,1-2.053-.548A3.857,3.857,0,0,1,25.618-49.2a4.532,4.532,0,0,1-.52-2.181,4.494,4.494,0,0,1,.525-2.181,3.9,3.9,0,0,1,1.442-1.515,3.922,3.922,0,0,1,2.053-.548,3.945,3.945,0,0,1,1.683.354,3.468,3.468,0,0,1,1.286,1.026l-.9.931a2.524,2.524,0,0,0-2-.967,2.609,2.609,0,0,0-1.383.371,2.562,2.562,0,0,0-.954,1.032,3.2,3.2,0,0,0-.343,1.5,3.2,3.2,0,0,0,.343,1.5,2.562,2.562,0,0,0,.954,1.032,2.609,2.609,0,0,0,1.383.371,2.513,2.513,0,0,0,2-.979l.9.943A3.457,3.457,0,0,1,30.8-47.489,3.98,3.98,0,0,1,29.107-47.136Zm6.55-6.485a2.629,2.629,0,0,1,1.935.666,2.722,2.722,0,0,1,.67,2.01v3.691H37v-.766a1.6,1.6,0,0,1-.7.631,2.527,2.527,0,0,1-1.1.218,2.482,2.482,0,0,1-1.126-.242,1.788,1.788,0,0,1-.745-.672,1.83,1.83,0,0,1-.263-.973,1.738,1.738,0,0,1,.574-1.362,2.659,2.659,0,0,1,1.806-.513h1.479v-.094a1.36,1.36,0,0,0-.359-1.014,1.461,1.461,0,0,0-1.067-.354,2.824,2.824,0,0,0-.949.165,2.271,2.271,0,0,0-.788.46l-.525-1.073a3.141,3.141,0,0,1,1.083-.578A4.41,4.41,0,0,1,35.657-53.621Zm-.182,5.377a1.61,1.61,0,0,0,.9-.254,1.355,1.355,0,0,0,.552-.725v-.731H35.539q-1.158,0-1.158.837a.778.778,0,0,0,.289.637A1.239,1.239,0,0,0,35.475-48.244ZM40.2-56h1.34v8.749H40.2Zm3.323,0h1.34v8.749h-1.34Zm17.6.5L58.64-47.253H57.161l-1.855-6.108L53.42-47.253H51.93l-2.487-8.254H50.89l1.865,6.273,1.94-6.273h1.286l1.9,6.308L59.8-55.507Zm1.286,1.957h1.34v6.3h-1.34Zm.675-1.038a.818.818,0,0,1-.611-.254.869.869,0,0,1-.247-.631.869.869,0,0,1,.247-.631.818.818,0,0,1,.611-.254.839.839,0,0,1,.611.242.815.815,0,0,1,.247.607.937.937,0,0,1-.241.654A.8.8,0,0,1,63.089-54.587ZM69.178-47.6a1.53,1.53,0,0,1-.574.318,2.364,2.364,0,0,1-.713.106,1.913,1.913,0,0,1-1.458-.542,2.211,2.211,0,0,1-.515-1.58v-3.03h-.943V-53.5h.943v-1.438h1.34V-53.5h1.533v1.179H67.259v2.995a1.062,1.062,0,0,0,.2.7.728.728,0,0,0,.59.242,1.107,1.107,0,0,0,.75-.259Zm4.577-6.025a2.271,2.271,0,0,1,1.737.7,2.91,2.91,0,0,1,.654,2.063v3.608h-1.34v-3.419a1.886,1.886,0,0,0-.354-1.244,1.246,1.246,0,0,0-1.008-.419,1.474,1.474,0,0,0-1.168.489,2.074,2.074,0,0,0-.429,1.409v3.184h-1.34V-56h1.34v3.184a2.176,2.176,0,0,1,.82-.6A2.766,2.766,0,0,1,73.755-53.621Zm4.32.071h1.34v6.3h-1.34Zm.675-1.038a.818.818,0,0,1-.611-.254.869.869,0,0,1-.247-.631.869.869,0,0,1,.247-.631.818.818,0,0,1,.611-.254.839.839,0,0,1,.611.242.815.815,0,0,1,.247.607.937.937,0,0,1-.241.654A.8.8,0,0,1,78.751-54.587Zm5.9.967a2.271,2.271,0,0,1,1.737.7,2.91,2.91,0,0,1,.654,2.063v3.608H85.7v-3.419a1.886,1.886,0,0,0-.354-1.244,1.246,1.246,0,0,0-1.008-.419,1.474,1.474,0,0,0-1.168.489,2.074,2.074,0,0,0-.429,1.409v3.184H81.4v-6.3h1.276v.814a2.114,2.114,0,0,1,.836-.66A2.768,2.768,0,0,1,84.647-53.621Z" transform="translate(57.902 170.25)" fill="#3ec6b9"/>
    <g id="_3ec6b9ff" data-name="#3ec6b9ff" transform="translate(58.175 30.461)">
      <path id="Path_23" data-name="Path 23" d="M75.628,31.5a24.772,24.772,0,0,1,11-.712A22.939,22.939,0,0,1,98.1,36.275a31.547,31.547,0,0,1,3.528,3.713c.657-.693,1.235-1.453,1.906-2.135a23.842,23.842,0,0,1,10.685-6.53,24.377,24.377,0,0,1,19.794,3.149,25.189,25.189,0,0,1,5.707,5.321,26.178,26.178,0,0,1,5.352,16.425,26.9,26.9,0,0,1-3.393,13.425,44.8,44.8,0,0,1-5.016,7.322c-1.218,1.341-2.365,2.749-3.681,4-2.094,2.021-4.115,4.123-6.361,5.988q-5.5,4.9-11.231,9.547c-1.84,1.6-3.747,3.122-5.606,4.7-1.256,1.171-2.667,2.169-3.917,3.347a5.954,5.954,0,0,1-3.944,1.69,5.541,5.541,0,0,1-2.514-.39,12.117,12.117,0,0,1-2.8-2c-1.974-1.6-3.838-3.328-5.834-4.9-1-.9-2.053-1.724-3.09-2.575-1.244-1.133-2.607-2.13-3.857-3.255-1.1-.884-2.194-1.776-3.228-2.734C78.6,88.758,76.708,87,74.781,85.293c-1.16-1.011-2.231-2.116-3.338-3.182a70.979,70.979,0,0,1-5.616-6.134,35.707,35.707,0,0,1-6.533-11.863A24.61,24.61,0,0,1,58.187,56.5a26.487,26.487,0,0,1,4.342-15.249,23.754,23.754,0,0,1,4.184-4.8A22.926,22.926,0,0,1,75.628,31.5m-6.357,4.868a24.39,24.39,0,0,0-2.921,2.617,14.881,14.881,0,0,0-1.8,2.119A23.575,23.575,0,0,0,60.8,48.675a26.878,26.878,0,0,0-.463,13.343A30.186,30.186,0,0,0,64.4,71.347a28.218,28.218,0,0,0,2.055,2.833c-.463-1.046-1.015-2.053-1.432-3.117a27.805,27.805,0,0,1-1.643-7.236c-.021-1.056-.015-2.113,0-3.171a25.669,25.669,0,0,1,2.006-8.249,21.2,21.2,0,0,1,19.2-12.89,19.838,19.838,0,0,1,13.368,4.641,4.709,4.709,0,0,0,1.078.739c.533-1.1,1.238-2.1,1.815-3.17a6.469,6.469,0,0,0-1.125-1.587,27.728,27.728,0,0,0-4.264-4,20.681,20.681,0,0,0-12.49-4.109,22.016,22.016,0,0,0-13.7,4.335m36.54,1.423a37.561,37.561,0,0,0-2.679,2.826,6.117,6.117,0,0,0-.729,1.116c.593,1.062,1.316,2.053,1.834,3.155a2.835,2.835,0,0,0,.908-.575,19.763,19.763,0,0,1,13.073-4.79,21.958,21.958,0,0,1,8.514,1.673,20.291,20.291,0,0,1,6.044,3.965,19.46,19.46,0,0,1,2.617,2.9,24.416,24.416,0,0,1,2.278,24.327,5.855,5.855,0,0,0-.294.871,3.7,3.7,0,0,0,1.035-1.174,33.859,33.859,0,0,0,3.786-7.456,26.586,26.586,0,0,0,1.265-10.773,26.085,26.085,0,0,0-2.128-8.269,23.591,23.591,0,0,0-3.584-5.707,22.361,22.361,0,0,0-15.129-7.807c-1.319-.056-2.641-.05-3.961-.011a21.57,21.57,0,0,0-12.851,5.733m-30.128,5.4A19.7,19.7,0,0,0,69.668,48.1a22.634,22.634,0,0,0-4.754,16.445,23.85,23.85,0,0,0,3.437,9.96A25.9,25.9,0,0,0,70.461,77.6c-.42-1.053-.94-2.066-1.306-3.139a21.8,21.8,0,0,1-1.08-4.893c-.062-1.435-.06-2.874,0-4.307a21.96,21.96,0,0,1,1.746-6.645A20.034,20.034,0,0,1,73.14,53.5a18.767,18.767,0,0,1,8.228-5.209,18.251,18.251,0,0,1,13.05.733c.776.339,1.486.8,2.252,1.159.445-1.076.849-2.169,1.354-3.221.1-.268.33-.653.021-.871A19.024,19.024,0,0,0,86.5,40.932c-1.033-.02-2.068-.024-3.1.009a19.79,19.79,0,0,0-7.72,2.244m39.744-2.1a19.15,19.15,0,0,0-10.415,5.226c.545,1.283,1.08,2.568,1.573,3.869.845-.362,1.6-.887,2.456-1.234a18.626,18.626,0,0,1,15.629.433,18.972,18.972,0,0,1,6.746,5.707,20.367,20.367,0,0,1,3.82,11.15,17.853,17.853,0,0,1-.078,3.746,25.188,25.188,0,0,1-.864,4.01,34.283,34.283,0,0,1-1.5,3.608,26.6,26.6,0,0,0,3.293-5.193,21.747,21.747,0,0,0,2.348-10.016,22,22,0,0,0-4.325-13.665,20.841,20.841,0,0,0-6.038-5.288,19.859,19.859,0,0,0-8.37-2.5,24.4,24.4,0,0,0-4.271.148m-14.88,4.655a45.542,45.542,0,0,0-3.3,10.576,20.728,20.728,0,0,0-.222,4.881,9.872,9.872,0,0,0,.692,2.975c.235-1.446.035-2.914.166-4.366a4.885,4.885,0,0,1,1.8-3.622,3.978,3.978,0,0,1,2.811-.466,3.5,3.5,0,0,1,2.559,2.49c.686,1.967.325,4.061.489,6.09a11.39,11.39,0,0,0,.761-3.766,13.866,13.866,0,0,0-.1-2.908A35.653,35.653,0,0,0,104.408,50c-.46-1.28-.924-2.561-1.47-3.81a18.5,18.5,0,0,0-1.313-2.775c-.424.745-.728,1.544-1.077,2.323M84.5,48.893a17.31,17.31,0,0,0-10.128,5.243,18.765,18.765,0,0,0-5.03,12.112,7.458,7.458,0,0,0-.013,2.336,19.328,19.328,0,0,0,1.04,5.384,24.77,24.77,0,0,0,3.735,6.8,27.834,27.834,0,0,1-1.363-3.575,19.339,19.339,0,0,1-.034-10.28,16.813,16.813,0,0,1,6.2-9.219,16.134,16.134,0,0,1,8.73-3.181,8.864,8.864,0,0,1,2.41.006,13.958,13.958,0,0,1,3.039.514c.657.186,1.282.473,1.956.6.279-1.422.85-2.772,1.1-4.195a16.539,16.539,0,0,0-7.593-2.643,15.66,15.66,0,0,0-4.054.1m22.583,2.64c.426,1.366.8,2.746,1.232,4.11a17.064,17.064,0,0,1,2.943-.889,16.5,16.5,0,0,1,15.107,4.693,17.151,17.151,0,0,1,4.243,7.575,19.928,19.928,0,0,1-.065,10.2,26.554,26.554,0,0,1-1.407,3.541,12.651,12.651,0,0,0,1.263-1.7,26.572,26.572,0,0,0,2.14-4.149,20.081,20.081,0,0,0-1.223-17.6,18.831,18.831,0,0,0-4.478-5.064,17.6,17.6,0,0,0-8.621-3.419,16.011,16.011,0,0,0-11.134,2.7M81.262,57.556a15.809,15.809,0,0,0-6.96,8.236,18.169,18.169,0,0,0-1,8.2,19.6,19.6,0,0,0,3.948,9.474c-.311-.925-.752-1.808-1-2.754a22.009,22.009,0,0,1-.514-2.4c-.094-1-.048-2.007-.059-3.011a15.187,15.187,0,0,1,1.745-6.885,15.905,15.905,0,0,1,3.209-4.155,14.159,14.159,0,0,1,7.916-3.528,16.848,16.848,0,0,1,5.621.407c.062-.587.16-1.168.2-1.756.054-.867.32-1.71.3-2.581a16.722,16.722,0,0,0-5.23-1.207,15.322,15.322,0,0,0-8.176,1.961m27.314-.706c.118,1.436.433,2.852.516,4.294a14.789,14.789,0,0,1,9.917.752,14.451,14.451,0,0,1,5.859,4.882,16.58,16.58,0,0,1,2.089,14.193c-.261.852-.646,1.661-.941,2.5a18.551,18.551,0,0,0,4.038-11.332,16.512,16.512,0,0,0-5.13-12.428,15.035,15.035,0,0,0-16.345-2.863M80.9,65.527a13.464,13.464,0,0,0-3.587,6.031,15.18,15.18,0,0,0,.107,9.314,21.469,21.469,0,0,0,2.773,5.3,24.232,24.232,0,0,1-1.112-3.394A14.368,14.368,0,0,1,82,70.478a12.783,12.783,0,0,1,12.472-4.14,36.436,36.436,0,0,1-.27-4.06c-1.733-.736-3.663-.578-5.5-.531a12.874,12.874,0,0,0-7.8,3.78m28.186-3.278a22.985,22.985,0,0,1-.142,2.773c-.062.4-.084.8-.11,1.2a17.714,17.714,0,0,1,4.826-.036A12.709,12.709,0,0,1,123.8,74.948a15.843,15.843,0,0,1,.624,6.52,16.427,16.427,0,0,1-1.328,4.594,16.635,16.635,0,0,0,3.462-8.592,13.947,13.947,0,0,0-.21-4.291,14.291,14.291,0,0,0-3-6.625,14.911,14.911,0,0,0-3.509-3.034,12.768,12.768,0,0,0-6.91-1.812,10,10,0,0,0-3.848.541m-18.5,4.763A11.228,11.228,0,0,0,83.9,69.9,13.234,13.234,0,0,0,80.057,82.9a16,16,0,0,0,2.7,5.479,13.476,13.476,0,0,1-1.191-4.763c0-.769-.016-1.538.021-2.3a11.858,11.858,0,0,1,4.791-8.443,11.228,11.228,0,0,1,7.834-2.013c.6.09,1.2.227,1.809.267-.361-1.151-.877-2.251-1.165-3.423-.046-.4-.524-.436-.84-.525a10.115,10.115,0,0,0-3.425-.168m18.886.126c-.42.093-1.044.143-1.1.671-.294,1.13-.727,2.216-1.121,3.315a30.033,30.033,0,0,1,3.183-.337,11.233,11.233,0,0,1,7.718,3.137,11.69,11.69,0,0,1,3.509,7.255c.054.958.037,1.918.019,2.876a15.248,15.248,0,0,1-1.112,4.291,15.457,15.457,0,0,0,2.839-6.334,13.713,13.713,0,0,0-1.165-8.334,11.7,11.7,0,0,0-6.412-5.955,14.429,14.429,0,0,0-3.936-.8,13.873,13.873,0,0,0-2.423.215m-2.519,5.054c-.351.136-.461.526-.617.828a15.207,15.207,0,0,0-.988,2.723,15.217,15.217,0,0,1,3.02-.684,21.523,21.523,0,0,1,2.337.034,9.73,9.73,0,0,1,7,4.572,11.407,11.407,0,0,1,1.607,6.253,13.649,13.649,0,0,1-1.044,4.449,12.078,12.078,0,0,0-.774-15.943,9.885,9.885,0,0,0-7.065-2.795,8.432,8.432,0,0,0-3.479.562m-18.905.6a10.271,10.271,0,0,0-4.507,4.651,12.344,12.344,0,0,0-1.237,5.609,12.9,12.9,0,0,0,2.67,7.309c-.228-.759-.526-1.5-.72-2.265a10.975,10.975,0,0,1,.4-6.553,9.679,9.679,0,0,1,4-5.007,9.33,9.33,0,0,1,5.619-1.491,11.4,11.4,0,0,1,3.628.7,13.528,13.528,0,0,0-.986-2.766c-.159-.331-.317-.74-.727-.829a10.392,10.392,0,0,0-8.144.644m3.615,3.193A8.822,8.822,0,0,0,86.528,79.5a10.651,10.651,0,0,0,.5,12.738,20.367,20.367,0,0,1-.74-2.437A9.569,9.569,0,0,1,88.909,81.1a8.657,8.657,0,0,1,6.258-2.4,11.936,11.936,0,0,1,3.3.763,6.437,6.437,0,0,0-.3-2.655,8.491,8.491,0,0,0-6.5-.819m13.484.757a7.021,7.021,0,0,0-.354,2.69,9.843,9.843,0,0,1,4.452-.681,8.582,8.582,0,0,1,5.944,3.228,9.919,9.919,0,0,1,1.842,7.593,23.027,23.027,0,0,1-.711,2.542,9.513,9.513,0,0,0,1.464-2.5,10.622,10.622,0,0,0-1.1-10.243A9.194,9.194,0,0,0,111.24,75.9a8.763,8.763,0,0,0-6.091.848m-.258,3.406a11.12,11.12,0,0,0,1.19,3.264,21.748,21.748,0,0,1,1.717,4.45,11.7,11.7,0,0,1-.256,5.727c-.938,3.377-2.31,6.614-3.4,9.943.928-.69,1.758-1.5,2.676-2.2.827-.627,1.561-1.359,2.379-2,.922-.717,1.717-1.571,2.573-2.358a17.913,17.913,0,0,0,3.826-4.863,10.193,10.193,0,0,0,1.059-4.189,9.792,9.792,0,0,0-1.523-5.017,7.949,7.949,0,0,0-5.088-3.472,7.151,7.151,0,0,0-5.155.714m-14.946.808a8.706,8.706,0,0,0-3.184,5.617,9.5,9.5,0,0,0,.577,4.787,18.3,18.3,0,0,0,4.74,6.172c1.135,1,2.215,2.064,3.419,2.988,1.234.967,2.351,2.066,3.607,3.006C97.931,99.69,96.2,96.014,95.4,92.07a10.7,10.7,0,0,1,.516-5.657c.48-1.406,1.2-2.714,1.773-4.084a5.407,5.407,0,0,0,.632-2.3,10.741,10.741,0,0,0-3.17-.776A8.269,8.269,0,0,0,89.946,80.956Z" transform="translate(-58.175 -30.461)" fill="#3ec6b9"/>
    </g>
  </g>
</svg>
